<svg xmlns="http://www.w3.org/2000/svg" viewBox="0 0 400 400"><defs><style>.cls-1{fill:#66d0fc;}.cls-2{fill:#724644;}.cls-3{fill:#6a7484;}.cls-4{fill:#059cdb;}.cls-5{fill:#effaff;}.cls-6{fill:#e3a785;}.cls-7{fill:#4c2b28;}.cls-13,.cls-8,.cls-9{fill:#6b3434;}.cls-8{stroke:#6b3434;stroke-linecap:round;stroke-linejoin:round;}.cls-10,.cls-8,.cls-9{opacity:0.5;}.cls-10,.cls-14{fill:#2f333b;}.cls-11{fill:#7f4f4f;}.cls-12{fill:#3e2420;}.cls-15{fill:#2b1816;}</style></defs><title>congrats_med</title><g id="circle"><circle class="cls-1" cx="204.94" cy="228.38" r="114.95"/></g><g id="color"><path class="cls-2" d="M268.45,178.59s4.34,40.12-8.16,64.29c0,0-6.6-1.55-8.28-.56s-5.56,2.44-13.23,2.61l-6.56.15-3.66-11.31-1.36-12.25-7.54-2.41-1.36-.84-29-1.15-8,13.71-5.76,13.3-6.47,3.12c-20,2.5-21.12-5.66-21.12-5.66-14.28-33.5-8.14-63.34-8.14-63.34l2.76-13,11.93-43.55,16.23-5.65,75.37.52,11.31,4.82Z"/><path class="cls-3" d="M163.2,255.49l-.3-2.53a4.94,4.94,0,0,0-2.67-3.35,50.47,50.47,0,0,1-5.89-3.16l-12.11-6.13-28.44-15a11.14,11.14,0,0,1-2.73-3.14c-1.64-2.46-23-37.39-23-37.39l14.36-8.8,1.62-.54,1.42,1.13.47.82,17.58,26.91,4.53,6.34,1.1.87,13.42,7.15L155,224l22.15,9.1-.45-.4.13-2.43s.5-7.08.75-7.58,2-3.08,2-3.08l2.5-2.08,2.5-1.17,3-1.12,1.77-.37,2.29-.5.65,4.73-.83.36-.42.25-1.55,1.84s-.8,2.94-.75,3,1.16,2.84,1.16,2.84l2.83,2.66,3.16,2.06c.11.06,5.25,2.37,5.25,2.37l4,.36,2.86.44,3.94.08,3.62-.84,3-1.36,2.86-2.75a14.07,14.07,0,0,1,.39-2,18.8,18.8,0,0,0-.78-2.87l-2.37-2.84-.78-.58-.7-.34.69-7.75,1.73.55,2.34.69,3.64,1.89,3.92,2.87,1.58,2,.94,3.47.19,2.75-.28,1.91.22,1.56-.08.85.31-.16L264,219.21l12.67-6.5,3.6-2.69,6.35-9.23L301,179l2.32-4,14.47,8.94-19.87,36s-.56,1.06-1.78,3-4.41,3.5-4.41,3.5l-9.66,5.28-11.12,5.78-21,10.81a21.09,21.09,0,0,0-2.87,1.51c-.92.66-1.58,4.53-1.58,4.53l-.14,1.92-.08,1.31"/><path class="cls-3" d="M163.21,255.3l.13,2.8L160.72,265s-2.92,7.92-3.17,8.25-2.58,10.5-2.58,10.5l-1.25,5.42-1.17,6.17L151.47,301s-.83,8.25-1.08,8.83-.75,6.17-.75,6.17l-.75,11.92H149l0,.87a115.12,115.12,0,0,0,111,.09l-.12-.84V323.9l-.79-8.71-2.92-20.92-1.46-7.33-3.12-12.21-2.62-7.79L246,259.07l-.68-1.44"/><path class="cls-4" d="M230.2,285.92l-1.31,5-4.19,4.12L219,291.69l-1.21-2.23-.12-3.29L206,279.84l-11.83,6.42-.25,4.87-12.71-1.92.08-10,14.44-8.37h0c2.81.87,2.56,6.19,2.56,6.19h0c2.17-.9,3.94,1.31,3.94,1.31h0a9,9,0,0,1,5.35-4.21c5.5-.5,6.52,5.08,6.52,5.08h0a6.6,6.6,0,0,1,6,2.06h0a3,3,0,0,1,3.56-.69h0c-.42-2,2-4.25,2-4.25l4.62,3-.12,6.54"/><path class="cls-1" d="M229.91,304.46l.37-19.62-1-.17s-1,.17-1.12.17a13.22,13.22,0,0,0-1.33.67l-1.21,1.5-.46,1.12-.58,1.62-.25,1.08-1.29.42-.62.54-.42.87-.67-1.71-1-1-1.21-.71-1.08-.25-.46,0,.29,12.46L211.12,305l-.46,1.21,4.46,7.17s4.42-1.75,4.62-1.79,9.33-4.92,9.42-5S229.91,304.46,229.91,304.46Z"/><path class="cls-1" d="M193.89,301.54l.22-12.34-.41-.75-1.12-1.5-1.16-1.19-1.69-1.28-1.16-.53-1.37-.47h-1.28l-1.37.28-1.25.56-1,.72-1.06,1v20.53s6.91,3.94,7,3.94,7.81-.84,7.81-.84-.66-5.87-.69-6S193.89,301.54,193.89,301.54Z"/><polyline class="cls-5" points="229.83 308.63 229.91 303.46 228.33 303.3 226.71 303.8 225.46 304.76 224.46 306.13 223.83 307.21 223.71 307.76 222.79 307.46 220.96 307.3 219.04 307.3 217.08 307.71 215.54 308.3 215 308.67 214.41 307.71 213.16 306.46 212.16 305.59 211.12 305.01 209.91 304.76 208.96 304.8 208.71 304.88 208.08 303.92 207 302.67 206.04 301.8 204.37 300.92 203.29 300.71 203.16 300.17 202.25 299.26 201.54 298.67 200.62 298.13 199 298.01 197.37 298.17 196.08 298.71 195.12 299.42 194.29 300.46 193.71 301.46 193 303.09 192.54 304.63 192.5 305.26 191.87 305.26 190.66 306.05 189.91 306.96 189.21 308.13 189.12 308.59 188.62 306.88 187.91 305.46 186.71 304.42 185.41 303.67 183.79 303.42 182.83 303.34 181.75 303.38 181.29 303.38 181.33 308.01 205.83 323.13 229.83 308.63"/><path class="cls-6" d="M247.09,123.85l-.8-5.6-5.5-21.67-18.5-4.83-29.67-2.17-24.5,6.5s-9.17,12.83-10.17,14S157.7,126,157.7,126s2.81,59.33,30.77,77.6l3.35,16.06v0l-.69.19-1.67,1.89-.75,3,1.23,3,2.87,2.66h.08l2.67,2,5.53,2.31,8.59.87,4.37-.44,3.37-1.25,2.31-1.56,1.69-1.7.39-2-.73-2.8-2.42-2.92-.78-.58a66.08,66.08,0,0,1,2.81-17.11C249.93,189.13,247.09,123.85,247.09,123.85Z"/><path class="cls-2" d="M171.2,108.26a18.34,18.34,0,0,0,12.37,1.12s4.87-10.62,16.75-10.62c0,0-8.25,7.87-6.62,11.62,0,0,32.25-10.75,57.25,17.37l6.37-1.25-6.5-21.12L227.2,89.88l-29.12-5-15.37,3.5-12.62,14.75Z"/><path class="cls-7" d="M260.12,105.23c3.12,3.25,6.9,27.85,10,40.59,2.67,11.11,23.91,28.66,27,31.16,1.64,1.31,2.71,2.72,2.57,4-.06.51-1.15,1.58-1.61,2.13-.77.92-2.43,6.46-6,9.14-1.86,1.41-3.72,2.23-5.08,1.61-18.88-8.66-30.9-29.41-31.89-47.09s-9.42-34-9.42-34l-2.89-5.34L224,94c-26.8-12-39.25,1-39.25,1l-15.62,8.87-5.75,7.94s-8.94,17.32-9.93,35-13,38.44-31.89,47.09c-4,1.82-7.73-5-7.73-5l-5-7.47a7.47,7.47,0,0,1,2.62-6.37c3.12-2.5,25.37-17.37,28.37-29.25s5.85-37.54,9-40.79l.13-.17,15.18-23.46,16.54-8.62s15.38-16,48.5-1.26l8.33,4.64,22.67,29.1"/><path class="cls-3" d="M219.62,83.59c-15.76-10.27-30.08,0-30.08,0l-1.87,1.33-1.29-6.5s17.5-10.5,35.5.42l1.46.87L221,84.46Z"/><path class="cls-3" d="M181,72.69l6.31,6.91c4.34,5.1.13,15.81-9.4,23.92s-20.78,10.56-25.12,5.46l-5.23-5.24-.9-.89c-4.34-5.1-.13-15.81,9.4-23.92s20.78-10.56,25.12-5.46Z"/><path class="cls-3" d="M262.2,102.87c4.34-5.1-1.21-13.67-10-22.86S232,68.38,227.68,73.48l.4-.72-6.31,6.91c-4.34,5.1,1.68,18.63,12.12,26.28,8.87,6.5,18.05,8.21,22.4,3.11Z"/><ellipse class="cls-1" cx="163.94" cy="88.17" rx="22.66" ry="12.12" transform="translate(-18.04 127.32) rotate(-40.41)"/><path class="cls-1" d="M262.2,102.87c-4.34,5.1-15.59,1.65-25.12-6.46s-13.74-17.83-9.4-22.92S243.56,71,252.2,80,266.54,97.77,262.2,102.87Z"/><path class="cls-5" d="M193.49,155l-.32-1.72s-1.67-6.08-3-7.42-1.5-3.79-9.92-4.92c0,0-3.21-.62-8.79,2.37l-1.42.5.17,1.62s1.5,6.79,4.17,9,7.33,3.08,7.33,3.08S186.49,158.06,193.49,155Z"/><path class="cls-5" d="M214.86,153.79l.3-1.59s1.68-6.05,3-7.38,1.52-3.77,10-4.89c0,0,3.24-.62,8.89,2.36l2,.6-.71,1.52s-1.84,5.91-4.54,8.15a30.07,30.07,0,0,1-7.08,3.91S221.94,156.85,214.86,153.79Z"/></g><g id="shadow"><path class="cls-8" d="M191.64,217.31s16.73,14.1,25.73,2.1l.67-1s1.58-9.42,1.67-10.17.42-2.83.42-2.83L215,207.59l-10.83,1.17-8.58-1.58-5.75-2.92-1.15-.54,1.06,3.46,1.42,8.5Z"/><path class="cls-9" d="M191.61,219.28s1.06,9.78,1,10.41-.69,0-.69,0l-2-2.12S189,225,189,224.88s.06-2,.09-2.28a10.61,10.61,0,0,1,.72-1.62Z"/><path class="cls-10" d="M246.67,250.25c-.82,1.22-1.38,7.75-1.38,7.75a57.77,57.77,0,0,1-6.5,5.85,31.9,31.9,0,0,1-6,3.73c-4.1,1.86-7.92,4.67-30.42-2C180.16,259,177.12,240,177.12,240s2.08,2.83,2.29,3.08,8.29,7.62,8.29,7.62l7.92,3.83,5.87,1.71,5.25.54,8.37-.37,5.42-1.83,5-3.54,1.83-2,1.79-2.46,1.92-4.17.92-3.92.33-3.08,0-2.48v-.46l7.32-3.08S258.66,225.85,270,238L249.78,248.6Z"/><path class="cls-10" d="M241.87,100.09s3.5,8.67,0,10.33c0,0,2.46,1,2.71,1.08s5.25.31,5.25.31l4-.69a42.55,42.55,0,0,1,3.31-2.81,33.16,33.16,0,0,0,2.94-3.37l.31-.47-2,.53-2.19.25A12.73,12.73,0,0,1,253,105C252.08,104.63,241.87,100.09,241.87,100.09Z"/><path class="cls-10" d="M157.29,105.25s7.92,2.08,9.33,4.92l2.83-1,3.46-1.83,3.87-2.67,5-4.92s4.87-7.12,5.17-7.46,1.37-3.71,1.67-4.29-.17-4.08-.08-4.37a21,21,0,0,0-.62-3.83,27.18,27.18,0,0,0-2.25-2.21l-2.37-2.08-1.33-1,.62,1.87a11.58,11.58,0,0,1,.29,3.46c-.25,1-1.21,7.58-4.83,10.79s-6.5,8.17-11.83,10.92A52.51,52.51,0,0,1,157.29,105.25Z"/><path class="cls-10" d="M223.93,238.63s5.71,1.85,8.12-.65l.25-4.33-.23-2.44-.35-.67-1.12,2.19-1.42,1.81L227,236.4l-2.29,1.69Z"/><path class="cls-9" d="M196.58,174.65c-.1.85,1.24,2.31,2.83,3.47a11.92,11.92,0,0,0,8.21,2.33c10.21-.49,6.3-8.94,5.79-9.08a3.15,3.15,0,0,0-1.87.5,32.77,32.77,0,0,1-2.9,1.56,7,7,0,0,1-5.62.14s-3-.94-4.4-.6A2.76,2.76,0,0,0,196.58,174.65Z"/><path class="cls-9" d="M244.08,121.17s.22,9.11-.25,17.83c-.49,9.19-8.61,39.89-16.86,52.58-6.85,10.53-14.37,14.42-24.67,17.22l10.3-.05,7.91-3.39,5.27-3.64,5.92-6.49,5.65-9.9,4.53-12.82L246.1,149l1.06-19.91-.07-5.28-2.25-2.12Z"/><path class="cls-9" d="M221.79,228.21l-.5-2.26-1.67-2.1-.93-.92-.78-.58-.22,1.36-.12,1.57-.08,1.48s5.28,1.87,2.38,5.92l.16.26Z"/><path class="cls-10" d="M221.72,230s7.51.77,6.84,5l1.86-2.25,1.67-3.3.32-4.29-1.4-3.25-3.35-3.37-3.38-2L222,215.49l-3.16-.94-.64,3.89-.27,3.91,1.21.9,1.17,1.37,1.23,1.79.38,2Z"/><line class="cls-6" x1="189.4" y1="221.92" x2="190.14" y2="221.03"/><path class="cls-10" d="M189.4,222.07s-1.05-4.31-8-3.73c0-.18,1.56-.94,1.56-.94l2.9-1.28,2.56-.81,2.55-.61.42,2.09.48,2.83-.52.15-.93.8Z"/><path class="cls-11" d="M242.42,111a17.73,17.73,0,0,1,2.12,10.37l-2.28-1.87-9.09-5.54-7.79-3.06-6.13-1.53-7-.87-6.78,0-6.21.67-5.42,1-.14-2.18,2.63-4.71,3.46-4v-1l-6.26,1.71-4.6,2.73-2.83,2.79-2.53,3.8-4.16.61-3.88-.34-3.67-1.1-.67-.3,4.44-2.92,6.14-5.63,5.1-6.61,3.53-2,6.91-1.75,7-.59,12.75,2.51,4.31,1.52,1.47.28,1.81,3.12,4.82,6,5.46,4.57,6.55,3.62Z"/><path class="cls-10" d="M104.47,211.83c.11.18,17,1.48,20.28-6.16l-8.68-12.86-10.81-16.92L102.61,180,97,184s-5.38,2.31-8.42,1.56Z"/><path class="cls-10" d="M313.53,184.13s-21.8,31.33-18.7,40.58c0,0,1.74-2.39,2-3s20.94-37.6,20.94-37.6Z"/></g><g id="line"><path class="cls-12" d="M139.86,178.26c.15,3.3.23,6.54.29,9.77l.19,9.67.17,9.67c0,3.24.13,6.48,0,9.79a52.55,52.55,0,0,1-2.3-9.59,73.73,73.73,0,0,1-.36-19.66A46.31,46.31,0,0,1,139.86,178.26Z"/><path class="cls-12" d="M268.45,178.59a53.45,53.45,0,0,1,1.72,9.52,79.6,79.6,0,0,1,.41,9.63,75.24,75.24,0,0,1-.72,9.62,52.54,52.54,0,0,1-2.08,9.45c-.24-3.25-.23-6.42-.26-9.6s0-6.34.05-9.51.12-6.33.25-9.51S268.12,181.82,268.45,178.59Z"/><path class="cls-13" d="M199.7,174.76a1.71,1.71,0,0,1,1.22-.6,2.1,2.1,0,0,1,1.22.31,1.93,1.93,0,0,1,.89,2.29,7.33,7.33,0,0,1-1.18-.25,3.38,3.38,0,0,1-.74-.32,3.58,3.58,0,0,1-.63-.51A11.63,11.63,0,0,1,199.7,174.76Z"/><path class="cls-13" d="M207.7,176.59a2.13,2.13,0,0,1,.41-1.3,2.44,2.44,0,0,1,.94-.77,2.36,2.36,0,0,1,1.23-.21,1.88,1.88,0,0,1,1.25.63,7.42,7.42,0,0,1-.86.9,3.22,3.22,0,0,1-1.69.77A4.61,4.61,0,0,1,207.7,176.59Z"/><path class="cls-13" d="M211.45,169.67a3.25,3.25,0,0,1,1.89.89,4.09,4.09,0,0,1,1.12,1.8,3.46,3.46,0,0,1-1.18,3.89c-.18-.73-.22-1.3-.36-1.84a12.93,12.93,0,0,0-.37-1.47C212.28,172,211.88,171,211.45,169.67Z"/><path class="cls-13" d="M197.7,170.84c.09.64.12,1.12.15,1.58s0,.86,0,1.27,0,.8-.06,1.25a15.6,15.6,0,0,1-.19,1.58,2.92,2.92,0,0,1-1.75-2.87,3.34,3.34,0,0,1,.48-1.67A2.56,2.56,0,0,1,197.7,170.84Z"/><path class="cls-13" d="M222.26,183.28a2.13,2.13,0,0,1,1.32-.35,2.45,2.45,0,0,1,1.16.38,2.37,2.37,0,0,1,.84.92,1.88,1.88,0,0,1,.14,1.39,7.41,7.41,0,0,1-1.22-.24,3.21,3.21,0,0,1-1.56-1A4.59,4.59,0,0,1,222.26,183.28Z"/><path class="cls-13" d="M189.51,183.28a4.59,4.59,0,0,1-.68,1.08,3.35,3.35,0,0,1-.72.63,3.31,3.31,0,0,1-.84.38,7.41,7.41,0,0,1-1.22.24,1.88,1.88,0,0,1,.14-1.39,2.37,2.37,0,0,1,.84-.92,2.45,2.45,0,0,1,1.16-.38A2.13,2.13,0,0,1,189.51,183.28Z"/><path class="cls-13" d="M188.69,184.55a67.56,67.56,0,0,0,8.51,4.13,24.38,24.38,0,0,0,8.8,1.57,26.86,26.86,0,0,0,8.81-1.76,72.69,72.69,0,0,0,8.58-4,26,26,0,0,1-7.63,6.15,21.06,21.06,0,0,1-9.72,2.63,19.92,19.92,0,0,1-9.8-2.45A25.49,25.49,0,0,1,188.69,184.55Z"/><path class="cls-13" d="M189.63,123.43c-2.36-.16-4.42-.31-6.42-.35a39.33,39.33,0,0,0-5.73.24,35.21,35.21,0,0,0-5.59,1.05c-1,.18-1.91.57-3,.82s-2,.69-3.24.93a12.51,12.51,0,0,1,.84-1.54,8.43,8.43,0,0,1,1-1.43,13.44,13.44,0,0,1,2.65-2.34,14.43,14.43,0,0,1,6.73-2.46,15,15,0,0,1,7.09.9A12,12,0,0,1,189.63,123.43Z"/><path class="cls-13" d="M218.11,123.34a12.66,12.66,0,0,1,5.73-3.82,16.54,16.54,0,0,1,6.9-.84,17.32,17.32,0,0,1,3.46.65,15.52,15.52,0,0,1,3.21,1.43,12.72,12.72,0,0,1,4.88,4.87c-2.37-.34-4.31-.91-6.29-1.2a51.77,51.77,0,0,0-5.7-.77c-1.89-.17-3.8-.27-5.8-.28Z"/><path class="cls-13" d="M193.58,155.2a27.5,27.5,0,0,1-7.28,2.8,17.05,17.05,0,0,1-8.07,0,12.6,12.6,0,0,1-3.93-1.73,9.74,9.74,0,0,1-2.92-3.19,12.73,12.73,0,0,1-1.4-8,.16.16,0,0,1,.3,0,42.66,42.66,0,0,0,3.63,6.4,21.71,21.71,0,0,0,2.22,2.46,8.63,8.63,0,0,0,2.84,1.79,16.51,16.51,0,0,0,7.12.8,29.74,29.74,0,0,0,7.38-1.59h0a.15.15,0,0,1,.12.27Z"/><path class="cls-13" d="M193,153a23.81,23.81,0,0,0-2.73-5.85,18,18,0,0,0-4.14-4.62,21.17,21.17,0,0,0-5.35-2.52l-1.44-.52a12.22,12.22,0,0,1-1.66-.65,6.52,6.52,0,0,1-2.79-2.27.15.15,0,0,1,0-.21.15.15,0,0,1,.12,0h0a17.61,17.61,0,0,0,3.16.45c.52,0,1,.07,1.55.07s1.17.15,1.76.23a7.35,7.35,0,0,1,1.74.51c.28.11.56.23.84.35s.52.32.78.48a11.22,11.22,0,0,1,1.46,1.07,12.87,12.87,0,0,1,1.33,1.2,17.76,17.76,0,0,1,3.88,5.73,22,22,0,0,1,1.7,6.5.15.15,0,0,1-.29.06Z"/><path class="cls-13" d="M190.08,145.76a15.36,15.36,0,0,0-4.84-3.48,14,14,0,0,0-5.56-1.3c-.47,0-.94,0-1.41.09l-1.39.25c-.53.1-1.06.18-1.59.24a15.49,15.49,0,0,1-1.64,0,9.92,9.92,0,0,1-3.34-.74,4.46,4.46,0,0,1-1.56-1.06,1.76,1.76,0,0,1-.45-1.87.15.15,0,0,1,.27,0l0,.06a1.31,1.31,0,0,0,1,.7,5.08,5.08,0,0,0,1.26.12c.9,0,1.83-.1,2.78-.21s1.92-.19,2.92-.2l1.69,0,1.67.18A14.4,14.4,0,0,1,186,141a14.9,14.9,0,0,1,4.34,4.61.15.15,0,0,1-.24.18Z"/><path class="cls-13" d="M188,143.6a15.23,15.23,0,0,0-5.65-1.74,13.91,13.91,0,0,0-5.63.53c-.44.17-.88.33-1.3.52l-1.22.67c-.47.26-.94.5-1.42.72a15.33,15.33,0,0,1-1.54.53,9.83,9.83,0,0,1-3.38.35,4.44,4.44,0,0,1-1.8-.51,1.75,1.75,0,0,1-1-1.62.15.15,0,0,1,.25-.08l0,0a1.29,1.29,0,0,0,1.13.35,5.09,5.09,0,0,0,1.23-.29c.84-.3,1.69-.68,2.55-1.07s1.75-.78,2.68-1.1l1.6-.49,1.63-.35a14.32,14.32,0,0,1,6.49.33,14.78,14.78,0,0,1,5.54,3,.15.15,0,0,1-.17.25Z"/><path class="cls-13" d="M216.28,154.21a19,19,0,0,0,7.14,1.46,12.28,12.28,0,0,0,6.62-1.78c1.95-1.21,3.22-3.12,4.62-4.93.72-.92,1.35-1.92,2-2.93.31-.52.66-1,1-1.56s.68-1.07,1.09-1.59h0a.16.16,0,0,1,.28.09,15.24,15.24,0,0,1-1.9,7.61,11.78,11.78,0,0,1-2.54,3.19,16.28,16.28,0,0,1-3.47,2.24,13.16,13.16,0,0,1-3.9,1.19,14.87,14.87,0,0,1-4,0,18.48,18.48,0,0,1-7.18-2.7.15.15,0,0,1,.14-.26Z"/><path class="cls-13" d="M214.81,153.32a19.86,19.86,0,0,1,1.65-6.8,16.5,16.5,0,0,1,4.3-5.83,13.18,13.18,0,0,1,3.13-2.1,10.44,10.44,0,0,1,3.65-.84,11.11,11.11,0,0,0,5.74-2.34h0a.15.15,0,0,1,.23.18,8.22,8.22,0,0,1-5.53,4.83c-1,.31-2,.7-2.9,1a14.89,14.89,0,0,0-2.79,1.27,15.09,15.09,0,0,0-4.45,4.53,21.49,21.49,0,0,0-2.74,6.08h0a.15.15,0,0,1-.29,0Z"/><path class="cls-13" d="M218,144.57a15.79,15.79,0,0,1,4.63-4,17.31,17.31,0,0,1,5.91-2.11l1.58-.21c.53-.06,1.06-.07,1.6-.11,1-.08,1.8-.08,2.68-.14a15.09,15.09,0,0,0,5.34-1.17h0a.16.16,0,0,1,.21.19,6.75,6.75,0,0,1-5.15,4,8.7,8.7,0,0,1-3.28,0c-.46-.06-.92-.14-1.38-.18s-.93,0-1.39,0a17.93,17.93,0,0,0-5.52,1.09,16.52,16.52,0,0,0-5,2.88h0a.15.15,0,0,1-.22-.21Z"/><path class="cls-13" d="M220.15,142.36a15.22,15.22,0,0,1,5.52-2.78,15.86,15.86,0,0,1,6.35-.4,23.56,23.56,0,0,1,5.92,1.6c.88.35,1.74.71,2.6,1a9,9,0,0,0,1.27.35A1.51,1.51,0,0,0,243,142l.08-.06a.14.14,0,0,1,.19,0,.13.13,0,0,1,0,.08c0,.75-.68,1.19-1.21,1.45a5.61,5.61,0,0,1-1.73.41,10.91,10.91,0,0,1-3.28-.25,12.15,12.15,0,0,1-2.94-1.08,12.43,12.43,0,0,0-2.57-1.05,16.25,16.25,0,0,0-11.23,1.08h0a.15.15,0,0,1-.16-.25Z"/><path class="cls-14" d="M186.29,78.29a12.91,12.91,0,0,1,3.87-2.91,14.93,14.93,0,0,1,4.53-1.54c.81-.07,1.62-.09,2.42-.1a20.33,20.33,0,0,0,2.39,0,43.62,43.62,0,0,0,4.69-.63,20.39,20.39,0,0,1,9.6.54,18.78,18.78,0,0,1,8.15,5.09.16.16,0,0,1-.14.26h0a21.78,21.78,0,0,1-2.32-.54c-.75-.2-1.45-.47-2.21-.62s-1.46-.37-2.17-.59-1.45-.31-2.16-.51c-1.41-.43-2.85-.72-4.29-1.12-.73-.14-1.47-.24-2.2-.41s-1.48-.33-2.24-.45a12,12,0,0,0-4.57-.05,15.09,15.09,0,0,0-2.2.69c-.71.32-1.41.64-2.11.9a13.32,13.32,0,0,1-2.14.7c-.71.23-1.45.39-2.18.59-1.48.35-2.94.74-4.56,1h0a.16.16,0,0,1-.14-.26Z"/><path class="cls-14" d="M189.45,83.47a7.5,7.5,0,0,1,1.41-1.61,10.81,10.81,0,0,1,1.68-1.25,11.17,11.17,0,0,1,3.84-1.55c.7-.08,1.41-.11,2.1-.13a14,14,0,0,0,2.07,0,29.86,29.86,0,0,0,4-.65,13.68,13.68,0,0,1,4.18-.32,15.71,15.71,0,0,1,4.14.78,14.93,14.93,0,0,1,6.8,4.78.16.16,0,0,1,0,.22.16.16,0,0,1-.12,0h0a37.64,37.64,0,0,1-3.91-1c-.63-.15-1.25-.32-1.85-.51s-1.23-.29-1.82-.47-1.18-.4-1.79-.54-1.21-.32-1.82-.5-1.24-.23-1.86-.4c-.31-.07-.62-.17-.94-.25l-1-.19a8.87,8.87,0,0,0-3.9,0,12.08,12.08,0,0,0-1.85.7c-.59.32-1.16.64-1.75.91a9.76,9.76,0,0,1-1.78.69c-.59.23-1.21.39-1.82.59a37.1,37.1,0,0,1-3.88,1h0a.16.16,0,0,1-.17-.25Z"/><path class="cls-14" d="M217.9,222.13a9.69,9.69,0,0,1,3,2,7.4,7.4,0,0,1,1.2,1.45,6.38,6.38,0,0,1,.84,1.8,5.82,5.82,0,0,1,.2,2.1,5.5,5.5,0,0,1-.21,1.06,3.9,3.9,0,0,1-.39,1,6.78,6.78,0,0,1-2.82,2.86,17.81,17.81,0,0,1-7,1.5c-2.3.18-4.59.29-6.93.28a23.17,23.17,0,0,1-7-1,20.25,20.25,0,0,1-6.49-3.13,13.41,13.41,0,0,1-2.67-2.63,8.53,8.53,0,0,1-1.66-3.57,5.56,5.56,0,0,1,.65-3.94,5.82,5.82,0,0,1,2.83-2.33.15.15,0,0,1,.17.25,6.7,6.7,0,0,0-1.6,2.71,4.27,4.27,0,0,0,.23,2.69,10.64,10.64,0,0,0,3.94,4.23,29.07,29.07,0,0,0,5.55,3,55.47,55.47,0,0,0,6.22,2.08,16.06,16.06,0,0,0,6.61.39,13.07,13.07,0,0,0,5.79-2.64c1.52-1.24,2.54-2.61,2.3-4.41s-1.5-3.68-2.92-5.46a.15.15,0,0,1,0-.22A.16.16,0,0,1,217.9,222.13Z"/><path class="cls-14" d="M190.79,214.76a32.58,32.58,0,0,0-7.51,3.23,13.62,13.62,0,0,0-3,2.45l-.56.73-.43.78a7.43,7.43,0,0,0-.52,1.72,25.88,25.88,0,0,0-.41,3.94c-.07,1.34-.09,2.69,0,4,.08,2.7.24,5.45.53,8.11l-.17-.54a33.41,33.41,0,0,0,2.66,3.71c.5.6,1,1.18,1.54,1.75s1.08,1.12,1.66,1.65,1.16,1,1.76,1.55l1.84,1.45,1.95,1.31c.65.43,1.36.77,2,1.18a17.08,17.08,0,0,0,2.1,1.06,20.52,20.52,0,0,0,2.17.94l2.23.81c.75.27,1.53.41,2.3.63a38.86,38.86,0,0,0,4.71.94,19.74,19.74,0,0,0,2.41.25l2.44.22c-1.61.16-3.25.41-4.9.42a33.69,33.69,0,0,1-4.95-.3A32.05,32.05,0,0,1,191,254a33.39,33.39,0,0,1-8.42-5.54c-.64-.55-1.22-1.17-1.83-1.75s-1.15-1.24-1.7-1.88a27.41,27.41,0,0,1-3-4.22,1.31,1.31,0,0,1-.17-.52h0a69.42,69.42,0,0,1-.33-8.44,35,35,0,0,1,1-8.5,9.53,9.53,0,0,1,.86-2.18l.68-1,.8-.83a13.75,13.75,0,0,1,3.69-2.39A25.24,25.24,0,0,1,190.79,214.76Z"/><path class="cls-14" d="M213.85,256.44c1.36-.79,2.68-1.41,3.95-2.09s2.5-1.34,3.81-1.91a15.34,15.34,0,0,0,3.89-2,8.82,8.82,0,0,0,2.53-3.53c.31-.66.5-1.37.74-2,.1-.35.23-.67.34-1l.3-1c.38-1.35.64-2.72.89-4.1.6-2.75,1-5.6,1.58-8.67a.16.16,0,0,1,.3,0,17.29,17.29,0,0,1,1.28,9.24,16,16,0,0,1-1.4,4.57,13.06,13.06,0,0,1-2.67,3.95c-1.09,1.15-2.19,2.21-3.23,3.33a31.52,31.52,0,0,1-3.26,3.42,11.61,11.61,0,0,1-4.29,2,10.74,10.74,0,0,1-4.72.2.16.16,0,0,1,0-.29Z"/><path class="cls-14" d="M219.12,214.67a20.24,20.24,0,0,1,8.92,2.68,13,13,0,0,1,3.78,3.21,9.44,9.44,0,0,1,2,4.91l0-.28a5.14,5.14,0,0,1,.12.72c0,.22,0,.42,0,.63a8,8,0,0,1-.06,1.21,10,10,0,0,1-.53,2.29,12.17,12.17,0,0,1-2.31,3.86,16.46,16.46,0,0,1-3.26,2.83c-.62.36-1.21.73-1.84,1s-1.28.57-1.93.81c.49-.51,1-1,1.47-1.46l1.39-1.47a21.67,21.67,0,0,0,2.34-3.12,12.54,12.54,0,0,0,1.49-3.34,9.61,9.61,0,0,0,.28-1.71,6.52,6.52,0,0,0,0-.83,4.6,4.6,0,0,0-.08-.68,2.08,2.08,0,0,1,0-.23v-.05a7.69,7.69,0,0,0-1.3-3.42,13.68,13.68,0,0,0-2.82-2.93,29.21,29.21,0,0,0-3.59-2.47C221.82,216.1,220.49,215.39,219.12,214.67Z"/><path class="cls-14" d="M149,328.5a30.17,30.17,0,0,1-.71-4.55c-.16-1.52-.21-3-.22-4.55a48.33,48.33,0,0,1,.72-9c.32-1.48.72-3,1.11-4.43s.82-2.93,1.09-4.41.54-3,.69-4.46c.09-.75.16-1.5.21-2.26s.13-1.51.19-2.26c.14-1.51.18-3,.4-4.54s.47-3,.73-4.49.61-3,.93-4.46a40.73,40.73,0,0,1,1.17-4.4c.47-1.44,1-2.88,1.5-4.3s1.18-2.81,1.82-4.19a37,37,0,0,1,2.09-4.06c.76-1.33,1.56-2.63,2.43-3.89a.2.2,0,0,1,.28-.05.21.21,0,0,1,.08.21c-1.06,6.05-2.7,11.72-4.12,17.49-.43,1.42-.8,2.85-1.23,4.27s-.89,2.83-1.3,4.27c-.77,2.87-1.73,5.7-2.66,8.57A38.69,38.69,0,0,0,153,297.3a34,34,0,0,0-.76,4.42,43.54,43.54,0,0,0-.18,4.5c0,1.51.06,3,0,4.51a37.85,37.85,0,0,1-.34,4.46c-.15,1.48-.37,3-.58,4.43a81.09,81.09,0,0,1-1.77,8.88.21.21,0,0,1-.25.15A.21.21,0,0,1,149,328.5Z"/><path class="cls-14" d="M259.87,328.76l-1.93-8.92c-.18-3-.49-6-.8-8.94q-1-8.92-2.72-17.74c-1.11-5.88-2.54-11.69-4.21-17.43l-1.3-4.29-1.46-4.23L247,265l-.5-2.21q-.49-2.22-.93-4.49,1.24,1.93,2.43,3.9c.4.66.79,1.32,1.17,2l1.07,2c.51,1.43,1,2.88,1.49,4.31l1.32,4.36c1.7,5.83,3.15,11.74,4.28,17.7s2.08,12,2.76,18l.46,4.53c.11,1.51.28,3,.38,4.53A81.46,81.46,0,0,1,259.87,328.76Z"/><path class="cls-14" d="M181.33,279.26l.47,14.5.23,7.15.17,7.1-.41-.74q6.21,3.64,12.39,7.34t12.35,7.4h-1.38l11.94-7.35,12-7.29-.72,1.25c.05-4.88.17-9.75.27-14.62s.17-9.75.32-14.62l.64,1.2-4.6-3,1.63-.12a6.28,6.28,0,0,0-.65.71,6.07,6.07,0,0,0-.55.82,2.89,2.89,0,0,0-.4,1.57v0a1.3,1.3,0,0,1-1.19,1.4,1.31,1.31,0,0,1-.67-.12,3.05,3.05,0,0,0-.62-.19,2.23,2.23,0,0,0-.6,0,1.05,1.05,0,0,0-.41.13,1.09,1.09,0,0,0-.31.3l-.13.15a1.25,1.25,0,0,1-1.77.11l-.07-.07a7.67,7.67,0,0,0-1.07-.89,7.18,7.18,0,0,0-1.22-.69,4.83,4.83,0,0,0-1.26-.34,3.62,3.62,0,0,0-1.21.09h-.07a1.18,1.18,0,0,1-1.41-.9h0a6.63,6.63,0,0,0-1.48-3,3.89,3.89,0,0,0-1.27-.91,3.48,3.48,0,0,0-.74-.23,7.19,7.19,0,0,0-.88-.12,3.9,3.9,0,0,0-3.06.92A17.67,17.67,0,0,0,203,278.9l0,0a.86.86,0,0,1-1.21.13l-.11-.11a5.54,5.54,0,0,0-.69-.66,3.86,3.86,0,0,0-.78-.51,1.46,1.46,0,0,0-1.41-.06l0,0a.77.77,0,0,1-1.13-.75,10.76,10.76,0,0,0,0-1.64,7.47,7.47,0,0,0-.26-1.62,4.45,4.45,0,0,0-.64-1.41,3,3,0,0,0-1.13-.92l.48,0-7.28,3.92Zm0,0,7-4.41,7.16-4.45a.53.53,0,0,1,.46,0h0a4.18,4.18,0,0,1,1.69,1.21,5.7,5.7,0,0,1,1,1.77,8.84,8.84,0,0,1,.42,1.88,10.47,10.47,0,0,1,.06,1.93l-1.17-.73a2.91,2.91,0,0,1,1.49-.43,3.62,3.62,0,0,1,1.41.31A5.5,5.5,0,0,1,202,277a7.11,7.11,0,0,1,1,.86l-1.34,0a19.27,19.27,0,0,1,2.78-3.21,6.41,6.41,0,0,1,2-1.22,6,6,0,0,1,2.38-.3,9.28,9.28,0,0,1,1.12.12,5.6,5.6,0,0,1,1.19.33,6.05,6.05,0,0,1,2,1.36,7.83,7.83,0,0,1,1.36,1.91,9.31,9.31,0,0,1,.81,2.19l-1.47-.9a6,6,0,0,1,2.08-.23,7.18,7.18,0,0,1,2,.45,9.6,9.6,0,0,1,1.7.88,9.89,9.89,0,0,1,1.51,1.2l-2,.18a3.5,3.5,0,0,1,2.53-1.59,4.77,4.77,0,0,1,1.37,0,5.37,5.37,0,0,1,1.28.38l-1.85,1.32a5.47,5.47,0,0,1,.65-3.1,9,9,0,0,1,1.75-2.3,1.3,1.3,0,0,1,1.59-.15l0,0,4.65,3a1.38,1.38,0,0,1,.64,1.16v0c0,4.88-.12,9.75-.18,14.63s-.12,9.75-.23,14.63h0a1.49,1.49,0,0,1-.72,1.23l-12,7.21-12.06,7.15h0a1.31,1.31,0,0,1-1.36,0q-6.1-3.82-12.15-7.72t-12.11-7.79l0,0a.83.83,0,0,1-.38-.72l.17-7.28.22-7.22C181,288.71,181.15,283.94,181.33,279.26Z"/><path class="cls-14" d="M193.76,301l-.24-14.72a.64.64,0,0,1,.32-.57l0,0,11.65-6.76a1,1,0,0,1,1,0l.06,0,5.89,3,5.91,3a1.42,1.42,0,0,1,.78,1.19v.1c.13,2.54.17,5.08.14,7.63s-.11,5.09-.27,7.63v.17a.91.91,0,0,1-.56.78c-2.43,1-4.88,2-7.41,2.79a.15.15,0,0,1-.14-.27c2.14-1.57,4.35-3,6.59-4.38l-.57,1c-.27-2.54-.45-5.08-.6-7.62s-.22-5.08-.2-7.62l.79,1.29-5.68-3.37-5.7-3.34h1l-12,6.07.36-.59-.83,14.7a.15.15,0,0,1-.3,0Z"/><path class="cls-14" d="M230,284.85a3.42,3.42,0,0,0-2.11.43,4,4,0,0,0-1.46,1.53,8.2,8.2,0,0,0-.5,1c-.12.35-.26.68-.35,1a17.43,17.43,0,0,0-.43,2.18.73.73,0,0,1-.56.61l-.13,0a3.36,3.36,0,0,0-.59.2,2.09,2.09,0,0,0-.5.31.81.81,0,0,0-.32.65,1,1,0,0,1-2,.19l-.05-.22c0-.08-.09-.34-.15-.51a5.53,5.53,0,0,0-.24-.57,4.48,4.48,0,0,0-.73-1.06,6.73,6.73,0,0,0-1.12-.89c-.21-.14-.45-.25-.68-.4s-.49-.24-.74-.38h0a.11.11,0,0,1,0-.14.11.11,0,0,1,.07-.05,5,5,0,0,1,1.76-.07,4.85,4.85,0,0,1,1.77.61,4.68,4.68,0,0,1,1.44,1.35,4,4,0,0,1,.71,2l-2,0a2.65,2.65,0,0,1,.48-1.18,3,3,0,0,1,.88-.76,4.11,4.11,0,0,1,.94-.39,5.21,5.21,0,0,1,1-.18l-.68.63a18.8,18.8,0,0,1,.78-2.32c.16-.38.36-.74.54-1.11a8.32,8.32,0,0,1,.71-1,4.83,4.83,0,0,1,2-1.5,3.6,3.6,0,0,1,2.43-.07.1.1,0,0,1,0,.19Z"/><path class="cls-14" d="M194,289.06a16.59,16.59,0,0,0-2.72-2.72,9,9,0,0,0-3.17-1.74,6.62,6.62,0,0,0-3.23.19,10,10,0,0,0-1.65.53c-.58.22-1.12.55-1.82.76h0a.11.11,0,0,1-.13-.14,5.72,5.72,0,0,1,3-3l.53-.22a5,5,0,0,1,.57-.11,3.8,3.8,0,0,1,1.16,0,10.31,10.31,0,0,1,1.13.21l1.05.37a10.27,10.27,0,0,1,3.32,2.52,14.81,14.81,0,0,1,2.2,3.34.1.1,0,0,1-.17.11Z"/><path class="cls-14" d="M192.4,305a13.15,13.15,0,0,1,1-3.9,6.6,6.6,0,0,1,2.78-3.28,9,9,0,0,1,2.06-.8,4.4,4.4,0,0,1,2.32.09,4.06,4.06,0,0,1,2.87,3.24.11.11,0,0,1-.17.1,6.31,6.31,0,0,0-3.16-1.4,7.61,7.61,0,0,0-3.26.26,5.29,5.29,0,0,0-2.55,2.28,14.54,14.54,0,0,0-1.64,3.46h0a.1.1,0,0,1-.2,0Z"/><path class="cls-14" d="M229.51,303.52a3.79,3.79,0,0,0-1.8.44,4.48,4.48,0,0,0-1.34,1.08c-.39.43-.5,1.05-.94,1.44a4.8,4.8,0,0,1-.69.65,4,4,0,0,1-.93.65h0a.13.13,0,0,1-.17-.06v0a3.33,3.33,0,0,1,.11-2.28,3.87,3.87,0,0,1,1.6-1.6,4.76,4.76,0,0,1,2.11-.83,3.87,3.87,0,0,1,2.14.33.1.1,0,0,1,0,.19Z"/><path class="cls-14" d="M225.16,308.24a12.74,12.74,0,0,0-6.75,0,23.3,23.3,0,0,0-2.95,1.34c-.51.2-1,.46-1.52.69a14.33,14.33,0,0,1-1.67.73h0a.11.11,0,0,1-.13-.14,6.3,6.3,0,0,1,2.32-3,5.48,5.48,0,0,1,1.74-.84,15.1,15.1,0,0,1,1.9-.34,11.12,11.12,0,0,1,3.74.12,11.78,11.78,0,0,1,3.42,1.27.1.1,0,0,1-.08.18Z"/><path class="cls-14" d="M215.12,308.89a8.09,8.09,0,0,1-2.17-.73,7.93,7.93,0,0,1-1.45-.88,7.58,7.58,0,0,1-1.05-1A7,7,0,0,0,208.9,305l-.08,0a.08.08,0,0,1,0-.11l0,0a3.42,3.42,0,0,1,2-.07,5.43,5.43,0,0,1,1.83.93,10.36,10.36,0,0,1,2.58,3.1.08.08,0,0,1,0,.11h-.05Z"/><path class="cls-14" d="M209.22,305.84a9.54,9.54,0,0,0-3.65-3.78,5.53,5.53,0,0,0-4.79-.25,12.07,12.07,0,0,0-4.06,2.8,10.89,10.89,0,0,0-2.58,4.39h0a.1.1,0,0,1-.2,0,6.68,6.68,0,0,1,1.26-5.69,7.27,7.27,0,0,1,2.32-2,13.28,13.28,0,0,1,2.78-1.07,7.51,7.51,0,0,1,3-.19,6.65,6.65,0,0,1,2.78,1.12,9.67,9.67,0,0,1,3.3,4.56.1.1,0,0,1-.18.08Z"/><path class="cls-14" d="M194.91,305.43a3.94,3.94,0,0,0-3.39.5,4.45,4.45,0,0,0-1.09,1.27c-.15.24-.25.52-.37.77l-.27.83a.7.7,0,0,1-1.35-.1l0-.1a5.06,5.06,0,0,0-.83-2.08A6.07,6.07,0,0,0,186,305.1a8.91,8.91,0,0,0-2-.93c-.38-.13-.79-.2-1.21-.34a11.2,11.2,0,0,1-1.31-.31h0a.11.11,0,0,1,0-.2,9.37,9.37,0,0,1,1.32-.49,9.74,9.74,0,0,1,1.42-.19,6,6,0,0,1,2.92.69,5.17,5.17,0,0,1,2,2.32,7,7,0,0,1,.69,2.92l-1.37-.21.44-.93c.19-.29.35-.6.57-.87a4.87,4.87,0,0,1,1.59-1.38,4.34,4.34,0,0,1,3.93.06.1.1,0,0,1-.07.19Z"/><ellipse class="cls-13" cx="182.12" cy="148.05" rx="2.75" ry="2.46"/><ellipse class="cls-13" cx="225.77" cy="147.8" rx="2.48" ry="2.46"/><path class="cls-13" d="M158,126c3,17.17,6.56,34.1,12.58,50.09a95.79,95.79,0,0,0,5.11,11.74,45,45,0,0,0,7.44,10.39,31.11,31.11,0,0,0,10.49,7.13,28.84,28.84,0,0,0,12.37,2.05,29.14,29.14,0,0,0,11.87-3,30.07,30.07,0,0,0,9.45-7.49,47,47,0,0,0,6.62-10.43,92.21,92.21,0,0,0,4.56-11.76,168,168,0,0,0,5.61-25c1.31-8.53,2.18-17.16,2.79-25.86h0a.25.25,0,0,1,.5,0,119.13,119.13,0,0,1,.92,13.12q.14,6.58-.3,13.18c-.15,2.2-.34,4.39-.58,6.59s-.56,4.38-.91,6.57a103.56,103.56,0,0,1-2.92,13,71.56,71.56,0,0,1-5,12.53,49.35,49.35,0,0,1-7.78,11.27,32.08,32.08,0,0,1-11.32,8,30.73,30.73,0,0,1-13.55,2.06,35.44,35.44,0,0,1-13-3.26A40.87,40.87,0,0,1,182,199.36a71.1,71.1,0,0,1-15.26-21.69,81.86,81.86,0,0,1-4.51-12.5q-.88-3.2-1.63-6.42c-.48-2.15-.89-4.32-1.27-6.49s-.69-4.35-1-6.53-.49-4.37-.65-6.56a102.06,102.06,0,0,1-.22-13.16.25.25,0,0,1,.5,0Z"/><path class="cls-13" d="M217.31,226.75c-.11-1.95-.11-3.89-.13-5.83s.06-3.89.18-5.84a24.54,24.54,0,0,1,.59-5.86,14.81,14.81,0,0,1,1.11-2.83,8.65,8.65,0,0,1,.84-1.35,3,3,0,0,1,1.3-1.07.16.16,0,0,1,.2.2v0a4.72,4.72,0,0,0-.22,1.36c0,.46,0,.93-.08,1.4q-.06,1.41-.19,2.82a47.53,47.53,0,0,1-1.16,5.59l-2.13,11.39a.15.15,0,0,1-.3,0Z"/><path class="cls-13" d="M192.41,229.11c-.36-2.13-.69-4.25-1.11-6.37s-.79-4.21-1.22-6.3a63.23,63.23,0,0,1-1.4-6.22,35.93,35.93,0,0,1-.28-6.51.16.16,0,0,1,.17-.15.17.17,0,0,1,.12.06,17.89,17.89,0,0,1,2.93,6,29.24,29.24,0,0,1,.84,6.49q.28,3.25.34,6.5c0,2.17,0,4.33-.09,6.5a.15.15,0,0,1-.3,0Z"/><path class="cls-15" d="M163.55,111.93c-1.06,4.26-2.23,8.37-3.35,12.47-.57,2-1.11,4.09-1.65,6.13s-1.06,4.08-1.65,6.1-1.22,4.05-1.74,6.12a60.58,60.58,0,0,0-1.17,6.36c-.64,4.34-1.42,8.63-2.49,12.94a51.81,51.81,0,0,1-2,6.37c-.42,1-.91,2-1.37,3.06s-1.07,2-1.6,3a50.22,50.22,0,0,1-8.13,10.73,42.52,42.52,0,0,1-11,7.81c-.5.25-1,.52-1.5.75l-1.57.61-1.57.6-.39.14c-.13,0-.23.09-.48.16a3.43,3.43,0,0,1-1.25.14,6.19,6.19,0,0,1-3.47-1.66,15.65,15.65,0,0,1-2.27-2.5.25.25,0,0,1,.05-.36.26.26,0,0,1,.28,0,24.42,24.42,0,0,0,2.82,1.48,4.6,4.6,0,0,0,2.53.5.72.72,0,0,0,.33-.16l.58-.4,1.32-.86,1.31-.86c.41-.33.84-.63,1.25-.94.83-.63,1.69-1.2,2.46-1.9s1.61-1.29,2.37-2,1.5-1.42,2.26-2.11l2.16-2.2a84.42,84.42,0,0,0,7.93-9.5l1.73-2.59c.54-.89,1.06-1.79,1.63-2.67,1-1.82,2.15-3.62,3-5.53a32.44,32.44,0,0,0,3.46-12.17c.15-2.08,0-4.31,0-6.53a52,52,0,0,1,.39-6.64,38.71,38.71,0,0,1,1.45-6.46,58.84,58.84,0,0,1,2.25-6.21,54,54,0,0,1,2.91-5.91,37.85,37.85,0,0,1,3.67-5.5.26.26,0,0,1,.45.22Z"/><path class="cls-15" d="M108.59,181.45a7.34,7.34,0,0,1,.91-6,8.11,8.11,0,0,1,1-1.28c.38-.37.74-.68,1.1-1,.72-.63,1.43-1.25,2.15-1.85q2.17-1.81,4.35-3.55c1.45-1.18,2.92-2.32,4.43-3.41,3-2.18,6.23-4.21,8.88-6.85a25.85,25.85,0,0,0,6.15-9.11,14.09,14.09,0,0,0,.7-2.52c.15-.83.29-1.81.43-2.71l.84-5.54c.55-3.71,1-7.44,1.73-11.15s1.54-7.4,2.59-11.07c.53-1.83,1.1-3.66,1.8-5.46a28.14,28.14,0,0,1,1.18-2.67,7.63,7.63,0,0,1,1.75-2.43.2.2,0,0,1,.3.25v0a8.83,8.83,0,0,0-.79,2.58c-.18.9-.31,1.83-.44,2.75-.25,1.85-.47,3.7-.69,5.56-.44,3.72-.9,7.45-1.47,11.17s-1.36,7.42-2.2,11.12c-.42,1.85-.86,3.7-1.41,5.54-.29.93-.53,1.81-.93,2.78a16.57,16.57,0,0,1-1.36,2.73,70.16,70.16,0,0,1-7.22,9c-2.53,2.83-4.92,5.87-7.68,8.52a62,62,0,0,1-9.06,6.93c-.79.52-1.61,1-2.4,1.5l-1.14.72a5.81,5.81,0,0,0-.94.73A7.85,7.85,0,0,0,109,181.4v0a.2.2,0,0,1-.39,0Z"/><path class="cls-15" d="M260.3,105.06a9.55,9.55,0,0,1,1.82,2.76q.69,1.47,1.26,3,1.11,3,2,6.08t1.69,6.14c.52,2.05,1.05,4.1,1.51,6.16l1.42,6.17,1.37,6.15.72,3,.18.76.18.63c.12.42.3.85.45,1.28a33.13,33.13,0,0,0,2.76,5.17,92.1,92.1,0,0,0,7.41,9.91,104.76,104.76,0,0,0,8.7,9.09c1.54,1.42,3.12,2.81,4.76,4.13l1.24,1a8.43,8.43,0,0,1,1.23,1.23,8.11,8.11,0,0,1,.95,1.48,8.3,8.3,0,0,1,.35.81l.14.41a1.09,1.09,0,0,1,0,.71,2.55,2.55,0,0,1-.12.27,27.75,27.75,0,0,1-1.82,2.75,9.57,9.57,0,0,0-.79,1.27l-.76,1.41a42.61,42.61,0,0,1-3.59,5.46c-.35.44-.66.84-1.07,1.3a7.81,7.81,0,0,1-1.49,1.27,5.48,5.48,0,0,1-2.06.82,4.29,4.29,0,0,1-1.27,0,4.37,4.37,0,0,1-.65-.13c-.2-.06-.47-.16-.56-.2a46.08,46.08,0,0,1-5.91-2.9,52.33,52.33,0,0,1-10.4-8.06,60.45,60.45,0,0,1-8.28-10.23,56.29,56.29,0,0,1-5.83-11.83,50.83,50.83,0,0,1-2.83-12.93c-.05-.55-.09-1.11-.11-1.66l-.08-1.6c-.06-1-.07-2-.18-3.05q-.23-3.06-.7-6.12a127.63,127.63,0,0,0-6.39-24.18h0a.25.25,0,0,1,.45-.22A76.3,76.3,0,0,1,251.71,124a84.17,84.17,0,0,1,4,12.24c.5,2.1.93,4.23,1.27,6.38.18,1.07.26,2.16.39,3.25l.17,1.55c0,.5.11,1,.19,1.49a55.39,55.39,0,0,0,3,11.63,63.47,63.47,0,0,0,12.51,20.57,54.89,54.89,0,0,0,9.16,7.92,54.3,54.3,0,0,0,5.19,3.16l.17.1.12,0a.86.86,0,0,0,.31,0,2.18,2.18,0,0,0,.9-.24,4.71,4.71,0,0,0,1-.67c.33-.29.73-.67,1.08-1a32.44,32.44,0,0,0,3.94-4.7l.88-1.29a16.28,16.28,0,0,1,1-1.37,28.45,28.45,0,0,0,1.76-2.45l0-.09s0,0,0,.33l-.1-.34a6.65,6.65,0,0,0-.25-.66,5.59,5.59,0,0,0-.72-1.19,6.89,6.89,0,0,0-1-1l-1.21-1-4.85-4.11c-1.62-1.37-3.24-2.74-4.83-4.14s-3.2-2.81-4.78-4.24a71.12,71.12,0,0,1-8.86-9.45,30.25,30.25,0,0,1-3.47-5.82,16.53,16.53,0,0,1-.62-1.69l-.25-.89-.18-.78c-.25-1-.45-2.09-.67-3.13l-1.21-6.24-1.06-6.25-2-12.47c-.35-2.07-.68-4.14-1.09-6.19-.21-1-.41-2-.68-3a9.82,9.82,0,0,0-1.07-2.83l0,0a.25.25,0,0,1,.38-.32Z"/><path class="cls-15" d="M184.56,94.87a18,18,0,0,1,4.1-3.35l1.15-.68,1.19-.6a25.71,25.71,0,0,1,2.46-1.06,31.31,31.31,0,0,1,5.2-1.37,21.58,21.58,0,0,1,2.68-.33,20.86,20.86,0,0,1,2.7-.15,30.58,30.58,0,0,1,10.69,1.21,41.11,41.11,0,0,1,4.91,2.16,31.92,31.92,0,0,1,4.4,3.09.21.21,0,0,1-.15.37h0a33.57,33.57,0,0,1-5.2-.81c-1.71-.23-3.34-.6-5-.94-.82-.14-1.64-.29-2.44-.48-.4-.09-.8-.21-1.21-.31l-1.21-.25-2.43-.55c-.82-.12-1.64-.21-2.47-.3a33.88,33.88,0,0,0-9.91.57,23.15,23.15,0,0,0-9.18,4h0a.2.2,0,0,1-.27-.29Z"/><path class="cls-15" d="M180.48,72.62a22.45,22.45,0,0,1,5.12-4l1.42-.81,1.48-.71a31.79,31.79,0,0,1,3-1.24,38.77,38.77,0,0,1,6.39-1.59,26.66,26.66,0,0,1,3.28-.38,25.58,25.58,0,0,1,3.3-.15h3.31l3.3.25c.55.05,1.1.09,1.65.16s1.08.21,1.62.34c1.07.24,2.14.52,3.2.81a60.65,60.65,0,0,1,6.07,2.5,47.62,47.62,0,0,1,5.54,3.53.21.21,0,0,1-.15.37h0a49.62,49.62,0,0,1-6.33-1.25c-2.09-.36-4.12-.84-6.14-1.28-1-.18-2-.37-3-.61-.5-.11-1-.25-1.5-.37l-1.51-.29-3-.63-3.07-.33a42,42,0,0,0-12.32.84,28.66,28.66,0,0,0-11.33,5.13h0a.2.2,0,0,1-.27-.29Z"/><path class="cls-12" d="M250.81,127.89a116,116,0,0,0-12.61-9.13A111.09,111.09,0,0,0,224.47,112a37.68,37.68,0,0,0-15.17-3,42.7,42.7,0,0,0-7.73.88,52.24,52.24,0,0,0-7.33,2.07,1.6,1.6,0,0,1-2-.83l0-.09a4.87,4.87,0,0,1-.35-2.63,8.69,8.69,0,0,1,.55-2.11,19.11,19.11,0,0,1,1.84-3.4,33.76,33.76,0,0,1,2.2-2.95c.78-.94,1.56-1.82,2.45-2.73l1.46,3.65a19,19,0,0,0-4.54.69,17.54,17.54,0,0,0-2.16.75,20.18,20.18,0,0,0-2,1.08,18.77,18.77,0,0,0-3.7,2.91,20.54,20.54,0,0,0-2.94,3.71l-.16.26a1.18,1.18,0,0,1-.8.56,18.2,18.2,0,0,1-3.42.36,16.23,16.23,0,0,1-3.36-.32,16.57,16.57,0,0,1-6.09-2.43.2.2,0,0,1,.17-.36h0a21.37,21.37,0,0,0,6.09.86,16.93,16.93,0,0,0,3-.26,15.84,15.84,0,0,0,2.81-.74l-1,.82a19.39,19.39,0,0,1,1.34-2.56,21.17,21.17,0,0,1,1.63-2.31,20.49,20.49,0,0,1,6.67-5.39,19.88,19.88,0,0,1,2.73-1,19.56,19.56,0,0,1,5.75-.81,2.1,2.1,0,0,1,1.46,3.65c-.77.71-1.58,1.53-2.32,2.33s-1.47,1.65-2.12,2.5a15.66,15.66,0,0,0-1.65,2.6,3.46,3.46,0,0,0-.48,2l-2.05-.92a42.26,42.26,0,0,1,8.12-1.08q4-.16,8,0a109.16,109.16,0,0,1,15.95,1.66,37.41,37.41,0,0,1,7.73,2.51,44.63,44.63,0,0,1,7,4.12,43.26,43.26,0,0,1,11.1,11.59.2.2,0,0,1-.3.27Z"/><path class="cls-14" d="M146.87,102.7a7.12,7.12,0,0,0,6.09,2.16,17.7,17.7,0,0,0,6.33-2,88.2,88.2,0,0,0,11.15-7.06,59,59,0,0,0,5.21-4.25,23.13,23.13,0,0,0,4.24-5.27A15.29,15.29,0,0,0,182,80a6.82,6.82,0,0,0-1.8-5.61,7.22,7.22,0,0,0-5.3-1.52,20.12,20.12,0,0,0-6,1.35,32.64,32.64,0,0,0-5.74,2.92A63.36,63.36,0,0,0,157.81,81a58.33,58.33,0,0,0-9.06,9.47,17.3,17.3,0,0,0-3,5.9A7.17,7.17,0,0,0,146.87,102.7Zm-.38.32a10.18,10.18,0,0,1-2.08-6.84,22.88,22.88,0,0,1,1.39-7.28,25.55,25.55,0,0,1,3.51-6.57,38.46,38.46,0,0,1,5-5.44,34.87,34.87,0,0,1,13-7.19,20.41,20.41,0,0,1,7.68-.88,10.05,10.05,0,0,1,7.21,3.75,9,9,0,0,1,1.48,3.78,12.65,12.65,0,0,1-.08,3.8A26.63,26.63,0,0,1,181.32,87a42.51,42.51,0,0,1-8.17,12,29.21,29.21,0,0,1-5.9,4.38,23.82,23.82,0,0,1-7,2.52,22.36,22.36,0,0,1-7.38.24A10.29,10.29,0,0,1,146.49,103Z"/><path class="cls-14" d="M147.76,103.58a33.25,33.25,0,0,1,3.28,2c1,.7,2,1.44,3,2.21l.1.1a7,7,0,0,0,2.7,1.27,13.34,13.34,0,0,0,3.29.27,40.74,40.74,0,0,0,7.49-.82,17,17,0,0,0,7.05-3.6,31.21,31.21,0,0,0,5.24-6A46.29,46.29,0,0,0,184,92.53a27.38,27.38,0,0,0,2.34-6.67,8.76,8.76,0,0,0,.09-3.07,2.56,2.56,0,0,0-.16-.69,2.3,2.3,0,0,0-.22-.66l-.14-.31a1.25,1.25,0,0,0-.19-.36l-.59-.83a61,61,0,0,1-4.29-7.09.26.26,0,0,1,.37-.34,61.06,61.06,0,0,1,6.7,5l.78.67a10.33,10.33,0,0,1,.87,1,5.67,5.67,0,0,1,.75,1.12,6.24,6.24,0,0,1,.56,1.21,11.47,11.47,0,0,1,.65,5,18.63,18.63,0,0,1-3.12,8.58,29.73,29.73,0,0,1-5.69,6.56,63.5,63.5,0,0,1-7,4.74c-2.37,1.46-4.68,2.92-7.1,4.45a17.7,17.7,0,0,1-8.25,3.08,13.21,13.21,0,0,1-2.37-.12c-.4-.07-.8-.12-1.2-.21l-1.2-.38a8.86,8.86,0,0,1-4.09-3l.09.1c-.76-1-1.5-2-2.2-3a33.19,33.19,0,0,1-2-3.28.26.26,0,0,1,.12-.35A.27.27,0,0,1,147.76,103.58Z"/><path class="cls-14" d="M262.39,103a9.32,9.32,0,0,1-6.4,2.86,23,23,0,0,1-7.24-.56,27.14,27.14,0,0,1-12.52-6.92,45.42,45.42,0,0,1-8.39-11.49,25.34,25.34,0,0,1-2.56-6.67,12.28,12.28,0,0,1-.16-3.75,8.58,8.58,0,0,1,1.41-3.73,8.37,8.37,0,0,1,3.15-2.72,11.1,11.1,0,0,1,3.9-1.12,18.68,18.68,0,0,1,7.61.94A29,29,0,0,1,247.94,73a30.1,30.1,0,0,1,5.75,4.66A42.9,42.9,0,0,1,262,89.25a24.84,24.84,0,0,1,2.12,7,10.7,10.7,0,0,1-.09,3.63A7.22,7.22,0,0,1,262.39,103Zm-.38-.32a5.39,5.39,0,0,0,1.24-3,7.16,7.16,0,0,0-.51-3.19,19.26,19.26,0,0,0-3.65-5.45c-1.48-1.65-3-3.23-4.55-4.85s-3.1-3.25-4.65-4.78a32.84,32.84,0,0,0-10.28-7.18,18.13,18.13,0,0,0-5.85-1.39,6.7,6.7,0,0,0-5.13,1.58A6.49,6.49,0,0,0,226.94,80a14.65,14.65,0,0,0,2.3,6.11c2.41,3.79,6.11,6.53,9.66,9.08q2.68,1.93,5.4,3.72c1.82,1.19,3.64,2.4,5.56,3.44a18,18,0,0,0,6.15,2.27A6.52,6.52,0,0,0,262,102.7Z"/><path class="cls-14" d="M262.45,103a44.25,44.25,0,0,1-2.48,4c-.44.64-.89,1.27-1.34,1.89l-.69.92-.35.46-.39.54a9.29,9.29,0,0,1-4.76,3.07,10.32,10.32,0,0,1-5.37.09,18.83,18.83,0,0,1-4.63-2c-1.42-.82-2.78-1.6-4.16-2.36-2.73-1.53-5.68-2.78-8.33-4.69a26.4,26.4,0,0,1-3.74-3.13A38.43,38.43,0,0,1,223,98.06a25.48,25.48,0,0,1-4.53-8.92,16.28,16.28,0,0,1-.48-2.6,13.38,13.38,0,0,1,0-2.76,9.91,9.91,0,0,1,.67-2.88,7.76,7.76,0,0,1,1.74-2.62,63.69,63.69,0,0,1,7.53-5.68.26.26,0,0,1,.37.34,63.61,63.61,0,0,1-4.92,8c-1,1.6-.63,4.24.21,6.78a40.23,40.23,0,0,0,3.5,7.63,38.39,38.39,0,0,0,2.43,3.6c.87,1.17,1.78,2.32,2.72,3.47a24.36,24.36,0,0,0,6.76,5.9,13.18,13.18,0,0,0,4.26,1.42,23,23,0,0,0,4.32.2c2.73-.08,5.08-.24,7-1.69l.39-.31.44-.38.91-.74c.61-.49,1.22-1,1.85-1.45a43.92,43.92,0,0,1,3.92-2.67.26.26,0,0,1,.36.09A.26.26,0,0,1,262.45,103Z"/></g><g id="arms_line"><path class="cls-14" d="M104.86,175.54c2.68,3,5.09,6.18,7.44,9.39,1.18,1.61,2.32,3.24,3.44,4.88s2.22,3.29,3.26,5c2.06,3.4,3.88,7,6,10.32.55.83,1.07,1.68,1.64,2.49l.85,1.23.43.61.22.3.22.21a12.07,12.07,0,0,0,2.38,1.54c.86.47,1.76.88,2.66,1.29,3.62,1.6,7.3,3.09,10.93,4.68s7.32,3.08,10.95,4.7c7.23,3.3,14.42,6.71,21.42,10.62l-.11.28a190.37,190.37,0,0,1-22.58-8c-3.67-1.57-7.28-3.27-10.85-5.06a109.66,109.66,0,0,1-10.52-5.81c-.86-.53-1.7-1.09-2.54-1.65-.42-.29-.84-.57-1.24-.89a8.19,8.19,0,0,1-1.21-1l-.29-.33-.2-.32-.41-.63-.82-1.25c-.54-.84-1.13-1.64-1.69-2.46-2.29-3.25-4.92-6.28-7.31-9.48s-4.51-6.58-6.57-10-4-6.88-5.76-10.51Z"/><path class="cls-14" d="M86.31,181.41a244.64,244.64,0,0,1,14.46,21.84c2.19,3.77,4.12,7.7,6.26,11.5q1.6,2.85,3.39,5.58c.61.9,1.22,1.8,1.86,2.66a13.93,13.93,0,0,0,1,1.19,2.83,2.83,0,0,0,.6.45,7,7,0,0,0,.65.41c3.78,2.09,7.81,3.81,11.72,5.73L138,236.54c7.82,3.85,15.46,8.07,23,12.44l-.21-.07a1.9,1.9,0,0,1,.51.23,2.84,2.84,0,0,1,.33.25,3.56,3.56,0,0,1,.52.55,5.36,5.36,0,0,1,.68,1.18,9.44,9.44,0,0,1,.64,2.42,19.51,19.51,0,0,1,.14,2.4,23.52,23.52,0,0,1-.13,2.36h-.3a26,26,0,0,0-.83-4.52,10.38,10.38,0,0,0-.86-2,3.76,3.76,0,0,0-.59-.77,1.81,1.81,0,0,0-.32-.26,1,1,0,0,0-.15-.08h0l-.21-.07c-8-3.47-16-7.14-23.64-11.28-3.84-2.07-7.68-4.17-11.48-6.33s-7.49-4.52-11.17-7c-.23-.14-.46-.35-.7-.52a3.57,3.57,0,0,1-.67-.57,14.22,14.22,0,0,1-1-1.38q-1-1.36-1.83-2.74l-1.82-2.73-1.86-2.7c-2.51-3.58-5.14-7.09-7.48-10.78a201,201,0,0,1-12.45-23.06Z"/><path class="cls-14" d="M303.23,175.7c-1.69,3.59-3.66,7-5.67,10.38s-4.12,6.7-6.48,9.86-5,6.15-7.22,9.36c-1.13,1.61-2.23,3.24-3.28,4.91a4.46,4.46,0,0,1-.54.65c-.2.17-.4.35-.6.52-.4.32-.8.63-1.22.91-.82.58-1.65,1.13-2.49,1.66a104.13,104.13,0,0,1-10.37,5.78c-3.53,1.77-7.09,3.45-10.71,5a186.52,186.52,0,0,1-22.29,7.87l-.11-.28c6.9-3.88,14-7.25,21.13-10.52,3.58-1.6,7.19-3.12,10.8-4.65l5.39-2.32c1.79-.78,3.61-1.51,5.38-2.33.88-.42,1.77-.82,2.6-1.3a7.26,7.26,0,0,0,2.2-1.6c1.15-1.59,2.25-3.22,3.31-4.87,2.13-3.31,3.92-6.84,5.95-10.2,1-1.68,2.09-3.31,3.22-4.93s2.23-3.23,3.39-4.82c2.33-3.17,4.71-6.31,7.36-9.26Z"/><path class="cls-14" d="M319.3,181.56A187.8,187.8,0,0,1,308,204.89c-2.16,3.74-4.63,7.3-6.95,10.95-1.16,1.82-2.28,3.67-3.4,5.52-.56.93-1.14,1.84-1.74,2.77a5.14,5.14,0,0,1-1.18,1.33c-.46.33-.91.65-1.36,1-3.65,2.38-7.31,4.68-11.05,6.83s-7.54,4.2-11.34,6.25c-7.61,4.07-15.44,7.71-23.37,11.13l-.26.08.12,0h0s0,0,0,0-.06,0-.09.06a1.59,1.59,0,0,0-.24.27,4.23,4.23,0,0,0-.44.81,12.74,12.74,0,0,0-.63,2,39,39,0,0,0-.69,4.27h-.3c-.07-.73-.16-1.46-.17-2.2s0-1.48,0-2.23a10.54,10.54,0,0,1,.34-2.29,5.88,5.88,0,0,1,.44-1.18,3.41,3.41,0,0,1,.4-.61,2.39,2.39,0,0,1,.32-.31,1.32,1.32,0,0,1,.22-.15l.14-.07a1.14,1.14,0,0,1,.25-.08l-.26.08c7.48-4.31,15-8.48,22.74-12.29l11.6-5.7c3.86-1.89,7.84-3.61,11.6-5.63.47-.26.93-.51,1.35-.8a4.1,4.1,0,0,0,1-1c.64-.83,1.2-1.75,1.78-2.66,1.13-1.82,2.17-3.71,3.16-5.62,2-3.84,3.68-7.81,5.67-11.63A235,235,0,0,1,319,181.42Z"/></g><g id="hand_color"><path class="cls-3" d="M325.29,169.93c2.1,3.21,2.64,6.83,1.09,9.79-2.62,5-10.23,6.16-17,2.61s-10.12-10.48-7.5-15.47c1.5-2.85,4.61-4.45,8.27-4.65"/><path class="cls-3" d="M81.88,170.88c-2.25,3.08-3,6.65-1.58,9.66,2.35,5.09,9.84,6.64,16.74,3.46s10.58-9.89,8.23-15c-1.34-2.9-4.35-4.66-8-5"/><path class="cls-6" d="M98.43,169.8s-5-9-4.67-16.92l2.55-2.31,3-4.27a23.07,23.07,0,0,0,1.75-9.29c-.17-5.08,0-9.37-3.33-11.33,0,0-3.08-3.29-5.21-2.71l-1.46.83.33-1.29s1.92-9.87-4.54-13.25c0,0-4.62-3.5-9.33-3.5s-4.46,1.25-7.42,4.08l-2.79,1.5a9.14,9.14,0,0,0-5.08,5.5s-3.08-.08-1.79,8.42l-.5.5s-1.12,11.67-1,12.58l.46,1.29L60.76,142l1.71,2.67,3.25,4.5,4.79,6.37,2.29,1.83s6.37,7.12,9.33,12.62l3.54,6.58,2,.33s4.17-.08,4.87-.46,3.08-1.21,3.87-2.54S98.22,171.13,98.43,169.8Z"/><path class="cls-6" d="M308.73,168.46s5-9,4.67-16.92l-2.55-2.31-3-4.27a23.07,23.07,0,0,1-1.75-9.29c.17-5.08,0-9.37,3.33-11.33,0,0,3.08-3.29,5.21-2.71l1.46.83,2.21-6.38s-4-9.67,2.45-13a51,51,0,0,1,9.74,1.25c4.56,1.17,3.34.78,6.56,4.21l2.79,1.5a9.14,9.14,0,0,1,5.08,5.5s3.08-.08,1.79,8.42l.5.5s1.12,11.67,1,12.58l-.46,1.29-1.37,2.33-1.71,2.67-3.25,4.5-4.79,6.37L334.35,156S328,163.12,325,168.62l-3.54,6.58-2,.33s-4.17-.08-4.87-.46-3.08-1.21-3.87-2.54S308.94,169.79,308.73,168.46Z"/></g><g id="hand_shadow"><path class="cls-10" d="M83.74,183.87c-2.62-3.59,1.92-7.16,1.92-7.16l1.35,0,4.11-.07,2.29-.86,2.15-1.3,1.66-1.93,1.24-2.62-.59-1.06c2.8-2.49,7.41.18,7.41.18,2.35,5.09-1.34,11.8-8.23,15-4.44,2-9.12,2.13-12.53.58Z"/><path class="cls-9" d="M90.59,114a2.92,2.92,0,0,1-2.67,3.08s.67,5.83-6.33,1.92c0,0,2.33,6.92-5.67,5.67,0,0,2.17,9.83-5.08,9,0,0-1.83,9.25-11.5,5.17l0,.75,2,3.5,8.92,12.33,4.25,3.83s5.21,6.42,5.5,7.17,3.46,6,3.71,6.54,1.85,3.7,1.85,3.7l1.65,0,3,0,3.1-.89L96.14,174l2-2.5.27-1.57s-4.77-9.26-4.77-17.14l2.46-2.08,3.08-4.25A16.74,16.74,0,0,0,100.8,140c.08-3.42.54-7.25,0-9.37a14.73,14.73,0,0,0-2.75-4.75s-3-2.79-4.37-3a4.53,4.53,0,0,0-2.79.92l.71-2.37.12-3.12s-.29-2.37-.46-3A6.17,6.17,0,0,0,90.59,114Z"/><path class="cls-9" d="M309.68,136.62a14.3,14.3,0,0,0,12.73.92l-2-2.62-.85-3.34s-1.57-6.12-2.85-7.92c-.3-.42.2.72.2.72S318,133.25,309.68,136.62Z"/><path class="cls-10" d="M318.32,175.66a6.09,6.09,0,0,1,4.73,7.29l1.52-1s5.59-3.91.57-12.13l-.48-.23s-.63.4-3.31,5.78l-3,.26"/><path class="cls-9" d="M330.64,104.42s3.58,2.62,1.08,4l.42.29s5.52.42,4,4.17c0,0,8.17,2.37,3.67,9.54,0,0,11.27,2.57,0,18.58-4.39,6.21-6.62,13.58-12.12,15.75-2.38.94-9.33,18.21-9.33,18.21l.17.71,2.58-.29,1.84-3.06,2.47-4.56,3-4.59s3.56-4.78,3.66-4.87l1.91-2.06,2.34-2s10.69-13.41,11.47-16.75-.84-13.37-.84-13.37l-.31-.56s.09.06.11,0a1.6,1.6,0,0,0,0-.31l.19-4.6s-.56-2.42-1.33-2.79a1.88,1.88,0,0,1-.94-1.23,11,11,0,0,0-7.6-5.46l-1.31-2.31S333.45,104.15,330.64,104.42Z"/></g><g id="hand_line"><path class="cls-14" d="M82,171a13.22,13.22,0,0,0-1.24,6.59,8,8,0,0,0,2.94,5.13,10.2,10.2,0,0,0,6.14,2.47,12.15,12.15,0,0,0,6.68-1.83,20,20,0,0,0,2.77-2,18.12,18.12,0,0,0,2.35-2.36,12.1,12.1,0,0,0,2.65-5.64,7.82,7.82,0,0,0-.06-2.92,7,7,0,0,0-1.3-2.68,11.58,11.58,0,0,0-5.65-3.56.15.15,0,0,1-.1-.19.16.16,0,0,1,.13-.11,9.7,9.7,0,0,1,7.31,2.21,8.38,8.38,0,0,1,2.38,3.47,9.12,9.12,0,0,1,.45,4.23,10.41,10.41,0,0,1-1.31,3.92,14.36,14.36,0,0,1-2.41,3.19,15.65,15.65,0,0,1-6.56,4,28.22,28.22,0,0,1-7.35,1.3,18.77,18.77,0,0,1-3.79-.13,10.19,10.19,0,0,1-3.78-1.26,8.1,8.1,0,0,1-3.83-7.08,9.5,9.5,0,0,1,3.32-6.87.15.15,0,0,1,.22,0A.16.16,0,0,1,82,171Z"/><path class="cls-14" d="M98.48,169.33a5.8,5.8,0,0,1-.61,4.47A7.75,7.75,0,0,1,94.38,177a9.73,9.73,0,0,1-4.48.87,15,15,0,0,1-2.19-.35,12.11,12.11,0,0,1-2.05-.85,14.72,14.72,0,0,1,2.06-.63c.66-.2,1.3-.38,1.93-.53a24.91,24.91,0,0,0,3.44-1.24A12.06,12.06,0,0,0,98.48,169.33Z"/><path class="cls-13" d="M99.12,135.91a4.21,4.21,0,0,1-2.57,3.36,5.22,5.22,0,0,1-2.25.61,4.64,4.64,0,0,1-2.41-.6,7.25,7.25,0,0,1-1.83-1.46c-.25-.28-.49-.57-.7-.84l-.27-.36s-.16-.21-.23-.33l-.18-.32a7.58,7.58,0,0,1-.65-2.23,9.94,9.94,0,0,1-.08-2.16,15.52,15.52,0,0,1,.9-4.08c.23-.65.48-1.28.74-1.9a7.43,7.43,0,0,1,1-1.86,3.12,3.12,0,0,1,1.9-1.23,4.27,4.27,0,0,1,2.2.29A12.46,12.46,0,0,1,98.26,125l-.25-.2a8.56,8.56,0,0,1,4.39,6.26,16.1,16.1,0,0,1,.24,3.77l-.14,3.35a31.6,31.6,0,0,1-.3,3.52,13.64,13.64,0,0,1-1.07,3.63A18.72,18.72,0,0,1,96.7,151l-.05.05c-.89.66-1.8,1.32-2.73,1.94a.15.15,0,0,1-.21-.22c.67-.9,1.37-1.76,2.08-2.62l-.05.05a26.32,26.32,0,0,0,2.89-5.84,23.49,23.49,0,0,0,.65-6.31c0-1.15.14-2.32.28-3.48a15.35,15.35,0,0,0,.06-3.06,9.48,9.48,0,0,0-.77-2.84,8.37,8.37,0,0,0-.73-1.27,5.63,5.63,0,0,0-.93-1l-.26-.2a8.45,8.45,0,0,0-2.67-2.45,2.06,2.06,0,0,0-2.92.51,4.81,4.81,0,0,0-.66,1.67,15.67,15.67,0,0,0-.32,1.88,18.14,18.14,0,0,0,0,3.71,12.83,12.83,0,0,0,.69,3.27l.05.11s-.05-.06,0,.08l.3.44c.17.26.33.49.51.71a5.68,5.68,0,0,0,1.1,1.12,3.19,3.19,0,0,0,1.29.57,4.59,4.59,0,0,0,1.59-.1,4.11,4.11,0,0,0,2.84-1.9v0a.15.15,0,0,1,.28.08Z"/><path class="cls-13" d="M70.72,133.59a10,10,0,0,0,.93.68c.31.21.62.41.92.59s.73.21.9.53a2.69,2.69,0,0,1,.37,1.35.18.18,0,0,1-.1.17,1.86,1.86,0,0,1-1.5.06c-.43-.14-.57-.63-.8-1a5.92,5.92,0,0,1-.58-1.11,5.36,5.36,0,0,1-.32-1.21.11.11,0,0,1,.09-.12.11.11,0,0,1,.08,0Z"/><path class="cls-13" d="M60.2,124.74a13,13,0,0,1-.91-4.48,6.41,6.41,0,0,1,.43-2.54,3.63,3.63,0,0,1,.41-.7,3,3,0,0,1,.59-.59,4.21,4.21,0,0,1,.58-.4,5.75,5.75,0,0,1,.55-.31,17.17,17.17,0,0,1,4.33-1.49,41.15,41.15,0,0,1,4.44-.55h.06a15.41,15.41,0,0,1,2.07.18,18.8,18.8,0,0,1,2,.4,10.72,10.72,0,0,1,1.93.67,9.88,9.88,0,0,1,1.8,1.08l-.14-.1a20.77,20.77,0,0,1,6.34,3.85,12.25,12.25,0,0,1,2.47,3.13,6.34,6.34,0,0,1,.44,1,9.89,9.89,0,0,1,.32,1c.14.59.28,1.18.38,1.79a21.86,21.86,0,0,1,.19,7.45,9,9,0,0,1-.53,1.92,5.09,5.09,0,0,1-1.19,1.78,11.17,11.17,0,0,1-1.49,1.14,4.71,4.71,0,0,1-1.77.75.15.15,0,0,1-.11-.26l0,0a10.25,10.25,0,0,0,2.12-2.63,4.18,4.18,0,0,0,.43-1.34,11.58,11.58,0,0,0,.08-1.56,42,42,0,0,0-.93-6.64l-.33-1.68c-.05-.31-.11-.47-.17-.7a3.57,3.57,0,0,0-.23-.65,10.29,10.29,0,0,0-1.67-2.58,30,30,0,0,0-5-4.59l-.14-.1h0a5.55,5.55,0,0,0-1.37-1.14,6.79,6.79,0,0,0-1.69-.69,7.61,7.61,0,0,0-3.64,0h.06c-1.36.5-2.71,1.08-4,1.58s-2.72.89-3.92,1.38a4.53,4.53,0,0,0-.42.19,2.24,2.24,0,0,0-.35.18.91.91,0,0,0-.21.14c-.06,0-.12.15-.19.21a5.09,5.09,0,0,0-.63,1.68,42.72,42.72,0,0,0-.66,4.25h0a.15.15,0,0,1-.3,0Z"/><path class="cls-13" d="M93.88,152.8a21.09,21.09,0,0,0,.89,4.18c.41,1.36.9,2.69,1.42,4a19,19,0,0,0,.93,1.91,9.68,9.68,0,0,1,.76,2A13.91,13.91,0,0,1,98.3,167a9.35,9.35,0,0,1,.1,2.33h0a.17.17,0,0,1-.19.16l-.08,0a10,10,0,0,1-3-3.47,13.86,13.86,0,0,1-1.2-4.31,28.54,28.54,0,0,1-.6-4.44,17.54,17.54,0,0,1,.29-4.47.15.15,0,0,1,.3,0Z"/><path class="cls-13" d="M61.95,116.85a7.14,7.14,0,0,1,2.92-5.34l.66-.46.63-.38a14.18,14.18,0,0,1,1.36-.7,7.46,7.46,0,0,1,.77-.3c.25-.08.6-.17.64-.18h0l.16-.1a1.77,1.77,0,0,0,.28-.27A14.1,14.1,0,0,1,71.54,107a8.94,8.94,0,0,1,2.76-1.44,9.38,9.38,0,0,1,3-.42c1,0,2,.06,3,.18A15.67,15.67,0,0,1,86,107a13.58,13.58,0,0,1,4.8,4,9.93,9.93,0,0,1,.85,1.37c.22.49.44,1,.64,1.48a11.06,11.06,0,0,1,.54,3.12,11.65,11.65,0,0,1-1.34,5.83.15.15,0,0,1-.29-.06h0c-.09-3.88-.79-7.31-3-9.8a17.22,17.22,0,0,0-3.67-3.45l-1.12-.7c-.38-.23-.78-.41-1.16-.65a26.67,26.67,0,0,0-2.44-1.2c-1.67-.7-3.59-1.17-5.21-.45a4.46,4.46,0,0,0-1.91,1.69c-.49.73-.8,1.5-1.29,2.4a3.42,3.42,0,0,1-.62.82,3.65,3.65,0,0,1-.4.33,2.8,2.8,0,0,1-.61.31c-.4.14-.52.15-.72.21l-.56.19c-.39.15-.8.32-1.21.5l-.63.27-.56.26a10.49,10.49,0,0,0-3.89,3.45v0a.15.15,0,0,1-.21,0A.16.16,0,0,1,61.95,116.85Z"/><path class="cls-13" d="M65.88,111.91a18.31,18.31,0,0,1,7.64-3.14,7.29,7.29,0,0,1,4.51.45c.62.42,1.17.88,1.73,1.29a10.92,10.92,0,0,0,1.75,1c1.21.61,2.6,1,3.86,1.59a16.18,16.18,0,0,1,3.48,2.5,7.06,7.06,0,0,1,1.39,1.9,10.78,10.78,0,0,1,.75,2.07,8.83,8.83,0,0,1,.09,4.33.16.16,0,0,1-.29,0h0c-.77-1.2-1.45-2.31-2.14-3.36-.34-.52-.7-1-1.05-1.51s-.65-.81-1.06-1.26c-.76-.91-1.68-1.8-2.6-2.72A17.12,17.12,0,0,0,81,112.38a6.2,6.2,0,0,0-1.79-.83,10.37,10.37,0,0,0-2-.29,22.47,22.47,0,0,0-3.44.14c-2.51.24-5.11.7-7.88.78h0a.16.16,0,0,1-.16-.15A.16.16,0,0,1,65.88,111.91Z"/><path class="cls-13" d="M85.54,176.62c-1.24-1.78-2.41-3.58-3.61-5.36l-1.81-2.65c-.62-.87-1.22-1.74-1.86-2.59-1.23-1.73-2.55-3.38-3.9-5-.67-.8-1.4-1.54-2.11-2.29-.36-.36-.72-.72-1.1-1s-.79-.69-1-.87l-.16-.11a1,1,0,0,1-.21-.2c-1.71-2.28-3.27-4.65-4.81-7s-3.07-4.78-4.58-7.21c-.37-.61-.72-1.24-1.06-1.88a7.29,7.29,0,0,1-.46-1,6.09,6.09,0,0,1-.22-1.13,34.38,34.38,0,0,1-.08-4.33c.09-2.86.26-5.69.53-8.55a.93.93,0,0,1,.49-.73l.09,0a23.78,23.78,0,0,1,2.88-1.23,25.31,25.31,0,0,1,3-.88,24,24,0,0,1,3.1-.53,23,23,0,0,1,3.19-.12,1.07,1.07,0,0,1,.31.05l.07,0a35.92,35.92,0,0,1,5.94,2.55,17.61,17.61,0,0,1,2.8,1.87,8.34,8.34,0,0,1,2.4,3,12,12,0,0,1,.76,3.47,26.8,26.8,0,0,1,.09,3.27,47.4,47.4,0,0,1-.67,6.34l0,.12a.53.53,0,0,1,0,.14,4.74,4.74,0,0,1-4.1,2.58,8,8,0,0,1-2.16-.16,3.94,3.94,0,0,1-2.1-1.21A7.44,7.44,0,0,1,73.47,140a17.35,17.35,0,0,1-.11-3.85v0a.22.22,0,0,1,0-.07c.3-.65.63-1.28.95-1.93a.15.15,0,0,1,.28.1c-.18.69-.35,1.39-.55,2.07l0-.12a16.37,16.37,0,0,0,.71,3.54,6.09,6.09,0,0,0,1.59,2.81,2,2,0,0,0,1.14.49,6.32,6.32,0,0,0,1.55-.06,3.28,3.28,0,0,0,1.27-.48,2.15,2.15,0,0,0,.44-.4,1.7,1.7,0,0,0,.15-.22s.1-.2.06-.13l-.07.26a51.67,51.67,0,0,0,.24-6,23.77,23.77,0,0,0-.18-2.9,9.53,9.53,0,0,0-.62-2.53,5.35,5.35,0,0,0-1.49-1.77,19.13,19.13,0,0,0-2.31-1.59,35.86,35.86,0,0,0-5.31-2.53l.37.07a20.18,20.18,0,0,0-2.78,0A25.39,25.39,0,0,0,66,125c-.93.16-1.87.36-2.8.6s-1.86.53-2.71.84l.59-.78c-.56,2.74-1.1,5.52-1.4,8.3a24,24,0,0,0-.15,4.15,4.44,4.44,0,0,0,.54,1.86,18.87,18.87,0,0,0,1.05,1.79,63.48,63.48,0,0,0,5.11,6.71c1.82,2.15,3.71,4.27,5.5,6.43l-.36-.31a10,10,0,0,1,1.5,1.1c.44.37.85.77,1.25,1.16a28.78,28.78,0,0,1,2.22,2.5,48.34,48.34,0,0,1,3.78,5.39c1.14,1.86,2.17,3.78,3.12,5.74.47,1,.91,2,1.34,3s.81,2,1.18,3a.15.15,0,0,1-.09.19A.16.16,0,0,1,85.54,176.62Z"/><path class="cls-13" d="M89.09,145.38a7.82,7.82,0,0,1,1.81,3.53,10.19,10.19,0,0,1,.15,4,8.83,8.83,0,0,1-1.53,3.77,6.61,6.61,0,0,1-3.18,2.46c.37-1.35.82-2.39,1.07-3.51a31.44,31.44,0,0,0,.69-3.21c.17-1.08.32-2.18.47-3.34S88.85,146.73,89.09,145.38Z"/><path class="cls-13" d="M308.33,134.51a4.05,4.05,0,0,0,2.61,1.85,3.5,3.5,0,0,0,2.78-.21,6.42,6.42,0,0,0,2-2.19l.14-.2c.05-.07.16-.21.12-.17h0l0-.05a1,1,0,0,0,.05-.12,6.56,6.56,0,0,0,.22-.68,15.75,15.75,0,0,0,.32-1.56,17.3,17.3,0,0,0-.25-6.89c-.25-1.1-.94-2.14-1.95-2.21a4.12,4.12,0,0,0-2.89,1.32,9.5,9.5,0,0,0-2.07,2.69,19,19,0,0,0-1.36,3.09,10.15,10.15,0,0,0-.56,3.14c0,.92.19,2.31.23,3.51.12,2.49,0,4.77.57,6.82a26.54,26.54,0,0,0,3.05,6.24l-.05-.05c.71.86,1.41,1.72,2.08,2.62a.15.15,0,0,1-.21.22c-.93-.62-1.83-1.28-2.73-1.94l-.05-.05a18.62,18.62,0,0,1-4.67-6.11,14,14,0,0,1-1-3.9c-.15-1.29-.19-2.53-.22-3.73s-.1-2.28,0-3.8a12.57,12.57,0,0,1,1.07-4,13.48,13.48,0,0,1,2.13-3.32,13.11,13.11,0,0,1,1.4-1.41,13.83,13.83,0,0,1,1.58-1.14,6.1,6.1,0,0,1,3.81-1.17,3,3,0,0,1,1.84,1,6.72,6.72,0,0,1,1,1.72,17.88,17.88,0,0,1,1.79,7.49,9.46,9.46,0,0,1-.31,2,6.25,6.25,0,0,1-.37,1.05c0,.09-.09.19-.14.29l-.08.15-.13.19-.27.37a7.69,7.69,0,0,1-3.26,2.74,4.53,4.53,0,0,1-2.31.27,5.9,5.9,0,0,1-2-.7,4.12,4.12,0,0,1-2.3-3.23.15.15,0,0,1,.28-.08Z"/><path class="cls-13" d="M346.66,123.35c-.15-1.13-.28-2.23-.46-3.29a7.36,7.36,0,0,0-.87-2.7,6,6,0,0,0-2.22-1.06c-1-.33-2-.67-3.05-1.05L337,114l-.39-.15a2.86,2.86,0,0,1-.32-.13,3.46,3.46,0,0,0-.71-.09,6.93,6.93,0,0,0-1.58.13,12.06,12.06,0,0,0-3.07,1.08,15.15,15.15,0,0,0-1.43.8,16.1,16.1,0,0,0-1.29,1,29.43,29.43,0,0,0-4.42,4.5,7.85,7.85,0,0,0-1.25,2.46c-.08.35-.2,1-.3,1.47l-.31,1.59a34.37,34.37,0,0,0-.79,6.24,9.28,9.28,0,0,0,.13,1.44,4.73,4.73,0,0,0,.18.64,2.64,2.64,0,0,0,.31.61,9.76,9.76,0,0,0,2,2.46l0,0a.15.15,0,0,1-.12.26,7,7,0,0,1-3.1-1.75,4.45,4.45,0,0,1-.69-.72,5.65,5.65,0,0,1-.52-.88,8.19,8.19,0,0,1-.6-1.81,16.05,16.05,0,0,1-.31-3.58,24.7,24.7,0,0,1,.28-3.48c.09-.57.19-1.14.31-1.7a16.26,16.26,0,0,1,.46-1.78,10,10,0,0,1,2-3.31,17.42,17.42,0,0,1,5.73-4.11c.52-.26,1-.48,1.59-.72l1.61-.6c1.07-.39,2.14-.76,3.25-1.08.55-.16,1.11-.31,1.71-.43a4.74,4.74,0,0,1,1-.11l.93.08c1.13.1,2.26.22,3.39.43a17.4,17.4,0,0,1,3.31,1,12.8,12.8,0,0,1,1.66.79l.43.26.46.35a3.06,3.06,0,0,1,.78,1,5.3,5.3,0,0,1,.47,2,9.17,9.17,0,0,1,0,1.81,12.72,12.72,0,0,1-.84,3.37.15.15,0,0,1-.3,0Z"/><path class="cls-13" d="M344.92,115.58a10.5,10.5,0,0,0-3.71-3.35c-.66-.34-1.52-.71-2.28-1a9.8,9.8,0,0,0-1.09-.38l-.36-.1a2.78,2.78,0,0,1-.58-.26,3.26,3.26,0,0,1-.84-.73,7.39,7.39,0,0,1-.75-1.31c-.2-.39-.37-.77-.59-1.13a5.37,5.37,0,0,0-1.62-1.85,4.29,4.29,0,0,0-2.37-.69c-1,0-1.9-.15-2.82-.23s-1.82-.15-2.7-.17a23.44,23.44,0,0,0-2.5,0,5,5,0,0,0-2,.5,3,3,0,0,0-1.16,1.18,11,11,0,0,0-1,4.46c-.12,1.72-.08,3.52-.19,5.4a.16.16,0,0,1-.16.15.16.16,0,0,1-.13-.08,17.71,17.71,0,0,1-1.92-5.31,13.12,13.12,0,0,1-.23-3,7.59,7.59,0,0,1,.8-3.19,5.27,5.27,0,0,1,2.72-2.47,7.42,7.42,0,0,1,3.3-.45,17.27,17.27,0,0,1,5.5,1.57,9.37,9.37,0,0,0,2.53.69,8.79,8.79,0,0,1,2.84.66,9.43,9.43,0,0,1,2.53,1.6,11,11,0,0,1,1,1c.31.34.64.74.82.9,0,0,.2.13.21.12h0l.29.07a8.24,8.24,0,0,1,1.46.56,13.74,13.74,0,0,1,2.5,1.55,7.06,7.06,0,0,1,2.7,5.17.15.15,0,0,1-.28.09Z"/><path class="cls-13" d="M343.47,112.69a33.59,33.59,0,0,0-8.07-3,14,14,0,0,0-4.15-.32,8.46,8.46,0,0,0-3.75,1.39,25.9,25.9,0,0,0-3.46,2.39,37.9,37.9,0,0,0-3,2.85c-.48.46-.93.93-1.31,1.37a7.1,7.1,0,0,0-.58.75c-.19.27-.4.55-.58.83-.76,1.14-1.46,2.37-2.2,3.69h0a.16.16,0,0,1-.29,0,10.78,10.78,0,0,1,1.25-6.89,9,9,0,0,1,1.52-1.94,21.17,21.17,0,0,1,3.74-2.7,33.26,33.26,0,0,1,4-2.1,16,16,0,0,1,2.2-.75,9.64,9.64,0,0,1,2.36-.33,15.28,15.28,0,0,1,4.49.73,31.76,31.76,0,0,1,8,3.81.15.15,0,0,1-.15.26Z"/><path class="cls-13" d="M318.69,144.46c.28,1.13.45,2.08.61,3l.45,2.59c.14.83.33,1.63.55,2.49s.52,1.73.79,2.89a5,5,0,0,1-2.86-1.76,6.53,6.53,0,0,1-1.43-3.08,7.35,7.35,0,0,1,.15-3.32A5.68,5.68,0,0,1,318.69,144.46Z"/><line class="cls-13" x1="318.32" y1="175.66" x2="321.05" y2="175.53"/><path class="cls-14" d="M321.46,175.48a14.52,14.52,0,0,1-4.27.79,11.23,11.23,0,0,1-4.49-.75l-1.11-.48-1.07-.63a5.42,5.42,0,0,1-.93-.84,5,5,0,0,1-.4-.48l-.3-.55a5.88,5.88,0,0,1-.38-4.69l.3,0a19,19,0,0,1,1.39,1.68,8.06,8.06,0,0,1,.6.74c.17.25.42.44.6.66a5.05,5.05,0,0,0,.55.64c.2.2.33.46.53.66l.58.65c.22.19.47.37.71.55a11.38,11.38,0,0,0,3.55,1.4,16.65,16.65,0,0,0,4.07.41Z"/><path class="cls-14" d="M325.41,169.85a9.56,9.56,0,0,1,3,7.07,8.15,8.15,0,0,1-4.21,6.91,10.24,10.24,0,0,1-3.86,1.07,18.79,18.79,0,0,1-3.82-.06,28.27,28.27,0,0,1-7.31-1.68,15.75,15.75,0,0,1-6.37-4.34,14.43,14.43,0,0,1-2.26-3.32,10.47,10.47,0,0,1-1.11-4,9.17,9.17,0,0,1,.67-4.22,8.43,8.43,0,0,1,2.57-3.36,9.76,9.76,0,0,1,7.45-1.84.15.15,0,0,1,0,.3,11.64,11.64,0,0,0-5.86,3.28,7,7,0,0,0-1.45,2.63,7.87,7.87,0,0,0-.21,2.94A12.17,12.17,0,0,0,305,177a18.23,18.23,0,0,0,2.24,2.49,20.11,20.11,0,0,0,2.68,2.18,12.25,12.25,0,0,0,6.61,2.18,10.28,10.28,0,0,0,6.29-2.16,8.09,8.09,0,0,0,3.23-5,13.28,13.28,0,0,0-.91-6.69.15.15,0,0,1,.09-.2A.16.16,0,0,1,325.41,169.85Z"/><path class="cls-13" d="M313.57,151.42a17.54,17.54,0,0,1,.29,4.47,28.54,28.54,0,0,1-.6,4.44,13.86,13.86,0,0,1-1.2,4.31,10,10,0,0,1-3,3.47.17.17,0,0,1-.27-.12h0a9.33,9.33,0,0,1,.1-2.33,13.9,13.9,0,0,1,.42-2.13,9.68,9.68,0,0,1,.76-2,19,19,0,0,0,.93-1.91c.52-1.31,1-2.64,1.42-4a21.07,21.07,0,0,0,.89-4.18v0a.15.15,0,0,1,.3,0Z"/><path class="cls-13" d="M321.26,175.14c.38-1,.78-2,1.2-3s.88-2,1.35-3,1-1.94,1.49-2.9,1.05-1.91,1.63-2.83A50.28,50.28,0,0,1,330.7,158c.69-.87,1.43-1.7,2.21-2.51.4-.4.81-.79,1.25-1.16a11.6,11.6,0,0,1,1.49-1.12l-.37.32c1.79-2.16,3.63-4.31,5.47-6.45a69.78,69.78,0,0,0,5.17-6.67c.38-.59.74-1.18,1.06-1.79a4.16,4.16,0,0,0,.55-1.85,23.54,23.54,0,0,0-.12-4.15c-.29-2.79-.82-5.57-1.39-8.31l.55.74c-.85-.32-1.8-.59-2.72-.83s-1.87-.43-2.8-.59a23.88,23.88,0,0,0-2.81-.32,20.22,20.22,0,0,0-2.78,0l.37-.07a36.19,36.19,0,0,0-5.31,2.54,19.44,19.44,0,0,0-2.31,1.6,5.35,5.35,0,0,0-1.49,1.77,10.43,10.43,0,0,0-.6,2.54,23.74,23.74,0,0,0-.18,2.9,52.55,52.55,0,0,0,.25,6l-.07-.27c0-.07,0,.08.06.12a1.67,1.67,0,0,0,.15.22,2.11,2.11,0,0,0,.43.39,3.24,3.24,0,0,0,1.26.48,6.66,6.66,0,0,0,1.55.06,1.92,1.92,0,0,0,1.13-.48,6.14,6.14,0,0,0,1.58-2.79,17,17,0,0,0,.7-3.53v-.07a.35.35,0,0,1,.24-.3,7.19,7.19,0,0,0,1.13-.49,2.32,2.32,0,0,0,.9-.75h0a.15.15,0,0,1,.27.13,2.69,2.69,0,0,1-.86,1.1,6.71,6.71,0,0,1-1.14.75l.24-.37a16.75,16.75,0,0,1-.12,3.86,7.4,7.4,0,0,1-1.62,3.83,4,4,0,0,1-2.12,1.21,7.78,7.78,0,0,1-2.17.15,5.66,5.66,0,0,1-2.26-.64,4.66,4.66,0,0,1-1-.76,4.28,4.28,0,0,1-.44-.5,3.09,3.09,0,0,1-.4-.69.81.81,0,0,1-.05-.19V141a46.86,46.86,0,0,1-.66-6.34,26.77,26.77,0,0,1,.09-3.27,11.39,11.39,0,0,1,.77-3.47,8.34,8.34,0,0,1,2.4-3,17.34,17.34,0,0,1,2.8-1.86,35.58,35.58,0,0,1,5.94-2.54l.06,0a1.08,1.08,0,0,1,.31-.05,22.86,22.86,0,0,1,3.18.12,24.79,24.79,0,0,1,3.09.54,27.13,27.13,0,0,1,3,.89,25.46,25.46,0,0,1,2.87,1.24l.08,0a.87.87,0,0,1,.48.7c.27,2.85.44,5.69.55,8.54a35.15,35.15,0,0,1-.05,4.32,6.07,6.07,0,0,1-.22,1.13,9.21,9.21,0,0,1-.44,1c-.32.66-.68,1.27-1.05,1.89-1.46,2.45-3,4.84-4.52,7.25s-3.13,4.74-4.85,7a1.11,1.11,0,0,1-.27.26l-.1.07a10.51,10.51,0,0,0-1.06.85c-.38.33-.73.69-1.1,1-.73.72-1.45,1.47-2.12,2.27-1.34,1.6-2.69,3.23-3.91,5s-2.46,3.47-3.67,5.24-2.36,3.59-3.59,5.37a.15.15,0,0,1-.21,0A.16.16,0,0,1,321.26,175.14Z"/><path class="cls-13" d="M333.41,135a6.75,6.75,0,0,1,1.91,0l.84.12a4.83,4.83,0,0,0,.94,0,1.29,1.29,0,0,1-.83.73,2.34,2.34,0,0,1-1.08.1,2.87,2.87,0,0,1-1-.32A2.18,2.18,0,0,1,333.41,135Z"/></g></svg>