<svg xmlns="http://www.w3.org/2000/svg" viewBox="0 0 400 400"><defs><style>.cls-1{fill:#66d0fc;}.cls-2{fill:#724644;}.cls-3{fill:#6a7484;}.cls-4{fill:#059cdb;}.cls-5{fill:#effaff;}.cls-6{fill:#e3a785;}.cls-7{fill:#4c2b28;}.cls-13,.cls-8,.cls-9{fill:#6b3434;}.cls-8{stroke:#6b3434;stroke-linecap:round;stroke-linejoin:round;}.cls-10,.cls-8,.cls-9{opacity:0.5;}.cls-10,.cls-14{fill:#2f333b;}.cls-11{fill:#7f4f4f;}.cls-12{fill:#3e2420;}.cls-15{fill:#2b1816;}</style></defs><title>hello_med</title><g id="circle"><circle class="cls-1" cx="201.16" cy="229.35" r="114.95"/></g><g id="color"><path class="cls-2" d="M264.68,179.56s4.17,41.5-8.33,65.67c0,0-6.42-2.93-8.1-1.94s-5.56,2.44-13.23,2.61l-6.56.15-3.66-11.31-1.36-12.25-7.54-2.41-1.36-.84-29-1.15-8,13.71-5.76,13.3-6.47,3.12c-20,2.5-20.52-1-20.52-1-14.28-33.5-8.74-68-8.74-68l2.76-13,11.93-43.55L167,117.07l75.37.52,11.31,4.82Z"/><path class="cls-3" d="M251.1,331.58l-.22-5.21-.73-9.7-2.38-17.92-1.72-9-2.12-9,1.18-12.71-2.92-7.87-5.81-12.33-2.65-3.81-2.5-4.08-1.92-2.75-.37-.25-.28,0-.22-1.91,0-2.12-.22-1.56.28-1.91-.19-2.75-.94-3.47-1.58-2-3.92-2.87-3.64-1.89-2.34-.69-1.73-.55-.69,7.75.7.34.78.58,2.37,2.84a18.8,18.8,0,0,1,.78,2.87,14.07,14.07,0,0,0-.39,2l-2.86,2.75-3,1.36-3.62.84-3.94-.08-2.86-.44-4-.36s-5.14-2.31-5.25-2.37l-3.16-2.06-2.83-2.66s-1.11-2.8-1.16-2.84.75-3,.75-3l1.55-1.84.42-.25.83-.36-.65-4.73-2.29.5-1.77.37-3,1.12-2.5,1.17-2.5,2.08s-1.75,2.58-2,3.08-.75,7.58-.75,7.58l-.08,4.5-3.67,5.08-3.33,5.67-4.17,6.75-4.83,12.67s2.08,8.42,1.83,8.75-2.34,9.55-2.34,9.55l-2.05,9.48-.69,3.74L152.37,306s-.65,6.68-.9,7.26a43.14,43.14,0,0,0-.49,5l-.69,10.35,0,.51-.09,2.06c0,.92-.09,1.23,0,1.27a113.11,113.11,0,0,0,50.55,11.81,115,115,0,0,0,50.37-11.3Z"/><path class="cls-4" d="M226.43,286.89l-1.31,5L220.93,296l-5.75-3.37L214,290.43l-.12-3.29-11.58-6.33-11.83,6.42-.25,4.87-12.71-1.92.08-10L192,271.85h0c2.81.87,2.56,6.19,2.56,6.19h0c2.17-.9,3.94,1.31,3.94,1.31h0a9,9,0,0,1,5.35-4.21c5.5-.5,6.52,5.08,6.52,5.08h0a6.6,6.6,0,0,1,6,2.06h0a3,3,0,0,1,3.56-.69h0c-.42-2,2-4.25,2-4.25l4.62,3-.12,6.54"/><path class="cls-1" d="M226.14,305.43l.37-19.62-1-.17s-1,.17-1.12.17a13.22,13.22,0,0,0-1.33.67l-1.21,1.5-.46,1.12-.58,1.62-.25,1.08-1.29.42-.62.54-.42.87-.67-1.71-1-1-1.21-.71-1.08-.25-.46,0,.29,12.46L207.35,306l-.46,1.21,4.46,7.17s4.42-1.75,4.62-1.79,9.33-4.92,9.42-5S226.14,305.43,226.14,305.43Z"/><path class="cls-1" d="M190.12,302.5l.22-12.34-.41-.75-1.12-1.5-1.16-1.19L186,285.44l-1.16-.53-1.37-.47h-1.28l-1.37.28-1.25.56-1,.72-1.06,1V307.5s6.91,3.94,7,3.94,7.81-.84,7.81-.84-.66-5.87-.69-6S190.12,302.5,190.12,302.5Z"/><polyline class="cls-5" points="226.06 309.6 226.14 304.43 224.56 304.26 222.93 304.76 221.68 305.72 220.68 307.1 220.06 308.18 219.93 308.72 219.01 308.43 217.18 308.26 215.26 308.26 213.31 308.68 211.76 309.26 211.22 309.64 210.64 308.68 209.39 307.43 208.39 306.56 207.35 305.97 206.14 305.72 205.18 305.76 204.93 305.85 204.31 304.89 203.22 303.64 202.26 302.76 200.6 301.89 199.51 301.68 199.39 301.14 198.47 300.22 197.76 299.64 196.85 299.1 195.22 298.97 193.6 299.14 192.31 299.68 191.35 300.39 190.51 301.43 189.93 302.43 189.22 304.06 188.76 305.6 188.72 306.22 188.1 306.22 186.89 307.01 186.14 307.93 185.43 309.1 185.35 309.56 184.85 307.85 184.14 306.43 182.93 305.39 181.64 304.64 180.01 304.39 179.06 304.31 177.97 304.35 177.51 304.35 177.56 308.97 202.06 324.1 226.06 309.6"/><path class="cls-6" d="M243.31,124.82l-.8-5.6L237,97.56l-18.5-4.83-29.67-2.17-24.5,6.5s-9.17,12.83-10.17,14-.25,15.92-.25,15.92,2.81,59.33,30.77,77.6l3.35,16.06v0l-.69.19-1.67,1.89-.75,3,1.23,3,2.87,2.66h.08l2.67,2,5.53,2.31,8.59.87,4.37-.44,3.37-1.25,2.31-1.56,1.69-1.7.39-2-.73-2.8-2.42-2.92-.78-.58a66.08,66.08,0,0,1,2.81-17.11C246.15,190.1,243.31,124.82,243.31,124.82Z"/><path class="cls-2" d="M167.43,109.22a18.34,18.34,0,0,0,12.37,1.12s4.87-10.62,16.75-10.62c0,0-8.25,7.87-6.62,11.62,0,0,32.25-10.75,57.25,17.37l6.37-1.25-6.5-21.12-23.62-15.5-29.12-5-15.37,3.5L166.3,104.1Z"/><path class="cls-7" d="M256.35,106.2c3.12,3.25,6.9,27.85,10,40.59,2.67,11.11,23.91,28.66,27,31.16a6.13,6.13,0,0,1,2.4,6.83c-.44,1.44-8.52,11.85-12.49,10-18.88-8.66-30.9-29.41-31.89-47.09s-9.42-34-9.42-34l-2.89-5.34L220.18,94.94c-26.8-12-39.25,1-39.25,1l-15.62,8.87-5.75,7.94s-8.94,17.32-9.93,35-13,38.44-31.89,47.09c-4,1.82-12.06-9.09-12.06-9.09l-.66-3.41a7.47,7.47,0,0,1,2.62-6.37c3.12-2.5,25.37-17.37,28.37-29.25s5.85-37.54,9-40.79l.13-.17L160.3,82.35l16.54-8.62s15.38-16,48.5-1.26l8.33,4.64,22.67,29.1"/><path class="cls-3" d="M215.85,84.56c-15.76-10.27-30.08,0-30.08,0l-1.87,1.33-1.29-6.5s17.5-10.5,35.5.42l1.46.87-2.37,4.75Z"/><path class="cls-3" d="M177.24,73.66l6.31,6.91c4.34,5.1.13,15.81-9.4,23.92S153.38,115.06,149,110l-5.23-5.24-.9-.89c-4.34-5.1-.13-15.81,9.4-23.92s20.78-10.56,25.12-5.46Z"/><path class="cls-3" d="M258.42,103.83c4.34-5.1-1.21-13.67-10-22.86s-20.18-11.62-24.52-6.53l.4-.72L218,80.64c-4.34,5.1,1.68,18.63,12.12,26.28,8.87,6.5,18.05,8.21,22.4,3.11Z"/><ellipse class="cls-1" cx="160.17" cy="89.14" rx="22.66" ry="12.12" transform="translate(-19.57 125.1) rotate(-40.41)"/><path class="cls-1" d="M258.42,103.83c-4.34,5.1-15.59,1.65-25.12-6.46s-13.74-17.83-9.4-22.92,15.87-2.52,24.52,6.53S262.76,98.74,258.42,103.83Z"/><path class="cls-5" d="M189.71,155.94l-.32-1.72s-1.67-6.08-3-7.42-1.5-3.79-9.92-4.92c0,0-3.21-.62-8.79,2.37l-1.42.5.17,1.62s1.5,6.79,4.17,9,7.33,3.08,7.33,3.08S182.71,159,189.71,155.94Z"/><path class="cls-5" d="M211.09,154.75l.3-1.59s1.68-6.05,3-7.38,1.52-3.77,10-4.89c0,0,3.24-.62,8.89,2.36l2,.6-.71,1.52s-1.84,5.91-4.54,8.15a30.07,30.07,0,0,1-7.08,3.91S218.16,157.82,211.09,154.75Z"/></g><g id="arms_color"><path class="cls-3" d="M172.52,232.17s-29.32,41.34-32.36,41.75-8.14-6.45-8.14-6.45l-9.67,13.26.36.85s14.24,11.78,16.22,11,10.37-4.9,26.18-23.44,6.94-20.37,6.94-20.37l-.46-3.6a29.55,29.55,0,0,0,1-7.53C172.38,232.38,172.52,232.17,172.52,232.17Z"/><path class="cls-3" d="M228.8,233.91s24.36,36.85,26.73,37.94c2.79,1.28,9.82-6.85,9.82-6.85l10.88,13.31-.36.85S260.37,293.64,256.43,293c-2.11-.33-10-7.26-20-21.82-2.37-3.46-2.66-10.59-2.66-10.59l5.25-4.49s-11-9.16-10.41-12.38C229.3,240.26,228.8,233.91,228.8,233.91Z"/></g><g id="shadow"><path class="cls-8" d="M187.87,218.28s16.73,14.1,25.73,2.1l.67-1s1.58-9.42,1.67-10.17.42-2.83.42-2.83l-5.17,2.17-10.83,1.17-8.58-1.58L186,205.22l-1.15-.54,1.06,3.46,1.42,8.5Z"/><path class="cls-9" d="M187.84,220.25s1.06,9.78,1,10.41-.69,0-.69,0l-2-2.12s-.87-2.56-.87-2.66.06-2,.09-2.28a10.61,10.61,0,0,1,.72-1.62Z"/><path class="cls-10" d="M173.35,241s3,19,25.25,25.58c22.5,6.67,26.31,3.86,30.42,2a31.9,31.9,0,0,0,6-3.73,57.77,57.77,0,0,0,6.5-5.85s2.08-2.6.88-4.59c-.66-1.09-2.14-3-2.14-3l-1.75-2.92s-3.19-4.12-3.17-4.37c.05-.85-1.45-2.94-1.45-2.94L231.52,238l-3.13-5-.13,6.4-.92,3.92-1.92,4.17L223.64,250l-1.83,2-5,3.54-5.42,1.83-8.37.37-5.25-.54-5.87-1.71-7.92-3.83s-8.08-7.37-8.29-7.62S173.35,241,173.35,241Z"/><path class="cls-10" d="M238.1,101.05s3.5,8.67,0,10.33c0,0,2.46,1,2.71,1.08s5.25.31,5.25.31l4-.69a42.55,42.55,0,0,1,3.31-2.81,33.16,33.16,0,0,0,2.94-3.37l.31-.47-2,.53-2.19.25a12.73,12.73,0,0,1-3.22-.28C248.3,105.6,238.1,101.05,238.1,101.05Z"/><path class="cls-10" d="M153.51,106.22s7.92,2.08,9.33,4.92l2.83-1,3.46-1.83L173,105.6l5-4.92s4.87-7.12,5.17-7.46,1.37-3.71,1.67-4.29-.17-4.08-.08-4.37a21,21,0,0,0-.62-3.83,27.18,27.18,0,0,0-2.25-2.21l-2.37-2.08-1.33-1,.62,1.87a11.58,11.58,0,0,1,.29,3.46c-.25,1-1.21,7.58-4.83,10.79s-6.5,8.17-11.83,10.92A52.51,52.51,0,0,1,153.51,106.22Z"/><path class="cls-10" d="M220.16,239.6s5.71,1.85,8.12-.65l.25-4.33-.23-2.44-.35-.67-1.12,2.19-1.42,1.81-2.17,1.85L221,239.05Z"/><path class="cls-9" d="M192.81,175.62c-.1.85,1.24,2.31,2.83,3.47a11.92,11.92,0,0,0,8.21,2.33c10.21-.49,6.3-8.94,5.79-9.08a3.15,3.15,0,0,0-1.87.5,32.77,32.77,0,0,1-2.9,1.56,7,7,0,0,1-5.62.14s-3-.94-4.4-.6A2.76,2.76,0,0,0,192.81,175.62Z"/><path class="cls-9" d="M240.3,122.14s.22,9.11-.25,17.83c-.49,9.19-8.61,39.89-16.86,52.58-6.85,10.53-14.37,14.42-24.67,17.22l10.3-.05,7.91-3.39,5.27-3.64,5.92-6.49,5.65-9.9,4.53-12.82L242.32,150l1.06-19.91-.07-5.28-2.25-2.12Z"/><path class="cls-9" d="M218,229.18l-.5-2.26-1.67-2.1-.93-.92-.78-.58-.22,1.36-.12,1.57-.08,1.48s5.28,1.87,2.38,5.92l.16.26Z"/><path class="cls-10" d="M217.94,230.93s7.51.77,6.84,5l1.86-2.25,1.67-3.3.32-4.29-1.4-3.25-3.35-3.37-3.38-2-2.32-1.09-3.16-.94-.64,3.89-.27,3.91,1.21.9,1.17,1.37,1.23,1.79.38,2Z"/><line class="cls-6" x1="185.62" y1="222.89" x2="186.37" y2="222"/><path class="cls-10" d="M185.62,223s-1.05-4.31-8-3.73c0-.18,1.56-.94,1.56-.94l2.9-1.28,2.56-.81,2.55-.61.42,2.09.48,2.83-.52.15-.93.8Z"/><path class="cls-11" d="M238.65,111.94a17.73,17.73,0,0,1,2.12,10.37l-2.28-1.87-9.09-5.54-7.79-3.06-6.13-1.53-7-.87-6.78,0-6.21.67-5.42,1-.14-2.18,2.63-4.71,3.46-4v-1L189.76,101l-4.6,2.73-2.83,2.79-2.53,3.8-4.16.61-3.88-.34-3.67-1.1-.67-.3,4.44-2.92,6.14-5.63,5.1-6.61,3.53-2,6.91-1.75,7-.59L213.3,92.2l4.31,1.52,1.47.28,1.81,3.12,4.82,6,5.46,4.57,6.55,3.62Z"/><path class="cls-10" d="M272.08,277.91s-12,11.16-19,13.1l1.69,1.11,1.76,1,.86-.08,2.8-1.32,4.49-3.13,7.74-6,3.12-3.09Z"/><path class="cls-10" d="M141.37,272.7s10.11,8.45,4.63,15.73l-.45.27L142,291l-2.4,1.53-1,.08-2.38-.92L127,285.27l-4.33-3.61,2.17-.87,1.87-1.07,3.31-2.81s2.41-3.71,2.5-3.88,1.12-3.16,1.12-3.16l1.22,1,1.51,1.4,2.31,1.48,1.14.25.75-.24Z"/></g><g id="line"><path class="cls-12" d="M136.23,179.25c0,5.81,0,11.53.14,17.26.06,2.86,0,5.72,0,8.6a68.73,68.73,0,0,0,.24,8.63,60.59,60.59,0,0,0,1.53,8.49c.73,2.79,1.57,5.54,2.42,8.27,1.61,5.5,3.66,10.82,5.75,16.11l.11.82a1.21,1.21,0,0,0,0-.22v-.08a.78.78,0,0,0,0-.15.52.52,0,0,0-.05-.15.33.33,0,0,0-.09-.13h0l.06,0a2,2,0,0,0,.53.27,9.37,9.37,0,0,0,1.62.47,34.42,34.42,0,0,0,3.74.5c1.28.13,2.59.21,3.9.29s2.63.15,4,.29h0a.15.15,0,0,1,0,.3c-1.29.35-2.59.65-3.91.88a39.43,39.43,0,0,1-4,.52,24.75,24.75,0,0,1-4.14,0,10.69,10.69,0,0,1-2.22-.42,5,5,0,0,1-1.25-.58,3.67,3.67,0,0,1-.34-.25c-.12-.11-.25-.23-.36-.36a3,3,0,0,1-.35-.55,1.93,1.93,0,0,1-.19-1.08l.11.82a86.58,86.58,0,0,1-5.31-16.71c-1.18-5.73-1.57-11.56-2.44-17.28-.38-2.87-.9-5.73-1.33-8.62a54.62,54.62,0,0,1-.61-8.72,78.37,78.37,0,0,1,.55-8.72,50.38,50.38,0,0,1,1.69-8.59.15.15,0,0,1,.19-.1A.16.16,0,0,1,136.23,179.25Z"/><path class="cls-12" d="M264.83,179.54a78,78,0,0,1,1.84,16.73,57.39,57.39,0,0,1-.45,8.41c-.35,2.79-.82,5.57-1.18,8.34s-.62,5.56-.92,8.35-.55,5.6-1.06,8.39A65.75,65.75,0,0,1,261,238a51.63,51.63,0,0,1-3.23,7.95,1.61,1.61,0,0,1-2,.75,41.35,41.35,0,0,0-4.54-1.61,12,12,0,0,0-2.16-.46c-.29,0-.62,0-.52,0l-1.06.58a9.22,9.22,0,0,1-2.65,1,13.48,13.48,0,0,1-2.68.24A35.8,35.8,0,0,1,237,246a.15.15,0,0,1-.13-.17.15.15,0,0,1,.12-.13c1.67-.32,3.34-.6,4.94-.95a15,15,0,0,0,2.27-.65,8,8,0,0,0,1.9-1.1l.49-.36.25-.19.13-.09a1.46,1.46,0,0,1,.19-.13,3.8,3.8,0,0,1,1.94-.44,13.78,13.78,0,0,1,2.81.35,39.1,39.1,0,0,1,5,1.55l-2,.75c.6-1.21,1.2-2.42,1.72-3.67.29-.61.56-1.24.81-1.87s.53-1.25.75-1.9c1-2.55,1.76-5.18,2.57-7.82s1.54-5.32,2.14-8a58.34,58.34,0,0,0,1.15-8.25,83,83,0,0,0,0-8.35c-.1-2.78-.1-5.55,0-8.32.11-5.54.18-11.08.51-16.7a.15.15,0,0,1,.16-.15A.16.16,0,0,1,264.83,179.54Z"/><path class="cls-13" d="M195.93,175.72a1.71,1.71,0,0,1,1.22-.6,2.1,2.1,0,0,1,1.22.31,1.93,1.93,0,0,1,.89,2.29,7.36,7.36,0,0,1-1.18-.25,3.38,3.38,0,0,1-.74-.32,3.55,3.55,0,0,1-.63-.51A11.47,11.47,0,0,1,195.93,175.72Z"/><path class="cls-13" d="M203.93,177.56a2.13,2.13,0,0,1,.41-1.3,2.45,2.45,0,0,1,.94-.77,2.37,2.37,0,0,1,1.23-.21,1.88,1.88,0,0,1,1.25.63,7.41,7.41,0,0,1-.86.9,3.31,3.31,0,0,1-.77.5,3.35,3.35,0,0,1-.92.27A4.59,4.59,0,0,1,203.93,177.56Z"/><path class="cls-13" d="M207.68,170.64a3.25,3.25,0,0,1,1.89.89,4.08,4.08,0,0,1,1.12,1.8,3.46,3.46,0,0,1-1.18,3.89c-.18-.73-.22-1.3-.36-1.84a13,13,0,0,0-.37-1.47C208.51,173,208.11,172,207.68,170.64Z"/><path class="cls-13" d="M193.93,171.81c.09.64.12,1.12.15,1.58s0,.86,0,1.27,0,.8-.06,1.25a15.62,15.62,0,0,1-.19,1.58,2.92,2.92,0,0,1-1.75-2.87,3.34,3.34,0,0,1,.48-1.67A2.56,2.56,0,0,1,193.93,171.81Z"/><path class="cls-13" d="M218.49,183.24a2.13,2.13,0,0,1,1.32-.35,2.44,2.44,0,0,1,1.16.38,2.37,2.37,0,0,1,.84.92,1.88,1.88,0,0,1,.14,1.39,7.44,7.44,0,0,1-1.22-.24,3.3,3.3,0,0,1-.84-.38,3.35,3.35,0,0,1-.72-.63A4.59,4.59,0,0,1,218.49,183.24Z"/><path class="cls-13" d="M185.73,183.24a4.59,4.59,0,0,1-.68,1.08,3.35,3.35,0,0,1-.72.63,3.3,3.3,0,0,1-.84.38,7.44,7.44,0,0,1-1.22.24,1.88,1.88,0,0,1,.14-1.39,2.37,2.37,0,0,1,.84-.92,2.44,2.44,0,0,1,1.16-.38A2.13,2.13,0,0,1,185.73,183.24Z"/><path class="cls-13" d="M184.91,184.52a47.09,47.09,0,0,0,8.49,3.52,29.12,29.12,0,0,0,8.74,1.08,35.38,35.38,0,0,0,8.75-1.49c2.93-.78,5.72-2.06,8.71-3.17a27.5,27.5,0,0,1-7.89,5.37,24.4,24.4,0,0,1-9.48,2.29,21.9,21.9,0,0,1-9.62-1.88A21.58,21.58,0,0,1,184.91,184.52Z"/><path class="cls-13" d="M188.18,128.06c-2.32-.48-4.33-.91-6.31-1.22a39.3,39.3,0,0,0-5.71-.54,35.24,35.24,0,0,0-5.69.28c-1,0-2,.3-3,.41s-2.11.41-3.34.48a12.49,12.49,0,0,1,1-1.42,8.42,8.42,0,0,1,1.22-1.28,13.44,13.44,0,0,1,2.94-2,14.42,14.42,0,0,1,7-1.53,15,15,0,0,1,6.9,1.85A12,12,0,0,1,188.18,128.06Z"/><path class="cls-13" d="M212,127.72a12.66,12.66,0,0,1,5.07-4.66,16.55,16.55,0,0,1,6.69-1.91,17.33,17.33,0,0,1,3.52.11,15.55,15.55,0,0,1,3.4.91,12.72,12.72,0,0,1,5.58,4.05c-2.39,0-4.4-.23-6.4-.21a51.84,51.84,0,0,0-5.75.12c-1.89.13-3.79.33-5.77.63Z"/><path class="cls-13" d="M189.81,156.17a27.52,27.52,0,0,1-7.28,2.8,17.05,17.05,0,0,1-8.07,0,12.6,12.6,0,0,1-3.93-1.73,9.74,9.74,0,0,1-2.92-3.19,12.73,12.73,0,0,1-1.4-8,.16.16,0,0,1,.18-.13.16.16,0,0,1,.12.08,42.64,42.64,0,0,0,3.63,6.4,21.72,21.72,0,0,0,2.22,2.46,8.63,8.63,0,0,0,2.84,1.79,16.52,16.52,0,0,0,7.12.8,29.73,29.73,0,0,0,7.38-1.59h0a.15.15,0,0,1,.12.27Z"/><path class="cls-13" d="M189.2,154a23.81,23.81,0,0,0-2.73-5.85,18,18,0,0,0-4.14-4.62A21.15,21.15,0,0,0,177,141l-1.44-.52a12.24,12.24,0,0,1-1.66-.65,6.52,6.52,0,0,1-2.79-2.27.15.15,0,0,1,.17-.23h0a17.65,17.65,0,0,0,3.15.45c.52,0,1,.07,1.55.07s1.17.15,1.76.23a7.37,7.37,0,0,1,1.74.51c.28.11.56.23.84.35s.52.32.78.48a11.18,11.18,0,0,1,1.46,1.07,12.87,12.87,0,0,1,1.33,1.2,17.76,17.76,0,0,1,3.88,5.73,22,22,0,0,1,1.7,6.5.15.15,0,0,1-.29.06Z"/><path class="cls-13" d="M186.31,146.72a15.35,15.35,0,0,0-4.84-3.48,14,14,0,0,0-5.56-1.3c-.47,0-.94,0-1.41.09l-1.39.25c-.53.1-1.06.18-1.59.24a15.42,15.42,0,0,1-1.64,0,9.91,9.91,0,0,1-3.34-.74,4.46,4.46,0,0,1-1.56-1.06,1.76,1.76,0,0,1-.45-1.87.15.15,0,0,1,.27,0l0,.05a1.3,1.3,0,0,0,1,.7,5.1,5.1,0,0,0,1.26.12c.9,0,1.83-.1,2.78-.21s1.92-.19,2.92-.2l1.69,0,1.67.18a14.41,14.41,0,0,1,6.1,2.39,14.91,14.91,0,0,1,4.34,4.61.15.15,0,0,1-.24.18Z"/><path class="cls-13" d="M184.25,144.57a15.22,15.22,0,0,0-5.65-1.74,13.91,13.91,0,0,0-5.63.53c-.44.17-.88.33-1.3.52l-1.22.67c-.47.26-.94.5-1.42.72a15.2,15.2,0,0,1-1.54.53,9.84,9.84,0,0,1-3.38.35,4.45,4.45,0,0,1-1.8-.51,1.75,1.75,0,0,1-1-1.62.15.15,0,0,1,.25-.08l0,0a1.29,1.29,0,0,0,1.13.35,5.11,5.11,0,0,0,1.23-.29c.84-.3,1.69-.68,2.55-1.07s1.75-.78,2.68-1.1l1.6-.49,1.63-.35a14.31,14.31,0,0,1,6.49.33,14.78,14.78,0,0,1,5.54,3,.15.15,0,0,1-.17.25Z"/><path class="cls-13" d="M212.5,155.18a19,19,0,0,0,7.14,1.46,12.28,12.28,0,0,0,6.62-1.78c1.95-1.21,3.22-3.12,4.62-4.93.72-.92,1.35-1.92,2-2.93.31-.52.66-1,1-1.56s.68-1.07,1.09-1.59h0a.16.16,0,0,1,.28.09,15.24,15.24,0,0,1-1.9,7.61,11.77,11.77,0,0,1-2.54,3.19,16.29,16.29,0,0,1-3.47,2.24,13.17,13.17,0,0,1-3.9,1.19,14.87,14.87,0,0,1-4,0,18.48,18.48,0,0,1-7.18-2.7.15.15,0,0,1,.14-.26Z"/><path class="cls-13" d="M211,154.29a19.87,19.87,0,0,1,1.65-6.8,16.5,16.5,0,0,1,4.3-5.83,13.16,13.16,0,0,1,3.13-2.1,10.43,10.43,0,0,1,3.65-.84,11.11,11.11,0,0,0,5.74-2.34h0a.15.15,0,0,1,.23.18,8.22,8.22,0,0,1-5.53,4.83c-1,.31-2,.7-2.9,1a14.89,14.89,0,0,0-2.79,1.27,15.08,15.08,0,0,0-4.45,4.53,21.49,21.49,0,0,0-2.74,6.08h0a.15.15,0,0,1-.29,0Z"/><path class="cls-13" d="M214.26,145.54a15.79,15.79,0,0,1,4.63-4,17.31,17.31,0,0,1,5.91-2.11l1.58-.21c.53-.06,1.06-.07,1.6-.11,1-.08,1.8-.08,2.68-.14A15.09,15.09,0,0,0,236,137.8h0a.16.16,0,0,1,.21.19,6.75,6.75,0,0,1-5.15,4,8.7,8.7,0,0,1-3.28,0c-.46-.06-.92-.14-1.38-.18s-.93,0-1.39,0a17.93,17.93,0,0,0-5.52,1.09,16.52,16.52,0,0,0-5,2.88h0a.15.15,0,0,1-.22-.21Z"/><path class="cls-13" d="M216.38,143.32a15.21,15.21,0,0,1,5.52-2.78,15.86,15.86,0,0,1,6.35-.4,23.57,23.57,0,0,1,5.92,1.6c.88.35,1.74.71,2.6,1a8.92,8.92,0,0,0,1.27.35,1.51,1.51,0,0,0,1.17-.14l.08-.06a.14.14,0,0,1,.22.11c0,.75-.68,1.19-1.21,1.45a5.62,5.62,0,0,1-1.73.41,10.92,10.92,0,0,1-3.28-.25,12.16,12.16,0,0,1-2.94-1.08,12.43,12.43,0,0,0-2.57-1.05,16.25,16.25,0,0,0-11.23,1.08h0a.15.15,0,0,1-.16-.25Z"/><path class="cls-14" d="M182.52,79.26a12.92,12.92,0,0,1,3.87-2.91,14.94,14.94,0,0,1,4.53-1.54c.81-.07,1.62-.09,2.42-.11a20.28,20.28,0,0,0,2.39,0,43.56,43.56,0,0,0,4.69-.63,20.4,20.4,0,0,1,9.6.54,18.78,18.78,0,0,1,8.15,5.09.15.15,0,0,1-.14.26h0a21.84,21.84,0,0,1-2.32-.54c-.75-.2-1.45-.47-2.21-.62s-1.46-.37-2.17-.59-1.45-.31-2.16-.51c-1.41-.43-2.85-.72-4.29-1.12-.73-.14-1.47-.24-2.2-.41s-1.48-.33-2.24-.45a12,12,0,0,0-4.57-.05,15.08,15.08,0,0,0-2.2.7c-.71.32-1.41.64-2.11.9a13.3,13.3,0,0,1-2.14.7c-.71.23-1.45.39-2.18.59-1.48.35-2.94.74-4.56,1h0a.16.16,0,0,1-.14-.26Z"/><path class="cls-14" d="M185.68,84.44a7.5,7.5,0,0,1,1.41-1.61,10.81,10.81,0,0,1,1.68-1.25A11.17,11.17,0,0,1,192.6,80c.7-.08,1.41-.11,2.1-.13a14,14,0,0,0,2.07,0,29.9,29.9,0,0,0,4-.65,13.68,13.68,0,0,1,4.18-.32,15.73,15.73,0,0,1,4.14.78,14.93,14.93,0,0,1,6.8,4.78.16.16,0,0,1-.14.25h0a37.65,37.65,0,0,1-3.91-1c-.63-.15-1.25-.32-1.85-.51s-1.23-.29-1.82-.47-1.18-.4-1.79-.54-1.21-.32-1.82-.5-1.24-.23-1.86-.4c-.31-.07-.62-.17-.94-.25l-1-.19a8.87,8.87,0,0,0-3.9,0,12.07,12.07,0,0,0-1.85.7c-.59.32-1.16.64-1.75.91a9.76,9.76,0,0,1-1.78.69c-.59.23-1.21.39-1.82.59a37.16,37.16,0,0,1-3.88,1h0a.16.16,0,0,1-.17-.25Z"/><path class="cls-14" d="M214.12,223.09a9.68,9.68,0,0,1,3,2,7.4,7.4,0,0,1,1.2,1.45,6.37,6.37,0,0,1,.84,1.8,5.82,5.82,0,0,1,.2,2.1,5.48,5.48,0,0,1-.21,1.06,3.9,3.9,0,0,1-.39,1,6.78,6.78,0,0,1-2.82,2.86,17.82,17.82,0,0,1-7,1.5c-2.3.18-4.59.29-6.93.28a23.16,23.16,0,0,1-7-1,20.25,20.25,0,0,1-6.49-3.13,13.39,13.39,0,0,1-2.67-2.63,8.53,8.53,0,0,1-1.66-3.57,5.56,5.56,0,0,1,.65-3.94,5.83,5.83,0,0,1,2.83-2.33.15.15,0,0,1,.2.08.16.16,0,0,1,0,.16,6.7,6.7,0,0,0-1.6,2.71,4.27,4.27,0,0,0,.23,2.69,10.63,10.63,0,0,0,3.94,4.23,29.06,29.06,0,0,0,5.55,3,55.41,55.41,0,0,0,6.22,2.08,16.06,16.06,0,0,0,6.61.39,13.07,13.07,0,0,0,5.79-2.64c1.52-1.24,2.54-2.61,2.3-4.41s-1.5-3.68-2.92-5.46a.15.15,0,0,1,0-.22A.16.16,0,0,1,214.12,223.09Z"/><path class="cls-14" d="M187,215.72A32.59,32.59,0,0,0,179.5,219a13.63,13.63,0,0,0-3,2.45l-.56.73-.43.78a7.44,7.44,0,0,0-.52,1.72,25.87,25.87,0,0,0-.41,3.94c-.07,1.34-.09,2.69,0,4,.08,2.7.24,5.45.53,8.11l-.17-.54a33.41,33.41,0,0,0,2.66,3.71c.5.6,1,1.18,1.54,1.75s1.08,1.12,1.66,1.65,1.16,1,1.76,1.55l1.84,1.45,1.95,1.31c.65.43,1.36.77,2,1.18a17.11,17.11,0,0,0,2.1,1.06,20.49,20.49,0,0,0,2.17.94l2.23.81c.75.27,1.53.41,2.3.63a38.86,38.86,0,0,0,4.71.94,19.69,19.69,0,0,0,2.41.25l2.44.22c-1.61.16-3.25.41-4.9.42a33.62,33.62,0,0,1-4.95-.3,32,32,0,0,1-9.6-2.78,33.4,33.4,0,0,1-8.42-5.54c-.64-.56-1.22-1.17-1.83-1.75s-1.15-1.24-1.7-1.88a27.39,27.39,0,0,1-3-4.22,1.31,1.31,0,0,1-.17-.52h0a69.42,69.42,0,0,1-.33-8.44,35,35,0,0,1,1-8.5,9.54,9.54,0,0,1,.86-2.18l.68-1,.8-.83a13.76,13.76,0,0,1,3.69-2.39A25.26,25.26,0,0,1,187,215.72Z"/><path class="cls-14" d="M210.08,257.41c1.36-.78,2.68-1.41,3.95-2.09s2.5-1.34,3.81-1.91a15.34,15.34,0,0,0,3.89-2,8.82,8.82,0,0,0,2.53-3.53c.31-.66.5-1.37.74-2,.1-.35.23-.67.34-1l.3-1c.38-1.35.64-2.72.89-4.1.6-2.75,1-5.6,1.58-8.67a.16.16,0,0,1,.19-.12.16.16,0,0,1,.11.09,17.29,17.29,0,0,1,1.28,9.24,16,16,0,0,1-1.4,4.57,13.06,13.06,0,0,1-2.67,3.95c-1.09,1.15-2.19,2.21-3.23,3.33a31.56,31.56,0,0,1-3.26,3.42,11.62,11.62,0,0,1-4.29,2,10.74,10.74,0,0,1-4.72.2.16.16,0,0,1,0-.29Z"/><path class="cls-14" d="M215.35,215.64a20.24,20.24,0,0,1,8.92,2.68,13,13,0,0,1,3.78,3.21,9.44,9.44,0,0,1,2,4.91l0-.28a5.15,5.15,0,0,1,.12.72c0,.22,0,.42,0,.63a8,8,0,0,1-.06,1.21,10,10,0,0,1-.53,2.29,12.17,12.17,0,0,1-2.31,3.86A16.47,16.47,0,0,1,224,237.7c-.62.36-1.21.73-1.84,1s-1.28.57-1.93.81c.49-.51,1-1,1.47-1.46l1.39-1.47a21.66,21.66,0,0,0,2.34-3.12,12.55,12.55,0,0,0,1.49-3.34,9.59,9.59,0,0,0,.28-1.71,6.49,6.49,0,0,0,0-.83,4.61,4.61,0,0,0-.08-.68,2.06,2.06,0,0,1,0-.23v-.05a7.69,7.69,0,0,0-1.3-3.42,13.67,13.67,0,0,0-2.82-2.93,29.16,29.16,0,0,0-3.59-2.47C218,217.06,216.71,216.36,215.35,215.64Z"/><path class="cls-14" d="M150.18,332.41a77.64,77.64,0,0,1-.79-14,115.13,115.13,0,0,1,1.19-13.93,109.66,109.66,0,0,1,2.83-13.7,78.8,78.8,0,0,1,4.79-13.17c-.39,4.69-1.13,9.23-1.71,13.8l-2,13.63-2,13.63C151.79,323.25,151.09,327.8,150.18,332.41Z"/><path class="cls-14" d="M251.1,332.62c-.69-4.35-1.28-8.67-1.86-13s-1.14-8.62-1.77-12.92l-1.81-12.91c-.59-4.31-1.28-8.61-1.74-13a86.62,86.62,0,0,1,4,12.56,119.47,119.47,0,0,1,2.48,12.95q.42,3.27.74,6.55c.15,2.19.34,4.38.39,6.58A83.19,83.19,0,0,1,251.1,332.62Z"/><path class="cls-14" d="M177.55,280.22l.47,14.5.22,7.15.17,7.1-.41-.74q6.21,3.64,12.39,7.34c4.12,2.45,8.25,4.91,12.35,7.4h-1.38l11.94-7.35,12-7.29-.72,1.25c.05-4.88.17-9.75.27-14.62s.17-9.75.32-14.62l.64,1.2-4.6-3,1.63-.12a6.32,6.32,0,0,0-.65.71,6.12,6.12,0,0,0-.55.82,2.89,2.89,0,0,0-.4,1.57v0a1.3,1.3,0,0,1-1.86,1.28,3.06,3.06,0,0,0-.62-.19,2.22,2.22,0,0,0-.6,0,1,1,0,0,0-.41.13,1.08,1.08,0,0,0-.31.3l-.13.15a1.25,1.25,0,0,1-1.77.11l-.07-.07a7.65,7.65,0,0,0-1.07-.89,7.16,7.16,0,0,0-1.22-.69,4.82,4.82,0,0,0-1.26-.34,3.62,3.62,0,0,0-1.21.09h-.07a1.18,1.18,0,0,1-1.41-.9h0a6.63,6.63,0,0,0-1.48-3,3.89,3.89,0,0,0-1.27-.91,3.47,3.47,0,0,0-.74-.23,7.19,7.19,0,0,0-.88-.12,3.9,3.9,0,0,0-3.06.92,17.68,17.68,0,0,0-2.61,2.79l0,0A.86.86,0,0,1,198,280l-.11-.11a5.56,5.56,0,0,0-.69-.66,3.88,3.88,0,0,0-.78-.51,1.46,1.46,0,0,0-1.41-.06l0,0a.77.77,0,0,1-1.13-.75,10.78,10.78,0,0,0,0-1.64,7.46,7.46,0,0,0-.26-1.62,4.45,4.45,0,0,0-.64-1.41,3,3,0,0,0-1.13-.92l.48,0L185,276.25Zm0,0,7-4.41,7.16-4.45a.53.53,0,0,1,.46,0h0a4.18,4.18,0,0,1,1.69,1.21,5.7,5.7,0,0,1,1,1.77,8.83,8.83,0,0,1,.42,1.88,10.47,10.47,0,0,1,.06,1.93l-1.17-.73a2.9,2.9,0,0,1,1.49-.43,3.62,3.62,0,0,1,1.41.31,5.49,5.49,0,0,1,1.13.66,7.12,7.12,0,0,1,1,.86l-1.34,0a19.27,19.27,0,0,1,2.78-3.21,6.41,6.41,0,0,1,2-1.22,6,6,0,0,1,2.37-.3,9.23,9.23,0,0,1,1.12.12,5.59,5.59,0,0,1,1.19.33,6.05,6.05,0,0,1,2,1.36,7.83,7.83,0,0,1,1.36,1.91,9.3,9.3,0,0,1,.81,2.19l-1.47-.9a6,6,0,0,1,2.08-.23,7.19,7.19,0,0,1,2,.45,9.57,9.57,0,0,1,1.7.88,9.88,9.88,0,0,1,1.51,1.2l-2,.18a3.5,3.5,0,0,1,2.53-1.59,4.74,4.74,0,0,1,1.37,0,5.38,5.38,0,0,1,1.28.38l-1.85,1.32a5.47,5.47,0,0,1,.65-3.1,9,9,0,0,1,1.75-2.3,1.3,1.3,0,0,1,1.59-.15l0,0,4.65,3a1.37,1.37,0,0,1,.64,1.16v0c0,4.88-.12,9.75-.18,14.63s-.12,9.75-.23,14.63h0a1.49,1.49,0,0,1-.72,1.23l-12,7.21-12.06,7.15h0a1.31,1.31,0,0,1-1.36,0q-6.1-3.82-12.15-7.72t-12.11-7.79l0,0a.83.83,0,0,1-.38-.72l.17-7.28.22-7.22C177.23,289.67,177.37,284.91,177.55,280.22Z"/><path class="cls-14" d="M190,301.93l-.24-14.72a.64.64,0,0,1,.32-.57l0,0,11.65-6.76a1,1,0,0,1,1,0l.06,0,5.89,3,5.9,3a1.42,1.42,0,0,1,.78,1.19v.1c.13,2.54.17,5.08.14,7.63s-.11,5.09-.27,7.63v.17a.91.91,0,0,1-.56.78c-2.43,1-4.88,2-7.41,2.79a.15.15,0,0,1-.14-.27c2.14-1.57,4.35-3,6.59-4.38l-.57,1c-.27-2.54-.45-5.08-.6-7.62s-.22-5.08-.2-7.62l.79,1.29-5.68-3.37-5.7-3.34h1l-12,6.07.36-.59-.83,14.7a.15.15,0,0,1-.3,0Z"/><path class="cls-14" d="M226.23,285.82a3.42,3.42,0,0,0-2.11.43,4,4,0,0,0-1.46,1.53,8.13,8.13,0,0,0-.5,1c-.12.35-.26.68-.35,1a17.48,17.48,0,0,0-.43,2.18.73.73,0,0,1-.56.61l-.13,0a3.34,3.34,0,0,0-.59.2,2.08,2.08,0,0,0-.5.31.81.81,0,0,0-.32.65,1,1,0,0,1-2,.19l-.05-.22c0-.08-.09-.34-.15-.51a5.52,5.52,0,0,0-.24-.57,4.47,4.47,0,0,0-.73-1.06,6.72,6.72,0,0,0-1.12-.89c-.21-.14-.45-.25-.68-.4s-.49-.24-.74-.38h0a.11.11,0,0,1,0-.19,4.94,4.94,0,0,1,1.76-.07,4.86,4.86,0,0,1,1.77.61,4.68,4.68,0,0,1,1.44,1.35,4,4,0,0,1,.71,2l-2,0a2.65,2.65,0,0,1,.48-1.18,3,3,0,0,1,.88-.76,4.11,4.11,0,0,1,.94-.39,5.19,5.19,0,0,1,1-.18l-.68.63a18.83,18.83,0,0,1,.78-2.32c.16-.38.36-.74.54-1.11a8.3,8.3,0,0,1,.72-1,4.82,4.82,0,0,1,2-1.5,3.59,3.59,0,0,1,2.43-.07.1.1,0,0,1,0,.19Z"/><path class="cls-14" d="M190.26,290a16.58,16.58,0,0,0-2.72-2.72,9,9,0,0,0-3.17-1.74,6.62,6.62,0,0,0-3.23.19,10,10,0,0,0-1.65.53c-.58.22-1.12.55-1.82.76h0a.11.11,0,0,1-.13-.14,5.72,5.72,0,0,1,3-3l.53-.22a4.92,4.92,0,0,1,.57-.11,3.79,3.79,0,0,1,1.16,0,10.25,10.25,0,0,1,1.13.21l1.05.37a10.27,10.27,0,0,1,3.32,2.52,14.81,14.81,0,0,1,2.2,3.34.1.1,0,0,1-.17.11Z"/><path class="cls-14" d="M188.62,306a13.16,13.16,0,0,1,1-3.9,6.6,6.6,0,0,1,2.78-3.28,9,9,0,0,1,2.06-.8,4.4,4.4,0,0,1,2.32.09,4.06,4.06,0,0,1,2.87,3.24.11.11,0,0,1-.1.12.11.11,0,0,1-.08,0,6.31,6.31,0,0,0-3.16-1.4,7.6,7.6,0,0,0-3.26.26,5.29,5.29,0,0,0-2.55,2.28,14.53,14.53,0,0,0-1.64,3.46h0a.1.1,0,0,1-.2,0Z"/><path class="cls-14" d="M225.73,304.49a3.79,3.79,0,0,0-1.8.44,4.49,4.49,0,0,0-1.34,1.08c-.39.43-.5,1.05-.94,1.44a4.81,4.81,0,0,1-.69.65,4,4,0,0,1-.93.65h0a.13.13,0,0,1-.17-.06v0a3.33,3.33,0,0,1,.11-2.28,3.87,3.87,0,0,1,1.6-1.6,4.76,4.76,0,0,1,2.11-.83,3.87,3.87,0,0,1,2.14.33.1.1,0,0,1,0,.19Z"/><path class="cls-14" d="M221.39,309.21a12.74,12.74,0,0,0-6.75,0,23.24,23.24,0,0,0-2.95,1.34c-.51.2-1,.46-1.52.69a14.34,14.34,0,0,1-1.67.73h0a.11.11,0,0,1-.13-.14,6.3,6.3,0,0,1,2.32-3,5.49,5.49,0,0,1,1.74-.84,15.18,15.18,0,0,1,1.9-.34,11.13,11.13,0,0,1,3.74.12,11.78,11.78,0,0,1,3.42,1.27.1.1,0,0,1-.08.18Z"/><path class="cls-14" d="M211.34,309.86a8.07,8.07,0,0,1-2.17-.73,7.93,7.93,0,0,1-1.45-.88,7.6,7.6,0,0,1-1.05-1,7,7,0,0,0-1.54-1.27l-.08,0a.08.08,0,0,1,0-.11l0,0a3.42,3.42,0,0,1,2-.07,5.42,5.42,0,0,1,1.83.93,10.36,10.36,0,0,1,2.58,3.1.08.08,0,0,1,0,.11h-.05Z"/><path class="cls-14" d="M205.44,306.8a9.54,9.54,0,0,0-3.65-3.78,5.53,5.53,0,0,0-4.79-.25,12.07,12.07,0,0,0-4.06,2.8,10.89,10.89,0,0,0-2.58,4.39h0a.1.1,0,0,1-.13.07.1.1,0,0,1-.07-.07,6.68,6.68,0,0,1,1.26-5.69,7.27,7.27,0,0,1,2.32-2,13.32,13.32,0,0,1,2.78-1.07,7.51,7.51,0,0,1,3-.19,6.66,6.66,0,0,1,2.78,1.12,9.67,9.67,0,0,1,3.3,4.56.1.1,0,0,1-.18.08Z"/><path class="cls-14" d="M191.14,306.4a3.94,3.94,0,0,0-3.39.5,4.45,4.45,0,0,0-1.09,1.27c-.15.24-.25.52-.37.77l-.27.83a.7.7,0,0,1-1.35-.1l0-.1a5.06,5.06,0,0,0-.83-2.08,6.07,6.07,0,0,0-1.57-1.43,8.91,8.91,0,0,0-2-.93c-.38-.13-.79-.2-1.21-.34a11.2,11.2,0,0,1-1.31-.31h0a.11.11,0,0,1-.07-.13.11.11,0,0,1,.05-.06,9.35,9.35,0,0,1,1.32-.49,9.77,9.77,0,0,1,1.42-.19,6,6,0,0,1,2.92.69,5.17,5.17,0,0,1,2,2.32,7,7,0,0,1,.69,2.92l-1.37-.21.44-.93c.19-.29.35-.6.57-.87a4.87,4.87,0,0,1,1.59-1.38,4.34,4.34,0,0,1,3.93.06.1.1,0,0,1-.07.19Z"/><ellipse class="cls-13" cx="179.35" cy="150.02" rx="2.75" ry="2.46"/><ellipse class="cls-13" cx="221" cy="149.27" rx="2.48" ry="2.46"/><path class="cls-13" d="M154.18,127c3,17.18,6.56,34.1,12.58,50.09a95.74,95.74,0,0,0,5.11,11.74,45,45,0,0,0,7.44,10.39,31.11,31.11,0,0,0,10.49,7.13A30.45,30.45,0,0,0,214,205.4a30.07,30.07,0,0,0,9.45-7.49,47,47,0,0,0,6.62-10.43,92.19,92.19,0,0,0,4.56-11.76,168,168,0,0,0,5.61-25c1.31-8.53,2.18-17.16,2.79-25.86h0a.25.25,0,0,1,.5,0,119.17,119.17,0,0,1,.92,13.12q.14,6.58-.3,13.18c-.15,2.2-.34,4.39-.58,6.59s-.56,4.38-.91,6.57a103.57,103.57,0,0,1-2.92,13,71.57,71.57,0,0,1-5,12.53A49.37,49.37,0,0,1,227,201.08a32.08,32.08,0,0,1-11.32,8,30.73,30.73,0,0,1-13.55,2.06,35.44,35.44,0,0,1-13-3.26,40.86,40.86,0,0,1-10.92-7.57,71.09,71.09,0,0,1-15.26-21.69,81.83,81.83,0,0,1-4.51-12.5q-.88-3.2-1.63-6.42c-.48-2.15-.89-4.32-1.27-6.49s-.69-4.35-1-6.53-.49-4.37-.65-6.56a102.07,102.07,0,0,1-.22-13.16.25.25,0,0,1,.5,0Z"/><path class="cls-13" d="M213.53,227.71c-.11-1.95-.11-3.89-.13-5.83s.06-3.89.18-5.84a24.55,24.55,0,0,1,.59-5.86,14.8,14.8,0,0,1,1.11-2.83,8.66,8.66,0,0,1,.84-1.35,3,3,0,0,1,1.3-1.07.16.16,0,0,1,.2.2v0a4.72,4.72,0,0,0-.22,1.36c0,.46,0,.93-.08,1.4q-.06,1.41-.19,2.82a47.52,47.52,0,0,1-1.16,5.59l-2.13,11.39a.15.15,0,0,1-.3,0Z"/><path class="cls-13" d="M188.63,230.08c-.36-2.13-.69-4.26-1.11-6.37s-.79-4.21-1.22-6.3a63.27,63.27,0,0,1-1.4-6.22,35.92,35.92,0,0,1-.28-6.51.16.16,0,0,1,.17-.15.17.17,0,0,1,.12.06,17.89,17.89,0,0,1,2.93,6,29.26,29.26,0,0,1,.84,6.49q.28,3.25.34,6.5c0,2.17,0,4.33-.09,6.5a.15.15,0,0,1-.3,0Z"/><path class="cls-15" d="M159.78,112.9l-3.7,13.44c-.59,2.22-1.17,4.43-1.71,6.64s-1,4.43-1.59,6.63c-.27,1.11-.59,2.2-.82,3.32l-.41,1.67-.33,1.68-.33,1.7-.31,1.78c-.24,1.18-.48,2.34-.73,3.5A131.82,131.82,0,0,1,146,167a60.42,60.42,0,0,1-2.73,6.66,46.84,46.84,0,0,1-3.71,6.22,50.7,50.7,0,0,1-9.87,10.72,42.76,42.76,0,0,1-6.13,4.06c-1.07.59-2.19,1.11-3.3,1.61l-1.75.73a4.73,4.73,0,0,1-3.08.08,10.25,10.25,0,0,1-3.7-2.2,26.75,26.75,0,0,1-2.59-2.7,38.89,38.89,0,0,1-4-6l-.07-.12a7.07,7.07,0,0,1-.24-1.25,2.57,2.57,0,0,1,.15-1.36.25.25,0,0,1,.47.13v.06a2.18,2.18,0,0,0,.26.95,8.78,8.78,0,0,0,.53,1l-.07-.12c1.67,1.59,3.39,3.17,5.15,4.57a23.34,23.34,0,0,0,2.67,1.9,6.58,6.58,0,0,0,2.45,1c.31,0,.41-.07.35-.08l1.41-.78q1.44-.84,2.82-1.76c1.85-1.21,3.62-2.54,5.35-3.92s3.4-2.84,5-4.39a63.22,63.22,0,0,0,4.55-4.93c1.43-1.73,2.78-3.53,4.09-5.38a62.52,62.52,0,0,0,3.71-5.75,35,35,0,0,0,4.44-13,28.45,28.45,0,0,0,.21-3.43c0-.57,0-1.14,0-1.71l0-1.79,0-1.8.05-1.8c0-1.2.13-2.4.28-3.59a42.36,42.36,0,0,1,1.48-7c.31-1.15.72-2.27,1.07-3.41s.81-2.24,1.27-3.33a62.89,62.89,0,0,1,3.05-6.43,43,43,0,0,1,3.86-6,.25.25,0,0,1,.36,0A.26.26,0,0,1,159.78,112.9Z"/><path class="cls-15" d="M104.81,182.42a7.34,7.34,0,0,1,.92-6,8.42,8.42,0,0,1,1-1.28c.38-.38.74-.68,1.1-1,.72-.63,1.43-1.25,2.15-1.85q2.17-1.81,4.35-3.55c1.45-1.18,2.92-2.32,4.43-3.41,3-2.18,6.23-4.21,8.88-6.85a25.85,25.85,0,0,0,6.15-9.11,14.05,14.05,0,0,0,.7-2.52c.15-.83.29-1.81.43-2.71l.84-5.54c.55-3.71,1-7.44,1.73-11.15s1.54-7.4,2.59-11.07c.53-1.83,1.1-3.66,1.8-5.46a28.13,28.13,0,0,1,1.18-2.67,7.63,7.63,0,0,1,1.75-2.43.2.2,0,0,1,.3.25v0a8.83,8.83,0,0,0-.79,2.59c-.18.9-.31,1.83-.44,2.75-.25,1.85-.47,3.7-.69,5.56-.44,3.72-.9,7.45-1.47,11.17s-1.36,7.42-2.2,11.12c-.42,1.85-.86,3.7-1.41,5.54-.29.93-.53,1.81-.93,2.78a16.56,16.56,0,0,1-1.36,2.73,70.17,70.17,0,0,1-7.22,9c-2.53,2.83-4.92,5.87-7.68,8.52a62.08,62.08,0,0,1-9.06,6.93c-.79.52-1.61,1-2.4,1.5-.4.24-.8.49-1.14.72a6.13,6.13,0,0,0-.94.73,7.85,7.85,0,0,0-2.19,4.61v0a.2.2,0,0,1-.39,0Z"/><path class="cls-15" d="M256.53,106a9.58,9.58,0,0,1,1.82,2.78q.69,1.48,1.26,3,1.11,3,2,6.1t1.69,6.16c.53,2.06,1.05,4.12,1.52,6.19l1.43,6.19,1.38,6.17.72,3.05c.12.54.24,1,.36,1.37s.29.86.47,1.29a33.51,33.51,0,0,0,2.8,5.19,92.93,92.93,0,0,0,7.47,9.94c1.35,1.61,2.79,3.15,4.23,4.68s3,3,4.53,4.42,3.15,2.81,4.79,4.13a12.67,12.67,0,0,1,2.45,2.3,7,7,0,0,1,1.38,3.29,6.82,6.82,0,0,1,0,1.81,7,7,0,0,1-.18.89,4.07,4.07,0,0,1-.43.94,27.51,27.51,0,0,1-1.84,2.75,38.07,38.07,0,0,1-4.34,5,15.9,15.9,0,0,1-2.78,2.13,7.64,7.64,0,0,1-1.83.79,4.52,4.52,0,0,1-2.47,0c-.53-.17-.66-.26-.94-.37l-.76-.32c-.51-.21-1-.44-1.5-.69-1-.47-2-1-2.93-1.53a52,52,0,0,1-10.49-8A59.88,59.88,0,0,1,258,175.39a56.58,56.58,0,0,1-5.9-11.85,51.17,51.17,0,0,1-2.88-13c-.11-1.08-.13-2.28-.19-3.29s-.08-2-.18-3.06-.16-2-.28-3.07-.25-2-.41-3.07a127.6,127.6,0,0,0-6.41-24.28h0a.25.25,0,0,1,.45-.22A76.38,76.38,0,0,1,248,125a84,84,0,0,1,4,12.29c.25,1.05.46,2.12.7,3.18s.38,2.15.56,3.22.26,2.17.39,3.26.2,2,.36,3a55.67,55.67,0,0,0,3.08,11.67,63.22,63.22,0,0,0,12.64,20.6,55.14,55.14,0,0,0,9.24,7.9c.84.56,1.69,1.13,2.57,1.64.44.26.87.53,1.32.77l1.18.66a2.37,2.37,0,0,0,1.79-.28,13,13,0,0,0,2.43-1.48,31.05,31.05,0,0,0,4.47-4.18,25.14,25.14,0,0,0,1.9-2.38,2.72,2.72,0,0,0,.27-.48,5.15,5.15,0,0,0,.17-.66,5.07,5.07,0,0,0,.07-1.35,4.89,4.89,0,0,0-1-2.53,11.37,11.37,0,0,0-2.15-2.06l-4.87-4.12c-1.62-1.38-3.26-2.74-4.85-4.16s-3.21-2.81-4.8-4.25a73,73,0,0,1-8.92-9.45,30.81,30.81,0,0,1-3.51-5.81,17.75,17.75,0,0,1-.64-1.68c-.18-.6-.35-1.21-.45-1.7-.26-1-.46-2.1-.67-3.14l-1.21-6.27L261,131l-2-12.52c-.36-2.08-.68-4.16-1.09-6.22-.21-1-.41-2.05-.68-3.06a9.86,9.86,0,0,0-1.08-2.84l0,0a.25.25,0,0,1,.38-.32Z"/><path class="cls-15" d="M180.79,95.84a18,18,0,0,1,4.1-3.34l1.15-.68,1.19-.6a25.68,25.68,0,0,1,2.46-1.05,31.3,31.3,0,0,1,5.2-1.37,21.58,21.58,0,0,1,2.68-.33,20.86,20.86,0,0,1,2.69-.15A30.57,30.57,0,0,1,211,89.52a41.14,41.14,0,0,1,4.91,2.16,31.93,31.93,0,0,1,4.4,3.09.21.21,0,0,1-.15.37h0a33.57,33.57,0,0,1-5.2-.81c-1.71-.23-3.34-.6-5-.94-.82-.14-1.64-.29-2.44-.48-.4-.09-.8-.21-1.2-.31l-1.21-.25-2.43-.55c-.82-.12-1.64-.21-2.46-.3a33.89,33.89,0,0,0-9.91.57,23.14,23.14,0,0,0-9.18,4h0a.2.2,0,0,1-.27-.29Z"/><path class="cls-15" d="M176.7,73.59a22.43,22.43,0,0,1,5.12-4l1.42-.81,1.48-.71a31.86,31.86,0,0,1,3-1.24,38.8,38.8,0,0,1,6.39-1.59,26.71,26.71,0,0,1,3.28-.38,25.67,25.67,0,0,1,3.3-.15H204l3.3.25c.55.05,1.1.09,1.65.16s1.08.21,1.62.34c1.07.24,2.14.52,3.2.81a60.7,60.7,0,0,1,6.07,2.5,47.61,47.61,0,0,1,5.54,3.53.21.21,0,0,1-.15.37h0a49.49,49.49,0,0,1-6.33-1.25c-2.09-.36-4.12-.84-6.14-1.28-1-.18-2-.37-3-.61-.5-.11-1-.25-1.5-.37l-1.51-.29-3-.63-3.07-.33a42,42,0,0,0-12.32.84A28.66,28.66,0,0,0,177,73.86h0a.2.2,0,0,1-.27-.29Z"/><path class="cls-12" d="M247,128.86a116,116,0,0,0-12.61-9.13A111.13,111.13,0,0,0,220.69,113a37.67,37.67,0,0,0-15.17-3,42.73,42.73,0,0,0-7.73.88,52.21,52.21,0,0,0-7.33,2.07,1.6,1.6,0,0,1-2-.83l0-.09a4.88,4.88,0,0,1-.35-2.63,8.69,8.69,0,0,1,.55-2.11,19.12,19.12,0,0,1,1.84-3.4,33.69,33.69,0,0,1,2.2-2.95c.78-.94,1.56-1.82,2.45-2.73l1.46,3.65a19,19,0,0,0-4.54.69,17.5,17.5,0,0,0-2.16.75,20.18,20.18,0,0,0-2,1.08,18.76,18.76,0,0,0-3.7,2.91,20.55,20.55,0,0,0-2.94,3.71l-.16.26a1.18,1.18,0,0,1-.8.56,18.2,18.2,0,0,1-3.42.36,16.24,16.24,0,0,1-3.36-.32,16.58,16.58,0,0,1-6.09-2.43.2.2,0,0,1,.17-.36h0a21.38,21.38,0,0,0,6.09.86,16.93,16.93,0,0,0,3-.26,15.84,15.84,0,0,0,2.81-.74l-1,.82a19.39,19.39,0,0,1,1.34-2.56,21.15,21.15,0,0,1,1.63-2.31,20.51,20.51,0,0,1,6.67-5.39,19.88,19.88,0,0,1,2.73-1,19.57,19.57,0,0,1,5.75-.81,2.1,2.1,0,0,1,1.46,3.65c-.77.71-1.58,1.53-2.32,2.33s-1.47,1.65-2.12,2.5a15.63,15.63,0,0,0-1.65,2.6,3.46,3.46,0,0,0-.48,2l-2.05-.92a42.24,42.24,0,0,1,8.12-1.08q4-.16,8,0a109.19,109.19,0,0,1,15.95,1.66,37.4,37.4,0,0,1,7.73,2.51,44.66,44.66,0,0,1,7,4.12,43.27,43.27,0,0,1,11.1,11.59.2.2,0,0,1-.3.27Z"/><path class="cls-14" d="M143.1,103.67a7.12,7.12,0,0,0,6.09,2.16,17.69,17.69,0,0,0,6.33-2,88.16,88.16,0,0,0,11.15-7.06,58.92,58.92,0,0,0,5.21-4.25,23.13,23.13,0,0,0,4.24-5.27,15.29,15.29,0,0,0,2.07-6.32,6.82,6.82,0,0,0-1.8-5.61,7.22,7.22,0,0,0-5.3-1.52,20.11,20.11,0,0,0-6,1.35,32.62,32.62,0,0,0-5.74,2.92A63.41,63.41,0,0,0,154,81.94,58.35,58.35,0,0,0,145,91.42a17.3,17.3,0,0,0-3,5.9A7.17,7.17,0,0,0,143.1,103.67Zm-.38.32a10.19,10.19,0,0,1-2.08-6.84A22.89,22.89,0,0,1,142,89.88a25.54,25.54,0,0,1,3.51-6.57,38.44,38.44,0,0,1,5-5.44,34.87,34.87,0,0,1,13-7.19,20.41,20.41,0,0,1,7.68-.88,10.05,10.05,0,0,1,7.21,3.75,9,9,0,0,1,1.48,3.78,12.64,12.64,0,0,1-.08,3.8A26.62,26.62,0,0,1,177.55,88a42.5,42.5,0,0,1-8.17,12,29.2,29.2,0,0,1-5.9,4.38,23.82,23.82,0,0,1-7,2.52,22.36,22.36,0,0,1-7.38.24A10.29,10.29,0,0,1,142.72,104Z"/><path class="cls-14" d="M144,104.55a33.2,33.2,0,0,1,3.28,2c1,.7,2,1.44,3,2.21l.1.1a7,7,0,0,0,2.7,1.27,13.37,13.37,0,0,0,3.29.27,40.74,40.74,0,0,0,7.49-.82,17,17,0,0,0,7.05-3.6,31.21,31.21,0,0,0,5.24-6,46.31,46.31,0,0,0,4.08-6.46,27.39,27.39,0,0,0,2.34-6.67,8.77,8.77,0,0,0,.09-3.07,2.57,2.57,0,0,0-.16-.69,2.31,2.31,0,0,0-.22-.66l-.14-.31a1.26,1.26,0,0,0-.19-.36l-.59-.83a61.09,61.09,0,0,1-4.29-7.09.26.26,0,0,1,.37-.34,61.06,61.06,0,0,1,6.7,5l.78.67a10.25,10.25,0,0,1,.87,1,5.67,5.67,0,0,1,.75,1.12,6.26,6.26,0,0,1,.56,1.21,11.46,11.46,0,0,1,.65,5A18.63,18.63,0,0,1,184.62,96a29.73,29.73,0,0,1-5.69,6.56,63.46,63.46,0,0,1-7,4.74c-2.37,1.46-4.68,2.92-7.1,4.45a17.7,17.7,0,0,1-8.25,3.08,13.26,13.26,0,0,1-2.37-.12c-.4-.07-.8-.12-1.2-.21l-1.2-.38a8.86,8.86,0,0,1-4.09-3l.09.1c-.76-1-1.5-2-2.2-3a33.22,33.22,0,0,1-2-3.28.26.26,0,0,1,.35-.35Z"/><path class="cls-14" d="M258.61,104a9.32,9.32,0,0,1-6.4,2.86,23,23,0,0,1-7.24-.56,27.14,27.14,0,0,1-12.52-6.92,45.44,45.44,0,0,1-8.39-11.49,25.33,25.33,0,0,1-2.56-6.67,12.27,12.27,0,0,1-.16-3.75,8.58,8.58,0,0,1,1.41-3.73A8.37,8.37,0,0,1,225.89,71a11.11,11.11,0,0,1,3.9-1.13,18.69,18.69,0,0,1,7.61.94A29,29,0,0,1,244.17,74a30.09,30.09,0,0,1,5.75,4.66,42.89,42.89,0,0,1,8.27,11.56,24.84,24.84,0,0,1,2.12,7,10.7,10.7,0,0,1-.09,3.63A7.21,7.21,0,0,1,258.61,104Zm-.38-.32a5.4,5.4,0,0,0,1.24-3,7.16,7.16,0,0,0-.51-3.19,19.26,19.26,0,0,0-3.65-5.45c-1.48-1.65-3-3.23-4.55-4.85s-3.1-3.25-4.65-4.78a32.83,32.83,0,0,0-10.28-7.18A18.13,18.13,0,0,0,230,73.86a6.7,6.7,0,0,0-5.13,1.58A6.49,6.49,0,0,0,223.17,81a14.65,14.65,0,0,0,2.3,6.11c2.41,3.79,6.11,6.53,9.66,9.08q2.68,1.93,5.4,3.72c1.82,1.19,3.64,2.4,5.56,3.44a18,18,0,0,0,6.15,2.27A6.52,6.52,0,0,0,258.23,103.67Z"/><path class="cls-14" d="M258.67,104a44.25,44.25,0,0,1-2.48,4c-.44.64-.89,1.27-1.34,1.89l-.69.92-.35.46-.39.54a9.29,9.29,0,0,1-4.76,3.07,10.32,10.32,0,0,1-5.37.09,18.82,18.82,0,0,1-4.63-2c-1.42-.82-2.78-1.6-4.16-2.36-2.73-1.53-5.68-2.78-8.33-4.69a26.43,26.43,0,0,1-3.74-3.13A38.5,38.5,0,0,1,219.22,99a25.49,25.49,0,0,1-4.53-8.92,16.28,16.28,0,0,1-.48-2.6,13.37,13.37,0,0,1,0-2.76,9.91,9.91,0,0,1,.67-2.88,7.76,7.76,0,0,1,1.75-2.62,63.7,63.7,0,0,1,7.53-5.68.26.26,0,0,1,.37.34,63.59,63.59,0,0,1-4.92,8c-1,1.6-.63,4.24.21,6.78a40.23,40.23,0,0,0,3.5,7.63,38.37,38.37,0,0,0,2.43,3.6c.87,1.17,1.78,2.32,2.72,3.47a24.37,24.37,0,0,0,6.76,5.9,13.19,13.19,0,0,0,4.26,1.42,23,23,0,0,0,4.32.2c2.73-.08,5.08-.24,7-1.69l.39-.31.44-.38.91-.74c.61-.49,1.23-1,1.85-1.45a44,44,0,0,1,3.92-2.67.26.26,0,0,1,.36.09A.26.26,0,0,1,258.67,104Z"/></g><g id="arms_line"><path class="cls-14" d="M134,269.75l3.27,2c.54.31,1.08.62,1.6.85a3.06,3.06,0,0,0,.38.15,1.4,1.4,0,0,0,.34.1c.25.08.31,0,.14,0,0-.07,0,0,.09-.12l.27-.28.59-.66,1.2-1.42c.8-1,1.62-1.94,2.5-2.86,1.76-1.85,3.71-3.57,5.35-5.54a48.57,48.57,0,0,0,4.39-6.31c1.31-2.22,2.67-4.4,4.13-6.5s2.87-4.25,4.42-6.28a102.58,102.58,0,0,1,10.24-11.55l.24.18a92.16,92.16,0,0,1-7.9,13.28c-1.48,2.09-3.11,4.08-4.73,6.07s-3.31,3.93-5.09,5.8a56.24,56.24,0,0,0-4.94,5.91c-1.5,2.08-2.7,4.4-4.18,6.53a28.7,28.7,0,0,1-2.43,3c-.43.49-.9,1-1.37,1.43-.26.24-.5.46-.78.69l-.45.35a4.33,4.33,0,0,1-.71.41,2.32,2.32,0,0,1-1.73-.13,3.19,3.19,0,0,1-.54-.28,4.84,4.84,0,0,1-.47-.3,10.9,10.9,0,0,1-1.56-1.33,18.47,18.47,0,0,1-2.5-3.06Z"/><path class="cls-14" d="M122.76,281.54a59.93,59.93,0,0,1,5.94,3.59c1.89,1.28,3.77,2.54,5.54,3.93.88.7,1.75,1.42,2.65,2a8.34,8.34,0,0,0,1.4.79,2.94,2.94,0,0,0,.69.19c.09,0,.22,0,.28,0h.12l.19-.09a21,21,0,0,0,5.51-4l4.79-4.84c1.57-1.63,3.1-3.31,4.7-4.93s3.25-3.2,5-4.75a48,48,0,0,1,5.42-4.4l.22.21a75,75,0,0,1-8.28,11.16,57.59,57.59,0,0,1-5.09,4.79,38.83,38.83,0,0,1-5.73,4.07L140,292.85l-.19.12-.29.12a2.15,2.15,0,0,1-.57.1,5,5,0,0,1-1-.1,13.1,13.1,0,0,1-1.8-.49,21.73,21.73,0,0,1-3.29-1.44,30,30,0,0,1-5.6-4.2,33.12,33.12,0,0,1-4.7-5.19Z"/><path class="cls-14" d="M264.24,266.66a28.39,28.39,0,0,1-5,5.42,8.43,8.43,0,0,1-1.69,1.13,3.81,3.81,0,0,1-.6.23,2.16,2.16,0,0,1-1,.07,2.43,2.43,0,0,1-.9-.4,5.46,5.46,0,0,1-.46-.35,20,20,0,0,1-2.56-2.81,58.87,58.87,0,0,1-3.75-6.27,40.47,40.47,0,0,0-4.26-5.84,102,102,0,0,1-8.89-11.43c-1.32-2-2.53-4.1-3.67-6.23a58.2,58.2,0,0,1-3.09-6.61l.25-.16a64.38,64.38,0,0,1,4.85,5.44c1.51,1.88,3,3.79,4.33,5.77A131.24,131.24,0,0,1,245.18,257a33.87,33.87,0,0,0,4.06,6c1.58,1.82,3.41,3.45,4.9,5.28.75.89,1.48,1.87,2.19,2.61l.22.23c0,.06.11.07-.11,0s0,0,.17-.06a10.79,10.79,0,0,0,1.42-.7c2-1.18,3.94-2.61,6-3.91Z"/><path class="cls-14" d="M277,278.48a37.33,37.33,0,0,1-4.54,5.34c-.83.82-1.67,1.62-2.55,2.38a26.6,26.6,0,0,1-2.75,2.15c-1.94,1.31-4.08,2.34-6.12,3.49a24.16,24.16,0,0,1-3.21,1.6,3,3,0,0,1-1,.21,1.51,1.51,0,0,1-.64-.14l-.41-.18c-.55-.23-1.08-.49-1.63-.73a23.05,23.05,0,0,1-6-4,35,35,0,0,1-4.78-5.3c-2.77-3.86-4.66-8-7-12l.22-.21a26,26,0,0,1,5.11,4.89c1.5,1.78,2.9,3.6,4.28,5.38s2.69,3.59,4.18,5.24c.74.83,1.52,1.61,2.31,2.4a31.65,31.65,0,0,0,2.48,2.27c.44.35.9.69,1.37,1l.36.23a.38.38,0,0,0,.19.07,2.06,2.06,0,0,0,.68-.07,9.92,9.92,0,0,0,2.94-1.54,59.94,59.94,0,0,0,5.09-4.63,67.83,67.83,0,0,1,5.38-4.28,54.68,54.68,0,0,1,5.84-3.81Z"/></g><g id="hand_color"><path class="cls-3" d="M110.58,270.15c-1.28,3.49-1,7,1.11,9.48,3.57,4.14,11,3.59,16.62-1.25s7.27-12.1,3.7-16.25c-2-2.36-5.33-3.2-8.82-2.58"/><path class="cls-6" d="M125.77,265.13l-.05-.61c-2.47-2.27-4.66-4.48-5.12-5.57,0,0,.91-11.31-7.7-12.27a32.77,32.77,0,0,1-3.56-.59c-.06,0-6.2-2.39-8.71-6s-10.44-3.74-10.44-3.74-8.27.44-13-1.13a29.84,29.84,0,0,1-8.79-5.13s-4.52-3.65-9.31-1S63,239.64,63,239.64s3.65,3.74,10.44,3.3,8,3.15,8,3.15a53.37,53.37,0,0,1-13.22,14.68l-6.83,4.7s-8.62,4.85-13.12,6.11c-3.87,1.09-9.17,5.7-7.83,10.07l-.16.74a6.68,6.68,0,0,0-1.47,1.22c-2.47,3-2.41,7,7.84,5.68a4.4,4.4,0,0,0-.18,1.31s.35,3,2.78,2.45,9-2.2,9-2.2a4.3,4.3,0,0,0,2.63.83,31.25,31.25,0,0,0,10-1L82,286.88s7.74-2.76,25-18.3l0,.1A6.68,6.68,0,0,1,112,270.3a46.73,46.73,0,0,1,3.84,4.21C126.11,273.52,125.77,265.13,125.77,265.13Z"/><path class="cls-3" d="M286.82,268c1.24,3.39,1,6.84-1.08,9.22-3.47,4-10.71,3.49-16.17-1.21s-7.07-11.78-3.6-15.81c2-2.3,5.18-3.11,8.58-2.51"/><path class="cls-6" d="M356.7,281.15a8.41,8.41,0,0,0-2.16-1.64l.58-.27c1.31-4.26-3.85-8.75-7.62-9.8-4.37-1.22-12.76-5.94-12.76-5.94l-6.65-4.57a51.93,51.93,0,0,1-12.87-14.29s2.43-2.51,9-2.08,10.16-3.21,10.16-3.21,8.38-7.62,3.72-10.25-9.06.93-9.06.93a29,29,0,0,1-8.55,5c-4.57,1.52-13.86.11-13.86.11s-7.7.08-10.16,3.64c-2.3,3.33-7.73,5.56-8.41,5.83a32.27,32.27,0,0,1-3.53.6c-8.38.93-7.49,11.94-7.49,11.94-.45,1.06-2.58,3.21-5,5.42l.48-.39-.62.59.09.49c0,.91.31,8.14,9.7,9a45.47,45.47,0,0,1,3.73-4.09,6.43,6.43,0,0,1,4.75-1.59l.92.23c15.18,18.49,22.41,23.65,22.41,23.65l10.22,5.13a30.41,30.41,0,0,0,9.5,2.36c5.41.44,3.19-4.44,2.38-5.39s-11.54-6.7-14.57-8.24-9.74-8.25-9.74-8.25c16.76,8.44,27.2,10.89,27.2,10.89s6.3,1.3,8.62,1.68a2.11,2.11,0,0,0,2.4-1.92C359,287.87,359.06,284,356.7,281.15Zm-66.62-14.58h0Z"/></g><g id="hand_shadow"><path class="cls-9" d="M57.59,289.57s7.22,2.26,28-7.92c8.7-4.26,25.82-17.14,25.82-17.14s3.39.61,9.28-5.36l2.77,3.22,2.25,2.14a8.73,8.73,0,0,1-1.66,5.87,11,11,0,0,1-8.26,4.12s-4.7-6.69-8.77-5.84l-6.88,5.84-5.51,4.39-6.34,4.49-5.77,3.27-6.38,2.2-5.27,1.78S58.08,293.94,57.59,289.57Z"/><path class="cls-9" d="M57.65,288.65s-8.6,2.31-11.23.93c0,0,.47,2.74,1,3.06a2.43,2.43,0,0,0,2,.37c.87-.2,8.83-2.15,8.83-2.15A5,5,0,0,1,57.65,288.65Z"/><path class="cls-9" d="M47.24,286.93s-8.78.85-10.1-.31c0,0,1,4.28,9.44,2.55Z"/><path class="cls-10" d="M115.8,281.83c-3.42-2.67-.12-7.22-.12-7.22l1.25-.4,3.83-1.17,1.92-1.42,1.67-1.79,1-2.25.46-2.79L125,264c2-3.08,7-1.82,7-1.82,3.57,4.14,1.91,11.42-3.7,16.25-3.61,3.11-8,4.45-11.58,3.9Z"/><line class="cls-13" x1="279.2" y1="271.83" x2="281.74" y2="272.29"/><path class="cls-10" d="M279.2,271.83a5.74,5.74,0,0,1,2.79,7.71l1.6-.57s6-2.51,3.12-11.13l-.18-.41s-1.14.55-4.74,4.93l-2.59-.53"/><path class="cls-9" d="M277.92,271.15s4.14-7.66,10.46-7.66a25.89,25.89,0,0,1,2.19,2.89l.64.55-1.28-.4-1.92.21-1.76.76s-4.23,4.44-4.5,4.65S278,271.7,277.92,271.15Z"/><path class="cls-9" d="M333.63,298.12l-7.05-1.4-5.66-2.37-7.78-4-2.31-2.68c3.47,3.53,21.77,7.3,21.77,7.3a3.15,3.15,0,0,0,3.1-2l1,2.13-.3,2Z"/><path class="cls-9" d="M323.45,281.8s20.11,5.27,22.87,3.81,1.54-3,1.54-3l1.54,2.27v2.43l-1.09,1.05-1.58.16-8.07-1.42Z"/><path class="cls-9" d="M347.7,282s6.12,1.34,7,.41a2.52,2.52,0,0,0,.77-1.91l1.46,1.3.89,2.59-.28,1-2.27,1.26-4.5.24-1.22-.2,0-.69A6.23,6.23,0,0,0,347.7,282Z"/><path class="cls-9" d="M350.21,277.22s5.15.65,4.46-2a8.33,8.33,0,0,1,.53,1.74,7.69,7.69,0,0,1-.08,2.19,1.37,1.37,0,0,1-.45.41Z"/><path class="cls-9" d="M314.86,245c-.32.32-1.87-3.61-.69-3.73s6.13-1.14,8.76-1.2c3.1-.06,15-4.2,16.24-10.16a4.72,4.72,0,0,1-.87,4.7c-.93,1.24-3.73,5.39-5.64,6s-3.57,2.15-7.66,1.95S316.89,243,314.86,245Z"/><path class="cls-14" d="M281.78,272.42a12.82,12.82,0,0,1-4.05-.18,10,10,0,0,1-3.91-1.72c-.29-.24-.61-.44-.89-.7l-.83-.82a4.86,4.86,0,0,1-1-2.08,5.51,5.51,0,0,1,.78-4.34l.3,0a14.47,14.47,0,0,1,1,1.82c.32.54.5,1.07.8,1.52a13.47,13.47,0,0,0,1.51,2.8,9.9,9.9,0,0,0,2.81,2.1,14.59,14.59,0,0,0,3.57,1.3Z"/></g><g id="hand_line"><path class="cls-13" d="M125.62,264.63a13,13,0,0,1-1.78-.89,17.66,17.66,0,0,1-1.61-1.11,13.91,13.91,0,0,1-1.5-1.3,6.81,6.81,0,0,1-1.37-1.84,1.06,1.06,0,0,1-.11-.48v-.16c0-2.11.82-4.72-.2-6.9a5.5,5.5,0,0,0-2.19-2.59,8.51,8.51,0,0,0-2.93-1.09l-.77-.08-.38,0-.47,0c-.64,0-1.28-.09-1.91-.18a16.55,16.55,0,0,1-7.14-2.86,9.54,9.54,0,0,1-2.72-2.8.15.15,0,0,1,.19-.22h0a42.13,42.13,0,0,0,6.82,2l3.4.72c.56.14,1.14.25,1.71.36l.44.1.52.13,1,.27a7.14,7.14,0,0,1,3.38,2.48,15.3,15.3,0,0,1,1.86,3.46c.85,2.34,2.25,4.71,2.06,7.47l-.1-.64a8.48,8.48,0,0,0,.82,1.25c.34.48.73,1,1.09,1.48s.73,1,1.09,1.56a17.39,17.39,0,0,1,1,1.7.16.16,0,0,1-.08.22A.16.16,0,0,1,125.62,264.63Z"/><path class="cls-13" d="M109.29,246.23a25,25,0,0,1-5.17-2.2,17.44,17.44,0,0,1-2.38-1.61,12.16,12.16,0,0,1-1.09-1,7.19,7.19,0,0,1-.5-.56l-.24-.29-.2-.21A5.64,5.64,0,0,0,97.77,239a11.82,11.82,0,0,0-2.41-.8,22.72,22.72,0,0,0-5.15-.61A46,46,0,0,1,78.9,237a19,19,0,0,1-5.45-2.18,31.14,31.14,0,0,1-4.65-3.32l-1-.9a8.31,8.31,0,0,0-1-.72,9.27,9.27,0,0,0-2.38-1,7.37,7.37,0,0,0-2.55-.17,7.19,7.19,0,0,0-2.45.8,2.13,2.13,0,0,0-1.23,1.82,5.08,5.08,0,0,0,.68,2.41,18.35,18.35,0,0,0,3.3,4.24,12.57,12.57,0,0,0,9.39,3.92,10.72,10.72,0,0,0,1.29,0l1.4-.09a13.58,13.58,0,0,1,3,.15,8.81,8.81,0,0,1,3,1.06,6.94,6.94,0,0,1,1.37,1,6.18,6.18,0,0,1,.58.69,4,4,0,0,1,.51.94,1.24,1.24,0,0,1-.08,1.07l0,.06a53.33,53.33,0,0,1-4.07,6,51.92,51.92,0,0,1-4.81,5.41c-.88.84-1.78,1.65-2.73,2.42a32.4,32.4,0,0,1-2.93,2.16l-5.88,3.92,0,0-.07,0c-2.14,1.11-4.27,2.18-6.47,3.16a46,46,0,0,1-6.83,2.55A12.74,12.74,0,0,0,43,275.66c-1.62,1.5-2.93,3.63-2.46,6a.15.15,0,0,1-.29.09,5.4,5.4,0,0,1,0-3.68A10,10,0,0,1,42,274.77a13.66,13.66,0,0,1,6.15-4.24,52.68,52.68,0,0,0,6.28-2.92c2.07-1.09,4.14-2.23,6.14-3.42l-.11.07,5.73-4.06c1-.68,1.85-1.34,2.73-2s1.72-1.46,2.55-2.24a55.9,55.9,0,0,0,4.67-5,52.36,52.36,0,0,0,4-5.5l-.11,1.13,0-.09c0-.06-.07-.12-.11-.18a3.51,3.51,0,0,0-.29-.38,4.34,4.34,0,0,0-.79-.67,6.25,6.25,0,0,0-2.13-.85c-1.59-.44-3.28-.21-5.33-.38a15.62,15.62,0,0,1-5.63-1.59,13.63,13.63,0,0,1-2.46-1.58,17.79,17.79,0,0,1-2-2A22.52,22.52,0,0,1,58,234.17a5.94,5.94,0,0,1-.74-2.88,3,3,0,0,1,.48-1.54,3.74,3.74,0,0,1,1.18-1.06,9.82,9.82,0,0,1,2.76-1,9.07,9.07,0,0,1,3,0,11.32,11.32,0,0,1,4.13,1.59l1.15.82a25.84,25.84,0,0,0,9.54,4.3,43.29,43.29,0,0,0,5.3.58c1.81.1,3.58.13,5.45.08a24.85,24.85,0,0,1,2.94.32A22.26,22.26,0,0,1,96,236a13.72,13.72,0,0,1,2.75,1.17,7.2,7.2,0,0,1,2.4,2l.24.33.18.26a5.62,5.62,0,0,0,.37.51,10.56,10.56,0,0,0,.86,1,20.25,20.25,0,0,0,2,1.75,34.8,34.8,0,0,0,4.63,2.9h0a.15.15,0,0,1-.11.28Z"/><path class="cls-13" d="M70.53,267.68a23.83,23.83,0,0,1-4.44,4.56,21.05,21.05,0,0,1-2.67,1.82,11.11,11.11,0,0,1-1.52.73,15.57,15.57,0,0,1-1.52.5c-2,.55-4.13.8-6.11,1.44a29.3,29.3,0,0,0-5.66,2.55c-1.79,1.05-3.59,2.07-5.35,3a22.81,22.81,0,0,0-2.42,1.57c-.16.13-.38.28-.49.4s-.23.23-.35.35a7.67,7.67,0,0,0-.67,1,3.22,3.22,0,0,0-.35.9.93.93,0,0,0,0,.56c.07.34.78.83,1.64,1.08a31.93,31.93,0,0,0,5.93,1,.15.15,0,0,1,.14.17.16.16,0,0,1-.1.13,17.6,17.6,0,0,1-3.1.88,11.7,11.7,0,0,1-3.35.18c-.3,0-.59-.06-.9-.14s-.62-.17-.94-.29a6.34,6.34,0,0,1-.95-.54,3.64,3.64,0,0,1-.85-.88,3.44,3.44,0,0,1-.54-1.18,4.33,4.33,0,0,1-.09-1.22,4.22,4.22,0,0,1,.2-1.09,5.93,5.93,0,0,1,.37-1,8.56,8.56,0,0,1,1-1.59c.25-.25.51-.5.77-.73a6.65,6.65,0,0,1,.75-.53,20.1,20.1,0,0,1,3-1.55,35.41,35.41,0,0,1,6-2,41,41,0,0,0,5.94-1.94c1.91-.81,3.71-2,5.56-2.87,3.59-1.48,6.93-3.76,10.85-5.5a.16.16,0,0,1,.21.08A.16.16,0,0,1,70.53,267.68Z"/><path class="cls-13" d="M78.57,271.24a34.68,34.68,0,0,1-5.24,4,36.26,36.26,0,0,1-5.78,3.1c-2,.82-4.22,1.33-6.24,2.16s-4,1.81-6,2.82c-.51.25-1,.49-1.46.73s-.91.48-1.35.75a13.14,13.14,0,0,0-2.38,1.71,7,7,0,0,0-1.61,2.12,5.63,5.63,0,0,0-.41,1.15,4.47,4.47,0,0,0-.09.55v.11s0,.05,0,0,0-.13,0-.09l0,.24a2.52,2.52,0,0,0,.32.79c.11.12.09.15.3.21a1.59,1.59,0,0,0,.54,0l.8-.14,1.61-.23a53.86,53.86,0,0,1,6.57-.54.15.15,0,0,1,.16.15.16.16,0,0,1-.08.14,53.39,53.39,0,0,1-6.12,2.56l-1.56.54-.79.25a3.3,3.3,0,0,1-.44.13,4.52,4.52,0,0,1-.63.09,3.37,3.37,0,0,1-2.62-1A4.88,4.88,0,0,1,45,291.47a4.69,4.69,0,0,1-.12-.56,2.16,2.16,0,0,1,0-.29v-.18c0-.11,0-.2,0-.3a5.93,5.93,0,0,1,.17-1.06,7.06,7.06,0,0,1,.77-1.88,9.31,9.31,0,0,1,2.57-2.83,11.75,11.75,0,0,1,3.16-1.7l.83-.29c.28-.08.56-.14.84-.2.57-.14,1.1-.25,1.62-.36a24.14,24.14,0,0,0,6.1-2.15c1.93-1,3.67-2.36,5.52-3.52a48.48,48.48,0,0,1,5.8-2.93,45.13,45.13,0,0,1,6.2-2.25.16.16,0,0,1,.19.11A.16.16,0,0,1,78.57,271.24Z"/><path class="cls-13" d="M86.62,274.09a12.73,12.73,0,0,1-4.51-.43,16.87,16.87,0,0,1-4.21-1.74A14.56,14.56,0,0,1,74.34,269a10.93,10.93,0,0,1-2.34-3.9c1.2,1,2.22,1.93,3.39,2.75a37.44,37.44,0,0,0,3.52,2.31c1.21.7,2.45,1.38,3.74,2Z"/><path class="cls-13" d="M84.14,276.39a40.24,40.24,0,0,1-4.75,3.6,25.88,25.88,0,0,1-2.62,1.53,19.62,19.62,0,0,1-2.85,1.15c-3.76,1.26-7.54,2.3-11.3,3.25-.91.23-1.94.47-2.64.72,0,0,0,0-.1,0a1.46,1.46,0,0,0-.19.16,4.64,4.64,0,0,0-.41.46,5.83,5.83,0,0,0-.68,1.07,3,3,0,0,0-.31,1.11,1.32,1.32,0,0,0,.31.9,4,4,0,0,0,2.35.85,24.07,24.07,0,0,0,5.78-.25,23.14,23.14,0,0,0,2.82-.63,10.67,10.67,0,0,0,1.34-.45l1.36-.56c1.82-.75,3.62-1.53,5.45-2.24.91-.37,1.83-.71,2.74-1.06l.69-.26.34-.13.12,0,.14-.06c.39-.18.81-.4,1.22-.62a100.48,100.48,0,0,0,9.57-6.4c6.31-4.52,12.39-9.42,18.78-14.07a.15.15,0,0,1,.21,0,.15.15,0,0,1,0,.19,106.71,106.71,0,0,1-8.09,8.66,103.11,103.11,0,0,1-9,7.76,62.36,62.36,0,0,1-10.19,6.36c-.47.22-.93.43-1.44.63l-.2.08-.23.08-.35.11-.71.21c-.94.28-1.88.57-2.84.83-1.89.54-3.81,1-5.71,1.52l-1.43.38c-.51.14-1,.23-1.5.32q-1.49.25-3,.4a45.41,45.41,0,0,1-6,.21,5.25,5.25,0,0,1-3.14-.92,2.67,2.67,0,0,1-.9-1.7,4.72,4.72,0,0,1,.18-1.77,7.49,7.49,0,0,1,.65-1.54,6.62,6.62,0,0,1,.46-.72,3.58,3.58,0,0,1,.31-.38,3,3,0,0,1,.52-.38,13.35,13.35,0,0,1,1.49-.69c.47-.18.94-.38,1.41-.53,1.88-.66,3.77-1.21,5.68-1.68s3.81-1,5.7-1.4a27.88,27.88,0,0,0,2.7-.77c.88-.33,1.77-.7,2.66-1.08L84,276.14a.15.15,0,0,1,.2.07A.15.15,0,0,1,84.14,276.39Z"/><path class="cls-13" d="M115.68,274.6c-.75-.57-1.46-1.15-2.23-1.68s-1.48-1.08-2.22-1.65a2.49,2.49,0,0,0-1-.44,3.58,3.58,0,0,1-.94-.4,20.18,20.18,0,0,1-2.26-1.61h0a.19.19,0,0,1,0-.27h0a3.24,3.24,0,0,1,1.52-.86,3.93,3.93,0,0,1,1.68-.09,4.31,4.31,0,0,1,2.73,2c.56.74,1.11,1.51,1.62,2.32a23,23,0,0,1,1.36,2.52.16.16,0,0,1-.08.2A.16.16,0,0,1,115.68,274.6Z"/><path class="cls-14" d="M110.72,270.2a13,13,0,0,0,.63,6.5,7.86,7.86,0,0,0,4.12,4,9.9,9.9,0,0,0,6.4.69,11.75,11.75,0,0,0,5.76-3.51,19.57,19.57,0,0,0,2-2.65,17.73,17.73,0,0,0,1.56-2.84,11.8,11.8,0,0,0,1-6,7.62,7.62,0,0,0-.83-2.71,6.78,6.78,0,0,0-1.92-2.16,11.31,11.31,0,0,0-6.23-1.84.15.15,0,0,1-.15-.16.16.16,0,0,1,.1-.14,9.44,9.44,0,0,1,7.46.09,8.19,8.19,0,0,1,3.18,2.61,8.91,8.91,0,0,1,1.57,3.86,10.16,10.16,0,0,1-.18,4,14,14,0,0,1-1.41,3.64,15.22,15.22,0,0,1-5.09,5.49,27.91,27.91,0,0,1-6.55,3.18,18.46,18.46,0,0,1-3.59.9,9.93,9.93,0,0,1-3.89-.16,7.91,7.91,0,0,1-5.51-5.63,9.23,9.23,0,0,1,1.29-7.33.15.15,0,0,1,.21,0A.16.16,0,0,1,110.72,270.2Z"/><path class="cls-13" d="M272,262.45a16.49,16.49,0,0,1,1-1.67c.35-.52.69-1,1.05-1.52s.72-1,1.05-1.44a8.26,8.26,0,0,0,.79-1.21l-.1.64a9.78,9.78,0,0,1,.81-4.27c.54-1.34,1-2.62,1.6-3.91a10.3,10.3,0,0,1,2.51-3.67,7.13,7.13,0,0,1,2-1.19,10.06,10.06,0,0,1,1.13-.33l1-.22c2.51-.5,5-1.13,7.53-1.78s5.06-1.46,7.71-2.21h0a.15.15,0,0,1,.15.26,23.69,23.69,0,0,1-6.91,4.6,24.78,24.78,0,0,1-3.94,1.43,23.43,23.43,0,0,1-4.17.67l-.95.07a8.07,8.07,0,0,0-.84.11,10.88,10.88,0,0,0-1.63.46,5.63,5.63,0,0,0-2.83,2.27,6.33,6.33,0,0,0-.91,3.73c.07,1.3.29,2.63.33,3.78v.13a1.1,1.1,0,0,1-.11.51,6.62,6.62,0,0,1-1.34,1.8,13.35,13.35,0,0,1-1.46,1.27,16.91,16.91,0,0,1-1.58,1.07,12.41,12.41,0,0,1-1.74.86.16.16,0,0,1-.21-.1A.16.16,0,0,1,272,262.45Z"/><path class="cls-13" d="M288,244.5a34,34,0,0,0,4.5-2.84,19.69,19.69,0,0,0,2-1.71,10.17,10.17,0,0,0,.83-.94,5.54,5.54,0,0,0,.35-.5l.4-.58a7.42,7.42,0,0,1,2.35-2,14,14,0,0,1,2.68-1.14,24.44,24.44,0,0,1,5.61-.95h.2a63.1,63.1,0,0,0,8.08.5,28.19,28.19,0,0,0,3.91-.27,15.89,15.89,0,0,0,3.64-1.14,31.93,31.93,0,0,0,3.55-1.85c.58-.35,1.14-.72,1.7-1.1.28-.19.55-.38.82-.59a8.23,8.23,0,0,1,1-.61,10.44,10.44,0,0,1,4.24-1.23,8.14,8.14,0,0,1,4.29.93,3.45,3.45,0,0,1,1.68,1.64,3.66,3.66,0,0,1,.1,2.33,12.13,12.13,0,0,1-2,3.83,32.53,32.53,0,0,1-2.75,3.23,12.54,12.54,0,0,1-3.56,2.55,15.2,15.2,0,0,1-4.19,1.33,15.83,15.83,0,0,1-2.2.22h-2.08a16.92,16.92,0,0,0-3.82.5,9.54,9.54,0,0,0-1.73.61,6.86,6.86,0,0,0-.76.41l-.33.23a2.65,2.65,0,0,0-.21.18l.21-1.65a51,51,0,0,0,3.92,5.34,54.46,54.46,0,0,0,4.54,4.85c.8.76,1.62,1.49,2.47,2.18s1.69,1.32,2.65,2l5.57,4-.11-.07c1.95,1.16,4,2.26,6,3.33a51.45,51.45,0,0,0,6.1,2.85,13.31,13.31,0,0,1,6,4.14,9.72,9.72,0,0,1,1.78,3.18,5.25,5.25,0,0,1-.06,3.58.15.15,0,0,1-.29-.09c.46-2.25-.82-4.33-2.4-5.78a12.39,12.39,0,0,0-5.61-3.08,44.67,44.67,0,0,1-6.65-2.48c-2.14-1-4.21-2-6.3-3.07l-.06,0,0,0-5.72-3.81a31.38,31.38,0,0,1-2.85-2.1c-.92-.75-1.8-1.54-2.66-2.36a50.5,50.5,0,0,1-4.68-5.27,51.93,51.93,0,0,1-4-5.85l0,0a1.31,1.31,0,0,1,.23-1.6,4.49,4.49,0,0,1,.59-.48c.18-.13.36-.24.54-.34a8.6,8.6,0,0,1,1.09-.53,12.18,12.18,0,0,1,2.22-.67,17.25,17.25,0,0,1,4.43-.31l2.07.15a13.74,13.74,0,0,0,1.94,0,13.33,13.33,0,0,0,3.79-.84,10.39,10.39,0,0,0,3.33-2,23.85,23.85,0,0,0,2.8-2.95,10.08,10.08,0,0,0,1.93-3.43,2.56,2.56,0,0,0,0-1.74,2.53,2.53,0,0,0-1.28-1.16,6.45,6.45,0,0,0-3.75-.64,8.48,8.48,0,0,0-3.58,1.37,6.22,6.22,0,0,0-.73.55c-.26.24-.53.49-.8.72q-.81.7-1.66,1.34a28.3,28.3,0,0,1-3.62,2.34,15.29,15.29,0,0,1-4.17,1.6,22.33,22.33,0,0,1-4.36.42,53.25,53.25,0,0,1-8.48-.68h.2a22.21,22.21,0,0,0-5,.59,8.27,8.27,0,0,0-4.22,2.08l-.42.49a7.16,7.16,0,0,1-.49.55,11.79,11.79,0,0,1-1.06,1,16.88,16.88,0,0,1-2.32,1.57,24.21,24.21,0,0,1-5,2.13.15.15,0,0,1-.11-.28Z"/><path class="cls-13" d="M326,265.41c3.83,1.67,7.08,3.88,10.56,5.32,1.8.88,3.55,2,5.4,2.82a38.63,38.63,0,0,0,5.78,1.88,34,34,0,0,1,5.86,2,19.51,19.51,0,0,1,2.88,1.51,6.48,6.48,0,0,1,.74.52c.26.23.51.47.75.72a8.36,8.36,0,0,1,1,1.55,5.81,5.81,0,0,1,.36.94,4.14,4.14,0,0,1,.2,1.07,4.26,4.26,0,0,1-.09,1.2,3.38,3.38,0,0,1-.53,1.16,3.58,3.58,0,0,1-.84.87,6.23,6.23,0,0,1-.93.53c-.31.12-.61.19-.92.28s-.59.09-.88.13a11.34,11.34,0,0,1-3.27-.18,16.91,16.91,0,0,1-3-.87.15.15,0,0,1-.09-.2.16.16,0,0,1,.13-.1,31.47,31.47,0,0,0,5.77-1c.84-.25,1.51-.73,1.57-1a.88.88,0,0,0,0-.52,3.13,3.13,0,0,0-.34-.86,7.46,7.46,0,0,0-.65-1c-.12-.11-.23-.21-.34-.33s-.32-.26-.47-.39a22.27,22.27,0,0,0-2.34-1.53c-1.7-.95-3.45-1.94-5.19-3a27.86,27.86,0,0,0-5.5-2.49c-1.92-.62-4-.85-5.95-1.38a11.76,11.76,0,0,1-3-1.19,20.31,20.31,0,0,1-2.6-1.78,22.83,22.83,0,0,1-4.31-4.46.16.16,0,0,1,0-.22A.16.16,0,0,1,326,265.41Z"/><path class="cls-13" d="M318.5,268.78l9.12,3.78c3,1.24,6.08,2.47,9.14,3.57,1.53.56,3.06,1.09,4.59,1.51.73.2,1.6.44,2.44.7l1.24.49c.4.2.81.39,1.21.61a10,10,0,0,1,4,4,7.1,7.1,0,0,1,.54,1.4,6,6,0,0,1,.16.77c0,.13,0,.27,0,.43a2.24,2.24,0,0,1,0,.36l0,.21a5.35,5.35,0,0,1-.48,1.58,3.44,3.44,0,0,1-1.33,1.47,3.13,3.13,0,0,1-2,.37c-.54-.08-.86-.16-1.3-.25l-2.43-.52-4.81-1.16a87.13,87.13,0,0,1-9.42-3.4c-6.11-2.53-12.12-5.24-18.09-8.07l.64-.89c1.78,1.67,3.64,3.29,5.52,4.83.94.77,1.92,1.5,2.9,2.15a11.7,11.7,0,0,0,1.48.84l1.68.79c2.24,1.06,4.42,2.2,6.62,3.34l3.28,1.75c.54.3,1.09.61,1.63.94l.82.51.43.29.24.18.13.11.2.19a5.26,5.26,0,0,1,.71,1.07,8.26,8.26,0,0,1,.45,1,5.85,5.85,0,0,1,.39,2.4,3.65,3.65,0,0,1-.41,1.46,3.3,3.3,0,0,1-1.11,1.2,5,5,0,0,1-2.51.72,10.43,10.43,0,0,1-1.1,0l-1-.08c-.64-.07-1.29-.15-1.92-.26a29.94,29.94,0,0,1-3.77-.86,24.36,24.36,0,0,1-3.69-1.39l-3.31-1.65-6.57-3.39-.05,0-.15-.09a44.14,44.14,0,0,1-3.6-3.17c-1.12-1.09-2.22-2.19-3.29-3.31-2.13-2.26-4.21-4.56-6.18-6.94s-3.91-4.79-5.81-7.22-3.7-4.94-5.46-7.47a.15.15,0,0,1,.23-.19l6.28,6.77c2.08,2.26,4.18,4.5,6.33,6.68s4.29,4.37,6.5,6.46c1.1,1.06,2.22,2.09,3.35,3.09s2.32,2,3.41,2.82l-.2-.12,6.62,3.23,3.29,1.66a21.3,21.3,0,0,0,3.21,1.21,33.5,33.5,0,0,0,3.4.86c.57.11,1.15.2,1.73.28l.87.1c.26,0,.51,0,.74,0a2.21,2.21,0,0,0,1-.2c.14-.09.18-.1.23-.42a3,3,0,0,0-.19-1.22,5.42,5.42,0,0,0-.28-.67,3.46,3.46,0,0,0-.28-.48l0,0,0,0-.12-.1-.32-.23-.73-.48-1.54-.95-3.15-1.88-6.38-3.67-1.6-.9a13.65,13.65,0,0,1-1.65-1.1c-1-.78-1.95-1.61-2.86-2.46-1.83-1.69-3.57-3.44-5.28-5.23l0,0a.55.55,0,0,1,.66-.87,117.17,117.17,0,0,0,18,7.83A89.48,89.48,0,0,0,339,286l4.87.78,2.42.41c.38.06.86.14,1.14.17a.58.58,0,0,0,.37-.06c1.41-1.05-.35-4.28-2.85-5.62-.32-.18-.66-.34-1-.52l-1-.44c-.72-.25-1.43-.49-2.27-.75-1.62-.52-3.17-1.13-4.71-1.78A145.37,145.37,0,0,1,318.36,269a.15.15,0,0,1-.05-.21A.15.15,0,0,1,318.5,268.78Z"/><path class="cls-13" d="M310.45,271.63a20.55,20.55,0,0,0,3.77-1.29,19.26,19.26,0,0,0,3.42-1.9c1.08-.72,1.94-1.68,2.95-2.45s2-1.61,3.2-2.4h0a.11.11,0,0,1,.16.11,8.22,8.22,0,0,1-2,3.75,7.71,7.71,0,0,1-1.63,1.37c-.63.34-1.23.71-1.87,1a20.59,20.59,0,0,1-3.9,1.47,17.82,17.82,0,0,1-4.08.55.1.1,0,0,1,0-.2Z"/><path class="cls-13" d="M281.62,272.19a22.1,22.1,0,0,1,1.33-2.49c.5-.8,1-1.56,1.59-2.29a4.22,4.22,0,0,1,2.73-1.95,4,4,0,0,1,1.64.1,3.28,3.28,0,0,1,1.5.84.2.2,0,0,1,0,.28h0a17,17,0,0,1-2.23,1.61,3.35,3.35,0,0,1-.93.4,2.63,2.63,0,0,0-1,.4c-.73.56-1.46,1.08-2.2,1.61s-1.46,1.08-2.2,1.64a.16.16,0,0,1-.22,0A.16.16,0,0,1,281.62,272.19Z"/><path class="cls-14" d="M287,268a9,9,0,0,1,1.29,7.15,7.73,7.73,0,0,1-5.38,5.49,9.65,9.65,0,0,1-3.8.15,18.69,18.69,0,0,1-3.5-.89,27.62,27.62,0,0,1-6.38-3.09,14.77,14.77,0,0,1-5-5.34,13.65,13.65,0,0,1-1.38-3.55,9.89,9.89,0,0,1-.17-3.94,8.69,8.69,0,0,1,1.54-3.77,8,8,0,0,1,3.11-2.55,9.17,9.17,0,0,1,7.27-.06.15.15,0,0,1,.08.2.16.16,0,0,1-.14.09,11,11,0,0,0-6,1.82,6.57,6.57,0,0,0-1.85,2.1,7.4,7.4,0,0,0-.8,2.62,11.49,11.49,0,0,0,.93,5.79,17.33,17.33,0,0,0,1.51,2.76,19.09,19.09,0,0,0,2,2.58,11.33,11.33,0,0,0,5.59,3.42,9.59,9.59,0,0,0,6.21-.69,7.61,7.61,0,0,0,4-3.87,12.57,12.57,0,0,0,.65-6.31.15.15,0,0,1,.14-.17A.16.16,0,0,1,287,268Z"/><path class="cls-14" d="M125.72,264.25a5.63,5.63,0,0,1,.65,4.36,7.54,7.54,0,0,1-2.41,3.94,9.44,9.44,0,0,1-4,2,14.49,14.49,0,0,1-2.15.25,11.62,11.62,0,0,1-2.15-.26,14.15,14.15,0,0,1,1.76-1.16c.56-.37,1.11-.71,1.66-1a25,25,0,0,0,2.88-2.08A11.92,11.92,0,0,0,125.72,264.25Z"/></g></svg>