<svg xmlns="http://www.w3.org/2000/svg" viewBox="0 0 400 400"><defs><style>.cls-1{fill:#66d0fc;}.cls-2{fill:#724644;}.cls-3{fill:#6a7484;}.cls-4{fill:#e3a785;}.cls-5{fill:#4c2b28;}.cls-6{fill:#effaff;}.cls-12,.cls-7,.cls-8{fill:#6b3434;}.cls-7{stroke:#6b3434;stroke-linecap:round;stroke-linejoin:round;}.cls-7,.cls-8,.cls-9{opacity:0.5;}.cls-13,.cls-9{fill:#2f333b;}.cls-10{fill:#7f4f4f;}.cls-11{fill:#3e2420;}.cls-14{fill:#2b1816;}.cls-15{fill:#059cdb;}</style></defs><title>wisdom_med</title><g id="circle"><circle class="cls-1" cx="196.54" cy="219.04" r="114.95"/></g><g id="color"><path class="cls-2" d="M260.05,169.25s4.17,41.5-8.33,65.67c0,0-6.42-2.93-8.1-1.94s-5.56,2.44-13.23,2.61l-6.56.15-3.66-11.31-1.36-12.25-7.54-2.41-1.36-.84-29-1.15-8,13.71-5.76,13.3-6.47,3.12c-20,2.5-20.52-1-20.52-1-14.28-33.5-8.74-68-8.74-68l2.76-13,11.93-43.55,16.23-5.65,75.37.52,11.31,4.82Z"/><path class="cls-3" d="M251.39,318.86v-4.11L250.6,306l-2.92-20.92-1.46-7.33-3.12-12.21-2.62-7.79-2.92-7.87-5.81-12.33-2.65-3.81-2.5-4.08-1.92-2.75-.37-.25-.28,0-.22-1.91,0-2.12-.22-1.56.28-1.91-.19-2.75-.94-3.47-1.58-2L217.21,208l-3.64-1.89-2.34-.69-1.73-.55-.69,7.75.7.34.78.58,2.37,2.84a18.8,18.8,0,0,1,.78,2.87,14.07,14.07,0,0,0-.39,2L210.2,224l-3,1.36-3.62.84-3.94-.08-2.86-.44-4-.36s-5.14-2.31-5.25-2.37l-3.16-2.06-2.83-2.66s-1.11-2.8-1.16-2.84.75-3,.75-3l1.55-1.84.42-.25.83-.36-.65-4.73-2.29.5-1.77.37-3,1.12-2.5,1.17-2.5,2.08s-1.75,2.58-2,3.08-.75,7.58-.75,7.58l-.08,4.5-3.67,5.08-3.33,5.67-4.17,6.75-4.83,12.67s-2.92,7.92-3.17,8.25-2.58,10.5-2.58,10.5L145.3,280l-1.17,6.17-1.08,5.67s-.83,8.25-1.08,8.83-.75,6.17-.75,6.17l-.75,11.92h.09l0,.87a115.12,115.12,0,0,0,111,.09Z"/><path class="cls-4" d="M238.69,114.51l-.8-5.6-5.5-21.67-18.5-4.83-29.67-2.17-24.5,6.5s-9.17,12.83-10.17,14-.25,15.92-.25,15.92,2.81,59.33,30.77,77.6l3.35,16.06v0l-.69.19-1.67,1.89-.75,3,1.23,3,2.87,2.66h.08l2.67,2,5.53,2.31,8.59.87,4.37-.44,3.37-1.25,2.31-1.56,1.69-1.7.39-2-.73-2.8-2.42-2.92-.78-.58a66.08,66.08,0,0,1,2.81-17.11C241.53,179.79,238.69,114.51,238.69,114.51Z"/><path class="cls-2" d="M162.8,98.91A18.34,18.34,0,0,0,175.18,100s4.87-10.62,16.75-10.62c0,0-8.25,7.87-6.62,11.62,0,0,32.25-10.75,57.25,17.37l6.37-1.25L242.43,96,218.8,80.54l-29.12-5L174.3,79,161.68,93.79Z"/><path class="cls-5" d="M251.72,95.89c3.12,3.25,6.9,27.85,10,40.59,2.67,11.11,23.91,28.66,27,31.16a6.13,6.13,0,0,1,2.4,6.83c-.44,1.44-8.52,11.85-12.49,10-18.88-8.66-30.9-29.41-31.89-47.09s-9.42-34-9.42-34L234.43,98,215.55,84.63c-26.8-12-39.25,1-39.25,1l-15.62,8.87-5.75,7.94s-8.94,17.32-9.93,35-13,38.44-31.89,47.09c-4,1.82-12.06-9.09-12.06-9.09l-.66-3.41a7.47,7.47,0,0,1,2.62-6.37c3.12-2.5,25.37-17.37,28.37-29.25s5.85-37.54,9-40.79l.13-.17L155.68,72l16.54-8.62s15.38-16,48.5-1.26l8.33,4.64,22.67,29.1"/><path class="cls-3" d="M211.22,74.25c-15.76-10.27-30.08,0-30.08,0l-1.87,1.33L178,69.08s17.5-10.5,35.5.42l1.46.87-2.37,4.75Z"/><path class="cls-3" d="M172.62,63.35l6.31,6.91c4.34,5.1.13,15.81-9.4,23.92s-20.78,10.56-25.12,5.46l-5.23-5.24-.9-.89c-4.34-5.1-.13-15.81,9.4-23.92S168.46,59,172.8,64.14Z"/><path class="cls-3" d="M253.8,93.53c4.34-5.1-1.21-13.67-10-22.86S223.62,59,219.28,64.14l.4-.72-6.31,6.91C209,75.42,215.05,89,225.49,96.6c8.87,6.5,18.05,8.21,22.4,3.11Z"/><ellipse class="cls-1" cx="155.54" cy="78.83" rx="22.66" ry="12.12" transform="translate(-13.99 119.64) rotate(-40.41)"/><path class="cls-1" d="M253.8,93.53c-4.34,5.1-15.59,1.65-25.12-6.46s-13.74-17.83-9.4-22.92,15.87-2.52,24.52,6.53S258.14,88.43,253.8,93.53Z"/><path class="cls-6" d="M185.09,145.63l-.32-1.72s-1.67-6.08-3-7.42-1.5-3.79-9.92-4.92c0,0-3.21-.62-8.79,2.37l-1.42.5.17,1.62s1.5,6.79,4.17,9,7.33,3.08,7.33,3.08S178.09,148.72,185.09,145.63Z"/><path class="cls-6" d="M206.46,144.45l.3-1.59s1.68-6.05,3-7.38,1.52-3.77,10-4.89c0,0,3.24-.62,8.89,2.36l2,.6-.71,1.52s-1.84,5.91-4.54,8.15a30.07,30.07,0,0,1-7.08,3.91S213.54,147.51,206.46,144.45Z"/></g><g id="shadow"><path class="cls-7" d="M183.24,208s16.73,14.1,25.73,2.1l.67-1s1.58-9.42,1.67-10.17.42-2.83.42-2.83l-5.17,2.17-10.83,1.17-8.58-1.58-5.75-2.92-1.15-.54,1.06,3.46,1.42,8.5Z"/><path class="cls-8" d="M183.21,209.94s1.06,9.78,1,10.41-.69,0-.69,0l-2-2.12s-.87-2.56-.87-2.66.06-2,.09-2.28a10.61,10.61,0,0,1,.72-1.62Z"/><path class="cls-9" d="M168.72,230.66s3,19,25.25,25.58c22.5,6.67,26.31,3.86,30.42,2a31.9,31.9,0,0,0,6-3.73,57.77,57.77,0,0,0,6.5-5.85,10,10,0,0,1-.75-2.25c-.25-1.25-2.75-5.08-2.75-5.08l-1.46-2.92s-2.83-5.25-3-5.46-1.79-2.54-1.79-2.54l-1.25-1.79-2-2.54-.33,3.08-.92,3.92-1.92,4.17L219,239.7l-1.83,2-5,3.54-5.42,1.83-8.37.37-5.25-.54-5.87-1.71-7.92-3.83s-8.08-7.37-8.29-7.62S168.72,230.66,168.72,230.66Z"/><path class="cls-9" d="M233.47,90.74s3.5,8.67,0,10.33c0,0,2.46,1,2.71,1.08s5.25.31,5.25.31l4-.69A42.55,42.55,0,0,1,248.74,99a33.16,33.16,0,0,0,2.94-3.37l.31-.47-2,.53-2.19.25a12.73,12.73,0,0,1-3.22-.28C243.68,95.29,233.47,90.74,233.47,90.74Z"/><path class="cls-9" d="M148.89,95.91s7.92,2.08,9.33,4.92l2.83-1L164.51,98l3.87-2.67,5-4.92s4.87-7.12,5.17-7.46,1.37-3.71,1.67-4.29-.17-4.08-.08-4.37a21,21,0,0,0-.62-3.83,27.18,27.18,0,0,0-2.25-2.21l-2.37-2.08-1.33-1,.62,1.87a11.58,11.58,0,0,1,.29,3.46c-.25,1-1.21,7.58-4.83,10.79s-6.5,8.17-11.83,10.92A52.51,52.51,0,0,1,148.89,95.91Z"/><path class="cls-9" d="M215.53,229.29s5.71,1.85,8.12-.65l.25-4.33-.23-2.44-.35-.67-1.12,2.19-1.42,1.81-2.17,1.85-2.29,1.69Z"/><path class="cls-8" d="M188.18,165.31c-.1.85,1.24,2.31,2.83,3.47a11.92,11.92,0,0,0,8.21,2.33c10.21-.49,6.3-8.94,5.79-9.08a3.15,3.15,0,0,0-1.87.5,32.77,32.77,0,0,1-2.9,1.56,7,7,0,0,1-5.62.14s-3-.94-4.4-.6A2.76,2.76,0,0,0,188.18,165.31Z"/><path class="cls-8" d="M235.68,111.83s.22,9.11-.25,17.83c-.49,9.19-8.61,39.89-16.86,52.58-6.85,10.53-14.37,14.42-24.67,17.22l10.3-.05L212.1,196l5.27-3.64,5.92-6.49,5.65-9.9,4.53-12.82,4.23-23.48,1.06-19.91-.07-5.28-2.25-2.12Z"/><path class="cls-8" d="M213.39,218.87l-.5-2.26-1.67-2.1-.93-.92-.78-.58-.22,1.36-.12,1.57-.08,1.48s5.28,1.87,2.38,5.92l.16.26Z"/><path class="cls-9" d="M213.32,220.62s7.51.77,6.84,5l1.86-2.25,1.67-3.3.32-4.29-1.4-3.25-3.35-3.37-3.38-2-2.32-1.09-3.16-.94-.64,3.89-.27,3.91,1.21.9,1.17,1.37,1.23,1.79.38,2Z"/><line class="cls-4" x1="181" y1="212.58" x2="181.74" y2="211.69"/><path class="cls-9" d="M181,212.73s-1.05-4.31-8-3.73c0-.18,1.56-.94,1.56-.94l2.9-1.28L180,206l2.55-.61.42,2.09.48,2.83-.52.15-.93.8Z"/><path class="cls-10" d="M234,101.63A17.73,17.73,0,0,1,236.15,112l-2.28-1.87-9.09-5.54L217,101.53,210.86,100l-7-.87-6.78,0-6.21.67-5.42,1-.14-2.18,2.63-4.71,3.46-4V89l-6.26,1.71-4.6,2.73-2.83,2.79-2.53,3.8-4.16.61-3.88-.34-3.67-1.1-.67-.3L167.25,96l6.14-5.63,5.1-6.61,3.53-2L188.93,80l7-.59,12.75,2.51L213,83.41l1.47.28,1.81,3.12,4.82,6,5.46,4.57L233.1,101Z"/></g><g id="line"><path class="cls-11" d="M131.61,168.94c.06,5.81,0,11.53.14,17.25,0,1.43.06,2.86,0,4.29s0,2.87-.06,4.31a66.53,66.53,0,0,0,.27,8.63,61.21,61.21,0,0,0,1.5,8.5l1.19,4.15.6,2.07.66,2c1.53,5.52,3.73,10.79,5.72,16.12l.11.38a1.19,1.19,0,0,0-.06-.24l0-.06a.7.7,0,0,0-.06-.11.17.17,0,0,0,0-.06s0,0,0,0a1.73,1.73,0,0,0,.29.18,2.32,2.32,0,0,0,.43.19,3.1,3.1,0,0,0,.51.17,15.15,15.15,0,0,0,2.34.5,47.74,47.74,0,0,0,5.08.4c.86,0,1.73.06,2.6.07s1.74,0,2.62,0c1.75,0,3.5,0,5.28,0a.15.15,0,0,1,.15.15.16.16,0,0,1-.11.15c-1.71.43-3.44.82-5.19,1.13-.87.16-1.75.31-2.63.42s-1.76.24-2.65.31a36.15,36.15,0,0,1-5.43.13,15.89,15.89,0,0,1-2.84-.38,5.49,5.49,0,0,1-.75-.22,5,5,0,0,1-.78-.31,4.78,4.78,0,0,1-.84-.5,4.43,4.43,0,0,1-.47-.44,2.09,2.09,0,0,1-.51-1l.11.38c-.57-1.35-1.11-2.71-1.63-4.08-.26-.68-.54-1.36-.78-2.05s-.43-1.4-.64-2.1l-1.24-4.21c-.37-1.41-.67-2.85-1-4.27l-.45-2.14c-.14-.72-.21-1.45-.32-2.17l-.6-4.33c-.27-2.9-.73-5.76-1.08-8.64l-1.35-8.62c-.19-1.44-.36-2.89-.48-4.35s-.11-2.91-.12-4.37.07-2.91.15-4.37.21-2.91.39-4.35a51.34,51.34,0,0,1,1.69-8.59.15.15,0,0,1,.3,0Z"/><path class="cls-11" d="M260.2,169.23A78,78,0,0,1,262,186a57.39,57.39,0,0,1-.45,8.41c-.35,2.79-.82,5.57-1.18,8.34s-.62,5.56-.92,8.35-.55,5.6-1.06,8.39a65.75,65.75,0,0,1-2.05,8.25,51.62,51.62,0,0,1-3.23,7.95,1.61,1.61,0,0,1-2,.75,40.17,40.17,0,0,0-5-1.73,7.73,7.73,0,0,0-2.18-.35h-.09s0,0,0,0v0l-.08,0c-.22.13-.44.25-.67.36a12.19,12.19,0,0,1-1.42.6,17.41,17.41,0,0,1-5.77.8,46.9,46.9,0,0,1-5.58-.37.15.15,0,0,1,0-.3c1.83-.3,3.66-.59,5.44-.92a19.88,19.88,0,0,0,5-1.47,9.64,9.64,0,0,0,1.06-.61l.51-.35.06,0,.16-.1a2,2,0,0,1,.33-.16,3.31,3.31,0,0,1,.58-.17,9.49,9.49,0,0,1,3.29.16,36.3,36.3,0,0,1,5.52,1.66l-2,.75c.6-1.21,1.2-2.42,1.72-3.67.29-.61.56-1.24.81-1.87s.53-1.25.75-1.9c1-2.55,1.76-5.18,2.57-7.82s1.54-5.32,2.14-8a58.36,58.36,0,0,0,1.15-8.25,83,83,0,0,0,0-8.35c-.1-2.78-.1-5.55,0-8.32.11-5.54.18-11.08.51-16.7a.15.15,0,0,1,.16-.15A.16.16,0,0,1,260.2,169.23Z"/><path class="cls-12" d="M191.3,165.41a1.71,1.71,0,0,1,1.22-.6,2.1,2.1,0,0,1,1.22.31,1.93,1.93,0,0,1,.89,2.29,7.38,7.38,0,0,1-1.18-.25,3.38,3.38,0,0,1-.74-.32,3.56,3.56,0,0,1-.63-.51A11.5,11.5,0,0,1,191.3,165.41Z"/><path class="cls-12" d="M199.3,167.25a2.13,2.13,0,0,1,.41-1.3,2.45,2.45,0,0,1,.94-.77,2.36,2.36,0,0,1,1.23-.21,1.88,1.88,0,0,1,1.25.63,7.41,7.41,0,0,1-.86.9,3.31,3.31,0,0,1-.77.5,3.35,3.35,0,0,1-.92.27A4.61,4.61,0,0,1,199.3,167.25Z"/><path class="cls-12" d="M189.3,161.5c.09.64.12,1.12.15,1.58s0,.86,0,1.27,0,.8-.06,1.25a15.64,15.64,0,0,1-.19,1.58,2.92,2.92,0,0,1-1.75-2.87,3.34,3.34,0,0,1,.48-1.67A2.56,2.56,0,0,1,189.3,161.5Z"/><path class="cls-12" d="M213.86,172.94a2.13,2.13,0,0,1,1.32-.35,2.45,2.45,0,0,1,1.16.38,2.37,2.37,0,0,1,.84.92,1.88,1.88,0,0,1,.14,1.39,7.36,7.36,0,0,1-1.22-.24,3.21,3.21,0,0,1-1.56-1A4.58,4.58,0,0,1,213.86,172.94Z"/><path class="cls-12" d="M181.11,172.94a4.58,4.58,0,0,1-.68,1.08,3.21,3.21,0,0,1-1.56,1,7.36,7.36,0,0,1-1.22.24,1.88,1.88,0,0,1,.14-1.39,2.37,2.37,0,0,1,.84-.92,2.45,2.45,0,0,1,1.16-.38A2.13,2.13,0,0,1,181.11,172.94Z"/><path class="cls-12" d="M180.29,174.21a47.09,47.09,0,0,0,8.49,3.52,29.13,29.13,0,0,0,8.74,1.08,35.4,35.4,0,0,0,8.75-1.49c2.93-.78,5.72-2.06,8.71-3.17a27.5,27.5,0,0,1-7.89,5.37,24.39,24.39,0,0,1-9.48,2.29,21.89,21.89,0,0,1-9.62-1.88A21.58,21.58,0,0,1,180.29,174.21Z"/><path class="cls-12" d="M183.55,122.53c-2.32-.48-4.33-.91-6.31-1.22a39.3,39.3,0,0,0-5.71-.54,35.27,35.27,0,0,0-5.69.28c-1,0-2,.3-3,.41s-2.11.41-3.34.48a12.51,12.51,0,0,1,1-1.42,8.42,8.42,0,0,1,1.22-1.28,13.45,13.45,0,0,1,2.94-2,14.43,14.43,0,0,1,7-1.53,15,15,0,0,1,6.9,1.85A12,12,0,0,1,183.55,122.53Z"/><path class="cls-12" d="M207.39,122.2a12.66,12.66,0,0,1,5.07-4.66,16.55,16.55,0,0,1,6.69-1.91,17.35,17.35,0,0,1,3.52.11,15.56,15.56,0,0,1,3.4.91,12.72,12.72,0,0,1,5.58,4.05c-2.39,0-4.4-.23-6.4-.21a51.84,51.84,0,0,0-5.75.12c-1.89.13-3.79.33-5.77.63Z"/><path class="cls-12" d="M185.18,145.86a27.52,27.52,0,0,1-7.28,2.8,17.05,17.05,0,0,1-8.07,0,12.6,12.6,0,0,1-3.93-1.73,9.75,9.75,0,0,1-2.92-3.19,12.73,12.73,0,0,1-1.4-8,.16.16,0,0,1,.3,0,42.64,42.64,0,0,0,3.63,6.4,21.72,21.72,0,0,0,2.22,2.46,8.63,8.63,0,0,0,2.84,1.79,16.51,16.51,0,0,0,7.12.8,29.74,29.74,0,0,0,7.38-1.59h0a.15.15,0,0,1,.12.27Z"/><path class="cls-12" d="M184.57,143.69a23.8,23.8,0,0,0-2.73-5.85,18,18,0,0,0-4.14-4.62,21.15,21.15,0,0,0-5.35-2.52l-1.44-.52a12.21,12.21,0,0,1-1.66-.65,6.52,6.52,0,0,1-2.79-2.27.15.15,0,0,1,.17-.23h0a17.61,17.61,0,0,0,3.15.45c.52,0,1,.07,1.55.07s1.17.15,1.76.23a7.35,7.35,0,0,1,1.74.51c.28.11.56.23.84.35s.52.32.78.48a11.16,11.16,0,0,1,1.46,1.07,12.85,12.85,0,0,1,1.33,1.2,17.76,17.76,0,0,1,3.88,5.73,22,22,0,0,1,1.7,6.5.15.15,0,0,1-.29.06Z"/><path class="cls-12" d="M181.68,136.41a15.35,15.35,0,0,0-4.84-3.48,14,14,0,0,0-5.56-1.3c-.47,0-.94,0-1.41.09l-1.39.25c-.53.1-1.06.18-1.59.24a15.36,15.36,0,0,1-1.64,0,9.9,9.9,0,0,1-3.34-.74,4.46,4.46,0,0,1-1.56-1.06,1.76,1.76,0,0,1-.45-1.87.15.15,0,0,1,.27,0l0,.06a1.31,1.31,0,0,0,1,.7,5.1,5.1,0,0,0,1.26.12c.9,0,1.83-.1,2.78-.21s1.92-.19,2.92-.2l1.69,0,1.67.18a14.4,14.4,0,0,1,6.1,2.39,14.91,14.91,0,0,1,4.34,4.61.15.15,0,0,1-.24.18Z"/><path class="cls-12" d="M179.62,134.26a15.22,15.22,0,0,0-5.65-1.74,13.9,13.9,0,0,0-5.63.53c-.44.17-.88.33-1.3.52l-1.22.67c-.47.26-.94.5-1.42.72a15.2,15.2,0,0,1-1.54.53,9.82,9.82,0,0,1-3.38.35,4.44,4.44,0,0,1-1.8-.51,1.75,1.75,0,0,1-1-1.62.15.15,0,0,1,.25-.08l0,0a1.29,1.29,0,0,0,1.13.35,5.09,5.09,0,0,0,1.23-.29c.84-.3,1.69-.68,2.55-1.07s1.75-.78,2.68-1.1l1.6-.49,1.63-.35a14.32,14.32,0,0,1,6.49.33,14.78,14.78,0,0,1,5.54,3,.15.15,0,0,1-.17.25Z"/><path class="cls-12" d="M207.88,144.87a19,19,0,0,0,7.14,1.46,12.28,12.28,0,0,0,6.62-1.78c1.95-1.21,3.22-3.12,4.62-4.93.72-.91,1.35-1.92,2-2.93.31-.52.66-1,1-1.56s.68-1.07,1.09-1.59h0a.16.16,0,0,1,.28.09,15.24,15.24,0,0,1-1.9,7.61,11.78,11.78,0,0,1-2.54,3.19,16.29,16.29,0,0,1-3.47,2.24,13.16,13.16,0,0,1-3.9,1.19,14.87,14.87,0,0,1-4,0,18.48,18.48,0,0,1-7.18-2.7.15.15,0,0,1,.14-.26Z"/><path class="cls-12" d="M206.41,144a19.87,19.87,0,0,1,1.65-6.8,16.5,16.5,0,0,1,4.3-5.83,13.18,13.18,0,0,1,3.13-2.1,10.44,10.44,0,0,1,3.65-.84,11.11,11.11,0,0,0,5.74-2.34h0a.15.15,0,0,1,.23.18,8.22,8.22,0,0,1-5.53,4.83c-1,.31-2,.7-2.9,1a14.89,14.89,0,0,0-2.79,1.27,15.08,15.08,0,0,0-4.45,4.53A21.49,21.49,0,0,0,206.7,144h0a.15.15,0,0,1-.29,0Z"/><path class="cls-12" d="M209.64,135.23a15.79,15.79,0,0,1,4.63-4,17.31,17.31,0,0,1,5.91-2.11l1.58-.21c.53-.06,1.06-.07,1.6-.11,1-.08,1.8-.08,2.68-.14a15.08,15.08,0,0,0,5.34-1.17h0a.16.16,0,0,1,.21.19,6.75,6.75,0,0,1-5.15,4,8.7,8.7,0,0,1-3.28,0c-.46-.06-.92-.14-1.38-.18s-.93,0-1.39,0a17.93,17.93,0,0,0-5.52,1.09,16.52,16.52,0,0,0-5,2.88h0a.15.15,0,0,1-.22-.21Z"/><path class="cls-12" d="M211.75,133a15.21,15.21,0,0,1,5.52-2.78,15.86,15.86,0,0,1,6.35-.4,23.55,23.55,0,0,1,5.92,1.6c.88.35,1.74.71,2.6,1a9,9,0,0,0,1.27.35,1.51,1.51,0,0,0,1.17-.14l.08-.06a.14.14,0,0,1,.22.11c0,.75-.68,1.19-1.21,1.45a5.62,5.62,0,0,1-1.73.41,10.91,10.91,0,0,1-3.28-.25,12.16,12.16,0,0,1-2.94-1.08,12.43,12.43,0,0,0-2.57-1.05,16,16,0,0,0-5.61-.48,15.79,15.79,0,0,0-5.62,1.56h0a.15.15,0,0,1-.16-.25Z"/><path class="cls-13" d="M177.89,69A12.92,12.92,0,0,1,181.77,66a14.93,14.93,0,0,1,4.53-1.54c.81-.07,1.62-.09,2.42-.1a20.23,20.23,0,0,0,2.39,0,43.5,43.5,0,0,0,4.69-.63,20.39,20.39,0,0,1,9.6.54,18.79,18.79,0,0,1,8.15,5.09.16.16,0,0,1-.14.26h0a21.78,21.78,0,0,1-2.32-.54c-.75-.2-1.45-.47-2.21-.62s-1.46-.37-2.17-.59-1.45-.31-2.16-.51c-1.41-.43-2.85-.72-4.29-1.12-.73-.14-1.47-.24-2.2-.41s-1.48-.33-2.24-.45a12,12,0,0,0-4.57-.05A15.08,15.08,0,0,0,189,66c-.71.32-1.41.64-2.11.9a13.37,13.37,0,0,1-2.14.7c-.71.23-1.45.39-2.18.59-1.48.35-2.94.74-4.56,1h0a.16.16,0,0,1-.14-.26Z"/><path class="cls-13" d="M181.05,74.13a7.5,7.5,0,0,1,1.41-1.61,10.81,10.81,0,0,1,1.68-1.25A11.17,11.17,0,0,1,188,69.72c.7-.08,1.41-.11,2.1-.13a14,14,0,0,0,2.07,0,29.86,29.86,0,0,0,4-.65,13.7,13.7,0,0,1,4.18-.32,15.73,15.73,0,0,1,4.14.78,14.93,14.93,0,0,1,6.8,4.78.16.16,0,0,1,0,.22.16.16,0,0,1-.12,0h0a37.78,37.78,0,0,1-3.91-1c-.63-.15-1.25-.32-1.85-.51s-1.23-.29-1.82-.47-1.18-.4-1.79-.54-1.21-.32-1.82-.5-1.24-.23-1.86-.4c-.31-.07-.62-.17-.94-.25l-1-.19a8.86,8.86,0,0,0-3.9,0,12.07,12.07,0,0,0-1.85.7c-.59.32-1.16.64-1.75.91a9.76,9.76,0,0,1-1.78.69c-.59.23-1.21.39-1.82.59a37.22,37.22,0,0,1-3.88,1h0a.16.16,0,0,1-.17-.25Z"/><path class="cls-13" d="M209.5,212.79a9.69,9.69,0,0,1,3,2,7.4,7.4,0,0,1,1.2,1.45,6.38,6.38,0,0,1,.84,1.8,5.82,5.82,0,0,1,.2,2.1,5.48,5.48,0,0,1-.21,1.06,3.9,3.9,0,0,1-.39,1,6.77,6.77,0,0,1-2.82,2.86,17.82,17.82,0,0,1-7,1.5c-2.3.18-4.59.29-6.93.28a23.16,23.16,0,0,1-7-1,20.24,20.24,0,0,1-6.49-3.13,13.39,13.39,0,0,1-2.67-2.63,8.53,8.53,0,0,1-1.66-3.57,5.56,5.56,0,0,1,.65-3.94,5.82,5.82,0,0,1,2.83-2.33.15.15,0,0,1,.2.08.16.16,0,0,1,0,.16,6.7,6.7,0,0,0-1.6,2.71,4.27,4.27,0,0,0,.23,2.69,10.63,10.63,0,0,0,3.94,4.23,29,29,0,0,0,5.55,3,55.37,55.37,0,0,0,6.22,2.08,16.06,16.06,0,0,0,6.61.39,13.07,13.07,0,0,0,5.79-2.64c1.52-1.24,2.54-2.61,2.3-4.41s-1.5-3.68-2.92-5.46a.15.15,0,0,1,0-.22A.16.16,0,0,1,209.5,212.79Z"/><path class="cls-13" d="M182.39,205.41a32.58,32.58,0,0,0-7.51,3.23,13.64,13.64,0,0,0-3,2.45l-.56.73-.43.78a7.44,7.44,0,0,0-.52,1.72,25.88,25.88,0,0,0-.41,3.94c-.07,1.34-.09,2.69,0,4,.08,2.7.24,5.45.53,8.11l-.17-.54a33.41,33.41,0,0,0,2.66,3.71c.5.6,1,1.18,1.54,1.75s1.08,1.12,1.66,1.65,1.16,1,1.76,1.55l1.84,1.45,1.95,1.31c.65.43,1.36.77,2,1.18a17.22,17.22,0,0,0,2.1,1.06,20.53,20.53,0,0,0,2.17.94l2.23.81c.75.27,1.53.41,2.3.63a38.86,38.86,0,0,0,4.71.94,19.74,19.74,0,0,0,2.41.25l2.44.22c-1.61.16-3.25.41-4.9.42a33.69,33.69,0,0,1-4.95-.3,32,32,0,0,1-9.6-2.78,33.4,33.4,0,0,1-8.42-5.54c-.64-.56-1.22-1.17-1.83-1.75s-1.15-1.24-1.7-1.88a27.4,27.4,0,0,1-3-4.22,1.31,1.31,0,0,1-.17-.52h0a69.41,69.41,0,0,1-.33-8.44,35,35,0,0,1,1-8.5,9.55,9.55,0,0,1,.86-2.18l.68-1,.8-.83a13.76,13.76,0,0,1,3.69-2.39A25.24,25.24,0,0,1,182.39,205.41Z"/><path class="cls-13" d="M205.45,247.1c1.36-.78,2.68-1.41,3.95-2.09s2.5-1.34,3.81-1.91a15.34,15.34,0,0,0,3.89-2,8.82,8.82,0,0,0,2.53-3.53c.31-.66.5-1.37.74-2,.1-.35.23-.67.34-1l.3-1c.38-1.35.64-2.72.89-4.1.6-2.75,1-5.6,1.58-8.67a.16.16,0,0,1,.19-.12.16.16,0,0,1,.11.09,17.29,17.29,0,0,1,1.28,9.24,16,16,0,0,1-1.4,4.57,13.06,13.06,0,0,1-2.67,3.95c-1.09,1.15-2.19,2.21-3.23,3.33a31.55,31.55,0,0,1-3.26,3.42,11.62,11.62,0,0,1-4.29,2,10.74,10.74,0,0,1-4.72.2.16.16,0,0,1,0-.29Z"/><path class="cls-13" d="M210.72,205.33a20.24,20.24,0,0,1,8.92,2.68,13,13,0,0,1,3.78,3.21,9.44,9.44,0,0,1,2,4.91l0-.28a5.16,5.16,0,0,1,.12.72c0,.22,0,.42,0,.63a8,8,0,0,1-.06,1.21,10,10,0,0,1-.53,2.29,12.17,12.17,0,0,1-2.31,3.86,16.46,16.46,0,0,1-3.26,2.83c-.62.36-1.21.73-1.84,1s-1.28.57-1.93.81c.49-.51,1-1,1.47-1.46l1.39-1.47a21.64,21.64,0,0,0,2.34-3.12,12.55,12.55,0,0,0,1.49-3.34,9.59,9.59,0,0,0,.28-1.71,6.49,6.49,0,0,0,0-.83,4.61,4.61,0,0,0-.08-.68,2.05,2.05,0,0,1,0-.23v-.05a7.69,7.69,0,0,0-1.3-3.42,13.67,13.67,0,0,0-2.82-2.93,29.16,29.16,0,0,0-3.59-2.47C213.42,206.75,212.09,206.05,210.72,205.33Z"/><path class="cls-13" d="M140.35,319.41a65.59,65.59,0,0,1-.66-12.52c.08-2.08.18-4.17.4-6.24a54.57,54.57,0,0,1,.91-6.19c.85-4.09,2.16-8.08,3.1-12.12s1.68-8.12,2.37-12.24c.39-2,.72-4.12,1.23-6.15s1.07-4,1.66-6.05a94.23,94.23,0,0,1,4.39-11.8,81.37,81.37,0,0,1,6.25-11,60.12,60.12,0,0,1,8.16-9.59.2.2,0,0,1,.29,0,.21.21,0,0,1,0,.24c-2,3.69-3.95,7.27-5.75,10.94s-3.47,7.37-5.07,11.12-3.24,7.47-4.71,11.28l-4.34,11.53a68.23,68.23,0,0,0-3.22,11.93c-.69,4.07-.74,8.24-1.06,12.34-.16,2.05-.39,4.09-.67,6.12s-.56,4.07-.85,6.1c-.6,4.07-1.2,8.15-2,12.25h0a.2.2,0,0,1-.4,0Z"/><path class="cls-13" d="M251.47,319.41c-.69-4.12-1.4-8.2-2.2-12.26-.33-4.1-.82-8.18-1.39-12.25A209.17,209.17,0,0,0,243,270.76,154.56,154.56,0,0,0,235,247.58a122.34,122.34,0,0,0-5.58-10.89c-1.69-3.74-3.61-7.38-5.66-11a79.82,79.82,0,0,1,8.25,9.51,125.35,125.35,0,0,1,5.73,11.18A157.55,157.55,0,0,1,245.95,270a212.15,212.15,0,0,1,4.91,24.5c.59,4.12,1,8.26,1.44,12.41A112.16,112.16,0,0,1,251.47,319.41Z"/><ellipse class="cls-12" cx="178.87" cy="144.92" rx="2.75" ry="2.46"/><ellipse class="cls-12" cx="219.01" cy="144.13" rx="2.48" ry="2.46"/><path class="cls-12" d="M149.55,116.65c3,17.17,6.56,34.1,12.58,50.09a95.78,95.78,0,0,0,5.11,11.74,45,45,0,0,0,7.44,10.39A31.11,31.11,0,0,0,185.17,196a28.84,28.84,0,0,0,12.37,2.05,29.14,29.14,0,0,0,11.87-3,30.07,30.07,0,0,0,9.45-7.49,47,47,0,0,0,6.62-10.43A92.2,92.2,0,0,0,230,165.41a168,168,0,0,0,5.61-25c1.31-8.53,2.18-17.16,2.79-25.86h0a.25.25,0,0,1,.5,0,119.18,119.18,0,0,1,.92,13.12q.14,6.58-.3,13.18c-.15,2.2-.34,4.39-.58,6.59s-.56,4.38-.91,6.57a103.57,103.57,0,0,1-2.92,13,71.59,71.59,0,0,1-5,12.53,49.37,49.37,0,0,1-7.78,11.27,32.09,32.09,0,0,1-11.32,8,30.73,30.73,0,0,1-13.55,2.06,35.44,35.44,0,0,1-13-3.26A40.86,40.86,0,0,1,173.56,190a71.09,71.09,0,0,1-15.26-21.69,81.84,81.84,0,0,1-4.51-12.5q-.88-3.2-1.63-6.42c-.48-2.15-.89-4.32-1.27-6.49s-.69-4.35-1-6.53-.49-4.37-.65-6.56a102.08,102.08,0,0,1-.22-13.16.25.25,0,0,1,.5,0Z"/><path class="cls-12" d="M208.9,217.4c-.11-1.95-.11-3.89-.13-5.83s.06-3.89.18-5.84a24.55,24.55,0,0,1,.59-5.86,14.81,14.81,0,0,1,1.11-2.83,8.67,8.67,0,0,1,.84-1.35,3,3,0,0,1,1.3-1.07.16.16,0,0,1,.2.2v0a4.72,4.72,0,0,0-.22,1.36c0,.46,0,.93-.08,1.4q-.06,1.41-.19,2.82a47.53,47.53,0,0,1-1.16,5.59l-2.13,11.39a.15.15,0,0,1-.3,0Z"/><path class="cls-12" d="M184,219.77c-.36-2.13-.69-4.25-1.11-6.37s-.79-4.21-1.22-6.3a63.24,63.24,0,0,1-1.4-6.22,35.91,35.91,0,0,1-.28-6.51.16.16,0,0,1,.17-.15.17.17,0,0,1,.12.06,17.89,17.89,0,0,1,2.93,6,29.26,29.26,0,0,1,.84,6.49q.28,3.25.34,6.5c0,2.17,0,4.33-.09,6.5a.15.15,0,0,1-.3,0Z"/><path class="cls-14" d="M155.15,102.59,151.45,116c-.59,2.22-1.17,4.43-1.71,6.64s-1,4.43-1.59,6.63c-.27,1.11-.59,2.2-.82,3.32l-.41,1.67-.33,1.68-.33,1.7-.31,1.78c-.24,1.18-.48,2.34-.73,3.5a131.82,131.82,0,0,1-3.8,13.7,60.44,60.44,0,0,1-2.73,6.66,46.85,46.85,0,0,1-3.71,6.22,50.7,50.7,0,0,1-9.87,10.72,42.8,42.8,0,0,1-6.13,4.06c-1.07.59-2.19,1.11-3.3,1.61l-1.75.73a4.73,4.73,0,0,1-3.08.08,10.25,10.25,0,0,1-3.7-2.2,26.72,26.72,0,0,1-2.59-2.71,38.9,38.9,0,0,1-4-6l-.07-.12a7.06,7.06,0,0,1-.24-1.25,2.57,2.57,0,0,1,.15-1.36.25.25,0,0,1,.47.13v.06a2.18,2.18,0,0,0,.26.95,8.8,8.8,0,0,0,.52,1l-.07-.12c1.67,1.59,3.39,3.17,5.15,4.57a23.28,23.28,0,0,0,2.67,1.9,6.57,6.57,0,0,0,2.45,1c.31,0,.41-.07.35-.08l1.41-.78q1.44-.84,2.82-1.76c1.85-1.21,3.62-2.54,5.35-3.92s3.4-2.84,5-4.39a63.22,63.22,0,0,0,4.55-4.93c1.43-1.73,2.78-3.54,4.09-5.38a62.52,62.52,0,0,0,3.71-5.75,35,35,0,0,0,4.44-13,28.46,28.46,0,0,0,.21-3.43c0-.57,0-1.14,0-1.71l0-1.79,0-1.8.05-1.8c0-1.2.13-2.4.28-3.59a42.37,42.37,0,0,1,1.48-7c.31-1.15.72-2.27,1.07-3.41s.81-2.24,1.27-3.33a62.9,62.9,0,0,1,3.05-6.43,43,43,0,0,1,3.86-6,.25.25,0,0,1,.36,0A.26.26,0,0,1,155.15,102.59Z"/><path class="cls-14" d="M100.19,172.11a7.34,7.34,0,0,1,.92-6,8.42,8.42,0,0,1,1-1.28c.38-.38.74-.68,1.1-1,.72-.63,1.43-1.25,2.15-1.85q2.17-1.81,4.35-3.55c1.45-1.18,2.92-2.32,4.43-3.41,3-2.18,6.23-4.21,8.88-6.85a25.85,25.85,0,0,0,6.15-9.11,14.06,14.06,0,0,0,.7-2.52c.15-.83.29-1.81.43-2.71l.84-5.54c.55-3.71,1-7.44,1.73-11.15s1.54-7.4,2.59-11.07c.53-1.83,1.1-3.66,1.8-5.46A28.11,28.11,0,0,1,138.48,98a7.63,7.63,0,0,1,1.75-2.43.2.2,0,0,1,.3.25v0a8.83,8.83,0,0,0-.79,2.58c-.18.9-.31,1.83-.44,2.75-.25,1.85-.47,3.7-.69,5.56-.44,3.72-.9,7.45-1.46,11.17s-1.36,7.42-2.2,11.12c-.42,1.85-.86,3.7-1.41,5.54-.29.93-.53,1.81-.93,2.78a16.57,16.57,0,0,1-1.36,2.73,70.17,70.17,0,0,1-7.22,9c-2.53,2.83-4.92,5.87-7.68,8.52a62,62,0,0,1-9.06,6.93c-.79.52-1.61,1-2.4,1.5-.4.24-.8.49-1.14.72a6.1,6.1,0,0,0-.94.73,7.85,7.85,0,0,0-2.19,4.61v0a.2.2,0,0,1-.39,0Z"/><path class="cls-14" d="M251.9,95.72a9.59,9.59,0,0,1,1.82,2.78q.69,1.48,1.26,3,1.11,3,2,6.1t1.69,6.16c.53,2.06,1.05,4.12,1.52,6.19l1.43,6.19L263,132.3l.72,3.05c.12.54.24,1,.36,1.37s.29.86.47,1.29a33.53,33.53,0,0,0,2.8,5.19,92.92,92.92,0,0,0,7.47,9.94c1.35,1.61,2.79,3.15,4.23,4.68s3,3,4.53,4.42,3.15,2.81,4.79,4.13a12.66,12.66,0,0,1,2.45,2.3A7,7,0,0,1,292.2,172a6.82,6.82,0,0,1,0,1.81,7,7,0,0,1-.18.89,4.06,4.06,0,0,1-.43.94,27.51,27.51,0,0,1-1.84,2.75,38.08,38.08,0,0,1-4.34,5,15.88,15.88,0,0,1-2.78,2.13,7.62,7.62,0,0,1-1.83.79,4.52,4.52,0,0,1-2.47,0c-.53-.17-.66-.26-.94-.37l-.76-.32c-.51-.21-1-.44-1.5-.69-1-.47-2-1-2.93-1.53a52,52,0,0,1-10.49-8,59.86,59.86,0,0,1-8.36-10.23,56.56,56.56,0,0,1-5.9-11.85,51.17,51.17,0,0,1-2.88-13c-.11-1.08-.13-2.28-.19-3.29s-.08-2-.18-3.06-.16-2-.28-3.07-.25-2-.41-3.07a127.6,127.6,0,0,0-6.41-24.28h0a.25.25,0,0,1,.45-.22,76.4,76.4,0,0,1,5.79,11.46,84,84,0,0,1,4,12.29c.25,1.05.46,2.12.7,3.18s.38,2.15.56,3.22.26,2.17.39,3.26.2,2,.36,3a55.67,55.67,0,0,0,3.08,11.67A63.22,63.22,0,0,0,265.09,172a55.16,55.16,0,0,0,9.24,7.9c.85.56,1.69,1.13,2.57,1.64.44.26.87.53,1.32.77l1.18.66a2.37,2.37,0,0,0,1.79-.28,13,13,0,0,0,2.43-1.48,31,31,0,0,0,4.47-4.18,25.11,25.11,0,0,0,1.9-2.38,2.7,2.7,0,0,0,.27-.48,5.14,5.14,0,0,0,.17-.66,5.07,5.07,0,0,0,.07-1.35,4.89,4.89,0,0,0-1-2.53,11.35,11.35,0,0,0-2.15-2.06l-4.87-4.12c-1.62-1.38-3.26-2.74-4.85-4.16s-3.21-2.81-4.8-4.25a73,73,0,0,1-8.92-9.45,30.81,30.81,0,0,1-3.51-5.81,17.72,17.72,0,0,1-.64-1.68c-.18-.6-.35-1.21-.45-1.7-.26-1-.46-2.1-.67-3.14L257.46,127l-1.07-6.27-2-12.52c-.36-2.08-.68-4.16-1.09-6.22-.21-1-.41-2.05-.68-3.06a9.86,9.86,0,0,0-1.08-2.84l0,0a.25.25,0,0,1,.38-.32Z"/><path class="cls-14" d="M176.16,85.53a18,18,0,0,1,4.1-3.34l1.15-.68,1.19-.6a25.67,25.67,0,0,1,2.46-1.06,31.26,31.26,0,0,1,5.2-1.37,21.58,21.58,0,0,1,2.68-.33,20.86,20.86,0,0,1,2.7-.15,30.57,30.57,0,0,1,10.69,1.21,41.14,41.14,0,0,1,4.91,2.16,31.93,31.93,0,0,1,4.4,3.09.21.21,0,0,1-.15.37h0a33.57,33.57,0,0,1-5.2-.81c-1.71-.23-3.34-.6-5-.94-.82-.14-1.64-.29-2.44-.48-.4-.09-.8-.21-1.2-.31L200.44,82,198,81.49c-.82-.12-1.64-.21-2.46-.3a33.88,33.88,0,0,0-9.91.57,23.14,23.14,0,0,0-9.18,4h0a.2.2,0,0,1-.27-.29Z"/><path class="cls-14" d="M172.08,63.28a22.44,22.44,0,0,1,5.12-4l1.42-.81,1.48-.71a31.92,31.92,0,0,1,3-1.24,38.77,38.77,0,0,1,6.39-1.59,26.66,26.66,0,0,1,3.28-.38,25.58,25.58,0,0,1,3.3-.15h3.31l3.3.25c.55.06,1.1.09,1.65.16s1.08.21,1.62.34c1.07.24,2.14.52,3.2.81a60.63,60.63,0,0,1,6.07,2.5A47.6,47.6,0,0,1,220.8,62a.21.21,0,0,1-.15.37h0a49.53,49.53,0,0,1-6.33-1.25c-2.09-.36-4.12-.84-6.14-1.28-1-.18-2-.37-3-.61-.5-.11-1-.25-1.5-.37l-1.51-.29-3-.63L196,57.58a42,42,0,0,0-12.32.84,28.66,28.66,0,0,0-11.33,5.13h0a.2.2,0,0,1-.27-.29Z"/><path class="cls-11" d="M242.41,118.55a115.92,115.92,0,0,0-12.61-9.13,111.09,111.09,0,0,0-13.73-6.73,37.67,37.67,0,0,0-15.17-3,42.7,42.7,0,0,0-7.73.88,52.11,52.11,0,0,0-7.33,2.07,1.6,1.6,0,0,1-2-.83l0-.09a4.88,4.88,0,0,1-.35-2.63A8.69,8.69,0,0,1,184,97a19.11,19.11,0,0,1,1.84-3.4,33.73,33.73,0,0,1,2.2-2.95c.78-.94,1.56-1.82,2.45-2.73l1.46,3.65a19,19,0,0,0-4.54.69,17.53,17.53,0,0,0-2.16.75,20.19,20.19,0,0,0-2,1.08,18.78,18.78,0,0,0-3.7,2.91,20.56,20.56,0,0,0-2.94,3.71l-.16.26a1.18,1.18,0,0,1-.8.56,18.2,18.2,0,0,1-3.42.36,16.23,16.23,0,0,1-3.36-.32,16.57,16.57,0,0,1-6.09-2.43.2.2,0,0,1,.17-.36h0a21.42,21.42,0,0,0,6.09.86,16.93,16.93,0,0,0,3-.26,15.84,15.84,0,0,0,2.81-.74l-1,.82a19.4,19.4,0,0,1,1.34-2.56,21.19,21.19,0,0,1,1.63-2.31,20.5,20.5,0,0,1,6.67-5.39,19.88,19.88,0,0,1,2.73-1,19.56,19.56,0,0,1,5.75-.81,2.1,2.1,0,0,1,1.46,3.65c-.77.71-1.58,1.53-2.32,2.33s-1.47,1.65-2.12,2.5a15.65,15.65,0,0,0-1.65,2.6,3.46,3.46,0,0,0-.48,2l-2.05-.92a42.26,42.26,0,0,1,8.12-1.08q4-.16,8,0a109.22,109.22,0,0,1,15.95,1.66,37.41,37.41,0,0,1,7.73,2.51,44.64,44.64,0,0,1,7,4.12,43.26,43.26,0,0,1,11.1,11.59.2.2,0,0,1-.3.27Z"/><path class="cls-13" d="M138.47,93.36a7.12,7.12,0,0,0,6.09,2.16,17.69,17.69,0,0,0,6.33-2A88.19,88.19,0,0,0,162,86.48a58.92,58.92,0,0,0,5.21-4.25A23.12,23.12,0,0,0,171.49,77a15.29,15.29,0,0,0,2.07-6.32,6.82,6.82,0,0,0-1.8-5.61,7.22,7.22,0,0,0-5.3-1.52,20.12,20.12,0,0,0-6,1.35,32.64,32.64,0,0,0-5.74,2.92,63.46,63.46,0,0,0-5.27,3.85,58.36,58.36,0,0,0-9.06,9.47,17.31,17.31,0,0,0-3,5.9A7.17,7.17,0,0,0,138.47,93.36Zm-.38.32A10.19,10.19,0,0,1,136,86.85a22.89,22.89,0,0,1,1.39-7.28A25.54,25.54,0,0,1,140.91,73a38.47,38.47,0,0,1,5-5.44,34.88,34.88,0,0,1,13-7.19,20.4,20.4,0,0,1,7.68-.88,10.05,10.05,0,0,1,7.21,3.75A9,9,0,0,1,175.32,67a12.64,12.64,0,0,1-.08,3.8,26.62,26.62,0,0,1-2.32,6.86,42.5,42.5,0,0,1-8.17,12,29.21,29.21,0,0,1-5.9,4.38,23.82,23.82,0,0,1-7,2.52,22.36,22.36,0,0,1-7.38.24A10.29,10.29,0,0,1,138.09,93.69Z"/><path class="cls-13" d="M139.36,94.24a33.15,33.15,0,0,1,3.28,2c1,.7,2,1.44,3,2.21l.1.1a7,7,0,0,0,2.7,1.27,13.34,13.34,0,0,0,3.29.27,40.7,40.7,0,0,0,7.49-.82,17,17,0,0,0,7.05-3.6,31.2,31.2,0,0,0,5.24-6,46.3,46.3,0,0,0,4.08-6.46,27.38,27.38,0,0,0,2.34-6.67,8.77,8.77,0,0,0,.09-3.07,2.56,2.56,0,0,0-.16-.69,2.3,2.3,0,0,0-.22-.66l-.14-.31a1.26,1.26,0,0,0-.19-.36l-.59-.83a61.09,61.09,0,0,1-4.29-7.09.26.26,0,0,1,.37-.34,61.06,61.06,0,0,1,6.7,5l.78.67a10.31,10.31,0,0,1,.87,1,5.67,5.67,0,0,1,.75,1.12,6.24,6.24,0,0,1,.56,1.21,11.46,11.46,0,0,1,.65,5A18.63,18.63,0,0,1,180,85.71a29.73,29.73,0,0,1-5.69,6.56,63.43,63.43,0,0,1-7,4.74c-2.37,1.46-4.68,2.92-7.1,4.45a17.7,17.7,0,0,1-8.25,3.08,13.21,13.21,0,0,1-2.37-.12c-.4-.07-.8-.12-1.2-.21l-1.2-.38a8.86,8.86,0,0,1-4.09-3l.09.1c-.76-1-1.5-2-2.2-3a33.23,33.23,0,0,1-2-3.28.26.26,0,0,1,.35-.35Z"/><path class="cls-13" d="M254,93.69a9.32,9.32,0,0,1-6.4,2.86,23,23,0,0,1-7.24-.56,27.15,27.15,0,0,1-12.52-6.92,45.43,45.43,0,0,1-8.39-11.49,25.34,25.34,0,0,1-2.56-6.67,12.27,12.27,0,0,1-.16-3.75,8.58,8.58,0,0,1,1.41-3.73,8.37,8.37,0,0,1,3.15-2.72,11.12,11.12,0,0,1,3.9-1.12,18.69,18.69,0,0,1,7.61.94,29,29,0,0,1,6.76,3.17,30.08,30.08,0,0,1,5.75,4.66,42.9,42.9,0,0,1,8.27,11.56,24.85,24.85,0,0,1,2.12,7,10.7,10.7,0,0,1-.09,3.63A7.21,7.21,0,0,1,254,93.69Zm-.38-.32a5.4,5.4,0,0,0,1.24-3,7.16,7.16,0,0,0-.51-3.19,19.26,19.26,0,0,0-3.65-5.45c-1.48-1.65-3-3.23-4.55-4.85s-3.1-3.25-4.65-4.78a32.83,32.83,0,0,0-10.28-7.18,18.13,18.13,0,0,0-5.85-1.39,6.7,6.7,0,0,0-5.13,1.58,6.49,6.49,0,0,0-1.69,5.53,14.65,14.65,0,0,0,2.3,6.11c2.41,3.79,6.11,6.53,9.66,9.08q2.68,1.93,5.4,3.72c1.82,1.19,3.64,2.4,5.56,3.44a18,18,0,0,0,6.15,2.27A6.52,6.52,0,0,0,253.61,93.36Z"/><path class="cls-13" d="M254,93.65a44.23,44.23,0,0,1-2.48,4c-.44.64-.89,1.27-1.34,1.89l-.69.92-.35.46-.39.54a9.29,9.29,0,0,1-4.76,3.07,10.32,10.32,0,0,1-5.37.09,18.83,18.83,0,0,1-4.63-2c-1.42-.82-2.78-1.6-4.16-2.36-2.73-1.53-5.68-2.78-8.33-4.69a26.42,26.42,0,0,1-3.74-3.13,38.44,38.44,0,0,1-3.19-3.72,25.48,25.48,0,0,1-4.53-8.92,16.3,16.3,0,0,1-.48-2.6,13.37,13.37,0,0,1,0-2.76,9.92,9.92,0,0,1,.67-2.88A7.76,7.76,0,0,1,212,68.93a63.67,63.67,0,0,1,7.53-5.68.26.26,0,0,1,.37.34,63.59,63.59,0,0,1-4.92,8c-1,1.6-.63,4.24.21,6.78a40.24,40.24,0,0,0,3.5,7.63,38.38,38.38,0,0,0,2.43,3.6c.87,1.17,1.78,2.32,2.72,3.47a24.36,24.36,0,0,0,6.76,5.9,13.18,13.18,0,0,0,4.26,1.42,23,23,0,0,0,4.32.2c2.73-.08,5.08-.24,7-1.69l.39-.31.44-.38.91-.74c.61-.49,1.23-1,1.85-1.45a43.94,43.94,0,0,1,3.92-2.67.26.26,0,0,1,.36.09A.26.26,0,0,1,254,93.65Z"/></g><g id="book_color" data-name="book color"><path class="cls-15" d="M323.64,251.2l-.49,48.26s-45.21,2.2-115,9.21c0,0-10.79,3.71-21.45.79,0,0-58.53-10.55-113.27-11.87l-.15-46.42L79,200.36l2.66-56.68s55.14,6.43,60.61,6.32,41.37,1.83,43.07,8c0,0,13.57-1.81,18,.88,0,0,4.67-5.28,23.92-5.64s89.65-4.09,93-6.4l.92,49.86Z"/><path class="cls-15" d="M288.88,202.41l-1.22,5-4.11,4.2-5.81-3.27-1.25-2.21-.19-3.29-11.7-6.12-11.71,6.63-.16,4.88L240,206.6l-.1-10L254.17,188h0c2.83.82,2.68,6.14,2.68,6.14h0c2.15-.94,4,1.24,4,1.24h0a9,9,0,0,1,5.28-4.31c5.49-.6,6.61,5,6.61,5h0a6.6,6.6,0,0,1,6,2h0a3,3,0,0,1,3.55-.75h0c-.45-2,1.92-4.29,1.92-4.29l4.68,2.91v6.54"/><path class="cls-1" d="M288.93,220.95V201.32l-1-.15s-1,.19-1.12.19a13.22,13.22,0,0,0-1.32.69l-1.18,1.52-.44,1.13-.55,1.64-.23,1.09-1.28.44-.61.55-.4.88-.7-1.7-1-1-1.22-.69-1.09-.23-.46,0,.52,12.45-6.77,3.71-.44,1.22,4.59,7.08s4.38-1.83,4.59-1.88,9.24-5.09,9.32-5.22S288.93,220.95,288.93,220.95Z"/><path class="cls-1" d="M252.87,218.69V206.34l-.42-.74-1.15-1.48L250.1,203l-1.71-1.25-1.17-.51-1.38-.44-1.28,0-1.37.31-1.24.59-1,.74-1,1,.38,20.53s7,3.81,7.07,3.81,7.8-1,7.8-1-.76-5.86-.8-6S252.87,218.69,252.87,218.69Z"/><polyline class="cls-6" points="288.93 225.12 288.92 219.95 287.33 219.81 285.71 220.34 284.48 221.32 283.51 222.72 282.9 223.81 282.79 224.35 281.87 224.08 280.03 223.95 278.11 223.98 276.16 224.44 274.63 225.05 274.1 225.43 273.5 224.49 272.22 223.26 271.21 222.4 270.16 221.84 268.94 221.61 267.99 221.67 267.74 221.76 267.1 220.81 265.99 219.58 265.01 218.72 263.33 217.88 262.25 217.69 262.11 217.15 261.18 216.25 260.46 215.68 259.53 215.16 257.9 215.06 256.28 215.26 255 215.83 254.06 216.55 253.24 217.61 252.68 218.62 252 220.26 251.57 221.81 251.54 222.43 250.91 222.44 249.72 223.26 248.99 224.19 248.3 225.37 248.23 225.83 247.69 224.13 246.96 222.73 245.73 221.71 244.43 220.98 242.8 220.76 241.84 220.7 240.76 220.76 240.3 220.77 240.43 225.39 265.2 240.06 288.93 225.12"/><path class="cls-13" d="M239.89,196.64l.74,14.49.36,7.15.31,7.09-.43-.73q6.28,3.52,12.52,7.1c4.17,2.38,8.34,4.76,12.48,7.17l-1.38,0,11.8-7.57,11.84-7.51-.69,1.26c0-4.88,0-9.75,0-14.63s0-9.75,0-14.63l.66,1.19-4.65-3,1.63-.15a6.3,6.3,0,0,0-.64.72,6.12,6.12,0,0,0-.53.83,2.89,2.89,0,0,0-.37,1.58v0a1.3,1.3,0,0,1-1.83,1.31,3.06,3.06,0,0,0-.62-.18,2.22,2.22,0,0,0-.6,0,1.06,1.06,0,0,0-.41.14,1.09,1.09,0,0,0-.31.31l-.13.15a1.25,1.25,0,0,1-1.77.14l-.07-.07a7.63,7.63,0,0,0-1.08-.87,7.18,7.18,0,0,0-1.23-.66,4.82,4.82,0,0,0-1.26-.31,3.62,3.62,0,0,0-1.21.11l-.07,0a1.18,1.18,0,0,1-1.42-.87h0a6.63,6.63,0,0,0-1.53-3,3.88,3.88,0,0,0-1.28-.89,3.48,3.48,0,0,0-.75-.22,7.24,7.24,0,0,0-.89-.11,3.9,3.9,0,0,0-3,1,17.7,17.7,0,0,0-2.56,2.83l0,0a.86.86,0,0,1-1.2.15l-.12-.11a5.58,5.58,0,0,0-.7-.65,3.89,3.89,0,0,0-.79-.49,1.46,1.46,0,0,0-1.41,0l0,0a.77.77,0,0,1-1.14-.73,10.77,10.77,0,0,0,0-1.64,7.47,7.47,0,0,0-.29-1.61,4.45,4.45,0,0,0-.67-1.4,3,3,0,0,0-1.15-.9l.48,0-7.21,4.06Zm0,0,6.92-4.54,7.07-4.58a.52.52,0,0,1,.46-.05h0a4.18,4.18,0,0,1,1.71,1.18,5.7,5.7,0,0,1,1,1.75,8.83,8.83,0,0,1,.45,1.88,10.46,10.46,0,0,1,.1,1.93l-1.18-.71a2.9,2.9,0,0,1,1.48-.46,3.61,3.61,0,0,1,1.41.29,5.49,5.49,0,0,1,1.15.64,7.15,7.15,0,0,1,1,.84l-1.34.07a19.26,19.26,0,0,1,2.72-3.26,6.41,6.41,0,0,1,2-1.26,6,6,0,0,1,2.37-.35,9.16,9.16,0,0,1,1.12.1,5.59,5.59,0,0,1,1.2.31,6.05,6.05,0,0,1,2.06,1.32,7.83,7.83,0,0,1,1.4,1.89,9.31,9.31,0,0,1,.85,2.17l-1.49-.87a6,6,0,0,1,2.07-.27,7.21,7.21,0,0,1,2,.41,9.57,9.57,0,0,1,1.72.85,9.83,9.83,0,0,1,1.53,1.17l-2,.22a3.5,3.5,0,0,1,2.5-1.64,4.75,4.75,0,0,1,1.37,0,5.39,5.39,0,0,1,1.28.36L281,197.4a5.47,5.47,0,0,1,.59-3.11,9,9,0,0,1,1.71-2.34,1.3,1.3,0,0,1,1.58-.18l0,0,4.71,2.87a1.38,1.38,0,0,1,.66,1.15v0c.07,4.88.06,9.75.09,14.63s.06,9.75,0,14.63h0a1.49,1.49,0,0,1-.69,1.25l-11.89,7.43-11.93,7.37h0a1.31,1.31,0,0,1-1.36,0q-6.17-3.71-12.29-7.49T240,226.14l0,0a.83.83,0,0,1-.39-.71l0-7.28.09-7.23C239.74,206.1,239.8,201.34,239.89,196.64Z"/><path class="cls-13" d="M252.73,218.12l-.52-14.71a.64.64,0,0,1,.31-.57l0,0,11.52-7a1,1,0,0,1,1,0l.06,0L271,198.7l6,2.85a1.42,1.42,0,0,1,.8,1.18v.1c.18,2.54.27,5.08.28,7.62s0,5.09-.13,7.64v.17a.91.91,0,0,1-.54.79c-2.41,1.05-4.84,2.06-7.35,2.92a.15.15,0,0,1-.14-.26c2.11-1.61,4.3-3.08,6.51-4.5l-.55,1c-.31-2.53-.54-5.07-.74-7.6s-.31-5.08-.34-7.62l.81,1.28L269.87,201l-5.76-3.23,1,0L253.23,204l.35-.59L253,218.12a.15.15,0,0,1-.3,0Z"/><path class="cls-13" d="M288.67,201.34a3.42,3.42,0,0,0-2.11.47,4,4,0,0,0-1.44,1.56,8.15,8.15,0,0,0-.48,1c-.11.35-.24.69-.33,1a17.47,17.47,0,0,0-.39,2.19.73.73,0,0,1-.55.62l-.12,0a3.36,3.36,0,0,0-.58.22,2.07,2.07,0,0,0-.49.31.81.81,0,0,0-.31.65,1,1,0,0,1-2,.23l-.05-.22c0-.08-.09-.33-.15-.51a5.52,5.52,0,0,0-.25-.56,4.47,4.47,0,0,0-.75-1,6.71,6.71,0,0,0-1.13-.87c-.21-.14-.45-.24-.68-.39s-.49-.23-.75-.37h0a.11.11,0,0,1,0-.2,4.93,4.93,0,0,1,1.76-.1,4.87,4.87,0,0,1,1.78.57,4.68,4.68,0,0,1,1.47,1.33,4,4,0,0,1,.75,2h-2a2.65,2.65,0,0,1,.46-1.19,3,3,0,0,1,.87-.78,4.14,4.14,0,0,1,.93-.41,5.22,5.22,0,0,1,1-.2l-.67.65a18.8,18.8,0,0,1,.73-2.33c.15-.38.35-.75.52-1.12a8.32,8.32,0,0,1,.7-1,4.83,4.83,0,0,1,2-1.54,3.59,3.59,0,0,1,2.43-.11.1.1,0,0,1,0,.19Z"/><path class="cls-13" d="M252.78,206.21a16.59,16.59,0,0,0-2.77-2.67,9,9,0,0,0-3.21-1.68,6.62,6.62,0,0,0-3.22.25,10,10,0,0,0-1.64.56c-.57.23-1.11.57-1.8.8h0a.11.11,0,0,1-.13-.14,5.72,5.72,0,0,1,2.9-3.1l.52-.23a4.84,4.84,0,0,1,.57-.12,3.8,3.8,0,0,1,1.15-.07,10.29,10.29,0,0,1,1.13.19l1.06.35a10.27,10.27,0,0,1,3.37,2.46,14.81,14.81,0,0,1,2.26,3.3.1.1,0,0,1-.17.11Z"/><path class="cls-13" d="M251.44,222.21a13.16,13.16,0,0,1,.88-3.92A6.6,6.6,0,0,1,255,215a9,9,0,0,1,2-.84,4.39,4.39,0,0,1,2.32,0,4.06,4.06,0,0,1,2.93,3.19.11.11,0,0,1-.17.1,6.32,6.32,0,0,0-3.18-1.34,7.61,7.61,0,0,0-3.25.32,5.29,5.29,0,0,0-2.51,2.32,14.53,14.53,0,0,0-1.58,3.49h0a.1.1,0,0,1-.2,0Z"/><path class="cls-13" d="M288.51,220a3.8,3.8,0,0,0-1.79.48,4.48,4.48,0,0,0-1.32,1.11c-.38.44-.48,1.06-.92,1.46a4.8,4.8,0,0,1-.68.67,4,4,0,0,1-.92.66h0a.13.13,0,0,1-.17-.05v0a3.33,3.33,0,0,1,.07-2.28,3.87,3.87,0,0,1,1.57-1.63,4.76,4.76,0,0,1,2.1-.87,3.86,3.86,0,0,1,2.14.29.1.1,0,0,1,0,.19Z"/><path class="cls-13" d="M284.25,224.81a12.74,12.74,0,0,0-6.75.12,23.29,23.29,0,0,0-2.92,1.4c-.5.21-1,.48-1.5.72a14.23,14.23,0,0,1-1.66.76h0a.11.11,0,0,1-.14-.14,6.3,6.3,0,0,1,2.27-3,5.48,5.48,0,0,1,1.73-.87,15.18,15.18,0,0,1,1.89-.38,11.13,11.13,0,0,1,3.74.05,11.78,11.78,0,0,1,3.44,1.21.1.1,0,0,1-.07.18Z"/><path class="cls-13" d="M274.22,225.65A8.06,8.06,0,0,1,272,225a7.92,7.92,0,0,1-1.47-.85,7.61,7.61,0,0,1-1.07-1,7,7,0,0,0-1.57-1.24l-.08,0a.08.08,0,0,1,0-.11l0,0a3.42,3.42,0,0,1,2-.1,5.43,5.43,0,0,1,1.84.9,10.36,10.36,0,0,1,2.64,3,.08.08,0,0,1,0,.11h-.05Z"/><path class="cls-13" d="M268.27,222.7a9.54,9.54,0,0,0-3.72-3.72,5.53,5.53,0,0,0-4.79-.16,12.06,12.06,0,0,0-4,2.88,10.88,10.88,0,0,0-2.5,4.44h0a.1.1,0,0,1-.2,0,6.68,6.68,0,0,1,1.15-5.72,7.27,7.27,0,0,1,2.28-2,13.29,13.29,0,0,1,2.76-1.12,7.5,7.5,0,0,1,3-.24,6.65,6.65,0,0,1,2.8,1.07,9.67,9.67,0,0,1,3.39,4.5.1.1,0,0,1-.18.09Z"/><path class="cls-13" d="M254,222.56a3.94,3.94,0,0,0-3.38.57,4.46,4.46,0,0,0-1.07,1.29c-.14.25-.24.53-.36.78l-.26.84a.7.7,0,0,1-1.35-.08l0-.1a5.06,5.06,0,0,0-.87-2.06,6.06,6.06,0,0,0-1.59-1.4,8.92,8.92,0,0,0-2.06-.9c-.39-.12-.8-.19-1.21-.32a11.28,11.28,0,0,1-1.31-.29h0a.11.11,0,0,1-.07-.13.11.11,0,0,1,.05-.06,9.4,9.4,0,0,1,1.31-.52,9.81,9.81,0,0,1,1.41-.21,6,6,0,0,1,2.93.63,5.17,5.17,0,0,1,2.08,2.29,7,7,0,0,1,.74,2.9l-1.37-.18.43-.93c.19-.3.34-.6.56-.88a4.87,4.87,0,0,1,1.57-1.41,4.34,4.34,0,0,1,3.93,0,.1.1,0,0,1-.07.19Z"/></g><g id="hand_color"><path class="cls-4" d="M320.83,249.5s.35,1,2.81,1.38l0,13s3.1-1.14,3.3-1.15,6.09-3.55,7.94-15c0,0,1.14-1.8,2-8.35a35.13,35.13,0,0,0,1.15-9.46s3-5.55-.86-8.25c0,0,.42-5.81-1.79-8.28l-1.74-3.17-7.11-9.78-2.35-2.9-8.6-1.79-7.17-1.12-7,1.43s-4.12,1.51-4.12,1.85-1.33,4.61,1,5,12.8-.58,12.8-.58l2.39.48,3.35,1.93,1.44,1.53,1.44,3.87,1.09,4a4.56,4.56,0,0,1,0,2.08l-7.7-.94-9-.14-7.5.27-3,.14-11,2.24-1.4.89s.14,5,2,5.2l1.81.23a32.6,32.6,0,0,1,3.36,0c.66.12,11.65-.3,11.65-.3l11.54.74s7.4,1,8.18,1.53a21.46,21.46,0,0,1,2.26,2l-3.51-.06-16.61.6-9,.46-10.39.45s-.28,6.34,1.65,6.59,7.07.81,7.07.81l.2,1.59s1.85,3.57,3.08,3.74l5.58.77,5.94.7,7.68,1.71,4.38.57Z"/><path class="cls-4" d="M79,211.64l0-1.36,1,.31,1.58-.42s5.28,2.63,6.94,2.92a22.72,22.72,0,0,0,4,.18l2.78-.25s2.58-.11,1.08-6L93,206.38l-2.8-.77s-3.25-1.37-3.38-1.45-2.69-1.94-2.69-1.94l-3.38-1.5-7.52-.86-1.89.29a29.65,29.65,0,0,0-2.17,4.59c-.2,1.09-1.63,7.52-1.63,7.52l-1.56,4-2.63,3.38s-3.12,1.05-3.63,1.63a5,5,0,0,0-.76,2s-.86,1.36-.94,1.62-.09,2.51-.08,2.73.61,1.85.61,1.85-.65,7.68-.22,9.36,1.11,5,1.92,5.81A12.21,12.21,0,0,0,61.91,246l1.3,3.4,1.4,1.53s2.25,6.8,5,8.39,2.38,1.95,2.38,1.95l1.3.5V251.17l1-.54s2.73-3,2.78-4.94l5.27-1.53s9.47,3.46,9.65,3.41,5.41,1,5.41,1,2.47-.26,2.63-1.3a16.47,16.47,0,0,0-.51-3.84l2.13.78s3.28.76,5,0,2.79-2,2.64-3a12.55,12.55,0,0,0-.38-1.68l-2.12-.22L99.92,236l-.74-2.06,2.13.83s3.25,1.54,4.44,1.22,2.29-.3,2.5-.87,1.72-2.41,1.08-3.79-.2-1-.2-1l-1.83-.92-4.77-2.38-13.35-7.85-5.51-1.89H77.14l.86-1.49A11.2,11.2,0,0,0,79,211.64Z"/></g><g id="hand_shadow"><path class="cls-8" d="M282.4,222.23s16.52-1.41,20.77-.85,18.62,2.69,20.69,3.69a7.4,7.4,0,0,1,3.06,3l-4.87.09-2.19-1.91-5-1.12-3.47-.41-2.72-.26-4.84-.33-3.94-.19-5.66,0-7,.21S283.46,224.54,282.4,222.23Z"/><path class="cls-8" d="M318.39,245.69s12.84,6.36,17.52-1.21l-.65,2.27-.43,1-1.35,5.65-1.58,3.53-2.59,3.78-2.23,1.89-3.6,1.31.1-13-2.24-.76-2.49-3Z"/><path class="cls-8" d="M319.95,210.73s9.7,9.08,16,5.21l.55.06.67,2.66.05,2.83-5.4-1.9-9.7-2.85-1.14-.26a6.86,6.86,0,0,0,.09-.83c0-.28-.09-1.13-.09-1.13Z"/><path class="cls-8" d="M78.9,212.7a9.46,9.46,0,0,1-11-.33l-1.34,2.51L64.61,218l-1.25,1.6,2.63-.67s6.55-1.47,6.65-1.47,4.75-.71,4.75-.71l.72-1,.47-1.1Z"/><path class="cls-8" d="M109.2,232.68s-8.18.89-23-4.68l1.69,1,3.5,1.49,3.12,2.05L99.62,234l3.41,1.41,2.71.5a18.9,18.9,0,0,0,2.46-.63,4.64,4.64,0,0,0,.73-1Z"/><path class="cls-8" d="M85.21,235.12s16.26,8,23,7.36l-.56,1.15-1.94.65-5.08-.47-1.12-.23-.17-.17-.91-.24L97,242.62l-2-.84-1.67-1.09-8-5Z"/><path class="cls-8" d="M60.05,243.69s5.71,4.82,10.76,1.51l5.55.19.63-.09-.16,1.26-1.36,3.17-2.21,1.34-.14,10.36-1.59-.19-2.86-2.9-1.55-1.77-1.64-3.14-.9-2.36-.08-.31-1-1.1-1.12-1.73-.74-2.25"/><path class="cls-8" d="M80,242.94s18.22,4.18,19.85,2.44l.23.81-.11,1.06-.7.81-.93.3-1,.19-3.86-.74-6.82-2.07-5.18-2L79.6,243Z"/><polygon class="cls-9" points="284.19 224.01 290.49 229.11 297.13 228.86 304.81 228.69 321.86 228.28 321.52 227.56 319.87 226.2 316.67 225.41 304.81 224.01 292.48 223.93 284.19 224.01"/><path class="cls-9" d="M285.29,237.12s8.42,10.12,11.84,10.12,18.91,14.81,26.22,10.5l.13-.73.14-6.23-.71-.1s-2.12-1.19-2.14-1.23-3-3.46-3-3.46l-7.92-1.4-3.27-.5-3-.65-4.35-.44-3.85-.44-1.85-1-2.12-3.13-.31-1.66Z"/><path class="cls-9" d="M298.63,203a5.58,5.58,0,0,0,5.33,3.57c4.29.17,13.45-.55,15.16,1.83l-.45-1.4-1.12-1.89L314.09,203s-4.33-1-4.58-1S298.63,203,298.63,203Z"/><path class="cls-9" d="M80.23,210.52l.71-.22.4-.34,3.41,1.73,3.11,1.12,5.75.44,3.09-.87L97,210.3l-.33-2c3.84,3.75,3.6,6.75,3,7.74s-2.34,2.16-8.67,1.24A23.36,23.36,0,0,1,81,213s-1,3.81-3.09,3.73l.91-2.36s.26-1.72.25-2.22,0-1.52,0-1.52Z"/><path class="cls-9" d="M109.47,232.19s4.07,5,3.53,7.52.62,10.81-6.92,12.85c-8.38,2.26-19.31,1.18-26.69-2.36,0,0-2.6.87-3.26,4.58s1.56,8-2.76,7.12l-.2-.91.1-9.63,1.24-1a14.84,14.84,0,0,0,1.57-1.76c0-.17.93-3.27.93-3.27l3.71-.6,1.21-.72,2.4.9s6.85,2.11,7,2.11,4.58,1.33,4.58,1.33l1.83.19s1.69-.29,2-.77a11.1,11.1,0,0,0,0-4.11c-.23-.27.77.11.77.11l2.67.48h2.46l2.61-.87,1-1.25v-2.52l-2.77-.44s-4.34-2.05-4.43-2.12-2.92-2-2.92-2l-.67-.8,1-.15,2.31.94,3.84.91,2.62-.48,1.31-2.29Z"/></g><g id="book"><path class="cls-13" d="M78.84,200.35c0-4.73.13-9.46.21-14.19s.22-9.46.33-14.19l.45-14.18.53-14.18.05-1.37,1.38.15c8.75,1,17.5,1.9,26.23,3s17.46,2.23,26.2,3.22c2.18.25,4.37.48,6.54.67l1.6.08c.57,0,1.12,0,1.67,0l3.31.17q6.61.41,13.19,1.1c4.38.48,8.77,1,13.11,1.83a57.46,57.46,0,0,1,6.48,1.54,21.58,21.58,0,0,1,3.15,1.26,7.73,7.73,0,0,1,1.49,1,3.6,3.6,0,0,1,1.16,1.61l-.69-.46a77.3,77.3,0,0,1,9.19-.75,40,40,0,0,1,4.66.17,12.46,12.46,0,0,1,4.75,1.27l-1.19.18a6.39,6.39,0,0,1,.84-.74c.27-.21.55-.4.82-.57a17,17,0,0,1,1.71-1,27,27,0,0,1,3.56-1.44,44.47,44.47,0,0,1,7.37-1.71,120.31,120.31,0,0,1,14.87-1.08c9.83-.38,19.66-.93,29.49-1.51l29.48-1.77,14.72-1c2.45-.19,4.9-.39,7.33-.64,1.22-.12,2.43-.26,3.62-.42.6-.08,1.19-.17,1.76-.28A8.3,8.3,0,0,0,319,146a2.77,2.77,0,0,0,.34-.09.33.33,0,0,1,.15,0l2-.06v1.06l.06,12.47,0,12.47c0,4.16,0,8.31-.06,12.47l-.15,12.47H321l-.61-12.46c-.2-4.15-.37-8.31-.53-12.46l-.49-12.46L319,146.9l2,1a7.7,7.7,0,0,1-.7.34,4.2,4.2,0,0,1-.54.17c-.34.1-.68.19-1,.24-.64.14-1.26.25-1.88.35-1.24.2-2.47.37-3.71.53-2.46.31-4.92.58-7.38.83-4.92.51-9.84.9-14.76,1.27-9.84.76-19.68,1.32-29.53,1.79s-19.7.85-29.57,1.1a121.2,121.2,0,0,0-14.62.71,47.07,47.07,0,0,0-7.06,1.42,25,25,0,0,0-3.34,1.2,15.18,15.18,0,0,0-1.55.79c-.25.15-.49.29-.71.45a5.83,5.83,0,0,0-.57.45l-.6.53-.58-.35a10.91,10.91,0,0,0-4-1.18,36.15,36.15,0,0,0-4.45-.32,76,76,0,0,0-9,.44l-.53.06-.16-.51a4.08,4.08,0,0,0-2-1.89,18.53,18.53,0,0,0-2.94-1.25,55.69,55.69,0,0,0-6.33-1.63c-4.3-.84-8.65-1.44-13-1.85s-8.76-.73-13.14-.87c-1.1,0-2.19-.07-3.29-.07-.55,0-1.09,0-1.63,0l-1.7,0c-2.22-.1-4.42-.25-6.62-.41-8.79-.68-17.57-1.4-26.33-2.29-4.38-.42-8.75-.94-13.13-1.41L81.5,145l1.43-1.22-.8,14.16-.88,14.16c-.33,4.72-.62,9.44-1,14.15s-.7,9.44-1.12,14.15Z"/><path class="cls-13" d="M323.79,251.2c.13,4,.2,8,.28,12.07s.15,8,.19,12.07l.09,12.07,0,12.07v1.13l-1.16.08-28.76,1.91-28.79,1.72c-9.6.59-19.2,1.19-28.77,2.08s-19.15,1.82-28.69,3l.15,0a41,41,0,0,1-5.37,1.38,46.61,46.61,0,0,1-5.49.69,37.57,37.57,0,0,1-5.56,0,33.89,33.89,0,0,1-5.53-.88l.09,0c-9.35-1.48-18.76-2.77-28.16-4s-18.83-2.33-28.26-3.29c-4.71-.52-9.43-1-14.15-1.41s-9.44-.87-14.16-1.23c-9.45-.75-18.91-1.35-28.38-1.75l-1.19,0v-1.16c0-7.74.22-15.48.35-23.21q.08-5.8.25-11.61l.32-11.61h.3l.39,11.6q.19,5.8.32,11.6c.17,7.74.4,15.47.5,23.21l-1.18-1.21c4.76.13,9.52.15,14.28.38l7.13.3,7.13.44c2.38.13,4.75.34,7.12.51s4.75.33,7.11.58c4.74.44,9.47.91,14.2,1.44q14.18,1.64,28.3,3.7l7.05,1.06,7,1.15c4.69.79,9.38,1.58,14.06,2.5H187a31.85,31.85,0,0,0,5.15,1,35.71,35.71,0,0,0,5.29.21,42.54,42.54,0,0,0,5.31-.49,39.63,39.63,0,0,0,5.19-1.15l.1,0h.06c9.59-.76,19.17-1.65,28.75-2.53s19.14-1.9,28.72-2.89,19.15-1.93,28.75-2.64c4.8-.35,9.6-.69,14.4-.95s9.61-.56,14.42-.74l-1.16,1.2.27-12.06.34-12.06q.18-6,.43-12.06c.16-4,.31-8,.52-12.06Z"/><path class="cls-13" d="M185.25,159.86c.7,6.13,1.07,12.27,1.39,18.42s.51,12.29.46,18.44-.43,12.31-.39,18.45.3,12.29.71,18.43.76,12.28,1,18.43.46,12.29.56,18.43c.11,12.29,0,24.59-.7,36.9H188c-1.21-12.27-1.81-24.56-2.2-36.85-.15-6.15-.19-12.29-.19-18.44s.05-12.3.22-18.45.19-12.3,0-18.44-.82-12.28-1.14-18.42-.33-12.29-.29-18.44.19-12.3.64-18.46Z"/><path class="cls-13" d="M203.82,161.09c.54,5.95.88,11.93,1.12,17.9s.38,11.94.27,17.92-.54,12-.56,17.93.19,11.95.55,17.92.66,11.94.81,17.91.36,11.94.4,17.92c0,11.95-.19,23.9-1,35.86h-.3c-1.12-11.94-1.62-23.88-1.9-35.82-.1-6-.09-11.95,0-17.92s.16-12,.38-17.93.29-12,.12-17.93-.71-11.94-1-17.91-.21-11.95-.1-17.92.3-11.95.91-17.94Z"/></g><g id="hand_line"><path class="cls-12" d="M337.2,221.38a22,22,0,0,0-3.76-9.22c-.63-.92-1.29-1.84-2-2.75l-4.1-5.5c-1.33-1.87-2.61-3.78-3.88-5.71l.5.32a61.38,61.38,0,0,0-13.3-3,11.16,11.16,0,0,0-3.23,0,25.74,25.74,0,0,0-3.16,1c-2.1.81-4.21,1.66-6.29,2.51l.81-.85a8.1,8.1,0,0,0-.26,1.89c0,.58.17,1.12.26,1.09s0,0,.16,0l.42,0h.5c.7,0,1.44,0,2.18-.09l4.54-.25c1.54,0,3.07-.11,4.72,0l.63.06.7.11a5,5,0,0,1,.86.28l.57.29a23,23,0,0,1,2.07,1.25c.66.45,1.3.91,1.93,1.45a6.55,6.55,0,0,1,1,1l.18.28c0,.08.06.13.09.2s.08.23.11.33l.17.58c.43,1.5.78,3,1.09,4.52.14.76.27,1.53.37,2.3a6.14,6.14,0,0,1,0,2.41l-.28-.11a3.39,3.39,0,0,0-.2-1c-.11-.36-.22-.72-.35-1.07-.25-.71-.53-1.42-.82-2.12-.56-1.41-1.15-2.82-1.75-4.18l-.23-.49a1.84,1.84,0,0,0-.1-.2l0-.06a.07.07,0,0,0,0,0,8.16,8.16,0,0,0-.7-.51c-.58-.39-1.23-.75-1.87-1.1s-1.3-.69-1.94-1l-.47-.19c-.16-.05-.13,0-.24,0l-.43,0h-.51c-1.4,0-2.93.11-4.43.23s-3,.18-4.6.24c-.78,0-1.57,0-2.39,0l-.64,0-.72-.1a4.16,4.16,0,0,1-1-.33,3,3,0,0,1-.87-.67,3.46,3.46,0,0,1-.82-1.71,5.91,5.91,0,0,1-.09-1.5,10.68,10.68,0,0,1,.52-2.61l.21-.65.6-.2a62.13,62.13,0,0,1,6.69-1.88,28.43,28.43,0,0,1,3.5-.59,14.46,14.46,0,0,1,3.59.35l6.77,1.28c2.26.4,4.52.74,6.81,1.07l.23,0,.27.29c1.59,1.69,3.13,3.42,4.57,5.24s2.75,3.73,4,5.67q.94,1.47,1.82,3a20.71,20.71,0,0,1,1.45,3.32,15.58,15.58,0,0,1,.71,7.06Z"/><path class="cls-12" d="M332.15,219.88c-3.2-.66-6.36-1.34-9.51-1.93-1.58-.27-3.15-.58-4.73-.77s-3.13-.41-4.72-.49l-9.61-.61a69.13,69.13,0,0,0-9.7,0h.05c-2.26.49-4.52,1-6.77,1.55-1.13.27-2.25.56-3.41.8l-.44.09c-.12,0-.36.05-.38.09s-.13,0-.17.08-.08.06-.11.1a1.4,1.4,0,0,0-.2.9,4.11,4.11,0,0,0,.9,2.4,1.69,1.69,0,0,0,.75.54.37.37,0,0,1,.15,0,3,3,0,0,0,.35,0h.82c2.26,0,4.57-.13,6.87-.21,1.15-.06,2.3-.07,3.45-.11l1.73,0,.86,0h.5l.47,0c2.33.13,4.64.29,7,.55s4.63.56,6.93,1a28.71,28.71,0,0,1,6.82,1.95l.09,0,0,0q.93.92,1.83,1.88l-.19.23q-1.12-.69-2.2-1.43l.12.07a42.59,42.59,0,0,0-6.74-.74c-2.29-.11-4.58-.18-6.87-.25l-6.88-.16-3.37.08c-1.16,0-2.31.05-3.47,0-2.32,0-4.63,0-7-.14l-.91-.06a5,5,0,0,1-.51-.05c-.23,0-.47-.1-.7-.16a4.3,4.3,0,0,1-1.95-1.54,6.11,6.11,0,0,1-1.07-4.1,3.28,3.28,0,0,1,1.09-2.23,3.64,3.64,0,0,1,.61-.37,3.2,3.2,0,0,1,.66-.17,3,3,0,0,1,.48,0l.42,0c1.13-.09,2.28-.21,3.42-.36,2.29-.28,4.56-.69,6.82-1.14h.05c3.25-.25,6.48-.61,9.74-1a53,53,0,0,1,9.85-.25,46.41,46.41,0,0,1,9.74,1.93,51.1,51.1,0,0,1,9.12,3.68Z"/><path class="cls-12" d="M326.92,228.17a83.76,83.76,0,0,1-11,1.32,81.84,81.84,0,0,1-11,.06,68.86,68.86,0,0,0-11-.06c-3.67.26-7.32.91-11,1.2l1.23-1.08a11.89,11.89,0,0,0,.18,3.45,3.79,3.79,0,0,0,.53,1.31,1.28,1.28,0,0,0,.7.53c.07,0,.16,0,.24,0l.12,0h.22l1,0,1.94.06,3.91.15c2.62.13,5.22.23,7.88.48s5.28.52,7.89,1l0,.3c-2.65.41-5.27.66-7.88.86s-5.26.37-7.89.44c-1.32,0-2.64.05-4,0l-2-.08-1-.06-.27,0-.37-.06a5.18,5.18,0,0,1-.72-.17,4.41,4.41,0,0,1-2.29-1.9,6.46,6.46,0,0,1-.81-2.38,13.37,13.37,0,0,1,.11-4.4l.19-1.09h1c3.68,0,7.37.38,11.05.37a69,69,0,0,0,11-.89c1.83-.26,3.66-.46,5.5-.56s3.68,0,5.52,0a83.87,83.87,0,0,1,11.05.86Z"/><path class="cls-12" d="M291.24,236.78a8,8,0,0,0,3.5,3.95,12.64,12.64,0,0,0,2.37.78c.8.2,1.93.44,2.91.75a22.6,22.6,0,0,0,6.06.95c1,0,2.07,0,3.11.11a28.15,28.15,0,0,1,3.08.44l-.12,0c1,.11,2.09.22,3.13.39s2.06.4,3.08.66l.78.2.23.49a15.59,15.59,0,0,0,.86,1.49c.3.51.65,1,1,1.46a7.14,7.14,0,0,0,2.63,2.34l0,.3a4.11,4.11,0,0,1-2.11-.16,7.53,7.53,0,0,1-1.89-1,11.32,11.32,0,0,1-1.61-1.32,14.59,14.59,0,0,1-1.39-1.58l1,.69c-1-.11-2.09-.24-3.12-.44s-2.05-.46-3.07-.71l-.12,0c-.92-.31-1.89-.59-2.83-.94s-1.89-.74-2.85-1.07a13.3,13.3,0,0,0-6-.71,20,20,0,0,1-3.14.25,6.84,6.84,0,0,1-3.34-1.16,6.16,6.16,0,0,1-2.23-2.79,5.57,5.57,0,0,1-.24-3.33Z"/><path class="cls-12" d="M322.73,237.58a3.58,3.58,0,0,1,1.56-1.06,3.35,3.35,0,0,1,3,.43,3.19,3.19,0,0,1,.68.64,1.75,1.75,0,0,1,.42,1,6.25,6.25,0,0,0-.88.39,4.62,4.62,0,0,1-.72.26,3.47,3.47,0,0,1-1.38.09,3.63,3.63,0,0,1-1.35-.48A4.23,4.23,0,0,1,322.73,237.58Z"/><path class="cls-12" d="M335.07,247.73a28.25,28.25,0,0,1-.94,5.18,25.34,25.34,0,0,1-2,5,12.59,12.59,0,0,1-3.25,4.47,8.16,8.16,0,0,1-5.34,1.7l-.1-.28c1.3-1.39,2.37-2.46,3.42-3.64s2.24-2.19,3.23-3.52a32.55,32.55,0,0,0,2.6-4.26,35.78,35.78,0,0,0,2-4.69Z"/><path class="cls-12" d="M336.24,221.09a5.16,5.16,0,0,1,4,3.73,6.78,6.78,0,0,1,0,3,14.27,14.27,0,0,1-.42,1.41c-.19.44-.39.87-.59,1.3l.19-.81a24.84,24.84,0,0,1,.07,4.83,13.72,13.72,0,0,1-.43,2.5c0,.21-.14.44-.21.66s-.14.36-.22.55l-.4,1-.19.5-.09.28a3.2,3.2,0,0,1-.11.3l-.09.18a1.52,1.52,0,0,1-.23.28,1.49,1.49,0,0,1-.3.22l-.19.08-.07,0h0l.2-.09a1.17,1.17,0,0,0,.35-.32,1.35,1.35,0,0,0,.1-.15v0l0-.05,0-.1s0,0,0,0a1.88,1.88,0,0,0-.06.21l-.11.54c-.14.75-.3,1.53-.51,2.29a15.06,15.06,0,0,1-.76,2.28,4.43,4.43,0,0,1-1.42,2,5.6,5.6,0,0,0,.42-2.21c0-.75,0-1.5,0-2.26s0-1.51,0-2.29v-.61c0-.11,0-.21,0-.36a2.27,2.27,0,0,1,0-.27l.06-.17,0-.09,0,0a1.73,1.73,0,0,1,.11-.17,1.36,1.36,0,0,1,.37-.34l.21-.11h0l-.12.05a1.06,1.06,0,0,0-.24.18,1,1,0,0,0-.18.23l-.06.11c0,.1,0,.06,0,0l.05-.28.13-.6c.17-.76.47-1.63.58-2.16a17.66,17.66,0,0,0,.27-2c.11-1.42.13-2.94.12-4.38v-.48l.19-.33c.19-.33.39-.65.59-1s.33-.66.47-1a6.51,6.51,0,0,0,.46-2.06A5.44,5.44,0,0,0,336.24,221.09Z"/><path class="cls-12" d="M79.58,208.71c1.86.74,3.67,1.5,5.49,2.09a22.06,22.06,0,0,0,5.45,1.13,20.92,20.92,0,0,0,2.77,0,4.54,4.54,0,0,0,2-.33A2.18,2.18,0,0,0,96,209.9a8.44,8.44,0,0,0-.32-2.66l.58.43c-1.64-.34-3.18-.73-4.75-1.17a31,31,0,0,1-4.62-1.64,16.58,16.58,0,0,1-2.21-1.23,9.13,9.13,0,0,0-2-.91,23.33,23.33,0,0,0-4.39-.91,34.41,34.41,0,0,0-4.57-.23l-1.13,0c.28-.06,0,0-.09.16a5.54,5.54,0,0,0-1,1.43A21.44,21.44,0,0,0,70,207.28c-.45,1.46-.72,3-1.06,4.52l0,.11a15.18,15.18,0,0,1-1,2.42,16.58,16.58,0,0,1-1.3,2.19A13.13,13.13,0,0,1,65,218.47,10.45,10.45,0,0,1,63,220l-.19-.23a15.67,15.67,0,0,0,2.41-4,22.68,22.68,0,0,0,.77-2.17,19.76,19.76,0,0,0,.51-2.18l0,.11a37.69,37.69,0,0,1,.58-4.91,18.1,18.1,0,0,1,1.61-4.92,7.59,7.59,0,0,1,1.84-2.37,4,4,0,0,1,.79-.51,3.27,3.27,0,0,1,.53-.21l.19,0,.1,0,.22,0h.2c.43,0,.85,0,1.26,0a33.5,33.5,0,0,1,5,.62,17,17,0,0,1,4.79,1.7,11,11,0,0,1,2.14,1.52,11.21,11.21,0,0,0,1.78,1.4,17.46,17.46,0,0,0,8.91,2.5h.38l.2.42a10.83,10.83,0,0,1,1,3.08,5,5,0,0,1,0,1.83,3.53,3.53,0,0,1-1,1.9,4.11,4.11,0,0,1-1.9,1,9.59,9.59,0,0,1-1.67.18,18.78,18.78,0,0,1-3.15-.14,17.29,17.29,0,0,1-5.93-2,23.69,23.69,0,0,1-4.9-3.57Z"/><path class="cls-12" d="M81.2,210.19a1.6,1.6,0,0,1-.76,1,2,2,0,0,1-1.11.28,1.86,1.86,0,0,1-1.76-1.43,4.56,4.56,0,0,1,1.07-.47,2.25,2.25,0,0,1,1.53.07A10,10,0,0,1,81.2,210.19Z"/><path class="cls-12" d="M79.1,210.66a11.32,11.32,0,0,1,.37,1.73,9.13,9.13,0,0,1,0,1.8,3,3,0,0,1-.46,1.89,1.87,1.87,0,0,1-2,.77l-.07-.19a9.33,9.33,0,0,0,.34-1.55c.06-.43.47-.78.66-1.28s.36-1,.52-1.53.29-1.08.43-1.64Z"/><path class="cls-12" d="M88,228.89a87.86,87.86,0,0,1,9.61,3c1.57.57,3.13,1.18,4.68,1.81a13.21,13.21,0,0,0,2,.74,6.48,6.48,0,0,0,2,.13,7.15,7.15,0,0,0,1-.16,4.33,4.33,0,0,0,.43-.13c.05-.05-.15.14-.08.08a.31.31,0,0,0,.1-.1,5.51,5.51,0,0,0,.8-1.94,2.35,2.35,0,0,0-.13-1.8c-.06-.1-.16-.12-.27-.19a6.67,6.67,0,0,1-.65-.25c-.41-.18-.77-.38-1.16-.57-3-1.57-5.92-3.11-9-4.56-1.49-.75-3-1.42-4.49-2.14s-3-1.42-4.47-2.08A31.43,31.43,0,0,0,84,219.08a6.24,6.24,0,0,0-.91-.16l-1.2-.05c-.81,0-1.62,0-2.43,0a76.84,76.84,0,0,0-9.72.44c-1.6.2-3.25.47-4.87.75a27.06,27.06,0,0,0-4.76,1.17L60,221a10.41,10.41,0,0,1,2.19-1.38c.77-.38,1.54-.73,2.34-1a40.88,40.88,0,0,1,15-2.92c.85,0,1.7,0,2.56,0l1.29.06a7.57,7.57,0,0,1,1.54.32,29.51,29.51,0,0,1,4.82,2.12,68.44,68.44,0,0,1,8.56,5.36,52.45,52.45,0,0,0,8.53,5.1c.37.16.76.31,1.13.43.19.07.36.09.53.15a2.12,2.12,0,0,1,.82.39,2.61,2.61,0,0,1,.83,1.45,6.49,6.49,0,0,1,.13,1.45,7.24,7.24,0,0,1-.6,2.83,2.48,2.48,0,0,1-.25.42,2,2,0,0,1-.54.49,5.88,5.88,0,0,1-.71.37,6.89,6.89,0,0,1-1.41.44,7.7,7.7,0,0,1-2.94,0,11,11,0,0,1-2.64-1c-1.52-.67-3-1.37-4.51-2.1a87.6,87.6,0,0,1-8.77-4.84Z"/><path class="cls-12" d="M63.23,227.35A46.18,46.18,0,0,1,71,226.17a53.6,53.6,0,0,1,7.74-.17c1.29.1,2.58.25,3.88.42l1,.12a5.31,5.31,0,0,1,1.06.2,11.42,11.42,0,0,1,1.88.85c2.32,1.21,4.62,2.37,7,3.42s4.71,2.19,7,3.43c1.15.6,2.25,1.24,3.32,1.7s2.3,1,3.39,1.4c.27.1.54.19.77.25s.2,0,.3.07h.24a3,3,0,0,1,.42.06,2.15,2.15,0,0,1,1.25.85l.18.27.1.23a2.87,2.87,0,0,1,.16.46,3.84,3.84,0,0,1,0,1.52,5,5,0,0,1-1.13,2.4,4.87,4.87,0,0,1-2.16,1.41,6.13,6.13,0,0,1-2.29.21,12.71,12.71,0,0,1-2-.3,12.49,12.49,0,0,1-3.74-1.47l.11-.28a21.65,21.65,0,0,0,3.78.22c.62,0,1.23-.08,1.82-.16a4.74,4.74,0,0,0,1.5-.42,2.38,2.38,0,0,0,1.26-2,1,1,0,0,0-.06-.39s0,0,0,0h0a.26.26,0,0,0,0,.08,1.63,1.63,0,0,0,.17.17,1.35,1.35,0,0,0,.32.15.58.58,0,0,0,.18,0h-.49a6.3,6.3,0,0,1-.65-.1c-.4-.08-.75-.18-1.09-.29a24.54,24.54,0,0,1-3.73-1.6A39.25,39.25,0,0,1,99,236.89c-2.18-1.39-4.27-2.9-6.34-4.45a34.28,34.28,0,0,0-6.58-4,8,8,0,0,0-1.72-.53,4.12,4.12,0,0,0-.85,0l-1,.1c-1.28.15-2.57.32-3.85.43a60.08,60.08,0,0,1-7.72,0,62.53,62.53,0,0,1-7.73-.85Z"/><path class="cls-12" d="M79.69,242.83a21.36,21.36,0,0,0,2.6.55c.88.17,1.77.32,2.65.52,1.76.37,3.5.84,5.23,1.36s3.36,1.15,5,1.79a14.53,14.53,0,0,0,2.39.75,2,2,0,0,0,1,0c.15,0,.31-.17.64-.31l.12,0s0,0,0,0,0,0,0,0,.06,0,.09-.12a4,4,0,0,0,.1-2.36,3,3,0,0,0-.4-1.08c0-.06-.09-.1-.09-.09s0,0,0,0h-.08a3.18,3.18,0,0,1-.82-.13,40.66,40.66,0,0,1-5.2-2c-1.67-.74-3.25-1.63-4.82-2.52-.79-.44-1.57-.91-2.35-1.38-.39-.24-.78-.47-1.17-.73L84,236.7l-.3-.21a5,5,0,0,1-.51-.44l1.25.54c-1.34,0-2.68,0-4,0s-2.68-.08-4-.18a70.26,70.26,0,0,1-8.06-.9v-.3a70.26,70.26,0,0,1,8-1.28c1.34-.16,2.67-.25,4-.37s2.68-.17,4-.2l1.25.54s-.06-.08,0,0l.24.18.52.37,1.07.77,2.18,1.52c1.46,1,2.94,2,4.39,3,.72.52,1.45,1,2.18,1.53a14.45,14.45,0,0,0,2.24,1.28,2.2,2.2,0,0,0,.48.16l.05,0,.2,0a.73.73,0,0,1,.35.15,1.22,1.22,0,0,1,.36.4,4.36,4.36,0,0,1,.48,1.45,9.71,9.71,0,0,1,.14,1.42,4.45,4.45,0,0,1-.19,1.53,1.45,1.45,0,0,1-.26.45,1,1,0,0,1-.27.21l-.15.08,0,0c-.08,0-.26.21-.51.38a3.47,3.47,0,0,1-1.62.47,14,14,0,0,1-2.9-.14,24.3,24.3,0,0,1-5.28-1.44c-1.68-.62-3.35-1.26-5-2-.83-.35-1.65-.75-2.46-1.16a9.45,9.45,0,0,1-2.34-1.55Z"/><path class="cls-12" d="M82,244.35a23.09,23.09,0,0,1-2.62,1.28,20.57,20.57,0,0,1-2.79.92,6.39,6.39,0,0,1-3,.47,4.8,4.8,0,0,1-1.5-.54,3.66,3.66,0,0,1-1.3-1.14l.07-.29a9.35,9.35,0,0,1,2.78-1,10.07,10.07,0,0,1,2.65.15c.91,0,1.83,0,2.76,0s1.88-.06,2.84-.1Z"/><path class="cls-12" d="M59.22,223.13a17.08,17.08,0,0,0-.13,3,6.94,6.94,0,0,0,.2,1.29,6.16,6.16,0,0,0,.41,1.14l.14.32,0,.4a29.19,29.19,0,0,1-.94,4.19,8.59,8.59,0,0,0,.21,4.27l.34,1,.41,1c.11.33.28.63.4.95a8.07,8.07,0,0,0,.39.91,7.26,7.26,0,0,0,2,2.72l.59.46.07.63a11.53,11.53,0,0,0,.33,1.54,11,11,0,0,0,.61,1.59,8.66,8.66,0,0,0,.91,1.52,12.51,12.51,0,0,0,1.31,1.46l-.11.28a5.27,5.27,0,0,1-2.13-.52A6.24,6.24,0,0,1,62.33,250a8.32,8.32,0,0,1-1.87-2.9,6.56,6.56,0,0,1-.34-1.2l.66,1.09c-.37-.3-.74-.62-1.07-1a12.91,12.91,0,0,1-.77-1.12,10.24,10.24,0,0,1-.91-2.34,12.67,12.67,0,0,1-.26-4.63,17,17,0,0,0-.18-4.43,13.42,13.42,0,0,1-.43-4.5l.11.73a5.85,5.85,0,0,1-.45-1.93,5.65,5.65,0,0,1,.21-1.89,6.26,6.26,0,0,1,.75-1.65A5,5,0,0,1,59,223Z"/><path class="cls-12" d="M64.66,250.7a22.73,22.73,0,0,0,2,3A28.23,28.23,0,0,0,69,256.3a25.85,25.85,0,0,1,2.54,2.28,15.92,15.92,0,0,1,1,1.43,9.3,9.3,0,0,1,.92,1.75l-.16.25a6.49,6.49,0,0,1-3.8-1.22,5.25,5.25,0,0,1-1.37-1.37c-.35-.55-.7-1.1-1-1.65a18.58,18.58,0,0,1-1.73-3.38,17.17,17.17,0,0,1-1-3.62Z"/><path class="cls-12" d="M77.15,245.39a6.87,6.87,0,0,1,.16,2.21,6,6,0,0,1-.67,2.26A9.89,9.89,0,0,1,76,251a2.1,2.1,0,0,1-1.08.77,2.6,2.6,0,0,1-2.62-.56l0-.3a16.38,16.38,0,0,1,1.2-1.77,1.2,1.2,0,0,1,.57-.38,2.13,2.13,0,0,0,.7-.35,6.62,6.62,0,0,0,1.17-1.3,8.94,8.94,0,0,0,1-1.73Z"/></g></svg>