<?xml version="1.0" encoding="utf-8"?>
<!-- Generator: Adobe Illustrator 21.1.0, SVG Export Plug-In . SVG Version: 6.00 Build 0)  -->
<!DOCTYPE svg PUBLIC "-//W3C//DTD SVG 1.1//EN" "http://www.w3.org/Graphics/SVG/1.1/DTD/svg11.dtd">
<svg version="1.1" id="clouds" xmlns="http://www.w3.org/2000/svg" xmlns:xlink="http://www.w3.org/1999/xlink" x="0px" y="0px"
	 viewBox="0 0 220 220" style="enable-background:new 0 0 220 220;" xml:space="preserve">
<style type="text/css">
	.st0{fill:#049CDB;}
	.st1{fill:#66D0FD;}
	.st2{fill:#FFFFFF;}
</style>
<path class="st0" d="M191.3,23.9c-3.5,3.8-5.8,8.6-6.8,13.9c-1.7-0.6-3.6-0.9-5.5-0.9c-5.1,0-9.6,2.3-12.8,5.8
	c-5.2-5.7-12.7-9.2-21-9.2c-1,0-1.9,0.1-2.9,0.2c-3.9-11.2-14.5-19.2-27-19.2c-12.3,0-22.7,7.7-26.8,18.5c-1.6-5.4-6.4-9.4-12.2-9.6
	c0-0.7,0.1-1.4,0.1-2.1c0-8.5-3.7-16.1-9.5-21.3L5.5,35.9v121l103,60.5l103-60.5v-121L191.3,23.9z M159.5,126l-51,29.6l-51-29.6
	V66.8l51-29.6l51,29.6V126z"/>
<path class="st1" d="M190.7,79.9c0,0.7,0.2,1.4,0.2,2.1c-5.8,0.2-10.6,4.2-12.2,9.6c-3.2-8.5-11.3-15.1-19.3-17.5V126l-51,29.6
	l-51-29.6V73.2c0-0.1-2-0.2-3-0.2c-0.7,0-1.4,0.1-2.1,0.1C49.3,60.6,38,51.2,24.5,51.2c-7.3,0-14,2.8-19,7.3v98.4l103,60.5l103-60.5
	V52.3C198.5,55.7,190.7,66.7,190.7,79.9z"/>
<path class="st2" d="M211.5,156.9v-11.2c-6-7.6-13.6-12.6-23.5-12.6c-12.5,0-23,8-26.9,19.2c-1-0.1-1.9-0.2-2.8-0.2
	c-8.3,0-15.8,3.6-21,9.2c-3.2-3.5-7.7-5.8-12.8-5.8c-1.9,0-3.8,0.3-5.6,0.9c-2.5-13.3-14.1-23.4-28.2-23.4c-0.7,0-1.4,0.1-2.1,0.1
	c-3-12.6-14.3-21.9-27.8-21.9C44.9,111.3,32,124.2,32,140c0,0.7,0,1.4,0.1,2.1c-5.8,0.2-10.6,4.2-12.2,9.6
	c-2.6-6.9-8.4-12.5-14.4-15.7v20.9l103,60.5L211.5,156.9z"/>
</svg>
