<svg xmlns="http://www.w3.org/2000/svg" viewBox="0 0 400 400"><defs><style>.cls-1{fill:#66d0fc;}.cls-2{fill:#724644;}.cls-3{fill:#6a7484;}.cls-4{fill:#059cdb;}.cls-5{fill:#effaff;}.cls-6{fill:#e3a785;}.cls-7{fill:#4c2b28;}.cls-13,.cls-8,.cls-9{fill:#6b3434;}.cls-8{stroke:#6b3434;stroke-linecap:round;stroke-linejoin:round;}.cls-10,.cls-8,.cls-9{opacity:0.5;}.cls-10,.cls-14{fill:#2f333b;}.cls-11{fill:#7f4f4f;}.cls-12{fill:#3e2420;}.cls-15{fill:#2b1816;}</style></defs><title>question_med</title><g id="circle"><circle class="cls-1" cx="203.52" cy="253.92" r="114.95"/></g><g id="color"><path class="cls-2" d="M267,204.13s4.17,41.5-8.33,65.67c0,0-6.42-2.93-8.1-1.94s-5.56,2.44-13.23,2.61l-6.56.15-3.66-11.31-1.36-12.25-7.54-2.41-1.36-.84-29-1.15-8,13.71-5.76,13.3-6.47,3.12c-20,2.5-20.52-1-20.52-1-14.28-33.5-8.74-68-8.74-68l2.76-13,11.93-43.55,16.23-5.65,75.37.52L256,147Z"/><path class="cls-3" d="M250.3,318.57l1.94,16.81.37,7.75.66,7.79.18,6.59a115.66,115.66,0,0,1-105.92-3.2l-.59-.28-.57-.32-5.54-3.39s0-12.34.26-12.93a51.43,51.43,0,0,0,.41-5.66l.44-4.27,1-7.12,1.57-7.94s3.14-11.71,3.39-12,3.91-10,3.91-10l6.87-13.1,6.58-8.48,5.32-5.58,4.71-3.91.06-3.28s.5-7.08.75-7.58,2-3.08,2-3.08l2.5-2.08,2.5-1.17,3-1.12,1.77-.37,2.29-.5.65,4.73-.83.36-.42.25-1.55,1.84s-.8,2.94-.75,3,1.16,2.84,1.16,2.84l2.83,2.66,3.16,2.06c.11.06,5.25,2.37,5.25,2.37l4,.36,2.86.44,3.94.08,3.62-.84,3-1.36,2.86-2.75a14.07,14.07,0,0,1,.39-2,18.8,18.8,0,0,0-.78-2.87l-2.37-2.84-.78-.58-.7-.34.69-7.75,1.73.55,2.34.69,3.64,1.89,3.92,2.87,1.58,2,.94,3.47.19,2.75-.28,1.91.61-1.16,5.56,5.75,8,8.76,8.21,11.47,4.87,8.81s4.19,10.12,4.38,11.91,1.53,9.06,1.4,10.53,0,7.91-1.14,10.11-3.72,5.26-9.07.87l-3-2.92Z"/><path class="cls-4" d="M228.79,311.46l-1.31,5-4.19,4.12-5.75-3.37L216.33,315l-.12-3.29-11.58-6.33-11.83,6.42-.25,4.87-12.71-1.92.08-10,14.44-8.37h0c2.81.87,2.56,6.19,2.56,6.19h0c2.17-.9,3.94,1.31,3.94,1.31h0a9,9,0,0,1,5.35-4.21c5.5-.5,6.52,5.08,6.52,5.08h0a6.6,6.6,0,0,1,6,2.06h0a3,3,0,0,1,3.56-.69h0c-.42-2,2-4.25,2-4.25l4.62,3-.12,6.54"/><path class="cls-1" d="M228.49,330l.37-19.62-1-.17s-1,.17-1.12.17a13.22,13.22,0,0,0-1.33.67l-1.21,1.5-.46,1.12-.58,1.62-.25,1.08-1.29.42-.62.54-.42.87L220,316.5l-1-1-1.21-.71-1.08-.25-.46,0,.29,12.46-6.83,3.58-.46,1.21,4.46,7.17s4.42-1.75,4.62-1.79,9.33-4.92,9.42-5S228.49,330,228.49,330Z"/><path class="cls-1" d="M192.47,327.08l.22-12.34-.41-.75-1.12-1.5L190,311.3,188.32,310l-1.16-.53-1.37-.47H184.5l-1.37.28-1.25.56-1,.72-1.06,1v20.53s6.91,3.94,7,3.94,7.81-.84,7.81-.84-.66-5.87-.69-6S192.47,327.08,192.47,327.08Z"/><polyline class="cls-5" points="228.41 334.17 228.49 329 226.91 328.84 225.29 329.34 224.04 330.3 223.04 331.67 222.41 332.75 222.29 333.3 221.37 333 219.54 332.84 217.62 332.84 215.66 333.25 214.12 333.84 213.58 334.21 212.99 333.25 211.74 332 210.74 331.13 209.7 330.55 208.49 330.3 207.54 330.34 207.29 330.42 206.66 329.46 205.58 328.21 204.62 327.34 202.95 326.46 201.87 326.25 201.74 325.71 200.83 324.8 200.12 324.21 199.2 323.67 197.58 323.55 195.95 323.71 194.66 324.25 193.7 324.96 192.87 326 192.29 327 191.58 328.63 191.12 330.17 191.08 330.8 190.45 330.8 189.24 331.59 188.49 332.5 187.79 333.67 187.7 334.13 187.2 332.42 186.49 331 185.29 329.96 183.99 329.21 182.37 328.96 181.41 328.88 180.33 328.92 179.87 328.92 179.91 333.55 204.41 348.67 228.41 334.17"/><path class="cls-6" d="M245.67,149.39l-.8-5.6-5.5-21.67-18.5-4.83-29.67-2.17-24.5,6.5s-9.17,12.83-10.17,14-.25,15.92-.25,15.92,2.81,59.33,30.77,77.6l3.35,16.06v0l-.69.19-1.67,1.89-.75,3,1.23,3,2.87,2.66h.08l2.67,2,5.53,2.31,8.59.87,4.37-.44,3.37-1.25,2.31-1.56,1.69-1.7.39-2-.73-2.8-2.42-2.92-.78-.58a66.08,66.08,0,0,1,2.81-17.11C248.51,214.67,245.67,149.39,245.67,149.39Z"/><path class="cls-2" d="M169.79,133.8a18.34,18.34,0,0,0,12.37,1.12S187,124.3,198.91,124.3c0,0-8.25,7.87-6.62,11.62,0,0,32.25-10.75,57.25,17.37l6.37-1.25-6.5-21.12-23.62-15.5-29.12-5-15.37,3.5-12.62,14.75Z"/><path class="cls-7" d="M258.7,130.77c3.12,3.25,6.9,27.85,10,40.59,2.67,11.11,23.91,28.66,27,31.16a6.13,6.13,0,0,1,2.4,6.83c-.44,1.44-8.52,11.85-12.49,10-18.88-8.66-30.9-29.41-31.89-47.09s-9.42-34-9.42-34l-2.89-5.34-18.87-13.41c-26.8-12-39.25,1-39.25,1l-15.62,8.87-5.75,7.94s-8.94,17.32-9.93,35-13,38.44-31.89,47.09c-4,1.82-12.06-9.09-12.06-9.09l-.66-3.41a7.47,7.47,0,0,1,2.62-6.37c3.12-2.5,25.37-17.37,28.37-29.25s5.85-37.54,9-40.79l.13-.17,15.18-23.46L179.2,98.3s15.38-16,48.5-1.26l8.33,4.64,22.67,29.1"/><path class="cls-3" d="M218.2,109.13c-15.76-10.27-30.08,0-30.08,0l-1.87,1.33L185,104s17.5-10.5,35.5.42l1.46.87L219.54,110Z"/><path class="cls-3" d="M179.6,98.23l6.31,6.91c4.34,5.1.13,15.81-9.4,23.92s-20.78,10.56-25.12,5.46l-5.23-5.24-.9-.89c-4.34-5.1-.13-15.81,9.4-23.92S175.44,93.92,179.78,99Z"/><path class="cls-3" d="M260.78,128.41c4.34-5.1-1.21-13.67-10-22.86S230.61,93.92,226.27,99l.4-.72-6.31,6.91c-4.34,5.1,1.68,18.63,12.12,26.28,8.87,6.5,18.05,8.21,22.4,3.11Z"/><ellipse class="cls-1" cx="162.52" cy="113.71" rx="22.66" ry="12.12" transform="translate(-34.94 132.49) rotate(-40.41)"/><path class="cls-1" d="M260.78,128.41c-4.34,5.1-15.59,1.65-25.12-6.46s-13.74-17.83-9.4-22.92,15.87-2.52,24.52,6.53S265.12,123.31,260.78,128.41Z"/><path class="cls-5" d="M192.07,180.51l-.32-1.72s-1.67-6.08-3-7.42-1.5-3.79-9.92-4.92c0,0-3.21-.62-8.79,2.37l-1.42.5.17,1.62s1.5,6.79,4.17,9,7.33,3.08,7.33,3.08S185.07,183.6,192.07,180.51Z"/><path class="cls-5" d="M213.44,179.33l.3-1.59s1.68-6.05,3-7.38,1.52-3.77,10-4.89c0,0,3.24-.62,8.89,2.36l2,.6-.71,1.52s-1.84,5.91-4.54,8.15a30.07,30.07,0,0,1-7.08,3.91S220.52,182.39,213.44,179.33Z"/></g><g id="shadow"><path class="cls-8" d="M190.22,242.85S207,257,216,245l.67-1s1.58-9.42,1.67-10.17.42-2.83.42-2.83l-5.17,2.17-10.83,1.17-8.58-1.58-5.75-2.92-1.15-.54,1.06,3.46,1.42,8.5Z"/><path class="cls-9" d="M190.19,244.82s1.06,9.78,1,10.41-.69,0-.69,0l-2-2.12s-.87-2.56-.87-2.66.06-2,.09-2.28a10.61,10.61,0,0,1,.72-1.62Z"/><path class="cls-10" d="M240.45,125.63s3.5,8.67,0,10.33c0,0,2.46,1,2.71,1.08s5.25.31,5.25.31l4-.69a42.55,42.55,0,0,1,3.31-2.81,33.16,33.16,0,0,0,2.94-3.37L259,130l-2,.53-2.19.25a12.73,12.73,0,0,1-3.22-.28C250.66,130.17,240.45,125.63,240.45,125.63Z"/><path class="cls-10" d="M155.87,130.79s7.92,2.08,9.33,4.92l2.83-1,3.46-1.83,3.87-2.67,5-4.92s4.87-7.12,5.17-7.46,1.37-3.71,1.67-4.29-.17-4.08-.08-4.37a21,21,0,0,0-.62-3.83,27.18,27.18,0,0,0-2.25-2.21L181.87,101l-1.33-1,.62,1.87a11.58,11.58,0,0,1,.29,3.46c-.25,1-1.21,7.58-4.83,10.79s-6.5,8.17-11.83,10.92A52.51,52.51,0,0,1,155.87,130.79Z"/><path class="cls-10" d="M222.52,264.17s5.71,1.85,8.12-.65l.25-4.33-.23-2.44-.35-.67-1.12,2.19-1.42,1.81-2.17,1.85-2.29,1.69Z"/><path class="cls-9" d="M195.16,200.19c-.1.85,1.24,2.31,2.83,3.47A11.92,11.92,0,0,0,206.2,206c10.21-.49,6.3-8.94,5.79-9.08a3.15,3.15,0,0,0-1.87.5,32.77,32.77,0,0,1-2.9,1.56,7,7,0,0,1-5.62.14s-3-.94-4.4-.6A2.76,2.76,0,0,0,195.16,200.19Z"/><path class="cls-9" d="M242.66,146.71s.22,9.11-.25,17.83c-.49,9.19-8.61,39.89-16.86,52.58-6.85,10.53-14.37,14.42-24.67,17.22l10.3-.05,7.91-3.39,5.27-3.64,5.92-6.49,5.65-9.9,4.53-12.82,4.23-23.48,1.06-19.91-.07-5.28-2.25-2.12Z"/><path class="cls-9" d="M220.37,253.75l-.5-2.26-1.67-2.1-.93-.92-.78-.58-.22,1.36-.12,1.57-.08,1.48s5.28,1.87,2.38,5.92l.16.26Z"/><path class="cls-10" d="M220.3,255.5s7.51.77,6.84,5L229,258.3l1.67-3.3.32-4.29-1.4-3.25-3.35-3.37-3.38-2L220.55,241l-3.16-.94-.64,3.89-.27,3.91,1.21.9,1.17,1.37,1.23,1.79.38,2Z"/><line class="cls-6" x1="187.98" y1="247.46" x2="188.72" y2="246.57"/><path class="cls-10" d="M188,247.61s-1.05-4.31-8-3.73c0-.18,1.56-.94,1.56-.94l2.9-1.28,2.56-.81,2.55-.61.42,2.09.48,2.83-.52.15-.93.8Z"/><path class="cls-11" d="M241,136.51a17.73,17.73,0,0,1,2.12,10.37L240.85,145l-9.09-5.54L224,136.41l-6.13-1.53-7-.87L204,134l-6.21.67-5.42,1-.14-2.18,2.63-4.71,3.46-4v-1l-6.26,1.71-4.6,2.73-2.83,2.79-2.53,3.8-4.16.61-3.88-.34-3.67-1.1-.67-.3,4.44-2.92,6.14-5.63,5.1-6.61,3.53-2,6.91-1.75,7-.59,12.75,2.51,4.31,1.52,1.47.28,1.81,3.12,4.82,6,5.46,4.57,6.55,3.62Z"/><path class="cls-10" d="M217.7,264.71l8.29,9.88,1.79-2.46L229.7,268l.92-3.92L231,261l-.8-4.57,1-1.6s5.72,5.54,5.85,5.75,6,6.89,6,6.89l3.3,4.11s5.47,6.39,5.38,7.66c-.25,3.54-7,6.46-7,6.46s5.69,5.51,2.67,10.37c-1.12,1.8-8.36,2-14.48.39-.4-.11-1.72-3.36-2-3.28-4.36,1.13-7.32,4.65-29.82-2-22.21-6.58-25.25-25.58-25.25-25.58s2.08,2.83,2.29,3.08,8.29,7.62,8.29,7.62l7.92,3.83,5.87,1.71,5.25.54,2.41-.09h.06c3.58-4.33-3.83-13.55-3.83-13.55l3.34,1.22,2.3.7,7.41-2.25Z"/></g><g id="line"><path class="cls-12" d="M138.59,203.82c.12,5.82.09,11.53.15,17.26,0,1.43,0,2.86-.08,4.3s-.1,2.87-.16,4.31a49.07,49.07,0,0,0,.44,8.62,69.27,69.27,0,0,0,1.76,8.45c.41,1.38.81,2.76,1.18,4.14s.74,2.76,1.16,4.13l1.23,4.1c.49,1.34.94,2.69,1.37,4l.67,2,.73,2c.48,1.34.94,2.69,1.4,4l.09.33a1,1,0,0,0,0-.17l0-.05,0-.08,0-.06,0,0a.46.46,0,0,0,.11.11,3.09,3.09,0,0,0,.51.31,7.79,7.79,0,0,0,1.44.5,25.4,25.4,0,0,0,3.29.6c1.13.16,2.28.26,3.44.35l3.5.28a.15.15,0,0,1,.14.16.15.15,0,0,1-.12.14c-1.15.24-2.31.47-3.49.61-.59.09-1.17.15-1.77.2s-1.19.11-1.78.12a21.22,21.22,0,0,1-3.66-.13,10.25,10.25,0,0,1-1.93-.42,5,5,0,0,1-1-.48,3.29,3.29,0,0,1-.57-.44,2.49,2.49,0,0,1-.3-.35,1.72,1.72,0,0,1-.32-.75l.09.33a74.64,74.64,0,0,1-5.6-16.6,70.56,70.56,0,0,1-1.47-8.63c-.23-2.91-.55-5.8-.82-8.68s-.69-5.75-1.18-8.63c-.2-1.44-.41-2.89-.57-4.34s-.2-2.91-.23-4.37.08-2.91.12-4.37.21-2.91.39-4.36a47.7,47.7,0,0,1,1.74-8.59.15.15,0,0,1,.3,0Z"/><path class="cls-12" d="M267.19,204.11A78,78,0,0,1,269,220.85a56.59,56.59,0,0,1-.45,8.41c-.35,2.79-.82,5.57-1.18,8.34s-.62,5.56-.92,8.35-.55,5.6-1.06,8.39a65.74,65.74,0,0,1-2.05,8.25,51.62,51.62,0,0,1-3.23,7.95,1.61,1.61,0,0,1-2,.75c-1-.42-2.15-.83-3.22-1.2a20.33,20.33,0,0,0-3.17-.84,3.34,3.34,0,0,0-.89,0,14,14,0,0,1-1.8.75,7.6,7.6,0,0,1-3.9.1.16.16,0,0,1,0-.3,18.8,18.8,0,0,0,3-1.71c.41-.33.82-.69,1.28-1.08a1.8,1.8,0,0,1,.34-.21,2.7,2.7,0,0,1,.41-.17,3.82,3.82,0,0,1,.7-.15,6.74,6.74,0,0,1,1.15,0,18.47,18.47,0,0,1,3.82.71,35.77,35.77,0,0,1,3.54,1.18l-2,.75c.6-1.21,1.2-2.42,1.72-3.67.29-.61.56-1.24.81-1.87s.53-1.25.75-1.9c1-2.55,1.76-5.18,2.57-7.82s1.54-5.32,2.14-8a57.85,57.85,0,0,0,1.15-8.25,83,83,0,0,0,0-8.35c-.09-2.78-.12-5.55,0-8.32.11-5.54.18-11.08.51-16.7A.15.15,0,0,1,267,204,.16.16,0,0,1,267.19,204.11Z"/><path class="cls-13" d="M198.29,200.3a1.71,1.71,0,0,1,1.22-.6,2.1,2.1,0,0,1,1.22.31,1.93,1.93,0,0,1,.89,2.29,7.38,7.38,0,0,1-1.18-.25,3.38,3.38,0,0,1-.74-.32,3.56,3.56,0,0,1-.63-.51A11.49,11.49,0,0,1,198.29,200.3Z"/><path class="cls-13" d="M206.29,202.13a2.13,2.13,0,0,1,.41-1.3,2.44,2.44,0,0,1,.94-.77,2.36,2.36,0,0,1,1.23-.21,1.88,1.88,0,0,1,1.25.63,7.44,7.44,0,0,1-.86.9,3.31,3.31,0,0,1-.77.5,3.37,3.37,0,0,1-.92.27A4.59,4.59,0,0,1,206.29,202.13Z"/><path class="cls-13" d="M210,195.21a3.25,3.25,0,0,1,1.89.89,4.08,4.08,0,0,1,1.12,1.8,3.46,3.46,0,0,1-1.18,3.89c-.18-.73-.22-1.3-.36-1.84a13,13,0,0,0-.37-1.47C210.86,197.53,210.47,196.59,210,195.21Z"/><path class="cls-13" d="M196.29,196.38c.09.64.12,1.12.15,1.58s0,.86,0,1.27,0,.8-.06,1.25a15.65,15.65,0,0,1-.19,1.58,2.92,2.92,0,0,1-1.75-2.87,3.34,3.34,0,0,1,.48-1.67A2.57,2.57,0,0,1,196.29,196.38Z"/><path class="cls-13" d="M188.69,210.87A4.59,4.59,0,0,1,188,212a3.35,3.35,0,0,1-.71.64,3.29,3.29,0,0,1-.84.39,7.39,7.39,0,0,1-1.22.26,1.88,1.88,0,0,1,.13-1.39,2.37,2.37,0,0,1,.84-.93,2.45,2.45,0,0,1,1.16-.39A2.13,2.13,0,0,1,188.69,210.87Z"/><path class="cls-13" d="M187.39,212.53c2.18.37,4.18.95,6.21,1.39s4,.91,6,1.28,4,.67,6,.88c1,.08,2,.2,3.05.21a15.55,15.55,0,0,0,3.15-.14,7.87,7.87,0,0,1-2.92,1.59,17,17,0,0,1-3.26.7,23,23,0,0,1-6.59-.29A24,24,0,0,1,187.39,212.53Z"/><path class="cls-13" d="M187.86,152c-2.18-.93-4.06-1.76-5.94-2.46a39.29,39.29,0,0,0-5.48-1.67,35.23,35.23,0,0,0-5.63-.86c-1-.15-2-.1-3.06-.21s-2.15,0-3.37-.2a12.52,12.52,0,0,1,1.31-1.18,8.41,8.41,0,0,1,1.45-1,13.43,13.43,0,0,1,3.27-1.33,14.42,14.42,0,0,1,7.17-.09,15,15,0,0,1,6.39,3.2A12,12,0,0,1,187.86,152Z"/><path class="cls-13" d="M215.18,163.55a12.66,12.66,0,0,1,3.85-5.71,16.55,16.55,0,0,1,6.06-3.4,17.33,17.33,0,0,1,3.45-.71,15.54,15.54,0,0,1,3.51.1,12.72,12.72,0,0,1,6.36,2.65c-2.32.58-4.33.8-6.27,1.28a51.77,51.77,0,0,0-5.56,1.45c-1.81.56-3.62,1.2-5.47,1.94Z"/><path class="cls-13" d="M192.16,180.74a27.52,27.52,0,0,1-7.28,2.8,17.05,17.05,0,0,1-8.07,0,12.61,12.61,0,0,1-3.93-1.73,9.75,9.75,0,0,1-2.92-3.19,12.73,12.73,0,0,1-1.4-8,.16.16,0,0,1,.18-.13.16.16,0,0,1,.12.08,42.64,42.64,0,0,0,3.63,6.4,21.73,21.73,0,0,0,2.22,2.46,8.63,8.63,0,0,0,2.84,1.79,16.53,16.53,0,0,0,7.12.8,29.72,29.72,0,0,0,7.38-1.59h0a.15.15,0,0,1,.12.27Z"/><path class="cls-13" d="M191.55,178.57a23.8,23.8,0,0,0-2.73-5.85,18,18,0,0,0-4.14-4.62,21.15,21.15,0,0,0-5.35-2.52l-1.44-.52a12.22,12.22,0,0,1-1.66-.65,6.52,6.52,0,0,1-2.79-2.27.15.15,0,0,1,.17-.23h0a17.61,17.61,0,0,0,3.15.45c.52,0,1,.07,1.55.07s1.17.15,1.76.23a7.35,7.35,0,0,1,1.74.51c.28.11.56.23.84.35s.52.32.78.48a11.16,11.16,0,0,1,1.46,1.07,12.91,12.91,0,0,1,1.33,1.2,17.76,17.76,0,0,1,3.88,5.73,22,22,0,0,1,1.7,6.5.15.15,0,0,1-.29.06Z"/><path class="cls-13" d="M188.66,171.3a15.36,15.36,0,0,0-4.84-3.48,14,14,0,0,0-5.56-1.3c-.47,0-.94,0-1.41.09l-1.39.25c-.53.1-1.06.18-1.59.24a15.36,15.36,0,0,1-1.64,0,9.89,9.89,0,0,1-3.34-.74,4.46,4.46,0,0,1-1.56-1.06,1.76,1.76,0,0,1-.45-1.87.15.15,0,0,1,.27,0l0,.06a1.3,1.3,0,0,0,1,.7,5.08,5.08,0,0,0,1.26.12c.9,0,1.83-.1,2.78-.21s1.92-.19,2.92-.2l1.69,0,1.67.18a14.4,14.4,0,0,1,6.1,2.39,14.91,14.91,0,0,1,4.34,4.61.15.15,0,0,1-.24.18Z"/><path class="cls-13" d="M186.6,169.14a15.22,15.22,0,0,0-5.65-1.74,13.89,13.89,0,0,0-5.63.53c-.44.17-.88.33-1.3.52l-1.22.67c-.47.26-.94.5-1.42.72a15.21,15.21,0,0,1-1.54.53,9.85,9.85,0,0,1-3.38.35,4.44,4.44,0,0,1-1.8-.51,1.75,1.75,0,0,1-1-1.62.15.15,0,0,1,.25-.08l0,0a1.29,1.29,0,0,0,1.13.35,5.12,5.12,0,0,0,1.23-.29c.84-.3,1.69-.68,2.55-1.07s1.75-.78,2.68-1.1l1.6-.49,1.63-.35a14.31,14.31,0,0,1,6.49.33,14.78,14.78,0,0,1,5.54,3,.15.15,0,0,1-.17.25Z"/><path class="cls-13" d="M214.86,179.75a19,19,0,0,0,7.14,1.46,12.28,12.28,0,0,0,6.62-1.78c1.95-1.21,3.22-3.12,4.62-4.93.72-.92,1.35-1.92,2-2.93.31-.52.66-1,1-1.56s.68-1.07,1.09-1.59h0a.16.16,0,0,1,.22,0,.16.16,0,0,1,.06.12,15.23,15.23,0,0,1-1.9,7.61,11.76,11.76,0,0,1-2.54,3.19,16.26,16.26,0,0,1-3.47,2.24,13.16,13.16,0,0,1-3.9,1.19,14.87,14.87,0,0,1-4,0,18.48,18.48,0,0,1-7.18-2.7.15.15,0,0,1,.14-.26Z"/><path class="cls-13" d="M213.39,178.86a19.87,19.87,0,0,1,1.65-6.8,16.5,16.5,0,0,1,4.3-5.83,13.16,13.16,0,0,1,3.13-2.1,10.43,10.43,0,0,1,3.65-.84,11.11,11.11,0,0,0,5.74-2.34h0a.15.15,0,0,1,.23.18,8.22,8.22,0,0,1-5.53,4.83c-1,.31-2,.7-2.9,1a14.89,14.89,0,0,0-2.79,1.27,15.08,15.08,0,0,0-4.45,4.53,21.5,21.5,0,0,0-2.74,6.08h0a.15.15,0,0,1-.29,0Z"/><path class="cls-13" d="M216.62,170.11a15.78,15.78,0,0,1,4.63-4,17.3,17.3,0,0,1,5.91-2.11l1.58-.21c.53-.06,1.06-.07,1.6-.11,1-.08,1.8-.08,2.68-.14a15.08,15.08,0,0,0,5.34-1.17h0a.16.16,0,0,1,.21.19,6.75,6.75,0,0,1-5.15,4,8.71,8.71,0,0,1-3.28,0c-.46-.06-.92-.14-1.38-.18s-.93,0-1.39,0a17.92,17.92,0,0,0-5.52,1.09,16.51,16.51,0,0,0-5,2.88h0a.15.15,0,0,1-.22-.21Z"/><path class="cls-13" d="M218.74,167.9a15.21,15.21,0,0,1,5.52-2.78,15.86,15.86,0,0,1,6.35-.4,23.55,23.55,0,0,1,5.92,1.6c.88.35,1.74.71,2.6,1a9,9,0,0,0,1.27.35,1.51,1.51,0,0,0,1.17-.14l.08-.06a.14.14,0,0,1,.22.11c0,.75-.68,1.19-1.21,1.45a5.62,5.62,0,0,1-1.73.41,10.92,10.92,0,0,1-3.28-.25,12.16,12.16,0,0,1-2.94-1.08,12.4,12.4,0,0,0-2.57-1.05,16.25,16.25,0,0,0-11.23,1.08h0a.15.15,0,0,1-.16-.25Z"/><path class="cls-14" d="M184.88,103.83a12.92,12.92,0,0,1,3.87-2.91,14.94,14.94,0,0,1,4.53-1.54c.81-.07,1.62-.09,2.42-.11a20.12,20.12,0,0,0,2.39,0,43.62,43.62,0,0,0,4.69-.63,20.39,20.39,0,0,1,9.6.54,18.78,18.78,0,0,1,8.15,5.09.15.15,0,0,1-.14.26h0a21.9,21.9,0,0,1-2.32-.54c-.75-.2-1.45-.47-2.21-.62s-1.46-.37-2.17-.59-1.45-.31-2.16-.51c-1.41-.43-2.85-.72-4.29-1.12-.73-.14-1.47-.24-2.2-.41s-1.48-.33-2.24-.45a12,12,0,0,0-4.57-.05,15.08,15.08,0,0,0-2.2.69c-.71.32-1.41.64-2.11.9a13.37,13.37,0,0,1-2.14.7c-.71.23-1.45.39-2.18.59-1.48.35-2.94.74-4.56,1h0a.16.16,0,0,1-.14-.26Z"/><path class="cls-14" d="M188,109a7.5,7.5,0,0,1,1.41-1.61,10.83,10.83,0,0,1,1.68-1.25A11.17,11.17,0,0,1,195,104.6c.7-.08,1.41-.11,2.1-.13a14,14,0,0,0,2.07,0,29.78,29.78,0,0,0,4-.65,13.69,13.69,0,0,1,4.18-.32,15.73,15.73,0,0,1,4.14.78,14.93,14.93,0,0,1,6.8,4.78.16.16,0,0,1-.14.25h0a37.65,37.65,0,0,1-3.91-1c-.63-.15-1.25-.32-1.85-.51s-1.23-.29-1.82-.47-1.18-.4-1.79-.54-1.21-.32-1.82-.5-1.24-.23-1.86-.4c-.31-.07-.62-.17-.94-.25l-1-.19a8.86,8.86,0,0,0-3.9,0,12,12,0,0,0-1.85.7c-.59.32-1.16.64-1.75.91a9.73,9.73,0,0,1-1.78.69c-.59.23-1.21.39-1.82.59a37.08,37.08,0,0,1-3.88,1h0A.16.16,0,0,1,188,109Z"/><path class="cls-14" d="M216.48,247.67a9.67,9.67,0,0,1,3,2,7.39,7.39,0,0,1,1.2,1.45,6.37,6.37,0,0,1,.84,1.8,5.82,5.82,0,0,1,.2,2.1,5.48,5.48,0,0,1-.21,1.06,3.91,3.91,0,0,1-.39,1,6.77,6.77,0,0,1-2.82,2.86,17.81,17.81,0,0,1-7,1.5c-2.3.18-4.59.29-6.93.28a23.18,23.18,0,0,1-7-1,20.24,20.24,0,0,1-6.49-3.13,13.4,13.4,0,0,1-2.67-2.63,8.53,8.53,0,0,1-1.66-3.57,5.56,5.56,0,0,1,.65-3.94A5.83,5.83,0,0,1,190,245a.15.15,0,0,1,.2.08.16.16,0,0,1,0,.16,6.7,6.7,0,0,0-1.6,2.71,4.27,4.27,0,0,0,.23,2.69,10.64,10.64,0,0,0,3.94,4.23,29,29,0,0,0,5.55,3,55.37,55.37,0,0,0,6.22,2.08,16,16,0,0,0,6.61.39,13.07,13.07,0,0,0,5.79-2.64c1.52-1.24,2.54-2.61,2.3-4.41s-1.5-3.68-2.92-5.46a.15.15,0,0,1,0-.22A.16.16,0,0,1,216.48,247.67Z"/><path class="cls-14" d="M189.37,240.3a32.6,32.6,0,0,0-7.51,3.23,13.64,13.64,0,0,0-3,2.45l-.56.73-.43.78a7.44,7.44,0,0,0-.52,1.72,25.88,25.88,0,0,0-.41,3.94c-.07,1.34-.09,2.69,0,4,.08,2.7.24,5.45.53,8.11l-.17-.54a33.45,33.45,0,0,0,2.66,3.71c.5.6,1,1.18,1.54,1.75s1.08,1.12,1.66,1.65,1.16,1,1.76,1.55l1.84,1.45,1.95,1.31c.65.43,1.36.77,2,1.18a17.15,17.15,0,0,0,2.1,1.06,20.55,20.55,0,0,0,2.17.94l2.23.81c.75.27,1.53.41,2.3.63a38.86,38.86,0,0,0,4.71.94,19.55,19.55,0,0,0,2.41.25l2.44.23c-1.61.16-3.25.41-4.9.42a33.62,33.62,0,0,1-4.95-.3,32,32,0,0,1-9.6-2.78,33.39,33.39,0,0,1-8.42-5.54c-.64-.56-1.22-1.17-1.83-1.75s-1.15-1.24-1.7-1.88a27.4,27.4,0,0,1-3-4.22,1.3,1.3,0,0,1-.17-.52h0a69.41,69.41,0,0,1-.33-8.44,35,35,0,0,1,1-8.5,9.54,9.54,0,0,1,.86-2.18l.68-1,.8-.83a13.75,13.75,0,0,1,3.69-2.39A25.24,25.24,0,0,1,189.37,240.3Z"/><path class="cls-14" d="M212.44,282c1.36-.79,2.68-1.41,3.95-2.09s2.5-1.34,3.81-1.91a15.33,15.33,0,0,0,3.89-2,8.82,8.82,0,0,0,2.53-3.53c.31-.66.5-1.37.74-2,.1-.35.23-.67.34-1l.3-1c.38-1.35.64-2.72.89-4.1.6-2.75,1-5.6,1.58-8.67a.16.16,0,0,1,.3,0,17.29,17.29,0,0,1,1.28,9.24,16,16,0,0,1-1.4,4.57,13.06,13.06,0,0,1-2.67,3.95c-1.09,1.15-2.19,2.21-3.23,3.33a31.59,31.59,0,0,1-3.26,3.42,11.62,11.62,0,0,1-4.29,2,10.74,10.74,0,0,1-4.72.2.16.16,0,0,1-.12-.19.16.16,0,0,1,.08-.1Z"/><path class="cls-14" d="M217.7,240.21a20.23,20.23,0,0,1,8.92,2.68,13,13,0,0,1,3.78,3.22,9.44,9.44,0,0,1,2,4.91l0-.28a5.14,5.14,0,0,1,.12.72c0,.22,0,.42,0,.63a8,8,0,0,1-.06,1.21,10,10,0,0,1-.53,2.29,12.17,12.17,0,0,1-2.31,3.86,16.48,16.48,0,0,1-3.26,2.83c-.62.36-1.21.73-1.84,1s-1.28.57-1.93.81c.49-.51,1-1,1.47-1.46l1.39-1.47a21.67,21.67,0,0,0,2.34-3.12,12.55,12.55,0,0,0,1.49-3.34,9.6,9.6,0,0,0,.28-1.71,6.47,6.47,0,0,0,0-.83,4.62,4.62,0,0,0-.08-.68,2.07,2.07,0,0,1,0-.23v-.05a7.69,7.69,0,0,0-1.3-3.42,13.66,13.66,0,0,0-2.82-2.93,29.16,29.16,0,0,0-3.59-2.47C220.4,241.63,219.07,240.93,217.7,240.21Z"/><path class="cls-14" d="M253.45,357.64c-.66-3.06-1.13-6.1-1.53-9.15s-.75-6.09-1-9.14-.49-6.11-.61-9.18a86.48,86.48,0,0,1,0-9.29,61.62,61.62,0,0,1,2.31,9,92.14,92.14,0,0,1,1.27,9.18,90.62,90.62,0,0,1,.36,9.27A53.81,53.81,0,0,1,253.45,357.64Z"/><path class="cls-14" d="M179.91,304.8l.47,14.5.22,7.15.17,7.1-.41-.74q6.21,3.64,12.39,7.34c4.12,2.45,8.25,4.91,12.35,7.4h-1.38l11.94-7.35,12-7.29-.72,1.25c.05-4.88.17-9.75.27-14.62s.17-9.75.32-14.62l.64,1.2-4.6-3,1.63-.12a6.33,6.33,0,0,0-.65.71,6.11,6.11,0,0,0-.55.81,2.89,2.89,0,0,0-.4,1.57v0a1.3,1.3,0,0,1-1.86,1.28,3,3,0,0,0-.62-.19,2.19,2.19,0,0,0-.6,0,1.05,1.05,0,0,0-.41.13,1.1,1.1,0,0,0-.31.3l-.13.15a1.25,1.25,0,0,1-1.77.11l-.07-.07a7.63,7.63,0,0,0-1.07-.89,7.11,7.11,0,0,0-1.22-.69,4.79,4.79,0,0,0-1.26-.34,3.62,3.62,0,0,0-1.21.09H213a1.18,1.18,0,0,1-1.41-.9h0a6.63,6.63,0,0,0-1.48-3,3.88,3.88,0,0,0-1.27-.91,3.51,3.51,0,0,0-.74-.23,7.29,7.29,0,0,0-.88-.12,3.9,3.9,0,0,0-3.06.92,17.71,17.71,0,0,0-2.61,2.79l0,0a.86.86,0,0,1-1.21.13l-.11-.11a5.57,5.57,0,0,0-.69-.66,3.88,3.88,0,0,0-.78-.51,1.46,1.46,0,0,0-1.41-.06l0,0a.77.77,0,0,1-1.13-.75,10.76,10.76,0,0,0,0-1.64,7.46,7.46,0,0,0-.26-1.62,4.45,4.45,0,0,0-.64-1.41,3,3,0,0,0-1.13-.92l.48,0-7.28,3.92Zm0,0,7-4.41,7.16-4.45a.52.52,0,0,1,.46,0h0a4.18,4.18,0,0,1,1.69,1.21,5.69,5.69,0,0,1,1,1.77,8.83,8.83,0,0,1,.42,1.88,10.48,10.48,0,0,1,.06,1.93l-1.17-.73a2.9,2.9,0,0,1,1.49-.43,3.62,3.62,0,0,1,1.41.31,5.52,5.52,0,0,1,1.13.66,7.11,7.11,0,0,1,1,.86l-1.34,0a19.27,19.27,0,0,1,2.78-3.21,6.41,6.41,0,0,1,2-1.22,6,6,0,0,1,2.37-.3,9.18,9.18,0,0,1,1.12.12,5.6,5.6,0,0,1,1.19.33,6.05,6.05,0,0,1,2,1.36,7.84,7.84,0,0,1,1.36,1.91,9.31,9.31,0,0,1,.81,2.19l-1.47-.9a6,6,0,0,1,2.08-.23,7.18,7.18,0,0,1,2,.45,9.57,9.57,0,0,1,1.7.88,9.86,9.86,0,0,1,1.51,1.2l-2,.18a3.5,3.5,0,0,1,2.53-1.59,4.73,4.73,0,0,1,1.37,0,5.37,5.37,0,0,1,1.28.38L221,306.31a5.47,5.47,0,0,1,.65-3.1,9,9,0,0,1,1.75-2.3,1.3,1.3,0,0,1,1.59-.15l0,0,4.65,3a1.37,1.37,0,0,1,.64,1.16v0c0,4.88-.12,9.75-.18,14.63s-.12,9.75-.23,14.63h0a1.49,1.49,0,0,1-.72,1.23l-12,7.21-12.06,7.15h0a1.31,1.31,0,0,1-1.36,0q-6.1-3.82-12.15-7.72t-12.11-7.79l0,0a.83.83,0,0,1-.38-.72l.17-7.28.22-7.22C179.58,314.25,179.73,309.48,179.91,304.8Z"/><path class="cls-14" d="M192.34,326.5l-.24-14.72a.64.64,0,0,1,.32-.57l0,0,11.65-6.76a1,1,0,0,1,1,0l.06,0,5.89,3,5.9,3a1.42,1.42,0,0,1,.78,1.19v.1c.13,2.54.17,5.08.14,7.63s-.11,5.09-.27,7.63v.17a.91.91,0,0,1-.56.78c-2.43,1-4.88,2-7.41,2.79a.15.15,0,0,1-.14-.27c2.14-1.57,4.35-3,6.59-4.38l-.57,1c-.27-2.54-.45-5.08-.6-7.62s-.22-5.08-.2-7.62l.79,1.29-5.68-3.37-5.7-3.34h1l-12,6.07.36-.59-.83,14.7a.15.15,0,0,1-.3,0Z"/><path class="cls-14" d="M228.59,310.39a3.42,3.42,0,0,0-2.11.43,4,4,0,0,0-1.46,1.53,8.11,8.11,0,0,0-.5,1c-.12.35-.26.68-.35,1a17.46,17.46,0,0,0-.43,2.18.73.73,0,0,1-.56.61l-.13,0a3.36,3.36,0,0,0-.59.21,2.09,2.09,0,0,0-.5.31.8.8,0,0,0-.32.65,1,1,0,0,1-2,.19l-.05-.22c0-.08-.09-.34-.15-.51a5.43,5.43,0,0,0-.24-.57,4.46,4.46,0,0,0-.73-1.06,6.74,6.74,0,0,0-1.12-.89c-.21-.14-.45-.25-.68-.4s-.49-.24-.74-.38h0a.11.11,0,0,1,0-.19,5,5,0,0,1,1.76-.07,4.86,4.86,0,0,1,1.77.61,4.68,4.68,0,0,1,1.44,1.35,4,4,0,0,1,.71,2l-2,0a2.65,2.65,0,0,1,.48-1.18,3,3,0,0,1,.88-.76,4.09,4.09,0,0,1,.94-.39,5.22,5.22,0,0,1,1-.18l-.68.63a18.81,18.81,0,0,1,.78-2.32c.16-.38.36-.74.54-1.11a8.33,8.33,0,0,1,.72-1,4.83,4.83,0,0,1,2-1.5,3.6,3.6,0,0,1,2.43-.07.1.1,0,0,1,0,.19Z"/><path class="cls-14" d="M192.62,314.6a16.58,16.58,0,0,0-2.72-2.72,9,9,0,0,0-3.17-1.74,6.61,6.61,0,0,0-3.23.19,9.93,9.93,0,0,0-1.65.53c-.58.22-1.12.55-1.82.76h0a.11.11,0,0,1-.13-.07.11.11,0,0,1,0-.07,5.72,5.72,0,0,1,3-3l.53-.22a4.87,4.87,0,0,1,.57-.11,3.78,3.78,0,0,1,1.16,0,10.2,10.2,0,0,1,1.13.21l1.05.37a10.26,10.26,0,0,1,3.32,2.52,14.81,14.81,0,0,1,2.2,3.34.1.1,0,0,1-.17.11Z"/><path class="cls-14" d="M191,330.57a13.16,13.16,0,0,1,1-3.9,6.6,6.6,0,0,1,2.78-3.28,9,9,0,0,1,2.06-.8,4.4,4.4,0,0,1,2.32.09,4.06,4.06,0,0,1,2.87,3.24.11.11,0,0,1-.1.12.11.11,0,0,1-.08,0,6.31,6.31,0,0,0-3.16-1.4,7.6,7.6,0,0,0-3.26.26,5.29,5.29,0,0,0-2.55,2.28,14.53,14.53,0,0,0-1.64,3.46h0a.1.1,0,0,1-.2,0Z"/><path class="cls-14" d="M228.09,329.06a3.8,3.8,0,0,0-1.8.44,4.49,4.49,0,0,0-1.34,1.08c-.39.43-.5,1.05-.94,1.44a4.82,4.82,0,0,1-.69.65,4,4,0,0,1-.93.65h0a.13.13,0,0,1-.17-.06v0a3.33,3.33,0,0,1,.11-2.28,3.87,3.87,0,0,1,1.6-1.6,4.76,4.76,0,0,1,2.11-.83,3.87,3.87,0,0,1,2.14.33.1.1,0,0,1,0,.19Z"/><path class="cls-14" d="M223.74,333.78a12.74,12.74,0,0,0-6.75,0,23.24,23.24,0,0,0-2.95,1.34c-.51.2-1,.46-1.52.69a14.26,14.26,0,0,1-1.67.73h0a.11.11,0,0,1-.13-.14,6.3,6.3,0,0,1,2.32-3,5.49,5.49,0,0,1,1.74-.84,15.27,15.27,0,0,1,1.9-.34,11.13,11.13,0,0,1,3.74.12,11.78,11.78,0,0,1,3.42,1.27.1.1,0,0,1-.08.18Z"/><path class="cls-14" d="M213.7,334.43a8.06,8.06,0,0,1-2.17-.73,7.93,7.93,0,0,1-1.45-.88,7.59,7.59,0,0,1-1.05-1,7,7,0,0,0-1.54-1.27l-.08,0a.08.08,0,0,1,0-.11l0,0a3.42,3.42,0,0,1,2-.07,5.42,5.42,0,0,1,1.83.93,10.35,10.35,0,0,1,2.58,3.1.08.08,0,0,1,0,.11h-.05Z"/><path class="cls-14" d="M207.8,331.38a9.54,9.54,0,0,0-3.65-3.78,5.53,5.53,0,0,0-4.79-.25,12.07,12.07,0,0,0-4.06,2.8,10.89,10.89,0,0,0-2.58,4.39h0a.1.1,0,0,1-.13.07.1.1,0,0,1-.07-.07,6.68,6.68,0,0,1,1.26-5.69,7.27,7.27,0,0,1,2.32-2,13.34,13.34,0,0,1,2.78-1.07,7.51,7.51,0,0,1,3-.19,6.65,6.65,0,0,1,2.78,1.12,9.67,9.67,0,0,1,3.3,4.56.1.1,0,0,1-.18.08Z"/><path class="cls-14" d="M193.5,331a4,4,0,0,0-3.39.5,4.46,4.46,0,0,0-1.09,1.27c-.15.24-.25.52-.37.77l-.27.83a.7.7,0,0,1-1.35-.1l0-.1a5.07,5.07,0,0,0-.83-2.08,6.07,6.07,0,0,0-1.57-1.43,8.91,8.91,0,0,0-2-.93c-.38-.13-.79-.2-1.21-.34a11.19,11.19,0,0,1-1.31-.31h0a.11.11,0,0,1,0-.2,9.3,9.3,0,0,1,1.32-.49,9.8,9.8,0,0,1,1.42-.19,6,6,0,0,1,2.92.69,5.17,5.17,0,0,1,2,2.32,7,7,0,0,1,.69,2.92L187,333.9l.44-.93c.19-.29.35-.6.57-.87a4.87,4.87,0,0,1,1.59-1.38,4.34,4.34,0,0,1,3.93.06.1.1,0,0,1-.07.19Z"/><path class="cls-13" d="M156.54,151.53c3,17.17,6.56,34.1,12.58,50.09a95.76,95.76,0,0,0,5.11,11.74,45,45,0,0,0,7.44,10.39,31.11,31.11,0,0,0,10.49,7.13,30.45,30.45,0,0,0,24.23-.91,30.07,30.07,0,0,0,9.45-7.49A47,47,0,0,0,232.46,212,92.17,92.17,0,0,0,237,200.29a167.92,167.92,0,0,0,5.61-25c1.31-8.52,2.18-17.16,2.79-25.86h0a.25.25,0,0,1,.5,0,119.18,119.18,0,0,1,.92,13.12q.14,6.58-.3,13.18c-.15,2.2-.34,4.39-.58,6.59s-.56,4.38-.91,6.57a103.6,103.6,0,0,1-2.92,13,71.56,71.56,0,0,1-5,12.53,49.36,49.36,0,0,1-7.78,11.27,32.09,32.09,0,0,1-11.32,8,30.73,30.73,0,0,1-13.55,2.06,35.43,35.43,0,0,1-13-3.26,40.85,40.85,0,0,1-10.92-7.57,71.08,71.08,0,0,1-15.26-21.69,81.83,81.83,0,0,1-4.51-12.5q-.88-3.2-1.63-6.42c-.48-2.15-.89-4.32-1.27-6.49s-.69-4.35-1-6.53-.49-4.37-.65-6.56a102,102,0,0,1-.22-13.16.25.25,0,0,1,.5,0Z"/><path class="cls-13" d="M215.89,252.29c-.11-1.95-.11-3.89-.13-5.83s.06-3.89.18-5.84a24.55,24.55,0,0,1,.59-5.86,14.79,14.79,0,0,1,1.11-2.83,8.68,8.68,0,0,1,.84-1.35,3,3,0,0,1,1.3-1.07.16.16,0,0,1,.2.2v0a4.71,4.71,0,0,0-.22,1.36c0,.46,0,.93-.08,1.4q-.06,1.41-.19,2.82a47.5,47.5,0,0,1-1.16,5.59l-2.13,11.39a.15.15,0,0,1-.3,0Z"/><path class="cls-13" d="M191,254.65c-.36-2.13-.69-4.26-1.11-6.37s-.79-4.21-1.22-6.3a63.24,63.24,0,0,1-1.4-6.22,35.92,35.92,0,0,1-.28-6.51.16.16,0,0,1,.17-.15.16.16,0,0,1,.12.06,17.89,17.89,0,0,1,2.93,6,29.26,29.26,0,0,1,.84,6.49q.28,3.25.34,6.5c0,2.17,0,4.33-.09,6.5a.15.15,0,0,1-.3,0Z"/><path class="cls-15" d="M162.13,137.47l-3.7,13.44c-.59,2.22-1.17,4.43-1.71,6.64s-1,4.43-1.59,6.63c-.27,1.1-.59,2.2-.82,3.32l-.41,1.67-.33,1.68-.33,1.7-.31,1.78c-.24,1.18-.48,2.34-.73,3.5a131.87,131.87,0,0,1-3.8,13.7,60.45,60.45,0,0,1-2.73,6.66,46.85,46.85,0,0,1-3.71,6.22,50.68,50.68,0,0,1-9.87,10.72,42.76,42.76,0,0,1-6.13,4.06c-1.07.59-2.19,1.11-3.3,1.61l-1.75.73a4.72,4.72,0,0,1-3.08.08,10.25,10.25,0,0,1-3.7-2.2,26.72,26.72,0,0,1-2.59-2.7,38.88,38.88,0,0,1-4-6l-.07-.12a7.06,7.06,0,0,1-.24-1.25,2.57,2.57,0,0,1,.15-1.36.25.25,0,0,1,.47.13v.06a2.19,2.19,0,0,0,.26.95,8.81,8.81,0,0,0,.53,1l-.07-.12c1.67,1.59,3.39,3.17,5.15,4.57a23.28,23.28,0,0,0,2.67,1.9,6.58,6.58,0,0,0,2.45,1c.31,0,.41-.07.35-.08l1.41-.78q1.44-.84,2.82-1.76c1.85-1.21,3.62-2.54,5.35-3.92s3.4-2.84,5-4.39a63.28,63.28,0,0,0,4.55-4.93c1.43-1.73,2.78-3.54,4.09-5.38a62.61,62.61,0,0,0,3.71-5.75,35,35,0,0,0,4.44-13,28.44,28.44,0,0,0,.21-3.43c0-.57,0-1.14,0-1.71l0-1.79,0-1.8.05-1.8c0-1.2.13-2.4.28-3.59a42.37,42.37,0,0,1,1.48-7c.31-1.15.72-2.27,1.07-3.41s.81-2.24,1.27-3.33a62.9,62.9,0,0,1,3.05-6.43,42.94,42.94,0,0,1,3.86-6,.25.25,0,0,1,.36,0A.26.26,0,0,1,162.13,137.47Z"/><path class="cls-15" d="M107.17,207a7.34,7.34,0,0,1,.92-6,8.42,8.42,0,0,1,1-1.28c.38-.38.74-.68,1.1-1,.72-.63,1.43-1.25,2.15-1.85q2.17-1.8,4.35-3.55c1.45-1.18,2.92-2.32,4.43-3.41,3-2.18,6.23-4.21,8.88-6.85a25.85,25.85,0,0,0,6.15-9.11,14,14,0,0,0,.7-2.52c.15-.83.29-1.81.43-2.71l.84-5.54c.55-3.71,1-7.44,1.73-11.15s1.54-7.4,2.59-11.07c.53-1.83,1.1-3.66,1.8-5.46a28.15,28.15,0,0,1,1.18-2.67,7.63,7.63,0,0,1,1.75-2.43.2.2,0,0,1,.3.25v0a8.83,8.83,0,0,0-.79,2.58c-.18.9-.31,1.83-.44,2.75-.25,1.85-.47,3.7-.69,5.56-.44,3.72-.9,7.45-1.46,11.17s-1.36,7.42-2.2,11.12c-.42,1.85-.86,3.7-1.41,5.54-.29.93-.53,1.81-.93,2.78a16.59,16.59,0,0,1-1.36,2.73,70.2,70.2,0,0,1-7.22,9c-2.53,2.83-4.92,5.87-7.68,8.52a62.08,62.08,0,0,1-9.06,6.93c-.79.52-1.61,1-2.4,1.5-.4.24-.8.49-1.14.72a6.13,6.13,0,0,0-.94.73,7.85,7.85,0,0,0-2.19,4.61v0a.2.2,0,0,1-.39,0Z"/><path class="cls-15" d="M258.88,130.6a9.58,9.58,0,0,1,1.82,2.78q.69,1.48,1.26,3,1.11,3,2,6.1t1.69,6.17c.53,2.06,1.05,4.12,1.52,6.19l1.43,6.19,1.38,6.17.72,3.05c.12.54.24,1,.36,1.37s.29.86.47,1.29a33.53,33.53,0,0,0,2.8,5.19A92.92,92.92,0,0,0,281.8,188c1.35,1.61,2.79,3.15,4.23,4.68s3,3,4.53,4.42,3.15,2.81,4.79,4.13a12.66,12.66,0,0,1,2.45,2.3,7,7,0,0,1,1.38,3.29,6.82,6.82,0,0,1,0,1.81,7,7,0,0,1-.18.89,4.07,4.07,0,0,1-.43.94,27.43,27.43,0,0,1-1.84,2.75,38.08,38.08,0,0,1-4.34,5,15.88,15.88,0,0,1-2.78,2.13,7.63,7.63,0,0,1-1.83.79,4.52,4.52,0,0,1-2.47,0,10.05,10.05,0,0,1-.94-.37l-.76-.32c-.51-.21-1-.44-1.5-.69-1-.47-2-1-2.93-1.54a52,52,0,0,1-10.49-8A59.86,59.86,0,0,1,260.32,200a56.57,56.57,0,0,1-5.9-11.85,51.18,51.18,0,0,1-2.88-13c-.11-1.08-.13-2.28-.19-3.29s-.08-2-.18-3.06-.16-2-.28-3.07-.25-2-.41-3.07a127.61,127.61,0,0,0-6.41-24.28h0a.25.25,0,0,1,.45-.22,76.39,76.39,0,0,1,5.79,11.46,84,84,0,0,1,4,12.29c.25,1.05.46,2.12.7,3.18s.38,2.15.56,3.22.26,2.17.39,3.26.2,2,.36,3a55.67,55.67,0,0,0,3.08,11.67,63.22,63.22,0,0,0,12.64,20.6,55.15,55.15,0,0,0,9.24,7.9c.84.56,1.69,1.13,2.57,1.64.44.26.87.53,1.32.77l1.18.66a2.37,2.37,0,0,0,1.79-.28,13,13,0,0,0,2.43-1.48,31.08,31.08,0,0,0,4.47-4.18,25.19,25.19,0,0,0,1.9-2.38,2.71,2.71,0,0,0,.27-.48,5.14,5.14,0,0,0,.17-.66,5.07,5.07,0,0,0,.07-1.35,4.89,4.89,0,0,0-1-2.53,11.35,11.35,0,0,0-2.15-2.06l-4.87-4.12c-1.62-1.38-3.26-2.74-4.85-4.16s-3.21-2.81-4.8-4.25a73,73,0,0,1-8.92-9.45,30.8,30.8,0,0,1-3.51-5.81,17.74,17.74,0,0,1-.64-1.68c-.18-.6-.35-1.21-.45-1.7-.26-1-.46-2.1-.67-3.14l-1.21-6.27-1.07-6.27-2-12.52c-.36-2.08-.68-4.16-1.09-6.22-.21-1-.41-2.06-.68-3.06a9.86,9.86,0,0,0-1.08-2.84l0,0a.25.25,0,0,1,.38-.32Z"/><path class="cls-15" d="M183.14,120.41a18,18,0,0,1,4.1-3.34l1.15-.68,1.19-.6a25.68,25.68,0,0,1,2.46-1.06,31.26,31.26,0,0,1,5.2-1.37,21.48,21.48,0,0,1,2.68-.33,21,21,0,0,1,2.7-.15,30.58,30.58,0,0,1,10.69,1.22,41.14,41.14,0,0,1,4.91,2.16,32,32,0,0,1,4.4,3.09.21.21,0,0,1-.15.37h0a33.57,33.57,0,0,1-5.2-.81c-1.71-.23-3.34-.6-5-.94-.82-.14-1.64-.29-2.44-.48-.4-.09-.8-.21-1.21-.31l-1.21-.25-2.43-.55c-.82-.12-1.64-.21-2.46-.3a33.88,33.88,0,0,0-9.91.57,23.15,23.15,0,0,0-9.18,4h0a.2.2,0,0,1-.27-.29Z"/><path class="cls-15" d="M179.06,98.16a22.44,22.44,0,0,1,5.12-4l1.42-.81,1.48-.71a31.92,31.92,0,0,1,3-1.24,38.82,38.82,0,0,1,6.39-1.59,26.66,26.66,0,0,1,3.28-.37,25.58,25.58,0,0,1,3.3-.15h3.31l3.3.25c.55.06,1.1.09,1.65.16s1.08.21,1.62.34c1.07.24,2.14.52,3.2.81a60.63,60.63,0,0,1,6.07,2.5,47.6,47.6,0,0,1,5.54,3.53.21.21,0,0,1-.15.37h0A49.53,49.53,0,0,1,221.29,96c-2.09-.36-4.12-.84-6.14-1.28-1-.18-2-.37-3-.61-.5-.11-1-.25-1.5-.37l-1.51-.29-3-.63L203,92.46a42.06,42.06,0,0,0-12.32.84,28.66,28.66,0,0,0-11.33,5.13h0a.2.2,0,0,1-.27-.29Z"/><path class="cls-12" d="M249.39,153.43a115.92,115.92,0,0,0-12.61-9.13A111.1,111.1,0,0,0,223,137.57a37.67,37.67,0,0,0-15.17-3,42.71,42.71,0,0,0-7.73.88,52.12,52.12,0,0,0-7.33,2.07,1.6,1.6,0,0,1-2-.83l0-.09a4.87,4.87,0,0,1-.35-2.63,8.69,8.69,0,0,1,.55-2.11,19.11,19.11,0,0,1,1.84-3.4,33.74,33.74,0,0,1,2.2-2.95c.78-.94,1.56-1.82,2.45-2.73l1.46,3.65a19,19,0,0,0-4.54.69,17.53,17.53,0,0,0-2.16.75,20.17,20.17,0,0,0-2,1.08,18.76,18.76,0,0,0-3.7,2.91,20.57,20.57,0,0,0-2.94,3.71l-.16.26a1.19,1.19,0,0,1-.8.56,18.2,18.2,0,0,1-3.42.36,16.23,16.23,0,0,1-3.36-.32,16.57,16.57,0,0,1-6.09-2.43.2.2,0,0,1,.17-.36h0a21.42,21.42,0,0,0,6.09.86,16.93,16.93,0,0,0,3-.26,15.84,15.84,0,0,0,2.81-.74l-1,.82a19.36,19.36,0,0,1,1.34-2.56,21.14,21.14,0,0,1,1.63-2.31,20.5,20.5,0,0,1,6.67-5.39,19.94,19.94,0,0,1,2.73-1,19.57,19.57,0,0,1,5.75-.81,2.1,2.1,0,0,1,1.46,3.65c-.77.71-1.58,1.53-2.32,2.33s-1.47,1.65-2.12,2.5a15.64,15.64,0,0,0-1.65,2.6,3.46,3.46,0,0,0-.48,2l-2.05-.92a42.22,42.22,0,0,1,8.12-1.08q4-.16,8,0a109.23,109.23,0,0,1,15.95,1.66,37.41,37.41,0,0,1,7.73,2.51,44.68,44.68,0,0,1,7,4.12,43.27,43.27,0,0,1,11.1,11.59.2.2,0,0,1-.3.27Z"/><path class="cls-14" d="M145.46,128.24a7.12,7.12,0,0,0,6.09,2.16,17.69,17.69,0,0,0,6.33-2A88.19,88.19,0,0,0,169,121.36a58.94,58.94,0,0,0,5.21-4.25,23.12,23.12,0,0,0,4.24-5.27,15.29,15.29,0,0,0,2.07-6.32,6.82,6.82,0,0,0-1.8-5.61,7.22,7.22,0,0,0-5.3-1.52,20.12,20.12,0,0,0-6,1.35,32.64,32.64,0,0,0-5.74,2.92,63.35,63.35,0,0,0-5.27,3.85,58.33,58.33,0,0,0-9.06,9.47,17.3,17.3,0,0,0-3,5.9A7.17,7.17,0,0,0,145.46,128.24Zm-.38.32a10.19,10.19,0,0,1-2.08-6.84,22.88,22.88,0,0,1,1.39-7.28,25.53,25.53,0,0,1,3.51-6.57,38.45,38.45,0,0,1,5-5.44,34.88,34.88,0,0,1,13-7.19,20.41,20.41,0,0,1,7.68-.88,10.05,10.05,0,0,1,7.21,3.75,9,9,0,0,1,1.48,3.78,12.65,12.65,0,0,1-.08,3.8,26.62,26.62,0,0,1-2.32,6.86,42.51,42.51,0,0,1-8.17,12,29.21,29.21,0,0,1-5.9,4.38,23.82,23.82,0,0,1-7,2.52,22.37,22.37,0,0,1-7.38.24A10.29,10.29,0,0,1,145.08,128.57Z"/><path class="cls-14" d="M146.34,129.12a33.25,33.25,0,0,1,3.28,2c1,.7,2,1.44,3,2.21l.1.1a7,7,0,0,0,2.7,1.27,13.37,13.37,0,0,0,3.29.27,40.7,40.7,0,0,0,7.49-.82,17,17,0,0,0,7.05-3.6,31.23,31.23,0,0,0,5.24-6,46.3,46.3,0,0,0,4.08-6.46,27.38,27.38,0,0,0,2.34-6.67,8.77,8.77,0,0,0,.09-3.07,2.55,2.55,0,0,0-.16-.69,2.3,2.3,0,0,0-.22-.66l-.14-.31a1.26,1.26,0,0,0-.19-.36l-.59-.83a61.1,61.1,0,0,1-4.29-7.09.26.26,0,0,1,.37-.34,61,61,0,0,1,6.7,5l.78.67a10.19,10.19,0,0,1,.87,1,5.67,5.67,0,0,1,.75,1.12,6.25,6.25,0,0,1,.56,1.21,11.47,11.47,0,0,1,.65,5,18.63,18.63,0,0,1-3.12,8.58,29.73,29.73,0,0,1-5.69,6.56,63.41,63.41,0,0,1-7,4.74c-2.37,1.46-4.68,2.92-7.1,4.45a17.69,17.69,0,0,1-8.25,3.08,13.21,13.21,0,0,1-2.37-.12c-.4-.07-.8-.12-1.2-.21l-1.2-.38a8.86,8.86,0,0,1-4.09-3l.09.1c-.76-1-1.5-2-2.2-3a33.21,33.21,0,0,1-2-3.28.26.26,0,0,1,.35-.35Z"/><path class="cls-14" d="M261,128.57a9.32,9.32,0,0,1-6.4,2.86,23,23,0,0,1-7.24-.56A27.15,27.15,0,0,1,234.81,124a45.43,45.43,0,0,1-8.39-11.49,25.33,25.33,0,0,1-2.56-6.67,12.27,12.27,0,0,1-.16-3.75,8.59,8.59,0,0,1,1.41-3.73,8.37,8.37,0,0,1,3.15-2.72,11.11,11.11,0,0,1,3.9-1.12,18.7,18.7,0,0,1,7.61.94,29,29,0,0,1,6.76,3.17,30.11,30.11,0,0,1,5.75,4.66,42.89,42.89,0,0,1,8.27,11.56,24.85,24.85,0,0,1,2.12,7,10.7,10.7,0,0,1-.09,3.63A7.21,7.21,0,0,1,261,128.57Zm-.38-.32a5.4,5.4,0,0,0,1.24-3,7.16,7.16,0,0,0-.51-3.19,19.25,19.25,0,0,0-3.65-5.45c-1.48-1.65-3-3.23-4.55-4.85s-3.1-3.25-4.65-4.78a32.83,32.83,0,0,0-10.28-7.18,18.12,18.12,0,0,0-5.85-1.39,6.7,6.7,0,0,0-5.13,1.58,6.49,6.49,0,0,0-1.69,5.53,14.65,14.65,0,0,0,2.3,6.11c2.41,3.79,6.11,6.53,9.66,9.08q2.68,1.93,5.4,3.72c1.82,1.19,3.64,2.4,5.56,3.44a18,18,0,0,0,6.15,2.27A6.52,6.52,0,0,0,260.59,128.24Z"/><path class="cls-14" d="M261,128.53a44.23,44.23,0,0,1-2.48,4c-.44.64-.89,1.27-1.34,1.89l-.69.92-.35.46-.39.54A9.29,9.29,0,0,1,251,139.4a10.32,10.32,0,0,1-5.37.09,18.82,18.82,0,0,1-4.63-2c-1.42-.82-2.78-1.6-4.16-2.36-2.73-1.53-5.68-2.78-8.33-4.69a26.41,26.41,0,0,1-3.74-3.13,38.49,38.49,0,0,1-3.19-3.72,25.48,25.48,0,0,1-4.53-8.92,16.3,16.3,0,0,1-.48-2.6,13.37,13.37,0,0,1,0-2.76,9.91,9.91,0,0,1,.67-2.88,7.77,7.77,0,0,1,1.74-2.62,63.73,63.73,0,0,1,7.53-5.68.26.26,0,0,1,.37.34,63.59,63.59,0,0,1-4.92,8c-1,1.6-.63,4.24.21,6.78a40.23,40.23,0,0,0,3.5,7.63,38.45,38.45,0,0,0,2.43,3.6c.87,1.17,1.78,2.32,2.72,3.47a24.36,24.36,0,0,0,6.76,5.9,13.18,13.18,0,0,0,4.26,1.42,23,23,0,0,0,4.32.2c2.73-.08,5.08-.24,7-1.69l.39-.31L254,133l.91-.74c.61-.49,1.22-1,1.85-1.45a44.06,44.06,0,0,1,3.92-2.67.26.26,0,0,1,.36.35Z"/><ellipse class="cls-13" cx="177.45" cy="168.47" rx="2.93" ry="2.83" transform="translate(-49.07 75.95) rotate(-21.3)"/><ellipse class="cls-13" cx="221.81" cy="168.72" rx="2.76" ry="2.73"/><path class="cls-5" d="M53.71,62c0-21.75,17.9-38.85,40-38.85s40.1,20.51,40,38.85a39.78,39.78,0,0,1-40,39.39C71.61,101.43,53.71,83.8,53.71,62Z"/><path class="cls-1" d="M53.56,62a41.64,41.64,0,0,1,2.87-15.23,39.4,39.4,0,0,1,8.48-13.17,38,38,0,0,1,13.14-8.83,39.88,39.88,0,0,1,15.62-2.88A37.83,37.83,0,0,1,109,25.69a42.21,42.21,0,0,1,6.75,4,47.52,47.52,0,0,1,6,5.09,47,47,0,0,1,9,12.69,40.65,40.65,0,0,1,2.71,7.38,31.3,31.3,0,0,1,1,7.85,39.7,39.7,0,0,1-12.07,28.62A41.44,41.44,0,0,1,109,100.09a40.94,40.94,0,0,1-31.36-.38,38.83,38.83,0,0,1-13-9.14A41.6,41.6,0,0,1,53.56,62Zm.3,0A36.2,36.2,0,0,0,57.13,77a38,38,0,0,0,9,12.2A40.81,40.81,0,0,0,93.34,99.83,39.09,39.09,0,0,0,132.79,62.7a31.76,31.76,0,0,0-2.93-14.75,40.72,40.72,0,0,0-8.79-12.44A38.52,38.52,0,0,0,93.68,24.44,42.69,42.69,0,0,0,66.21,35a37.21,37.21,0,0,0-9.08,12.11,35.19,35.19,0,0,0-2.45,7.27A37.57,37.57,0,0,0,53.86,62Z"/><path class="cls-5" d="M96.54,103.94A10.35,10.35,0,0,1,107.08,93.7c5.82,0,10.58,5.41,10.54,10.25a10.54,10.54,0,0,1-21.08,0Z"/><path class="cls-1" d="M96.39,103.94a12.88,12.88,0,0,1,2.62-8,9.57,9.57,0,0,1,8.07-3.5,9.85,9.85,0,0,1,4.3,1.35,14.89,14.89,0,0,1,3.35,2.71,15.4,15.4,0,0,1,2.48,3.44,10.45,10.45,0,0,1,1.24,4.19,10.69,10.69,0,0,1-.61,4.43,11,11,0,0,1-2.46,3.85,11.4,11.4,0,0,1-8.41,3.5,11,11,0,0,1-4.52-1.06A10,10,0,0,1,98.92,112,13.19,13.19,0,0,1,96.39,103.94Zm.3,0a7.76,7.76,0,0,0,1,3.82,8.76,8.76,0,0,0,2.6,2.81,11.84,11.84,0,0,0,3.24,1.61,10.22,10.22,0,0,0,3.44.54,9.91,9.91,0,0,0,6.41-2.35,10.3,10.3,0,0,0,3.36-6.27,8.11,8.11,0,0,0-2.72-6.9,9.12,9.12,0,0,0-7-2.25,14,14,0,0,0-6.75,2.38,8.67,8.67,0,0,0-2.62,2.79A7.53,7.53,0,0,0,96.69,103.94Z"/><path class="cls-5" d="M114.87,121.63a6.13,6.13,0,0,1,6-6.27c3.34,0,6.06,3.31,6,6.27a6,6,0,1,1-12.08,0Z"/><path class="cls-1" d="M114.72,121.63a10,10,0,0,1,1.18-5.06,5.23,5.23,0,0,1,2.13-1.95,5.39,5.39,0,0,1,2.88-.52,5.58,5.58,0,0,1,2.7,1.07,10.54,10.54,0,0,1,1.91,1.86,9.58,9.58,0,0,1,2.26,4.72,6.66,6.66,0,0,1-1.58,5.35,6.79,6.79,0,0,1-5.37,2.48,6.44,6.44,0,0,1-2.93-.8,5.65,5.65,0,0,1-2.07-2.07A10.14,10.14,0,0,1,114.72,121.63Zm.3,0a4.42,4.42,0,0,0,2.28,3.75,7.66,7.66,0,0,0,1.81.77,5.34,5.34,0,0,0,1.76.24,5.12,5.12,0,0,0,3.27-1.24,6.7,6.7,0,0,0,2-3.43,4.34,4.34,0,0,0-1.29-4,4.17,4.17,0,0,0-1.93-1,5,5,0,0,0-2,0,10.38,10.38,0,0,0-3.62,1.28,4.82,4.82,0,0,0-1.62,1.52A4,4,0,0,0,115,121.63Z"/><path class="cls-1" d="M82.55,41.68A13.33,13.33,0,0,1,88.93,38a14.63,14.63,0,0,1,3.74-.47,10.26,10.26,0,0,1,3.81.62,11.64,11.64,0,0,1,3.37,2,21.16,21.16,0,0,1,2.68,2.66,18.46,18.46,0,0,1,2.18,3c.34.52.6,1.08.91,1.64a18.27,18.27,0,0,1,.71,1.78,12,12,0,0,1,.69,3.86,10.94,10.94,0,0,1-.75,4,13.55,13.55,0,0,1-2.06,3.59,16.72,16.72,0,0,1-2.73,2.69,26.53,26.53,0,0,0-4.53,3.85,7.12,7.12,0,0,0-1.29,2.45,33.06,33.06,0,0,1-1,3.39h-.5a23.39,23.39,0,0,1-1-3.46,8.12,8.12,0,0,1,.31-4.15,11.66,11.66,0,0,1,2.06-3.55,22,22,0,0,1,2.58-2.63A19.63,19.63,0,0,0,102,55.12,12.4,12.4,0,0,0,103,52.57a14.08,14.08,0,0,0,.59-3A6.54,6.54,0,0,0,101.4,44a6.31,6.31,0,0,0-2.83-1.36,18.62,18.62,0,0,0-3-.38c-.5,0-1-.08-1.48-.1s-1-.09-1.49-.13c-1-.08-2.05-.11-3.09-.12-2.08,0-4.24.21-6.71.26Z"/><path class="cls-1" d="M95.13,79a6.07,6.07,0,0,1,2.34,1.49,3.53,3.53,0,0,1,1,3,4.48,4.48,0,0,1-1.83,2.91,4.8,4.8,0,0,1-3.57.79,5.35,5.35,0,0,1-3.34-2.05,4.38,4.38,0,0,1-.62-4A3.72,3.72,0,0,1,92,78.68,6.39,6.39,0,0,1,95.13,79Zm-.1.39a1.81,1.81,0,0,0-1.92,1.09,3,3,0,0,0-.14,1.6c0,.32.07.59.15,1a1.35,1.35,0,0,0,.72,1A2.14,2.14,0,0,0,96.54,83a2.91,2.91,0,0,0,.22-2A2.11,2.11,0,0,0,95,79.43Z"/><path class="cls-14" d="M166.53,293.19c-.2,2.8-.58,5.53-1,8.26-.19,1.37-.45,2.71-.67,4.07s-.52,2.7-.84,4c-.68,2.67-1.58,5.32-2.06,8-.24,1.36-.4,2.73-.53,4.1s-.13,2.76-.16,4.15,0,2.77,0,4.15l-.13,4.13-.12,4.12c0,1.37-.07,2.75-.15,4.12-.2,2.74-.34,5.48-.6,8.23s-.45,5.5-.93,8.28H159a78,78,0,0,1-1.36-16.65c0-2.78.34-5.56.64-8.32a76.29,76.29,0,0,1,1.34-8.24c.29-1.36.57-2.73.78-4.1s.45-2.73.58-4.11c.31-2.75.25-5.57.56-8.34a32.33,32.33,0,0,1,.69-4.11c.28-1.36.63-2.71,1-4.05a43.19,43.19,0,0,1,3-7.84Z"/><path class="cls-14" d="M175,259.81c-6,5.76-10.89,12.33-15.54,19.08-.29.42-.61.83-.92,1.24l-.85,1.29L156,284a44,44,0,0,0-3.08,5.38c-.45.93-.94,1.85-1.35,2.8s-.74,1.93-1.08,2.91-.69,2-1,2.94c-.16.49-.33,1-.48,1.48L148.6,301c-.49,2-.94,4-1.46,6s-.81,4-1.24,6.06-.87,4-1.09,6.07-.61,4.07-.93,6.1-.5,4.09-.79,6.13-.51,4.1-.8,6.15c-.34,4.12-.7,8.25-1.27,12.41h-.3c-.4-4.16-.69-8.35-.78-12.55.06-2.09.16-4.19.27-6.29,0-1.05.12-2.1.19-3.15,0-.52.06-1.05.12-1.57l.21-1.56a97.67,97.67,0,0,1,2.42-12.38l.8-3.05a30.29,30.29,0,0,1,.89-3c.71-2,1.49-3.94,2.23-5.9l.56-1.47.65-1.43q.65-1.43,1.26-2.88c.42-1,.79-1.93,1.19-2.9L152,289c.86-1.9,1.57-3.89,2.51-5.77l1.34-2.86q.34-.72.69-1.42c.27-.46.52-.92.79-1.37a43.14,43.14,0,0,1,3.52-5.27l2-2.5,2.14-2.34a40,40,0,0,1,9.87-7.89Z"/><path class="cls-14" d="M231.1,254.53A83.53,83.53,0,0,1,243,265.44a85.1,85.1,0,0,1,9.8,12.86,100,100,0,0,1,7,14.59,70.94,70.94,0,0,1,4.42,15.55,36.81,36.81,0,0,1,.3,8.21,22.33,22.33,0,0,1-.68,4.17,9.36,9.36,0,0,1-2.14,4.13,5,5,0,0,1-2.39,1.38,5.71,5.71,0,0,1-2.67,0,12.28,12.28,0,0,1-4.11-2,36.1,36.1,0,0,1-6.08-5.72A100,100,0,0,1,237,305.4a134.38,134.38,0,0,1-7.54-14.23l.26-.15c3.05,4.4,6.12,8.77,9.24,13.07s6.32,8.53,9.82,12.41a39.67,39.67,0,0,0,5.52,5.29,9.44,9.44,0,0,0,3,1.61,2.27,2.27,0,0,0,2.35-.47,6.92,6.92,0,0,0,1.58-2.87,23.76,23.76,0,0,0,.83-3.69,39.45,39.45,0,0,0,.45-7.78,42.74,42.74,0,0,0-3.66-15.33,77.64,77.64,0,0,0-8.17-13.6c-3-4.32-6.17-8.57-9.48-12.71s-6.76-8.18-10.3-12.2Z"/><path class="cls-14" d="M243.87,284.35a22.62,22.62,0,0,1,3.47,3.45,39.26,39.26,0,0,1,2.79,3.84,43.75,43.75,0,0,1,2.33,4.11q.52,1.06,1,2.16a14.35,14.35,0,0,0,1,2.17,3,3,0,0,1-1.19-.53c-.36-.23-.68-.5-1-.76a18.5,18.5,0,0,1-1.77-1.71,28.22,28.22,0,0,1-2.91-3.83,31.41,31.41,0,0,1-2.26-4.22A20.14,20.14,0,0,1,243.87,284.35Z"/></g><g id="hand_color"><path class="cls-14" d="M237.86,273.26c1.8-.33,5.33-1.8,7.75,3.32,1.86,3.95-2.05,9.64-8.66,12.67s-13.43,2.27-15.25-1.7a6.25,6.25,0,0,1,2.61-8.07"/><path class="cls-3" d="M237.86,273.26c1.8-.33,5.33-1.8,7.75,3.32,1.86,3.95-2.05,9.64-8.66,12.67s-13.43,2.27-15.25-1.7a6.5,6.5,0,0,1,2.82-8.18"/><path class="cls-6" d="M226.78,283.37s-4.88-11.31-8.47-15.3L212.89,270s-2.87,1.18-4.29.46-10.55-3.8-10.55-3.8-3.35-1.38-4.69-3.94a43.56,43.56,0,0,0-3.55-5.39,11.15,11.15,0,0,1-2.32-6.53,9,9,0,0,0-1.11-4.45c-1.31-2.74-.43-6.9-.43-6.9a4.19,4.19,0,0,0-1.67-3.07c-1.71-1.41-5-2.91-4.1-8.79,1-6.37,20.68-.16,20.68-.16s8.11,1.65,9.46,1.52,7.39-.83,8.83-5.15,3.5-14,11.37-15.6,9.36,3.28,9.36,3.28-.83,2.84-7.29,7.48l-.78.83-2.52,3.74-1.23,3,1.73,6a29.73,29.73,0,0,1,2,7.12,22.69,22.69,0,0,1-1.07,8.44,19.29,19.29,0,0,0-.4,8.31A39.81,39.81,0,0,0,233.2,264c1.85,3.71,4.25,8.64,4.25,8.64l2.09,4.38A13.25,13.25,0,0,1,227,283.89l-.14-.32"/></g><g id="hand_shadow"><path class="cls-10" d="M230.67,291.17c-4.09-1.86-4.69-7.23-4.69-7.23l1.54.1,3.81-.71,2.3-.85,2.19-.91,1.69-1.76,1.62-2.1.48-.57c5.21-1.68,6.22.22,6.22.22,1.21,1.95-.67,8.5-8.65,11.87-1.83.77-1.3.83-5.78,1.78Z"/><path class="cls-9" d="M238.29,209.6c-1,.67-11.51,2.94-15.24,18.85A35,35,0,0,0,222,241.68c.68,5.49-2.39,14-9.83,20.58-2.55,2.26-10.21,3.57-18.15,1.44l4.56,3.37s10.81,3.75,10.93,3.71,1.51.13,8.34-2.5l.58-.08a59.8,59.8,0,0,1,8.26,14.89s0,.94,1.24.75,3.67.07,6.59-2,5.27-4,4.94-5-4.54-9.57-4.54-9.57-3.36-7.27-3.62-7.72-2.26-6.16-1-10.5,2.13-4.48,1.37-10.11a32,32,0,0,0-3.08-9.91l-.59-2.65.78-1.79,3.15-5.16,2.26-1.65,2.93-2.62,2.09-2.51.65-1.36Z"/></g><g id="hand_line"><path class="cls-13" d="M198,247.75a14,14,0,0,0,1.94.23c.64,0,1.26.06,1.87.06s1.24-.3,1.8,0a3.73,3.73,0,0,1,.87.49,4.45,4.45,0,0,1,.94.9h0a.24.24,0,0,1,0,.29,3.17,3.17,0,0,1-2.08,1.3c-.74.17-1.4-.34-2-.6a10.21,10.21,0,0,1-1.88-1,8.63,8.63,0,0,1-1.59-1.39.16.16,0,0,1,.15-.26Z"/><path class="cls-13" d="M200.62,257.9c.4-.12.77-.19,1.14-.33l1-.33c.33-.11.6-.51.89-.31a4,4,0,0,1,1.16,1.17h0a.37.37,0,0,1,.07.28,2.26,2.26,0,0,1-.39,1,1.54,1.54,0,0,1-.58.52c-.43.26-.88-.13-1.28-.28a5.11,5.11,0,0,1-1.15-.59,5.55,5.55,0,0,1-1-.86.17.17,0,0,1,0-.24l.06,0Z"/><path class="cls-13" d="M185.29,228.57a3.81,3.81,0,0,0,0,1.15,6.21,6.21,0,0,0,.2,1c.1.34.41.6.34.95a2.32,2.32,0,0,1-.14.58,3,3,0,0,1-.35.74h0a.17.17,0,0,1-.18.07,1.83,1.83,0,0,1-1.27-.91c-.26-.42-.07-.94,0-1.39a4.22,4.22,0,0,1,.42-1.31,3.25,3.25,0,0,1,.85-1,.1.1,0,0,1,.16.1Z"/><path class="cls-13" d="M232,219.77c-.47,1.22-1,2.39-1.51,3.55l-.74,1.72c-.12.28-.22.56-.32.84a4.28,4.28,0,0,0-.18.67c0-.08.06.2.13.45l.28.84.61,1.76c.43,1.18.83,2.38,1.18,3.6.08.29.18.65.23.88a9.71,9.71,0,0,1,.27,1,17.75,17.75,0,0,1,.3,2,32.69,32.69,0,0,1,.12,4,34.24,34.24,0,0,1-.29,3.91c0,.33-.11.65-.16,1a8.7,8.7,0,0,1-.18,1l-.21,1-.17.9a20.09,20.09,0,0,0,.35,7.12,21.16,21.16,0,0,0,1.09,3.38c.24.56.46,1,.74,1.58l.83,1.73a96.65,96.65,0,0,1,5.37,14.45.15.15,0,0,1-.27.13,96.21,96.21,0,0,1-8-13.14c-2.54-4.52-3.79-10.6-1.73-15.69l.74-1.8a11.79,11.79,0,0,0,.56-1.77,13.08,13.08,0,0,0,.32-3.71,13.37,13.37,0,0,0-.77-3.63,16.73,16.73,0,0,0-.7-1.69c-.14-.27-.25-.53-.4-.79s-.3-.6-.43-.91a28.91,28.91,0,0,1-1.36-3.62c-.2-.62-.37-1.25-.53-1.9-.08-.32-.14-.66-.21-1a3.53,3.53,0,0,1,0-1.44,4.8,4.8,0,0,1,.47-1.12c.17-.3.35-.6.53-.88a18.69,18.69,0,0,1,1.16-1.6,25,25,0,0,1,2.63-2.9.15.15,0,0,1,.22,0A.16.16,0,0,1,232,219.77Z"/><path class="cls-13" d="M226.87,283.95l-2.15-4q-1.08-2-2.24-3.92c-.75-1.3-1.53-2.58-2.34-3.81a25.28,25.28,0,0,0-2.6-3.46l1.14.29c-1.59.63-3.18,1.23-4.78,1.83l-.59.22-.67.25a12,12,0,0,1-1.38.39,7.55,7.55,0,0,1-1.53.19,4.4,4.4,0,0,1-.89-.08,2.94,2.94,0,0,1-.49-.13l-.41-.17c-.65-.28-1.51-.59-2.29-.87l-2.41-.84-4.84-1.68-.61-.21-.18-.06-.15-.06-.09,0-.33-.16c-.43-.22-.83-.46-1.23-.71a11.84,11.84,0,0,1-2.22-1.83,7.45,7.45,0,0,1-.92-1.19c-.14-.21-.26-.45-.38-.67l-.27-.55c-.37-.73-.79-1.45-1.22-2.17s-.9-1.42-1.37-2.12l-.35-.51c-.12-.16-.28-.39-.4-.58a11,11,0,0,1-.67-1.22,12.19,12.19,0,0,1-1.17-5.31v-.09a7.08,7.08,0,0,0-.36-2.61,12.12,12.12,0,0,0-.48-1.31,10.23,10.23,0,0,1-.52-1.45,11.74,11.74,0,0,1-.31-3,19.6,19.6,0,0,1,.3-3v.08a3.56,3.56,0,0,0-.69-1.82,5.88,5.88,0,0,0-1.56-1.41,8.9,8.9,0,0,1-3.23-3.5,9.23,9.23,0,0,1-.63-4.79,4.15,4.15,0,0,1,.27-1.32,3.47,3.47,0,0,1,.83-1.2,5.59,5.59,0,0,1,2.35-1.25,16.75,16.75,0,0,1,4.79-.47,37.31,37.31,0,0,1,4.64.44,68.47,68.47,0,0,1,9,2l-.14,0c2.09.39,4.21.76,6.29,1.07l1.55.21.74.07.33,0h.19a15.86,15.86,0,0,0,2.87-.6,7,7,0,0,0,4.22-2.85,19,19,0,0,0,.94-2.71c.33-1,.68-2.08,1.07-3.12a25.38,25.38,0,0,1,3.13-6.07,13,13,0,0,1,5.53-4.49,12.54,12.54,0,0,1,3.47-.81,12.94,12.94,0,0,1,3.53.06,7,7,0,0,1,5.75,4.38v0a.72.72,0,0,1,0,.49,5.19,5.19,0,0,1-.52,1c-.18.28-.37.54-.57.8a17.44,17.44,0,0,1-1.26,1.42,23.56,23.56,0,0,1-2.8,2.42c-1,.74-2,1.41-3,2.07s-2,1.32-3,2h0a.15.15,0,0,1-.19-.23c.89-.83,1.8-1.61,2.73-2.39s1.85-1.53,2.7-2.35a32.23,32.23,0,0,0,2.43-2.54,15.87,15.87,0,0,0,1-1.37c.15-.24.29-.47.42-.71a4.05,4.05,0,0,0,.27-.62v.52a3.9,3.9,0,0,0-.7-1,4.47,4.47,0,0,0-1-.82,6.32,6.32,0,0,0-2.59-.78A12.28,12.28,0,0,0,229,210a10.21,10.21,0,0,0-4.17,3.73,23.51,23.51,0,0,0-2.61,5.43c-.34,1-.65,2-.95,3l-.48,1.55a8.91,8.91,0,0,1-.74,1.79,8.16,8.16,0,0,1-2.76,2.84,12.25,12.25,0,0,1-3.35,1.46,18.92,18.92,0,0,1-3.45.62c-.14,0-.41,0-.61,0l-.47,0-.86-.11-1.64-.26c-2.15-.38-4.26-.81-6.38-1.27h0l-.13,0a84.29,84.29,0,0,0-8.59-2.26c-1.45-.29-2.91-.5-4.35-.66a14.94,14.94,0,0,0-4.22.08,4,4,0,0,0-1.69.71,1.84,1.84,0,0,0-.49.61,2.69,2.69,0,0,0-.23.88,7.92,7.92,0,0,0,.25,4.12,7.33,7.33,0,0,0,2.72,3.17,7.62,7.62,0,0,1,1.73,1.67,4.39,4.39,0,0,1,.83,2.38.26.26,0,0,1,0,.06v0a12.94,12.94,0,0,0,0,5.56,6.89,6.89,0,0,0,.51,1.27,13.15,13.15,0,0,1,.59,1.4,8.82,8.82,0,0,1,.58,3.1v-.09a10.71,10.71,0,0,0,1.41,4.56,9.23,9.23,0,0,0,.65,1c.12.16.22.28.37.45l.42.52c.55.68,1.08,1.37,1.59,2.08s1,1.44,1.48,2.2l.35.58c.1.15.18.29.29.43a7.16,7.16,0,0,0,.71.8,10,10,0,0,0,3.87,2.28c1.63.55,3.26,1.09,4.87,1.69l2.43.9c.83.32,1.58.59,2.5,1l.18.08s.09,0,.13,0a1.86,1.86,0,0,0,.39,0,5.1,5.1,0,0,0,1-.08,9.52,9.52,0,0,0,1.11-.26l1.17-.39c1.64-.54,3.27-1.08,4.92-1.59l.08,0a1,1,0,0,1,1.06.31,25.37,25.37,0,0,1,2.58,3.94c.74,1.35,1.42,2.71,2.06,4.09,1.23,2.78,2.42,5.56,3.41,8.43a.15.15,0,0,1-.09.19A.15.15,0,0,1,226.87,283.95Z"/><path class="cls-14" d="M238.22,273a7.06,7.06,0,0,1,3.36-1,5.12,5.12,0,0,1,3.52,1.62,9.68,9.68,0,0,1,1.16,1.47l.45.78a6,6,0,0,1,.41.93,6.1,6.1,0,0,1-.06,4,8.9,8.9,0,0,1-2,3.07,25.62,25.62,0,0,1-2.55,2.3,49.89,49.89,0,0,1-5.47,3.92,16.25,16.25,0,0,1-6.5,2.37,11.32,11.32,0,0,1-7.26-1.07,6.54,6.54,0,0,1-2.78-3,6.75,6.75,0,0,1-.43-3.93,7,7,0,0,1,4.46-5.34.15.15,0,0,1,.2.09.16.16,0,0,1,0,.16,7.18,7.18,0,0,0-2.34,5.3,4.84,4.84,0,0,0,.67,2.43,4.52,4.52,0,0,0,1.79,1.52,11.88,11.88,0,0,0,5.47,1,22.27,22.27,0,0,0,3-.34,25.42,25.42,0,0,0,3.06-.68,12.43,12.43,0,0,0,5.47-3.15,10.69,10.69,0,0,0,2.7-5.35,5.72,5.72,0,0,0,0-2.49,3.17,3.17,0,0,0-.2-.58l-.3-.67a10.82,10.82,0,0,0-.71-1.21,3.83,3.83,0,0,0-2-1.58,11.2,11.2,0,0,0-3.1-.24.15.15,0,0,1-.06-.29Z"/><path class="cls-14" d="M226,283.74a17.12,17.12,0,0,0,3.79-.86,14.63,14.63,0,0,0,3.34-1.63c1-.67,1.79-1.65,2.83-2.27a24.35,24.35,0,0,1,3.48-1.91h0a.17.17,0,0,1,.23.09.18.18,0,0,1,0,.07,5.28,5.28,0,0,1-.56,2.19,7.5,7.5,0,0,1-1.2,1.82,8.72,8.72,0,0,1-3.72,2.16,16.21,16.21,0,0,1-2,.66,15.38,15.38,0,0,1-2.1.3A14.64,14.64,0,0,1,226,284a.15.15,0,0,1,0-.3Z"/></g></svg>