<svg xmlns="http://www.w3.org/2000/svg" viewBox="0 0 400 400"><defs><style>.cls-1{fill:#66d0fc;}.cls-2{fill:#724644;}.cls-3{fill:#6a7484;}.cls-4{fill:#059cdb;}.cls-5{fill:#effaff;}.cls-6{fill:#e3a785;}.cls-7{fill:#4c2b28;}.cls-13,.cls-8,.cls-9{fill:#6b3434;}.cls-8{stroke:#6b3434;stroke-linecap:round;stroke-linejoin:round;}.cls-10,.cls-8,.cls-9{opacity:0.5;}.cls-10,.cls-14{fill:#2f333b;}.cls-11{fill:#7f4f4f;}.cls-12{fill:#3e2420;}.cls-15{fill:#2b1816;}</style></defs><title>tip_med</title><g id="circle"><circle class="cls-1" cx="205.07" cy="245.99" r="114.95"/></g><g id="color"><path class="cls-2" d="M268.58,196.2s4.17,41.5-8.33,65.67c0,0-6.42-2.93-8.1-1.94s-5.56,2.44-13.23,2.61l-6.56.15-3.66-11.31-1.36-12.25-7.54-2.41-1.36-.84-29-1.15-8,13.71-5.76,13.3-6.47,3.12c-20,2.5-20.52-1-20.52-1-14.28-33.5-8.74-68-8.74-68l2.76-13,11.93-43.55,16.23-5.65,75.37.52,11.31,4.82Z"/><path class="cls-3" d="M176.91,250.35l-9.37,12.58-12.1,16s-12.74,16-17.28,21.57-19.65-3.15-19.65-3.15l-3.19-1.87-1.14-.89-4.29,1.13-8.68,8.57c18.25,14.27,26.3,14.24,33.68,14.62s14-7.45,14-7.45L160.21,300h0l-2.27,8.31-1.36,7.26-1,6.76s-.59,6.15-.84,6.73-.61,6.31-.61,6.31l-.31,6.34-.36,4.75v2.33a116.37,116.37,0,0,0,106.78-2l7.07-4.38-.11-9.42-.53-8.26-2.56-17-2.69-10.33-4.5-12.09L252.7,277l-4.47-7.17-6.5-8.21-2.82-2.92-3.5-3.43-2.21-1.38-.37-.25-.28,0-.22-1.91,0-2.12-.22-1.56.28-1.91-.19-2.75-.94-3.47-1.58-2L225.74,235l-3.64-1.89-2.34-.69-1.73-.55-.69,7.75.7.34.78.58,2.37,2.84a18.8,18.8,0,0,1,.78,2.87,14.07,14.07,0,0,0-.39,2L218.73,251l-3,1.36-3.62.84-3.94-.08-2.86-.44-4-.36S196.1,250,196,249.93l-3.16-2.06L190,245.21s-1.11-2.8-1.16-2.84.75-3,.75-3l1.55-1.84.42-.25.83-.36-.65-4.73-2.29.5-1.77.37-3,1.12-2.5,1.17-2.5,2.08s-1.75,2.58-2,3.08-.75,7.58-.75,7.58l0,2.06Z"/><path class="cls-4" d="M230.33,303.53l-1.31,5-4.19,4.12-5.75-3.37-1.21-2.23-.12-3.29-11.58-6.33-11.83,6.42-.25,4.87-12.71-1.92.08-10,14.44-8.37h0c2.81.87,2.56,6.19,2.56,6.19h0c2.17-.9,3.94,1.31,3.94,1.31h0a9,9,0,0,1,5.35-4.21c5.5-.5,6.52,5.08,6.52,5.08h0a6.6,6.6,0,0,1,6,2.06h0a3,3,0,0,1,3.56-.69h0c-.42-2,2-4.25,2-4.25l4.62,3-.12,6.54"/><path class="cls-1" d="M230,322.07l.37-19.62-1-.17s-1,.17-1.12.17a13.22,13.22,0,0,0-1.33.67l-1.21,1.5-.46,1.12-.58,1.62-.25,1.08-1.29.42-.62.54-.42.87-.67-1.71-1-1-1.21-.71-1.08-.25-.46,0,.29,12.46-6.83,3.58-.46,1.21,4.46,7.17s4.42-1.75,4.62-1.79,9.33-4.92,9.42-5S230,322.07,230,322.07Z"/><path class="cls-1" d="M194,319.15l.22-12.34-.41-.75-1.12-1.5-1.16-1.19-1.69-1.28-1.16-.53-1.37-.47h-1.28l-1.37.28-1.25.56-1,.72-1.06,1v20.53s6.91,3.94,7,3.94,7.81-.84,7.81-.84-.66-5.87-.69-6S194,319.15,194,319.15Z"/><polyline class="cls-5" points="229.96 326.24 230.04 321.07 228.46 320.91 226.84 321.41 225.59 322.37 224.59 323.74 223.96 324.82 223.84 325.37 222.92 325.07 221.09 324.91 219.17 324.91 217.21 325.32 215.67 325.91 215.13 326.28 214.54 325.32 213.29 324.07 212.29 323.2 211.25 322.62 210.04 322.37 209.09 322.41 208.84 322.49 208.21 321.53 207.13 320.28 206.17 319.41 204.5 318.53 203.42 318.32 203.29 317.78 202.38 316.87 201.67 316.28 200.75 315.74 199.13 315.62 197.5 315.78 196.21 316.32 195.25 317.03 194.42 318.07 193.84 319.07 193.13 320.7 192.67 322.24 192.63 322.87 192 322.87 190.79 323.66 190.04 324.57 189.34 325.74 189.25 326.2 188.75 324.49 188.04 323.07 186.84 322.03 185.54 321.28 183.92 321.03 182.96 320.95 181.88 320.99 181.42 320.99 181.46 325.62 205.96 340.74 229.96 326.24"/><path class="cls-6" d="M247.22,141.46l-.8-5.6-5.5-21.67-18.5-4.83-29.67-2.17-24.5,6.5s-9.17,12.83-10.17,14-.25,15.92-.25,15.92,2.81,59.33,30.77,77.6L192,237.27v0l-.69.19-1.67,1.89-.75,3,1.23,3L193,248H193l2.67,2,5.53,2.31,8.59.87,4.37-.44,3.37-1.25,2.31-1.56,1.69-1.7.39-2-.73-2.8-2.42-2.92L218,240a66.08,66.08,0,0,1,2.81-17.11C250.06,206.74,247.22,141.46,247.22,141.46Z"/><path class="cls-2" d="M171.33,125.87A18.34,18.34,0,0,0,183.71,127s4.87-10.62,16.75-10.62c0,0-8.25,7.87-6.62,11.62,0,0,32.25-10.75,57.25,17.37l6.37-1.25L251,123l-23.62-15.5-29.12-5L182.83,106l-12.62,14.75Z"/><path class="cls-7" d="M260.25,122.85c3.12,3.25,6.9,27.85,10,40.59,2.67,11.11,23.91,28.66,27,31.16a6.13,6.13,0,0,1,2.4,6.83c-.44,1.44-8.52,11.85-12.49,10-18.88-8.66-30.9-29.41-31.89-47.09s-9.42-34-9.42-34L243,125l-18.87-13.41c-26.8-12-39.25,1-39.25,1l-15.62,8.87-5.75,7.94s-8.94,17.32-9.93,35-13,38.44-31.89,47.09c-4,1.82-12.06-9.09-12.06-9.09l-.66-3.41a7.47,7.47,0,0,1,2.62-6.37c3.12-2.5,25.37-17.37,28.37-29.25s5.85-37.54,9-40.79l.13-.17L164.21,99l16.54-8.62s15.38-16,48.5-1.26l8.33,4.64,22.67,29.1"/><path class="cls-3" d="M219.75,101.2c-15.76-10.27-30.08,0-30.08,0l-1.87,1.33L186.5,96s17.5-10.5,35.5.42l1.46.87-2.37,4.75Z"/><path class="cls-3" d="M181.15,90.3l6.31,6.91c4.34,5.1.13,15.81-9.4,23.92s-20.78,10.56-25.12,5.46l-5.23-5.24-.9-.89c-4.34-5.1-.13-15.81,9.4-23.92S177,86,181.33,91.09Z"/><path class="cls-3" d="M262.33,120.48c4.34-5.1-1.21-13.67-10-22.86S232.15,86,227.81,91.09l.4-.72-6.31,6.91c-4.34,5.1,1.68,18.63,12.12,26.28,8.87,6.5,18.05,8.21,22.4,3.11Z"/><ellipse class="cls-1" cx="164.07" cy="105.78" rx="22.66" ry="12.12" transform="translate(-29.43 131.6) rotate(-40.41)"/><path class="cls-1" d="M262.33,120.48c-4.34,5.1-15.59,1.65-25.12-6.46s-13.74-17.83-9.4-22.92,15.87-2.52,24.52,6.53S266.67,115.38,262.33,120.48Z"/><path class="cls-5" d="M193.62,172.58l-.32-1.72s-1.67-6.08-3-7.42-1.5-3.79-9.92-4.92c0,0-3.21-.62-8.79,2.37l-1.42.5.17,1.62s1.5,6.79,4.17,9,7.33,3.08,7.33,3.08S186.62,175.67,193.62,172.58Z"/><path class="cls-5" d="M215,171.4l.3-1.59s1.68-6.05,3-7.38,1.52-3.77,10-4.89c0,0,3.24-.62,8.89,2.36l2,.6L238.5,162s-1.84,5.91-4.54,8.15a30.07,30.07,0,0,1-7.08,3.91S222.07,174.46,215,171.4Z"/></g><g id="shadow"><path class="cls-8" d="M191.77,234.92S208.5,249,217.5,237l.67-1s1.58-9.42,1.67-10.17.42-2.83.42-2.83l-5.17,2.17-10.83,1.17-8.58-1.58-5.75-2.92-1.15-.54,1.06,3.46,1.42,8.5Z"/><path class="cls-9" d="M191.74,236.89s1.06,9.78,1,10.41-.69,0-.69,0l-2-2.12s-.87-2.56-.87-2.66.06-2,.09-2.28a10.61,10.61,0,0,1,.72-1.62Z"/><path class="cls-10" d="M177.25,257.61s3,19,25.25,25.58c22.5,6.67,26.31,3.86,30.42,2a31.9,31.9,0,0,0,6-3.73c3.71-2.84,10.73-9.36,10.73-9.36l-1.42-2.28c-.67-1.08-3.09-4.18-3.09-4.18l-2.34-2.83s-3.55-3.7-3.67-3.9-2.93-2.71-2.93-2.71l-1.95-1.67L232.5,253l-.33,3.08-.92,3.92-1.92,4.17-1.79,2.46-1.83,2-5,3.54L215.25,274l-8.37.37-5.25-.54-5.87-1.71-7.92-3.83s-8.08-7.37-8.29-7.62S177.25,257.61,177.25,257.61Z"/><path class="cls-10" d="M242,117.7s3.5,8.67,0,10.33c0,0,2.46,1,2.71,1.08s5.25.31,5.25.31l4-.69a42.55,42.55,0,0,1,3.31-2.81,33.16,33.16,0,0,0,2.94-3.37l.31-.47-2,.53-2.19.25a12.73,12.73,0,0,1-3.22-.28C252.21,122.24,242,117.7,242,117.7Z"/><path class="cls-10" d="M157.42,122.86s7.92,2.08,9.33,4.92l2.83-1L173,124.9l3.87-2.67,5-4.92s4.87-7.12,5.17-7.46,1.37-3.71,1.67-4.29-.17-4.08-.08-4.37a21,21,0,0,0-.62-3.83,27.18,27.18,0,0,0-2.25-2.21l-2.37-2.08-1.33-1,.62,1.87A11.58,11.58,0,0,1,183,97.4c-.25,1-1.21,7.58-4.83,10.79s-6.5,8.17-11.83,10.92A52.51,52.51,0,0,1,157.42,122.86Z"/><path class="cls-10" d="M224.06,256.24s5.71,1.85,8.12-.65l.25-4.33-.23-2.44-.35-.67-1.12,2.19-1.42,1.81L227.15,254l-2.29,1.69Z"/><path class="cls-9" d="M196.71,192.26c-.1.85,1.24,2.31,2.83,3.47a11.92,11.92,0,0,0,8.21,2.33c10.21-.49,6.3-8.94,5.79-9.08a3.15,3.15,0,0,0-1.87.5,32.77,32.77,0,0,1-2.9,1.56,7,7,0,0,1-5.62.14s-3-.94-4.4-.6A2.76,2.76,0,0,0,196.71,192.26Z"/><path class="cls-9" d="M244.21,138.78s.22,9.11-.25,17.83c-.49,9.19-8.61,39.89-16.86,52.58-6.85,10.53-14.37,14.42-24.67,17.22l10.3-.05,7.91-3.39,5.27-3.64,5.92-6.49,5.65-9.9L242,190.13l4.23-23.48,1.06-19.91-.07-5.28L245,139.34Z"/><path class="cls-9" d="M221.92,245.82l-.5-2.26-1.67-2.1-.93-.92L218,240l-.22,1.36-.12,1.57-.08,1.48s5.28,1.87,2.38,5.92l.16.26Z"/><path class="cls-10" d="M221.85,247.57s7.51.77,6.84,5l1.86-2.25,1.67-3.3.32-4.29-1.4-3.25-3.35-3.37-3.38-2-2.32-1.09-3.16-.94-.64,3.89L218,240l1.21.9,1.17,1.37,1.23,1.79.38,2Z"/><line class="cls-6" x1="189.53" y1="239.53" x2="190.27" y2="238.64"/><path class="cls-10" d="M189.53,239.68s-1.05-4.31-8-3.73c0-.18,1.56-.94,1.56-.94l2.9-1.28,2.56-.81,2.55-.61.42,2.09.48,2.83-.52.15-.93.8Z"/><path class="cls-11" d="M242.55,128.58A17.73,17.73,0,0,1,244.68,139l-2.28-1.87-9.09-5.54-7.79-3.06L219.39,127l-7-.87-6.78,0-6.21.67-5.42,1-.14-2.18,2.63-4.71,3.46-4v-1l-6.26,1.71-4.6,2.73-2.83,2.79-2.53,3.8-4.16.61-3.88-.34-3.67-1.1-.67-.3,4.44-2.92,6.14-5.63,5.1-6.61,3.53-2,6.91-1.75,7-.59,12.75,2.51,4.31,1.52,1.47.28,1.81,3.12,4.82,6,5.46,4.57,6.55,3.62Z"/><path class="cls-10" d="M126.9,301.08s-7,9.33-23.53,3.15l4.28-2,2.67-2,2.44-2.83,1.42-2.69,4.06,2.6Z"/></g><g id="line"><path class="cls-12" d="M140.14,195.89c.1,5.82.07,11.53.15,17.26s-.62,11.51.2,17.23a63.5,63.5,0,0,0,1.68,8.46c.39,1.39.82,2.76,1.19,4.14l.56,2.07.63,2.05c.42,1.37.8,2.74,1.24,4.1s1,2.69,1.4,4c.23.67.43,1.36.68,2s.52,1.32.76,2c.48,1.34,1,2.67,1.44,4l.1.35a1.17,1.17,0,0,0,0-.2l0-.05,0-.09,0-.07s0,0,0,0a.71.71,0,0,0,.16.14,3.21,3.21,0,0,0,.65.33,12.15,12.15,0,0,0,1.73.51,34.87,34.87,0,0,0,3.88.56c1.33.11,2.68.21,4,.27s2.72.11,4.09.2a.15.15,0,0,1,0,.3c-1.34.32-2.68.55-4,.78s-2.74.37-4.13.45a26.55,26.55,0,0,1-4.25,0,11.24,11.24,0,0,1-2.24-.42,6,6,0,0,1-1.21-.5,3.64,3.64,0,0,1-.66-.46,3.39,3.39,0,0,1-.36-.38,1.91,1.91,0,0,1-.39-.86l.1.35a78.79,78.79,0,0,1-5.48-16.65,76.17,76.17,0,0,1-1.43-8.63c-.23-2.91-.6-5.79-.9-8.67-.6-5.74-2.08-11.48-2-17.33,0-1.46.08-2.91.13-4.37s.21-2.91.39-4.36a48.8,48.8,0,0,1,1.72-8.59.15.15,0,0,1,.3,0Z"/><path class="cls-12" d="M268.73,196.18a78,78,0,0,1,1.84,16.73,57.41,57.41,0,0,1-.45,8.41c-.35,2.79-.82,5.57-1.18,8.34s-.62,5.56-.92,8.35-.55,5.6-1.06,8.39a65.75,65.75,0,0,1-2.05,8.25,51.62,51.62,0,0,1-3.23,7.95,1.61,1.61,0,0,1-2,.75c-1.32-.54-2.73-1.08-4.09-1.48-.69-.2-1.37-.4-2-.51a5.47,5.47,0,0,0-.87-.09h-.25s0,0,0,0h0l-.07,0-.14.08a11.81,11.81,0,0,1-4.75,1.37,22.45,22.45,0,0,1-4.68-.19.15.15,0,0,1-.13-.17.16.16,0,0,1,.11-.13c1.49-.4,3-.77,4.35-1.25a12.08,12.08,0,0,0,3.68-1.89l.1-.08.05,0,.14-.08a2.59,2.59,0,0,1,.53-.24,4,4,0,0,1,.87-.17,7.91,7.91,0,0,1,1.4,0,16.54,16.54,0,0,1,2.43.43,40,40,0,0,1,4.51,1.43l-2,.75c.6-1.21,1.2-2.42,1.72-3.67.29-.61.56-1.24.81-1.87s.53-1.25.75-1.9c1-2.55,1.76-5.18,2.57-7.82s1.54-5.32,2.14-8a58.35,58.35,0,0,0,1.15-8.25,83.07,83.07,0,0,0,0-8.35c-.1-2.78-.1-5.55,0-8.32.11-5.54.18-11.08.51-16.7a.15.15,0,0,1,.16-.15A.16.16,0,0,1,268.73,196.18Z"/><path class="cls-13" d="M199.83,192.37a1.71,1.71,0,0,1,1.22-.6,2.1,2.1,0,0,1,1.22.31,1.93,1.93,0,0,1,.89,2.29,7.35,7.35,0,0,1-1.18-.25,3.38,3.38,0,0,1-.74-.32,3.55,3.55,0,0,1-.63-.51A11.43,11.43,0,0,1,199.83,192.37Z"/><path class="cls-13" d="M207.83,194.2a2.13,2.13,0,0,1,.41-1.3,2.44,2.44,0,0,1,.94-.77,2.37,2.37,0,0,1,1.23-.21,1.88,1.88,0,0,1,1.25.63,7.41,7.41,0,0,1-.86.9,3.31,3.31,0,0,1-.77.5,3.35,3.35,0,0,1-.92.27A4.59,4.59,0,0,1,207.83,194.2Z"/><path class="cls-13" d="M211.58,187.28a3.25,3.25,0,0,1,1.89.89,4.08,4.08,0,0,1,1.12,1.8,3.46,3.46,0,0,1-1.18,3.89c-.18-.73-.22-1.3-.36-1.84a13,13,0,0,0-.37-1.47C212.41,189.6,212,188.66,211.58,187.28Z"/><path class="cls-13" d="M197.83,188.45c.09.64.12,1.12.15,1.58s0,.86,0,1.27,0,.8-.06,1.25a15.67,15.67,0,0,1-.19,1.58,2.92,2.92,0,0,1-1.75-2.87,3.33,3.33,0,0,1,.48-1.67A2.56,2.56,0,0,1,197.83,188.45Z"/><path class="cls-13" d="M193.71,172.81a27.52,27.52,0,0,1-7.28,2.8,17.05,17.05,0,0,1-8.07,0,12.61,12.61,0,0,1-3.93-1.73,9.74,9.74,0,0,1-2.92-3.19,12.73,12.73,0,0,1-1.4-8,.16.16,0,0,1,.18-.13.16.16,0,0,1,.12.08,42.61,42.61,0,0,0,3.63,6.4,21.72,21.72,0,0,0,2.22,2.46,8.63,8.63,0,0,0,2.84,1.79,16.52,16.52,0,0,0,7.12.8,29.73,29.73,0,0,0,7.38-1.59h0a.15.15,0,0,1,.12.27Z"/><path class="cls-13" d="M193.1,170.64a23.8,23.8,0,0,0-2.73-5.85,18,18,0,0,0-4.14-4.62,21.15,21.15,0,0,0-5.35-2.52l-1.44-.52a12.24,12.24,0,0,1-1.66-.65,6.52,6.52,0,0,1-2.79-2.27.15.15,0,0,1,.17-.23h0a17.65,17.65,0,0,0,3.15.45c.52,0,1,.07,1.55.07s1.17.15,1.76.23a7.37,7.37,0,0,1,1.74.51c.28.11.56.23.84.35s.52.32.78.48a11.18,11.18,0,0,1,1.46,1.07,12.87,12.87,0,0,1,1.33,1.2,17.76,17.76,0,0,1,3.88,5.73,22,22,0,0,1,1.7,6.5.15.15,0,0,1-.29.06Z"/><path class="cls-13" d="M190.21,163.37a15.35,15.35,0,0,0-4.84-3.48,14,14,0,0,0-5.56-1.3c-.47,0-.94,0-1.41.09l-1.39.25c-.53.1-1.06.18-1.59.24a15.42,15.42,0,0,1-1.64,0,9.91,9.91,0,0,1-3.34-.74,4.46,4.46,0,0,1-1.56-1.06,1.76,1.76,0,0,1-.45-1.87.15.15,0,0,1,.2-.07.15.15,0,0,1,.07.07l0,.05a1.31,1.31,0,0,0,1,.7,5.09,5.09,0,0,0,1.26.12c.9,0,1.83-.1,2.78-.21s1.92-.19,2.92-.2l1.69,0,1.67.18a14.4,14.4,0,0,1,6.1,2.39,14.91,14.91,0,0,1,4.34,4.61.15.15,0,0,1-.24.18Z"/><path class="cls-13" d="M188.15,161.21a15.22,15.22,0,0,0-5.65-1.74,13.91,13.91,0,0,0-5.63.53c-.44.17-.88.33-1.3.52l-1.22.67c-.47.26-.94.5-1.42.72a15.27,15.27,0,0,1-1.54.53,9.84,9.84,0,0,1-3.38.35,4.45,4.45,0,0,1-1.8-.51,1.75,1.75,0,0,1-1-1.62.15.15,0,0,1,.25-.08l0,0a1.29,1.29,0,0,0,1.13.35,5.1,5.1,0,0,0,1.23-.29c.84-.3,1.69-.68,2.55-1.07s1.75-.78,2.68-1.1l1.6-.49,1.63-.35a14.31,14.31,0,0,1,6.49.33,14.78,14.78,0,0,1,5.54,3,.15.15,0,0,1-.17.25Z"/><path class="cls-13" d="M216.41,171.82a19,19,0,0,0,7.14,1.46,12.28,12.28,0,0,0,6.62-1.78c1.95-1.21,3.22-3.12,4.62-4.93.72-.92,1.35-1.92,2-2.93.31-.52.66-1,1-1.56s.68-1.07,1.09-1.59h0a.16.16,0,0,1,.28.09,15.24,15.24,0,0,1-1.9,7.61,11.76,11.76,0,0,1-2.54,3.19,16.29,16.29,0,0,1-3.47,2.24,13.17,13.17,0,0,1-3.9,1.19,14.86,14.86,0,0,1-4,0,18.48,18.48,0,0,1-7.18-2.7.15.15,0,0,1,.14-.26Z"/><path class="cls-13" d="M214.94,170.93a19.87,19.87,0,0,1,1.65-6.8,16.5,16.5,0,0,1,4.3-5.83,13.16,13.16,0,0,1,3.13-2.1,10.43,10.43,0,0,1,3.65-.84,11.11,11.11,0,0,0,5.74-2.34h0a.15.15,0,0,1,.23.18,8.22,8.22,0,0,1-5.53,4.83c-1,.31-2,.7-2.91,1a14.88,14.88,0,0,0-2.79,1.27,15.08,15.08,0,0,0-4.45,4.53,21.49,21.49,0,0,0-2.74,6.08h0a.15.15,0,0,1-.29,0Z"/><path class="cls-13" d="M218.17,162.18a15.79,15.79,0,0,1,4.63-4,17.31,17.31,0,0,1,5.91-2.11l1.58-.21c.53-.06,1.06-.07,1.6-.11,1-.08,1.8-.08,2.68-.14a15.09,15.09,0,0,0,5.34-1.17h0a.16.16,0,0,1,.21.19,6.75,6.75,0,0,1-5.15,4,8.7,8.7,0,0,1-3.28,0c-.46-.06-.92-.14-1.38-.18s-.93,0-1.39,0a17.93,17.93,0,0,0-5.52,1.09,16.52,16.52,0,0,0-5,2.88h0a.15.15,0,0,1-.22-.21Z"/><path class="cls-13" d="M220.28,160a15.22,15.22,0,0,1,5.52-2.78,15.86,15.86,0,0,1,6.35-.4,23.57,23.57,0,0,1,5.92,1.6c.88.35,1.74.71,2.6,1a8.89,8.89,0,0,0,1.27.35,1.51,1.51,0,0,0,1.17-.14l.08-.06a.14.14,0,0,1,.22.11c0,.75-.68,1.19-1.21,1.45a5.61,5.61,0,0,1-1.73.41,10.92,10.92,0,0,1-3.28-.25,12.16,12.16,0,0,1-2.94-1.08,12.43,12.43,0,0,0-2.57-1.05,16.25,16.25,0,0,0-11.23,1.08h0a.15.15,0,0,1-.16-.25Z"/><path class="cls-14" d="M186.42,95.9A12.91,12.91,0,0,1,190.3,93a14.93,14.93,0,0,1,4.53-1.54c.81-.07,1.62-.09,2.42-.11a20.28,20.28,0,0,0,2.39,0,43.56,43.56,0,0,0,4.69-.63,20.4,20.4,0,0,1,9.6.54,18.78,18.78,0,0,1,8.15,5.09.16.16,0,0,1-.14.26h0A21.84,21.84,0,0,1,219.6,96c-.75-.2-1.45-.47-2.21-.62s-1.46-.37-2.17-.59-1.45-.31-2.16-.51c-1.41-.43-2.85-.72-4.29-1.12-.73-.14-1.47-.24-2.2-.41s-1.48-.33-2.24-.45a12,12,0,0,0-4.57-.05,15.11,15.11,0,0,0-2.2.7c-.71.32-1.41.64-2.11.9a13.3,13.3,0,0,1-2.14.7c-.71.23-1.45.39-2.18.59-1.48.35-2.94.74-4.56,1h0a.16.16,0,0,1-.14-.26Z"/><path class="cls-14" d="M189.58,101.08A7.5,7.5,0,0,1,191,99.47a10.82,10.82,0,0,1,1.68-1.25,11.18,11.18,0,0,1,3.84-1.55c.7-.08,1.41-.11,2.1-.13a14,14,0,0,0,2.07,0,29.86,29.86,0,0,0,4-.65,13.68,13.68,0,0,1,4.18-.32,15.73,15.73,0,0,1,4.14.78,14.93,14.93,0,0,1,6.8,4.78.16.16,0,0,1-.14.25h0a37.66,37.66,0,0,1-3.91-1c-.63-.15-1.25-.32-1.85-.51s-1.23-.29-1.82-.47-1.18-.4-1.79-.54-1.21-.32-1.82-.5-1.24-.23-1.86-.4c-.31-.07-.62-.17-.94-.25l-1-.19a8.87,8.87,0,0,0-3.9,0,12.07,12.07,0,0,0-1.85.7c-.59.32-1.16.64-1.75.91a9.77,9.77,0,0,1-1.78.69c-.59.23-1.21.39-1.82.59a37.09,37.09,0,0,1-3.88,1h0a.16.16,0,0,1-.17-.25Z"/><path class="cls-14" d="M218,239.74a9.68,9.68,0,0,1,3,2,7.41,7.41,0,0,1,1.2,1.45,6.37,6.37,0,0,1,.84,1.8,5.82,5.82,0,0,1,.2,2.1,5.47,5.47,0,0,1-.21,1.06,3.9,3.9,0,0,1-.39,1,6.78,6.78,0,0,1-2.82,2.86,17.82,17.82,0,0,1-7,1.5c-2.3.18-4.59.29-6.93.28a23.16,23.16,0,0,1-7-1,20.25,20.25,0,0,1-6.49-3.13,13.39,13.39,0,0,1-2.67-2.63,8.53,8.53,0,0,1-1.66-3.57,5.55,5.55,0,0,1,.65-3.94,5.83,5.83,0,0,1,2.83-2.33.15.15,0,0,1,.2.08.16.16,0,0,1,0,.16,6.7,6.7,0,0,0-1.6,2.71,4.27,4.27,0,0,0,.23,2.69A10.64,10.64,0,0,0,194.3,247a29.06,29.06,0,0,0,5.55,3,55.4,55.4,0,0,0,6.22,2.08,16.06,16.06,0,0,0,6.61.39,13.07,13.07,0,0,0,5.79-2.64c1.52-1.24,2.54-2.61,2.3-4.41s-1.5-3.68-2.92-5.46a.15.15,0,0,1,0-.22A.16.16,0,0,1,218,239.74Z"/><path class="cls-14" d="M190.92,232.37a32.59,32.59,0,0,0-7.51,3.23,13.63,13.63,0,0,0-3,2.45l-.56.73-.43.78a7.45,7.45,0,0,0-.52,1.72,25.88,25.88,0,0,0-.41,3.94c-.07,1.34-.09,2.69,0,4,.08,2.7.24,5.45.53,8.11l-.17-.54a33.43,33.43,0,0,0,2.66,3.71c.5.6,1,1.18,1.54,1.75s1.08,1.12,1.66,1.65,1.16,1,1.76,1.55l1.84,1.45,1.95,1.31c.65.43,1.36.77,2,1.18a17.14,17.14,0,0,0,2.1,1.06,20.52,20.52,0,0,0,2.17.94l2.23.81c.75.27,1.53.41,2.3.63a38.87,38.87,0,0,0,4.71.94,19.69,19.69,0,0,0,2.41.25l2.44.22c-1.61.16-3.25.41-4.9.42a33.69,33.69,0,0,1-4.95-.3,32,32,0,0,1-9.6-2.78,33.4,33.4,0,0,1-8.42-5.54c-.64-.56-1.22-1.17-1.83-1.75s-1.15-1.24-1.7-1.88a27.4,27.4,0,0,1-3-4.22,1.31,1.31,0,0,1-.17-.52h0a69.46,69.46,0,0,1-.33-8.44,35,35,0,0,1,1-8.5,9.55,9.55,0,0,1,.86-2.18l.68-1,.8-.83a13.76,13.76,0,0,1,3.69-2.39A25.26,25.26,0,0,1,190.92,232.37Z"/><path class="cls-14" d="M214,274.05c1.36-.78,2.68-1.41,3.95-2.09s2.5-1.34,3.81-1.91a15.34,15.34,0,0,0,3.89-2,8.82,8.82,0,0,0,2.53-3.53c.31-.66.5-1.37.74-2,.1-.35.23-.67.34-1l.3-1c.38-1.35.64-2.72.89-4.1.6-2.75,1-5.6,1.58-8.67a.16.16,0,0,1,.19-.12.16.16,0,0,1,.11.09,17.29,17.29,0,0,1,1.28,9.24,16,16,0,0,1-1.4,4.57,13.06,13.06,0,0,1-2.67,3.95c-1.09,1.15-2.19,2.21-3.23,3.33a31.57,31.57,0,0,1-3.26,3.42,11.62,11.62,0,0,1-4.29,2,10.75,10.75,0,0,1-4.72.2.16.16,0,0,1,0-.29Z"/><path class="cls-14" d="M219.25,232.28a20.24,20.24,0,0,1,8.92,2.68,13,13,0,0,1,3.78,3.21,9.44,9.44,0,0,1,2,4.91l0-.28a5.15,5.15,0,0,1,.12.72c0,.22,0,.42,0,.63a8,8,0,0,1-.06,1.21,10,10,0,0,1-.53,2.29,12.17,12.17,0,0,1-2.31,3.86,16.47,16.47,0,0,1-3.26,2.83c-.62.36-1.21.73-1.84,1s-1.28.57-1.93.81c.49-.51,1-1,1.47-1.46l1.39-1.47a21.65,21.65,0,0,0,2.34-3.12,12.55,12.55,0,0,0,1.49-3.34,9.57,9.57,0,0,0,.28-1.71,6.51,6.51,0,0,0,0-.83,4.61,4.61,0,0,0-.08-.68,2,2,0,0,1,0-.23v-.05a7.69,7.69,0,0,0-1.3-3.42,13.66,13.66,0,0,0-2.82-2.93,29.15,29.15,0,0,0-3.59-2.47C221.95,233.71,220.62,233,219.25,232.28Z"/><path class="cls-14" d="M153.41,348.71a65.12,65.12,0,0,1-.89-12.66,100.12,100.12,0,0,1,1-12.61A98.53,98.53,0,0,1,156.09,311a70.32,70.32,0,0,1,4.36-11.92c-.22,4.27-.8,8.39-1.28,12.54s-1.09,8.24-1.68,12.34-1.2,8.21-1.85,12.32S154.29,344.54,153.41,348.71Z"/><path class="cls-14" d="M181.46,296.87l.47,14.5.22,7.15.17,7.1-.41-.74q6.21,3.64,12.39,7.34c4.12,2.45,8.25,4.91,12.35,7.4h-1.38l11.94-7.35,12-7.29-.72,1.25c.05-4.88.17-9.75.27-14.62s.18-9.75.32-14.62l.64,1.2-4.6-3,1.63-.12a6.31,6.31,0,0,0-.65.71,6.12,6.12,0,0,0-.55.81,2.89,2.89,0,0,0-.4,1.57v0a1.3,1.3,0,0,1-1.19,1.4,1.31,1.31,0,0,1-.67-.12,3,3,0,0,0-.62-.19,2.19,2.19,0,0,0-.6,0,1.05,1.05,0,0,0-.41.13,1.1,1.1,0,0,0-.31.3l-.13.15a1.25,1.25,0,0,1-1.77.11l-.07-.07a7.63,7.63,0,0,0-1.07-.89,7.11,7.11,0,0,0-1.22-.69,4.79,4.79,0,0,0-1.26-.34,3.62,3.62,0,0,0-1.21.09h-.07a1.18,1.18,0,0,1-1.41-.9h0a6.63,6.63,0,0,0-1.48-3,3.88,3.88,0,0,0-1.27-.91,3.51,3.51,0,0,0-.74-.23,7.28,7.28,0,0,0-.88-.12,3.9,3.9,0,0,0-3.06.92,17.72,17.72,0,0,0-2.61,2.79l0,0a.86.86,0,0,1-1.21.13l-.11-.11a5.56,5.56,0,0,0-.69-.66,3.88,3.88,0,0,0-.78-.51,1.46,1.46,0,0,0-1.41-.06l0,0a.77.77,0,0,1-1.13-.75,10.8,10.8,0,0,0,0-1.64,7.46,7.46,0,0,0-.26-1.62,4.44,4.44,0,0,0-.64-1.41,3,3,0,0,0-1.13-.92l.48,0-7.28,3.92Zm0,0,7-4.41,7.16-4.45a.53.53,0,0,1,.46,0h0a4.18,4.18,0,0,1,1.69,1.21,5.7,5.7,0,0,1,1,1.77,8.82,8.82,0,0,1,.42,1.88,10.47,10.47,0,0,1,.06,1.93l-1.17-.73a2.91,2.91,0,0,1,1.49-.43,3.62,3.62,0,0,1,1.41.31,5.52,5.52,0,0,1,1.13.66,7.11,7.11,0,0,1,1,.86l-1.34,0a19.26,19.26,0,0,1,2.78-3.21,6.41,6.41,0,0,1,2-1.22,6,6,0,0,1,2.38-.3,9.23,9.23,0,0,1,1.12.12,5.58,5.58,0,0,1,1.19.33,6.06,6.06,0,0,1,2,1.36,7.83,7.83,0,0,1,1.36,1.91,9.3,9.3,0,0,1,.81,2.19l-1.47-.9a6,6,0,0,1,2.08-.23,7.18,7.18,0,0,1,2,.45,9.58,9.58,0,0,1,1.7.88,9.87,9.87,0,0,1,1.51,1.2l-2,.18a3.5,3.5,0,0,1,2.53-1.59,4.73,4.73,0,0,1,1.37,0,5.37,5.37,0,0,1,1.28.38l-1.85,1.32a5.48,5.48,0,0,1,.65-3.1,9,9,0,0,1,1.75-2.3,1.3,1.3,0,0,1,1.59-.15l0,0,4.65,3a1.37,1.37,0,0,1,.64,1.16v0c0,4.88-.12,9.75-.18,14.63s-.12,9.75-.23,14.63h0a1.49,1.49,0,0,1-.72,1.23l-12,7.21-12.06,7.15h0a1.31,1.31,0,0,1-1.36,0q-6.1-3.82-12.15-7.72T181,326.36l0,0a.83.83,0,0,1-.38-.72l.17-7.28.22-7.22C181.13,306.32,181.28,301.55,181.46,296.87Z"/><path class="cls-14" d="M193.89,318.57l-.24-14.72a.64.64,0,0,1,.32-.57l0,0,11.65-6.76a1,1,0,0,1,1,0l.06,0,5.89,3,5.91,3a1.42,1.42,0,0,1,.78,1.19v.1c.13,2.54.17,5.08.14,7.63s-.11,5.09-.27,7.63v.17a.91.91,0,0,1-.56.78c-2.43,1-4.88,2-7.41,2.79a.15.15,0,0,1-.14-.27c2.14-1.57,4.35-3,6.59-4.38l-.57,1c-.27-2.54-.45-5.08-.6-7.62s-.22-5.08-.2-7.62l.78,1.29-5.68-3.37-5.7-3.34h1l-12,6.07.36-.59-.83,14.7a.15.15,0,0,1-.3,0Z"/><path class="cls-14" d="M230.14,302.46a3.42,3.42,0,0,0-2.11.43,4,4,0,0,0-1.46,1.53,8.12,8.12,0,0,0-.5,1c-.12.35-.26.68-.35,1a17.51,17.51,0,0,0-.43,2.18.73.73,0,0,1-.56.61l-.13,0a3.37,3.37,0,0,0-.59.21,2.09,2.09,0,0,0-.5.31.8.8,0,0,0-.32.65,1,1,0,0,1-2,.19l-.05-.22c0-.08-.09-.34-.15-.51a5.48,5.48,0,0,0-.24-.57,4.46,4.46,0,0,0-.73-1.06,6.74,6.74,0,0,0-1.12-.89c-.21-.14-.45-.25-.68-.4s-.49-.24-.74-.38h0a.11.11,0,0,1,0-.19,5,5,0,0,1,1.76-.07,4.86,4.86,0,0,1,1.77.61,4.68,4.68,0,0,1,1.44,1.35,4,4,0,0,1,.71,2l-2,0a2.65,2.65,0,0,1,.48-1.18,3,3,0,0,1,.88-.76,4.09,4.09,0,0,1,.94-.39,5.21,5.21,0,0,1,1-.18l-.68.63a18.79,18.79,0,0,1,.78-2.32c.16-.38.36-.74.54-1.11a8.32,8.32,0,0,1,.72-1,4.83,4.83,0,0,1,2-1.5,3.6,3.6,0,0,1,2.43-.07.1.1,0,0,1,0,.19Z"/><path class="cls-14" d="M194.17,306.67a16.58,16.58,0,0,0-2.72-2.72,9,9,0,0,0-3.17-1.74,6.61,6.61,0,0,0-3.23.19,9.92,9.92,0,0,0-1.65.53c-.58.22-1.12.55-1.82.76h0a.11.11,0,0,1-.13-.14,5.72,5.72,0,0,1,3-3l.53-.22a4.77,4.77,0,0,1,.57-.11,3.78,3.78,0,0,1,1.16,0,10.2,10.2,0,0,1,1.13.21l1.05.37a10.27,10.27,0,0,1,3.32,2.52,14.82,14.82,0,0,1,2.2,3.34.1.1,0,0,1-.17.11Z"/><path class="cls-14" d="M192.53,322.64a13.16,13.16,0,0,1,1-3.9,6.6,6.6,0,0,1,2.78-3.28,9,9,0,0,1,2.06-.8,4.4,4.4,0,0,1,2.32.09,4.06,4.06,0,0,1,2.87,3.24.11.11,0,0,1-.17.1,6.31,6.31,0,0,0-3.16-1.4,7.6,7.6,0,0,0-3.26.26,5.29,5.29,0,0,0-2.55,2.28,14.53,14.53,0,0,0-1.64,3.46h0a.1.1,0,0,1-.2,0Z"/><path class="cls-14" d="M229.64,321.13a3.8,3.8,0,0,0-1.8.44,4.49,4.49,0,0,0-1.34,1.08c-.39.43-.5,1.05-.94,1.44a4.8,4.8,0,0,1-.69.65,4,4,0,0,1-.93.65h0a.13.13,0,0,1-.17-.06v0a3.33,3.33,0,0,1,.11-2.28,3.87,3.87,0,0,1,1.6-1.6,4.76,4.76,0,0,1,2.11-.83,3.87,3.87,0,0,1,2.14.33.1.1,0,0,1,0,.19Z"/><path class="cls-14" d="M225.29,325.85a12.74,12.74,0,0,0-6.75,0,23.25,23.25,0,0,0-2.95,1.34c-.51.2-1,.46-1.52.69a14.27,14.27,0,0,1-1.67.73h0a.11.11,0,0,1-.13-.14,6.3,6.3,0,0,1,2.32-3,5.49,5.49,0,0,1,1.74-.84,15.17,15.17,0,0,1,1.9-.34,11.12,11.12,0,0,1,3.74.12,11.78,11.78,0,0,1,3.42,1.27.1.1,0,0,1-.08.18Z"/><path class="cls-14" d="M215.25,326.5a8.06,8.06,0,0,1-2.17-.73,7.92,7.92,0,0,1-1.45-.88,7.6,7.6,0,0,1-1.05-1,7,7,0,0,0-1.54-1.27l-.08,0a.08.08,0,0,1,0-.11l0,0a3.42,3.42,0,0,1,2-.07,5.42,5.42,0,0,1,1.83.93,10.34,10.34,0,0,1,2.58,3.1.08.08,0,0,1,0,.11h-.05Z"/><path class="cls-14" d="M209.35,323.45a9.54,9.54,0,0,0-3.65-3.78,5.53,5.53,0,0,0-4.79-.25,12.07,12.07,0,0,0-4.06,2.8,10.89,10.89,0,0,0-2.58,4.39h0a.1.1,0,0,1-.2,0,6.68,6.68,0,0,1,1.26-5.69,7.27,7.27,0,0,1,2.32-2,13.33,13.33,0,0,1,2.78-1.07,7.51,7.51,0,0,1,3-.19,6.65,6.65,0,0,1,2.78,1.12,9.67,9.67,0,0,1,3.3,4.56.1.1,0,0,1-.18.08Z"/><path class="cls-14" d="M195,323a3.94,3.94,0,0,0-3.39.5,4.46,4.46,0,0,0-1.09,1.27c-.15.24-.25.52-.37.77l-.27.83a.7.7,0,0,1-1.35-.1l0-.1a5.06,5.06,0,0,0-.83-2.08,6.07,6.07,0,0,0-1.57-1.43,8.9,8.9,0,0,0-2-.93c-.38-.13-.79-.2-1.21-.34a11.21,11.21,0,0,1-1.31-.31h0a.11.11,0,0,1,0-.2,9.36,9.36,0,0,1,1.32-.49,9.8,9.8,0,0,1,1.42-.19,6,6,0,0,1,2.92.69,5.17,5.17,0,0,1,2,2.32,7,7,0,0,1,.69,2.92l-1.37-.21L189,325c.19-.29.35-.6.57-.87a4.87,4.87,0,0,1,1.59-1.38,4.34,4.34,0,0,1,3.93.06.1.1,0,0,1-.07.19Z"/><path class="cls-13" d="M158.08,143.6c3,17.18,6.56,34.1,12.58,50.09a95.76,95.76,0,0,0,5.11,11.74,45,45,0,0,0,7.44,10.39A31.11,31.11,0,0,0,193.7,223,28.84,28.84,0,0,0,206.07,225a29.13,29.13,0,0,0,11.87-3,30.07,30.07,0,0,0,9.45-7.49A47,47,0,0,0,234,204.12a92.17,92.17,0,0,0,4.56-11.76,167.94,167.94,0,0,0,5.61-25c1.31-8.53,2.18-17.16,2.79-25.86h0a.25.25,0,0,1,.5,0,119.19,119.19,0,0,1,.92,13.12q.14,6.58-.3,13.18c-.15,2.2-.34,4.39-.58,6.59s-.56,4.38-.91,6.57a103.6,103.6,0,0,1-2.92,13,71.58,71.58,0,0,1-5,12.53,49.37,49.37,0,0,1-7.78,11.27,32.08,32.08,0,0,1-11.32,8A30.72,30.72,0,0,1,206,227.79a35.44,35.44,0,0,1-13-3.26A40.86,40.86,0,0,1,182.1,217a71.09,71.09,0,0,1-15.26-21.69,81.82,81.82,0,0,1-4.51-12.5q-.88-3.2-1.63-6.42c-.48-2.15-.89-4.32-1.27-6.49s-.69-4.35-1-6.53-.49-4.37-.65-6.56a102.05,102.05,0,0,1-.22-13.16.25.25,0,0,1,.5,0Z"/><path class="cls-13" d="M217.44,244.36c-.11-1.95-.11-3.89-.13-5.83s.06-3.89.18-5.84a24.56,24.56,0,0,1,.59-5.86,14.82,14.82,0,0,1,1.11-2.83,8.68,8.68,0,0,1,.84-1.35,3,3,0,0,1,1.3-1.07.16.16,0,0,1,.2.2v0a4.72,4.72,0,0,0-.22,1.36c0,.46,0,.93-.08,1.4q-.06,1.41-.19,2.82a47.52,47.52,0,0,1-1.16,5.59l-2.13,11.39a.15.15,0,0,1-.3,0Z"/><path class="cls-13" d="M192.54,246.72c-.36-2.13-.69-4.26-1.11-6.37s-.79-4.21-1.22-6.3a63.24,63.24,0,0,1-1.4-6.22,35.9,35.9,0,0,1-.28-6.51.16.16,0,0,1,.17-.15.16.16,0,0,1,.12.06,17.88,17.88,0,0,1,2.93,6,29.28,29.28,0,0,1,.84,6.49q.28,3.25.34,6.5c0,2.17,0,4.33-.09,6.5a.15.15,0,0,1-.3,0Z"/><path class="cls-15" d="M163.68,129.54,160,143c-.59,2.22-1.17,4.43-1.71,6.64s-1,4.43-1.59,6.63c-.27,1.11-.59,2.2-.82,3.32l-.41,1.67-.33,1.68-.33,1.7-.31,1.78c-.24,1.18-.48,2.34-.73,3.5a131.83,131.83,0,0,1-3.8,13.7,60.43,60.43,0,0,1-2.73,6.66,46.86,46.86,0,0,1-3.71,6.22,50.7,50.7,0,0,1-9.87,10.72,42.77,42.77,0,0,1-6.13,4.06c-1.07.59-2.19,1.11-3.3,1.61l-1.75.73a4.73,4.73,0,0,1-3.08.08,10.25,10.25,0,0,1-3.7-2.2,26.73,26.73,0,0,1-2.59-2.7,38.88,38.88,0,0,1-4-6l-.07-.12a7.07,7.07,0,0,1-.24-1.25,2.57,2.57,0,0,1,.15-1.36.25.25,0,0,1,.47.13v.06a2.19,2.19,0,0,0,.26.95,8.75,8.75,0,0,0,.53,1l-.07-.12c1.67,1.59,3.39,3.17,5.15,4.57a23.32,23.32,0,0,0,2.67,1.9,6.58,6.58,0,0,0,2.45,1c.31,0,.41-.07.35-.08l1.41-.78q1.44-.84,2.82-1.76c1.85-1.21,3.62-2.54,5.35-3.92s3.4-2.84,5-4.39a63.22,63.22,0,0,0,4.55-4.93c1.43-1.73,2.78-3.53,4.09-5.38a62.54,62.54,0,0,0,3.71-5.75,35,35,0,0,0,4.44-13,28.48,28.48,0,0,0,.21-3.43c0-.57,0-1.14,0-1.71l0-1.79,0-1.8.05-1.8c0-1.2.13-2.4.28-3.59a42.36,42.36,0,0,1,1.48-7c.31-1.15.72-2.27,1.07-3.41s.81-2.24,1.27-3.33a62.87,62.87,0,0,1,3.05-6.43,43,43,0,0,1,3.86-6,.25.25,0,0,1,.36,0A.26.26,0,0,1,163.68,129.54Z"/><path class="cls-15" d="M108.72,199.06a7.34,7.34,0,0,1,.92-6,8.43,8.43,0,0,1,1-1.28c.38-.38.74-.68,1.1-1,.72-.63,1.43-1.25,2.15-1.85q2.17-1.81,4.35-3.55c1.45-1.18,2.92-2.32,4.43-3.41,3-2.18,6.23-4.21,8.88-6.85a25.85,25.85,0,0,0,6.15-9.11,14.05,14.05,0,0,0,.7-2.52c.15-.83.29-1.81.43-2.71l.84-5.54c.55-3.71,1-7.44,1.73-11.15S143,136.7,144,133c.53-1.83,1.1-3.66,1.8-5.46A28.11,28.11,0,0,1,147,124.9a7.64,7.64,0,0,1,1.75-2.43.2.2,0,0,1,.3.25v0a8.84,8.84,0,0,0-.79,2.59c-.18.9-.31,1.83-.44,2.75-.25,1.85-.47,3.7-.69,5.56-.44,3.72-.9,7.45-1.46,11.17s-1.36,7.42-2.2,11.12c-.42,1.85-.86,3.7-1.41,5.54-.29.93-.53,1.81-.93,2.78a16.56,16.56,0,0,1-1.36,2.73,70.16,70.16,0,0,1-7.22,9c-2.53,2.83-4.92,5.87-7.68,8.52a62.07,62.07,0,0,1-9.06,6.93c-.79.52-1.61,1-2.4,1.5-.4.24-.8.49-1.14.72a6.14,6.14,0,0,0-.94.73,7.85,7.85,0,0,0-2.19,4.61v0a.2.2,0,0,1-.39,0Z"/><path class="cls-15" d="M260.43,122.67a9.58,9.58,0,0,1,1.82,2.78q.69,1.48,1.26,3,1.11,3,2,6.1t1.69,6.16c.53,2.06,1.05,4.12,1.52,6.19l1.43,6.19,1.38,6.17.72,3.05c.12.54.24,1,.36,1.37s.29.86.47,1.29a33.5,33.5,0,0,0,2.8,5.19,92.9,92.9,0,0,0,7.47,9.94c1.35,1.61,2.79,3.15,4.23,4.68s3,3,4.53,4.42,3.15,2.81,4.79,4.13a12.68,12.68,0,0,1,2.45,2.3,7,7,0,0,1,1.38,3.29,6.82,6.82,0,0,1,0,1.81,7,7,0,0,1-.18.89,4.08,4.08,0,0,1-.43.94,27.51,27.51,0,0,1-1.84,2.75,38.08,38.08,0,0,1-4.34,5,15.9,15.9,0,0,1-2.78,2.13,7.64,7.64,0,0,1-1.83.79,4.52,4.52,0,0,1-2.47,0c-.53-.17-.66-.26-.94-.37l-.76-.32c-.51-.21-1-.44-1.5-.69-1-.47-2-1-2.93-1.53a52,52,0,0,1-10.49-8A59.88,59.88,0,0,1,261.87,192a56.58,56.58,0,0,1-5.9-11.85,51.17,51.17,0,0,1-2.88-13c-.11-1.08-.13-2.28-.19-3.29s-.08-2-.18-3.06-.16-2-.28-3.07-.25-2-.41-3.07a127.61,127.61,0,0,0-6.41-24.28h0a.25.25,0,0,1,.45-.22,76.37,76.37,0,0,1,5.79,11.46,84,84,0,0,1,4,12.29c.25,1.05.46,2.12.7,3.18s.38,2.15.56,3.22.26,2.17.39,3.26.2,2,.36,3A55.66,55.66,0,0,0,261,178.34a63.21,63.21,0,0,0,12.64,20.6,55.15,55.15,0,0,0,9.24,7.9c.84.56,1.69,1.13,2.57,1.64.44.26.87.53,1.32.77l1.18.66a2.37,2.37,0,0,0,1.79-.28,13,13,0,0,0,2.43-1.48,31.05,31.05,0,0,0,4.47-4.18,25.16,25.16,0,0,0,1.9-2.38,2.72,2.72,0,0,0,.27-.48,5.18,5.18,0,0,0,.17-.66,5.07,5.07,0,0,0,.07-1.35,4.89,4.89,0,0,0-1-2.53,11.36,11.36,0,0,0-2.15-2.06l-4.87-4.12c-1.62-1.38-3.26-2.74-4.85-4.16s-3.21-2.81-4.8-4.25a73,73,0,0,1-8.92-9.45,30.81,30.81,0,0,1-3.51-5.81,17.79,17.79,0,0,1-.64-1.68c-.18-.6-.35-1.21-.45-1.7-.26-1-.46-2.1-.67-3.14L266,153.92l-1.07-6.27-2-12.52c-.36-2.08-.68-4.16-1.09-6.22-.21-1-.41-2.05-.68-3.06a9.87,9.87,0,0,0-1.08-2.84l0,0a.25.25,0,0,1,.38-.32Z"/><path class="cls-15" d="M184.69,112.48a18,18,0,0,1,4.1-3.35l1.15-.68,1.19-.6a25.65,25.65,0,0,1,2.46-1.05,31.3,31.3,0,0,1,5.2-1.37,21.58,21.58,0,0,1,2.68-.33,20.85,20.85,0,0,1,2.69-.15,30.58,30.58,0,0,1,10.69,1.22,41.15,41.15,0,0,1,4.91,2.16,31.93,31.93,0,0,1,4.4,3.09.21.21,0,0,1-.15.37h0a33.57,33.57,0,0,1-5.2-.81c-1.71-.23-3.34-.6-5-.94-.82-.14-1.64-.29-2.44-.48-.4-.09-.8-.21-1.2-.31L209,109l-2.43-.55c-.82-.12-1.64-.21-2.46-.3a33.89,33.89,0,0,0-9.91.57,23.15,23.15,0,0,0-9.18,4h0a.2.2,0,0,1-.27-.29Z"/><path class="cls-15" d="M180.61,90.23a22.44,22.44,0,0,1,5.12-4l1.42-.81,1.48-.71a31.88,31.88,0,0,1,3-1.24,38.8,38.8,0,0,1,6.39-1.59,26.71,26.71,0,0,1,3.28-.38,25.66,25.66,0,0,1,3.3-.15H208l3.3.25c.55.05,1.1.09,1.65.16s1.08.21,1.62.34c1.07.24,2.14.52,3.2.81a60.71,60.71,0,0,1,6.07,2.5,47.6,47.6,0,0,1,5.54,3.53.21.21,0,0,1-.15.37h0A49.53,49.53,0,0,1,222.84,88c-2.09-.36-4.12-.84-6.14-1.28-1-.18-2-.37-3-.61-.5-.11-1-.25-1.5-.37l-1.51-.29-3-.63-3.07-.33a42,42,0,0,0-12.32.84A28.66,28.66,0,0,0,180.9,90.5h0a.2.2,0,0,1-.27-.29Z"/><path class="cls-12" d="M250.94,145.5a116,116,0,0,0-12.61-9.13,111.09,111.09,0,0,0-13.73-6.73,37.67,37.67,0,0,0-15.17-3,42.72,42.72,0,0,0-7.73.88,52.23,52.23,0,0,0-7.33,2.07,1.6,1.6,0,0,1-2-.83l0-.09A4.87,4.87,0,0,1,192,126a8.69,8.69,0,0,1,.55-2.11,19.14,19.14,0,0,1,1.84-3.4,33.67,33.67,0,0,1,2.2-2.95c.78-.94,1.56-1.82,2.45-2.73l1.46,3.65a19,19,0,0,0-4.54.69,17.52,17.52,0,0,0-2.16.75,20.18,20.18,0,0,0-2,1.08,18.76,18.76,0,0,0-3.7,2.91,20.55,20.55,0,0,0-2.94,3.71l-.16.26a1.18,1.18,0,0,1-.8.56,18.21,18.21,0,0,1-3.43.36,16.24,16.24,0,0,1-3.36-.32,16.58,16.58,0,0,1-6.09-2.43.2.2,0,0,1,.17-.36h0a21.38,21.38,0,0,0,6.09.86,16.93,16.93,0,0,0,3-.26,15.84,15.84,0,0,0,2.81-.74l-1,.82a19.42,19.42,0,0,1,1.34-2.56,21.18,21.18,0,0,1,1.63-2.31,20.5,20.5,0,0,1,6.67-5.39,19.88,19.88,0,0,1,2.73-1,19.56,19.56,0,0,1,5.75-.81,2.1,2.1,0,0,1,1.46,3.65c-.77.71-1.58,1.53-2.32,2.33s-1.47,1.65-2.12,2.5a15.64,15.64,0,0,0-1.65,2.6,3.45,3.45,0,0,0-.48,2l-2.05-.92a42.23,42.23,0,0,1,8.12-1.08q4-.16,8,0A109.19,109.19,0,0,1,225.39,127a37.41,37.41,0,0,1,7.73,2.51,44.66,44.66,0,0,1,7,4.12,43.26,43.26,0,0,1,11.1,11.59.2.2,0,0,1-.3.27Z"/><path class="cls-14" d="M147,120.31a7.12,7.12,0,0,0,6.09,2.16,17.69,17.69,0,0,0,6.33-2,88.15,88.15,0,0,0,11.15-7.06,58.9,58.9,0,0,0,5.21-4.25A23.13,23.13,0,0,0,180,103.9a15.29,15.29,0,0,0,2.07-6.32,6.82,6.82,0,0,0-1.8-5.61,7.22,7.22,0,0,0-5.3-1.52,20.12,20.12,0,0,0-6,1.35,32.65,32.65,0,0,0-5.74,2.92,63.35,63.35,0,0,0-5.27,3.85,58.34,58.34,0,0,0-9.06,9.47,17.31,17.31,0,0,0-3,5.9A7.17,7.17,0,0,0,147,120.31Zm-.38.32a10.18,10.18,0,0,1-2.08-6.84,22.88,22.88,0,0,1,1.39-7.28,25.54,25.54,0,0,1,3.51-6.57,38.45,38.45,0,0,1,5-5.44,34.87,34.87,0,0,1,13-7.19,20.41,20.41,0,0,1,7.68-.88,10.05,10.05,0,0,1,7.21,3.75A9,9,0,0,1,183.85,94a12.64,12.64,0,0,1-.08,3.8,26.62,26.62,0,0,1-2.32,6.86,42.49,42.49,0,0,1-8.17,12,29.19,29.19,0,0,1-5.9,4.38,23.82,23.82,0,0,1-7,2.52,22.36,22.36,0,0,1-7.38.24A10.29,10.29,0,0,1,146.62,120.64Z"/><path class="cls-14" d="M147.89,121.19a33.15,33.15,0,0,1,3.28,2c1,.7,2,1.44,3,2.21l.1.1a7,7,0,0,0,2.7,1.27,13.37,13.37,0,0,0,3.29.27,40.72,40.72,0,0,0,7.49-.82,17,17,0,0,0,7.05-3.6,31.21,31.21,0,0,0,5.24-6,46.31,46.31,0,0,0,4.08-6.46,27.39,27.39,0,0,0,2.34-6.67,8.76,8.76,0,0,0,.09-3.07,2.56,2.56,0,0,0-.16-.69,2.3,2.3,0,0,0-.22-.66l-.14-.31a1.25,1.25,0,0,0-.19-.36l-.59-.83A61.13,61.13,0,0,1,181,90.47a.26.26,0,0,1,.37-.34,61,61,0,0,1,6.7,5l.78.67a10.24,10.24,0,0,1,.87,1,5.66,5.66,0,0,1,.75,1.12,6.25,6.25,0,0,1,.56,1.21,11.46,11.46,0,0,1,.65,5,18.64,18.64,0,0,1-3.12,8.58,29.73,29.73,0,0,1-5.69,6.56,63.47,63.47,0,0,1-7,4.74c-2.37,1.46-4.68,2.92-7.1,4.45a17.7,17.7,0,0,1-8.25,3.08,13.23,13.23,0,0,1-2.37-.12c-.4-.07-.8-.12-1.2-.21l-1.2-.38a8.86,8.86,0,0,1-4.09-3l.09.1c-.76-1-1.5-2-2.2-3a33.21,33.21,0,0,1-2-3.28.26.26,0,0,1,.35-.35Z"/><path class="cls-14" d="M262.52,120.64a9.32,9.32,0,0,1-6.4,2.86,23,23,0,0,1-7.24-.56A27.14,27.14,0,0,1,236.36,116,45.44,45.44,0,0,1,228,104.54a25.33,25.33,0,0,1-2.56-6.67,12.27,12.27,0,0,1-.16-3.75,8.58,8.58,0,0,1,1.41-3.73,8.37,8.37,0,0,1,3.15-2.72,11.11,11.11,0,0,1,3.9-1.12,18.68,18.68,0,0,1,7.61.94,29,29,0,0,1,6.76,3.17,30.09,30.09,0,0,1,5.75,4.66,42.89,42.89,0,0,1,8.27,11.56,24.84,24.84,0,0,1,2.12,7,10.7,10.7,0,0,1-.09,3.63A7.21,7.21,0,0,1,262.52,120.64Zm-.38-.32a5.39,5.39,0,0,0,1.24-3,7.16,7.16,0,0,0-.51-3.19,19.26,19.26,0,0,0-3.65-5.45c-1.48-1.65-3-3.23-4.55-4.85s-3.1-3.25-4.65-4.78a32.83,32.83,0,0,0-10.28-7.18,18.13,18.13,0,0,0-5.85-1.39,6.7,6.7,0,0,0-5.13,1.58,6.49,6.49,0,0,0-1.69,5.53,14.65,14.65,0,0,0,2.3,6.11c2.41,3.79,6.11,6.53,9.66,9.08q2.68,1.93,5.4,3.72c1.82,1.19,3.64,2.4,5.56,3.44a18,18,0,0,0,6.15,2.27A6.52,6.52,0,0,0,262.14,120.31Z"/><path class="cls-14" d="M262.58,120.6a44.25,44.25,0,0,1-2.48,4c-.44.64-.89,1.27-1.34,1.89l-.69.92-.35.46-.39.54a9.29,9.29,0,0,1-4.76,3.07,10.32,10.32,0,0,1-5.37.09,18.82,18.82,0,0,1-4.63-2c-1.42-.82-2.78-1.6-4.16-2.36-2.73-1.53-5.68-2.78-8.33-4.69a26.43,26.43,0,0,1-3.74-3.13,38.49,38.49,0,0,1-3.19-3.72,25.49,25.49,0,0,1-4.53-8.92,16.29,16.29,0,0,1-.48-2.6,13.36,13.36,0,0,1,0-2.76,9.91,9.91,0,0,1,.67-2.88,7.76,7.76,0,0,1,1.75-2.62A63.67,63.67,0,0,1,228,90.2a.26.26,0,0,1,.37.34,63.58,63.58,0,0,1-4.92,8c-1,1.6-.63,4.24.21,6.78a40.24,40.24,0,0,0,3.5,7.63,38.34,38.34,0,0,0,2.43,3.6c.87,1.17,1.78,2.32,2.72,3.47a24.37,24.37,0,0,0,6.76,5.9,13.19,13.19,0,0,0,4.26,1.42,23,23,0,0,0,4.32.2c2.73-.08,5.08-.24,7-1.69l.39-.31.44-.38.91-.74c.61-.49,1.23-1,1.85-1.45a44,44,0,0,1,3.92-2.67.26.26,0,0,1,.36.09A.26.26,0,0,1,262.58,120.6Z"/><path class="cls-5" d="M55.26,54.12c0-21.75,17.9-38.85,40-38.85s40.1,20.51,40,38.85a39.78,39.78,0,0,1-40,39.39C73.16,93.5,55.26,75.87,55.26,54.12Z"/><path class="cls-1" d="M55.11,54.12A41.63,41.63,0,0,1,58,38.89a39.39,39.39,0,0,1,8.48-13.17,38,38,0,0,1,13.14-8.83A39.87,39.87,0,0,1,95.22,14a37.84,37.84,0,0,1,15.37,3.74,42.26,42.26,0,0,1,6.75,4,47.52,47.52,0,0,1,6,5.09,47,47,0,0,1,9,12.69A40.67,40.67,0,0,1,135.05,47a31.31,31.31,0,0,1,1,7.85A39.7,39.7,0,0,1,124,83.43a41.43,41.43,0,0,1-13.37,8.74,40.94,40.94,0,0,1-31.36-.38,38.82,38.82,0,0,1-13-9.14A41.6,41.6,0,0,1,55.11,54.12Zm.3,0A36.21,36.21,0,0,0,58.68,69a38,38,0,0,0,9,12.2A40.81,40.81,0,0,0,94.89,91.9a39.09,39.09,0,0,0,39.46-37.13A31.76,31.76,0,0,0,131.41,40a40.72,40.72,0,0,0-8.79-12.44A38.52,38.52,0,0,0,95.22,16.51,42.69,42.69,0,0,0,67.76,27.08a37.22,37.22,0,0,0-9.08,12.11,35.2,35.2,0,0,0-2.45,7.27A37.57,37.57,0,0,0,55.41,54.12Z"/><path class="cls-5" d="M98.09,96a10.35,10.35,0,0,1,10.54-10.25c5.82,0,10.58,5.41,10.54,10.25a10.54,10.54,0,0,1-21.08,0Z"/><path class="cls-1" d="M97.94,96a12.88,12.88,0,0,1,2.62-8,9.57,9.57,0,0,1,8.07-3.5,9.85,9.85,0,0,1,4.3,1.35,14.91,14.91,0,0,1,3.35,2.71A15.39,15.39,0,0,1,118.76,92,10.45,10.45,0,0,1,120,96.21a10.69,10.69,0,0,1-.61,4.43,11,11,0,0,1-2.46,3.86,11.4,11.4,0,0,1-8.41,3.5,11,11,0,0,1-4.52-1.06,10,10,0,0,1-3.53-2.88A13.19,13.19,0,0,1,97.94,96Zm.3,0a7.75,7.75,0,0,0,1,3.82,8.76,8.76,0,0,0,2.6,2.81,11.83,11.83,0,0,0,3.24,1.61,10.22,10.22,0,0,0,3.44.54,9.91,9.91,0,0,0,6.41-2.36,10.29,10.29,0,0,0,3.36-6.27,8.11,8.11,0,0,0-2.72-6.9,9.12,9.12,0,0,0-7-2.25,14,14,0,0,0-6.75,2.38,8.68,8.68,0,0,0-2.62,2.79A7.52,7.52,0,0,0,98.24,96Z"/><path class="cls-5" d="M116.42,113.7a6.13,6.13,0,0,1,6-6.27c3.34,0,6.06,3.31,6,6.27a6,6,0,1,1-12.08,0Z"/><path class="cls-1" d="M116.27,113.7a10,10,0,0,1,1.18-5.06,5.23,5.23,0,0,1,2.13-1.95,5.38,5.38,0,0,1,2.88-.52,5.58,5.58,0,0,1,2.7,1.07,10.53,10.53,0,0,1,1.91,1.86,9.57,9.57,0,0,1,2.26,4.72,6.66,6.66,0,0,1-1.58,5.35,6.79,6.79,0,0,1-5.37,2.48,6.45,6.45,0,0,1-2.93-.8,5.65,5.65,0,0,1-2.07-2.07A10.14,10.14,0,0,1,116.27,113.7Zm.3,0a4.42,4.42,0,0,0,2.28,3.75,7.64,7.64,0,0,0,1.81.77,5.33,5.33,0,0,0,1.76.24,5.12,5.12,0,0,0,3.27-1.24,6.7,6.7,0,0,0,2-3.43,4.34,4.34,0,0,0-1.29-4,4.16,4.16,0,0,0-1.93-1,5,5,0,0,0-2,0,10.38,10.38,0,0,0-3.62,1.28,4.82,4.82,0,0,0-1.62,1.52A4,4,0,0,0,116.57,113.7Z"/><path class="cls-1" d="M89.84,70.7a6.34,6.34,0,0,1,1.67-1,9.21,9.21,0,0,1,1.68-.52,10.14,10.14,0,0,1,3.4-.12h.18a8.44,8.44,0,0,1,1.55.6,6.78,6.78,0,0,1,1.51,1,6.78,6.78,0,0,1-1.67.73,8.46,8.46,0,0,1-1.63.31h.18a10.27,10.27,0,0,1-3.41.19,9.1,9.1,0,0,1-1.72-.37A6,6,0,0,1,89.84,70.7Z"/><path class="cls-1" d="M89.84,74l0,0h0a7.06,7.06,0,0,1,1.7-.71A8.91,8.91,0,0,1,93.23,73H93a10.29,10.29,0,0,1,3.37-.17,9.09,9.09,0,0,1,1.7.38,6.8,6.8,0,0,1,1.73.84,6.79,6.79,0,0,1-1.64,1,9.09,9.09,0,0,1-1.66.53,10.29,10.29,0,0,1-3.37.14H93a8.91,8.91,0,0,1-1.58-.6,7.06,7.06,0,0,1-1.54-1h0Z"/><path class="cls-1" d="M92.34,77.85l0,0h0a3.75,3.75,0,0,1,.77-.65,3,3,0,0,1,.73-.34h-.24a2.61,2.61,0,0,1,1.82-.28,2.79,2.79,0,0,1,.94.39,3.69,3.69,0,0,1,1,.92,3.69,3.69,0,0,1-.86,1,2.79,2.79,0,0,1-.89.49,2.62,2.62,0,0,1-1.84-.08h-.24a3,3,0,0,1-.6-.53,3.74,3.74,0,0,1-.55-.84h0Z"/><path class="cls-1" d="M80.29,45.37c-1.25-.21-2.49-.5-3.69-.83-.61-.15-1.18-.36-1.78-.53A15.55,15.55,0,0,1,73,43.55l-.06,0-.16-.11A3.58,3.58,0,0,1,71.67,42a5.16,5.16,0,0,1-.36-1,4.72,4.72,0,0,1-.19-1.2.33.33,0,0,1,.23-.32,4.73,4.73,0,0,1,1.2-.2,5.17,5.17,0,0,1,1,0,3.58,3.58,0,0,1,1.65.63L75,39.9a15.59,15.59,0,0,1,1.38,1.27c.47.41,1,.78,1.42,1.21.93.84,1.82,1.7,2.7,2.65a.21.21,0,0,1-.19.34Z"/><path class="cls-1" d="M109.4,62.09h0c1.17.36,2.29.78,3.39,1.24l-.13-.08c.6.15,1.18.35,1.76.52s1.24.23,1.81.44a3.24,3.24,0,0,1,1.39,1.2,5.31,5.31,0,0,1,.88,2.15.32.32,0,0,1-.19.35,5.32,5.32,0,0,1-2.28.43,3.24,3.24,0,0,1-1.77-.52c-.48-.36-.87-.91-1.35-1.28s-.95-.77-1.4-1.2l-.13-.08c-.77-.9-1.52-1.85-2.22-2.85h0l0,0a.21.21,0,0,1,.18-.34Z"/><path class="cls-1" d="M94.91,42.29a7.5,7.5,0,0,0-4.71,1.64,10.65,10.65,0,0,0-2.83,3.84,9.44,9.44,0,0,0-.88,4.07,10.07,10.07,0,0,0,1,4.17l.12.26.18.33c.13.22.23.46.33.69a10.92,10.92,0,0,1,.46,1.39,19.7,19.7,0,0,1,.53,2.73,27.26,27.26,0,0,1,.24,2.72,2.19,2.19,0,0,0,.14,1.06,1.41,1.41,0,0,0,.64.65,1.93,1.93,0,0,0,.89.24c.44,0,.87-.09,1.31-.15.87-.11,1.74-.25,2.61-.39l2.6-.42c.36-.07.77-.14,1.12-.23a3.11,3.11,0,0,0,.46-.15c.06,0,.11-.05.1-.06s-.07,0-.29.19l.27-.22c-.07,0,.08-.16.1-.57,0-.25-.05-1.11,0-1.86a10.47,10.47,0,0,1,1.28-4.62,18.24,18.24,0,0,1,1.17-1.9c.23-.32.3-.5.47-.74s.26-.48.4-.71a8.33,8.33,0,0,0,.93-2.9,7.16,7.16,0,0,0-.32-3,10.26,10.26,0,0,0-1.57-3.09,7.4,7.4,0,0,0-2.93-2.2A10,10,0,0,0,94.91,42.29Zm0-.4a23.19,23.19,0,0,1,4.06.33,11.13,11.13,0,0,1,4.09,1.44,10,10,0,0,1,3.33,3.14,8.39,8.39,0,0,1,1.31,4.75,10.23,10.23,0,0,1-1.28,4.69c-.2.34-.38.68-.61,1s-.49.69-.66.9a14.36,14.36,0,0,0-1,1.43A6.89,6.89,0,0,0,103,62.5c-.1.57,0,1.05-.2,2.12a5.11,5.11,0,0,1-.5,1.44A3.64,3.64,0,0,1,101,67.46l.27-.22a2.31,2.31,0,0,1-.85.51,3.41,3.41,0,0,1-.52.14,6.59,6.59,0,0,1-.83.1,10.3,10.3,0,0,1-1.49,0L95,67.74c-.87-.07-1.75-.15-2.62-.2-.44,0-.87,0-1.31-.05a3.18,3.18,0,0,1-1.58-.55,2.75,2.75,0,0,1-1.09-1.25,3.72,3.72,0,0,1-.24-1.51,10.69,10.69,0,0,0-.44-2.47,11.45,11.45,0,0,0-1-2.28,8.66,8.66,0,0,0-.66-1c-.12-.14-.23-.28-.37-.41l-.2-.21-.24-.28A9.18,9.18,0,0,1,82.88,52a8.36,8.36,0,0,1,2-5.82,11,11,0,0,1,2.19-1.95,11.45,11.45,0,0,1,2.52-1.33A15.22,15.22,0,0,1,94.91,41.89Z"/><path class="cls-1" d="M79.59,61A7.16,7.16,0,0,1,78.54,63a8.29,8.29,0,0,1-1.33,1.38A8.62,8.62,0,0,1,74,66l-.21.09a7.68,7.68,0,0,1-1.81,0,9.17,9.17,0,0,1-1-.17,6.25,6.25,0,0,1-1-.34,6.26,6.26,0,0,1,.56-.94,9.25,9.25,0,0,1,.63-.76,7.67,7.67,0,0,1,1.39-1.16l-.21.09a8.74,8.74,0,0,1,3.21-1.74,8.18,8.18,0,0,1,1.89-.31A6.78,6.78,0,0,1,79.59,61Z"/><path class="cls-1" d="M119.58,42.14v0h0a6,6,0,0,1-.58.94,8.25,8.25,0,0,1-.64.76A7.94,7.94,0,0,1,116.93,45l.21-.1a8.74,8.74,0,0,1-3.17,1.7,8.16,8.16,0,0,1-1.87.31,6.92,6.92,0,0,1-2.16-.24,6.92,6.92,0,0,1,1-1.92,8.17,8.17,0,0,1,1.31-1.37,8.74,8.74,0,0,1,3.2-1.65l.21-.1a8,8,0,0,1,1.83,0,8.22,8.22,0,0,1,1,.16,6,6,0,0,1,1,.34h0Z"/><path class="cls-1" d="M94.84,37.44v0a24.79,24.79,0,0,1-.74-2.76v.13c-.17-.46-.27-.93-.41-1.39s-.4-.92-.49-1.39a2,2,0,0,1,.37-1.4A4.52,4.52,0,0,1,95,29.18a.39.39,0,0,1,.4,0,4.52,4.52,0,0,1,1.49,1.37,2,2,0,0,1,.41,1.39c-.08.47-.37.93-.46,1.4s-.21.93-.37,1.4v.13a24.73,24.73,0,0,1-1.24,2.58v0a.21.21,0,0,1-.38,0Z"/><path class="cls-1" d="M93,45.45a15.37,15.37,0,0,0-.86,2.05,16.56,16.56,0,0,0-.56,2c-.15.67.09,1.36-.24,1.92a8.19,8.19,0,0,1-1.38,2h0a.22.22,0,0,1-.29,0,2.82,2.82,0,0,1-1-1.15A3.2,3.2,0,0,1,88.4,51a4,4,0,0,1,1-2.37,9.7,9.7,0,0,1,1.53-1.92,10,10,0,0,1,1.91-1.44.16.16,0,0,1,.22.2Z"/><path class="cls-13" d="M190.26,139c-2.37,0-4.43.07-6.42.21a39.32,39.32,0,0,0-5.69.73,35.24,35.24,0,0,0-5.48,1.53c-1,.27-1.86.73-2.88,1.07s-2,.87-3.15,1.21a12.55,12.55,0,0,1,.71-1.61,8.43,8.43,0,0,1,.91-1.51,13.43,13.43,0,0,1,2.44-2.56,14.42,14.42,0,0,1,6.49-3,15,15,0,0,1,7.14.28A12,12,0,0,1,190.26,139Z"/><path class="cls-13" d="M215.74,139.4a12.66,12.66,0,0,1,5.85-3.64,16.55,16.55,0,0,1,6.93-.63,17.32,17.32,0,0,1,3.44.76,15.54,15.54,0,0,1,3.17,1.53,12.72,12.72,0,0,1,4.72,5c-2.36-.42-4.28-1-6.25-1.4a51.79,51.79,0,0,0-5.67-.95c-1.88-.23-3.79-.39-5.79-.46Z"/><path class="cls-13" d="M222.39,199.89a2.13,2.13,0,0,1,1.32-.35,2.44,2.44,0,0,1,1.16.38,2.36,2.36,0,0,1,.84.92,1.88,1.88,0,0,1,.14,1.39,7.41,7.41,0,0,1-1.22-.24,3.3,3.3,0,0,1-.84-.38,3.35,3.35,0,0,1-.72-.63A4.59,4.59,0,0,1,222.39,199.89Z"/><path class="cls-13" d="M189.64,199.89A4.58,4.58,0,0,1,189,201a3.35,3.35,0,0,1-.72.63,3.3,3.3,0,0,1-.84.38,7.4,7.4,0,0,1-1.22.24,1.88,1.88,0,0,1,.14-1.39,2.37,2.37,0,0,1,.84-.92,2.44,2.44,0,0,1,1.16-.38A2.13,2.13,0,0,1,189.64,199.89Z"/><path class="cls-13" d="M188.82,201.16a47.09,47.09,0,0,0,8.49,3.52,29.11,29.11,0,0,0,8.74,1.08,35.38,35.38,0,0,0,8.75-1.49c2.93-.78,5.72-2.06,8.71-3.17a27.5,27.5,0,0,1-7.89,5.37,24.4,24.4,0,0,1-9.48,2.29,21.9,21.9,0,0,1-9.62-1.88A21.58,21.58,0,0,1,188.82,201.16Z"/><ellipse class="cls-13" cx="179" cy="160.54" rx="2.93" ry="2.83" transform="translate(-46.08 75.97) rotate(-21.3)"/><ellipse class="cls-13" cx="223.36" cy="160.79" rx="2.76" ry="2.73"/></g><g id="arms_line"><path class="cls-14" d="M114.46,294.6c3.45,1.46,6.82,3,10.24,4.25a49.51,49.51,0,0,0,5.14,1.65,15.74,15.74,0,0,0,5,.57,3.84,3.84,0,0,0,2-.69c.65-.56,1.34-1.19,2-1.82l2-2q.95-1,1.86-2.07a89.87,89.87,0,0,0,6.67-8.94c2-3.12,4.14-6.2,6.33-9.2s4.33-6,6.59-9a218.8,218.8,0,0,1,14.52-17l.24.18a188,188,0,0,1-12.21,18.75c-2.22,3-4.54,5.9-6.89,8.79-1.18,1.45-2.35,2.89-3.57,4.3s-2.48,2.79-3.72,4.18c-2.52,2.76-4.93,5.59-7.21,8.55q-1.69,2.23-3.34,4.52c-.57.76-1.14,1.5-1.78,2.27a5.72,5.72,0,0,1-3,1.62,9.87,9.87,0,0,1-3.14.11,15.72,15.72,0,0,1-2.92-.58,32,32,0,0,1-5.37-2.08,45.54,45.54,0,0,1-9.49-6.14Z"/><path class="cls-14" d="M101.8,304.6l8.86,4.93c1.48.79,2.95,1.58,4.43,2.35s3,1.51,4.45,2.25a39.62,39.62,0,0,0,9.24,3.8,21,21,0,0,0,5,.48,16.29,16.29,0,0,0,4.82-.9,15.63,15.63,0,0,0,4.17-2.28,9.24,9.24,0,0,0,.9-.75c.3-.27.59-.48.88-.79l1.8-1.77,7.15-7.15c2.42-2.34,4.84-4.68,7.22-7a44.28,44.28,0,0,0,6.54-7.57l.29.09a16.41,16.41,0,0,1-2.1,4.78,51.1,51.1,0,0,1-2.94,4.26,89.14,89.14,0,0,1-6.73,7.75c-2.4,2.43-4.91,4.74-7.49,7-.65.56-1.28,1.12-2,1.67-.32.28-.73.55-1.09.82a7.84,7.84,0,0,1-1.15.75l-1.21.65c-.42.18-.85.33-1.27.5a8.33,8.33,0,0,1-1.29.4,12.63,12.63,0,0,1-1.31.31,25.41,25.41,0,0,1-5.25.34,47.24,47.24,0,0,1-5.14-.55,53.54,53.54,0,0,1-10.07-2.47,33.07,33.07,0,0,1-4.69-2.19q-2.26-1.26-4.4-2.71a45.13,45.13,0,0,1-7.83-6.68Z"/><path class="cls-14" d="M241.88,286.75a43.82,43.82,0,0,1,3,7.84c.37,1.34.72,2.69,1,4a32.8,32.8,0,0,1,.69,4.11c.31,2.77.25,5.58.56,8.33.13,1.38.34,2.75.58,4.11s.5,2.73.78,4.09a76.32,76.32,0,0,1,1.35,8.23c.3,2.76.62,5.53.65,8.31a77.22,77.22,0,0,1-1.36,16.63h-.3c-.48-2.78-.66-5.53-.93-8.27-.13-1.37-.24-2.74-.32-4.11l-.29-4.11c-.13-2.74-.2-5.48-.28-8.23,0-1.37-.12-2.74-.13-4.12s0-2.76,0-4.14,0-2.77-.16-4.14-.29-2.74-.53-4.1c-.49-2.72-1.39-5.36-2.06-8-.32-1.34-.63-2.68-.83-4q-.16-1-.35-2l-.31-2c-.41-2.72-.78-5.45-1-8.25Z"/><path class="cls-14" d="M233.29,253.76a39.52,39.52,0,0,1,9.81,7.68l2.14,2.29,1.94,2.45a41.55,41.55,0,0,1,3.51,5.17,55.11,55.11,0,0,1,2.84,5.56c.94,1.85,1.66,3.79,2.52,5.67.44.93.86,1.87,1.31,2.8s.77,1.91,1.19,2.85.82,1.89,1.26,2.83l.65,1.41.56,1.44c.74,1.93,1.52,3.86,2.23,5.81a28.12,28.12,0,0,1,.9,3l.8,3a94.2,94.2,0,0,1,2.43,12.2,28.85,28.85,0,0,1,.34,3.09c.07,1,.14,2.07.19,3.1.11,2.07.21,4.14.27,6.21-.09,4.14-.38,8.28-.78,12.38h-.3c-.57-4.11-.93-8.18-1.28-12.24-.29-2-.56-4-.8-6.06s-.36-4.05-.8-6c-.71-4-1.09-8-2-12-.44-2-.76-4-1.25-6s-1-4-1.47-5.94l-.37-1.49-.48-1.45q-.48-1.45-1-2.89c-.34-1-.72-1.91-1.08-2.87s-.91-1.83-1.36-2.75a42,42,0,0,0-3.09-5.28l-1.72-2.53c-.29-.42-.55-.85-.85-1.26s-.62-.8-.92-1.22A119.24,119.24,0,0,0,233.13,254Z"/></g><g id="hand_color"><path class="cls-3" d="M105.42,282.58c3.51-.12,6.66,1.18,8.4,3.81,3,4.62.59,11.61-5.49,15.62s-13.47,3.51-16.51-1.11c-1.8-2.73-1.68-6.29,0-9.57,0,0,1.47-2,1.86-2.06"/><path class="cls-6" d="M113.9,243.1l.19-.34c1.5-4.25-3.08-9.75-5.33-11.17h0l.09-.33c-.06-1.87-1.6-3.88-2.64-5a25.8,25.8,0,0,0-.26-4.34c-.22-1.1-.19-4-4.44-3.25-4,.7-4.61,7.71-4.68,8.64a9.34,9.34,0,0,0-1.49,1.06,10.35,10.35,0,0,1-3.58,2.5,2.76,2.76,0,0,1-1.63-.47l0-.41c-.92-2-9.17-16.92-13.67-23.5s-9-6.25-11.25-5.33.33,5.25.33,5.25c13,18.25,15.83,24,17.08,26.5s2.17,8.92,2.67,11.33,3.42,10,3.42,10c1.58,11.08.25,24.08,3,29.83a87.4,87.4,0,0,1,4.58,12.33l0-.34.08.3c10.11-.64,10.79-6.83,10.79-6.83a2.89,2.89,0,0,1,.17-.67l-3.64-8-.15-3.2c2-2.29,4.28-5.54,4.79-8.56.44-2.57-.07-6.2-.72-9.3l.51-.36c2.17.45,5.89-3.52,7.88-5.75S115.49,245.09,113.9,243.1Z"/></g><g id="hand_shadow"><path class="cls-10" d="M101.2,303.91c-4.57-1.62-5.09-7.51-5.09-7.51l1.45,0,3.91-.66,2.1-1.16,1.72-1.73,1.26-2.09.74-2.7-.14-.15c4.82-2.37,7.76.81,7.76.81.3,1.31-.61,9-6.62,13.06-3.87,2.62-.92,1.44-5.86,2.13Z"/><path class="cls-9" d="M107.15,288.81l-3.52-8-.4-2.9s-3.9,4.5-4.77,5.42,3.17,12.33,3.17,12.33l2.44-1.58s1.6-1.37,1.71-1.54.69-1.48.69-1.48Z"/><path class="cls-9" d="M109.78,232.83a20.76,20.76,0,0,1-1.41,8.3l-.08,1.69,1.17,0,2-.37,1.53,0,1,.59a5.47,5.47,0,0,0-.08-4.78C112.69,235.39,110.41,232.67,109.78,232.83Z"/><path class="cls-9" d="M104.63,225.39s2.58,4.29.21,7.25l1.92-1a10.39,10.39,0,0,1,1.21-.29,2.51,2.51,0,0,1,.67.21l.12-.29a6.12,6.12,0,0,0-1.29-3.29C106.29,226.64,105.33,224.68,104.63,225.39Z"/><path class="cls-9" d="M109.42,252.1s3.62-4.29,1.33-9.21a2.78,2.78,0,0,1,1.37-.37c.79,0,1.87-.08,3.21,3.33s1.21,4.79,1.21,4.79.42,2.21-.79,3.17-3,3.33-4,4-2.42,1.87-3.79,1.71-1.29-2-1.29-2l0-1.62S109.21,254.14,109.42,252.1Z"/></g><g id="hand_line"><path class="cls-14" d="M104.68,282.65a6.92,6.92,0,0,1,3.7-.35,11.76,11.76,0,0,1,3.63,1.05,8.8,8.8,0,0,1,1.7,1.09,6.3,6.3,0,0,1,1.38,1.65,8,8,0,0,1,1.14,3.9,11.75,11.75,0,0,1-2.64,7.07,28.16,28.16,0,0,1-5,5.25,15.89,15.89,0,0,1-6.61,3.39,12.39,12.39,0,0,1-7.79-.68A8.79,8.79,0,0,1,91,302.41a9.44,9.44,0,0,1-1.06-1.83,9.74,9.74,0,0,1-.57-2,10.41,10.41,0,0,1,1.79-7.42l.05-.09c.37-.38.73-.73,1.13-1.08.2-.17.4-.33.62-.49a2.68,2.68,0,0,1,.74-.39.15.15,0,0,1,.14.25l0,0a5.35,5.35,0,0,0-.81,1.15c-.24.42-.49.86-.7,1.29l.05-.09a10.7,10.7,0,0,0-.28,6.22,7,7,0,0,0,3.58,4.17,10.55,10.55,0,0,0,6,1,17.33,17.33,0,0,0,6.31-1.87,11.33,11.33,0,0,0,4.73-4.77,11.09,11.09,0,0,0,1-6.29,8.36,8.36,0,0,0-.81-2.79,4.75,4.75,0,0,0-.76-1.12,6.43,6.43,0,0,0-1.15-1,16.21,16.21,0,0,0-4.47-2.08,5.75,5.75,0,0,0-1.65-.29h0a.15.15,0,0,1-.06-.29Z"/><path class="cls-13" d="M96.11,296.43c-1.34-3.35-2.73-6.67-4.29-9.87-.4-.81-.79-1.55-1.2-2.42a15.4,15.4,0,0,1-1-2.73,37.6,37.6,0,0,1-.9-5.5c-.34-3.65-.45-7.26-.55-10.85s-.13-7.15-.42-10.7l.05.2c-.69-2.15-1.36-4.29-2-6.45-.33-1.08-.66-2.16-.92-3.28s-.41-2.23-.61-3.34A52.26,52.26,0,0,0,82.8,235a13.13,13.13,0,0,0-.57-1.51c-.21-.45-.52-1-.78-1.45q-.81-1.45-1.72-2.86c-2.39-3.76-5-7.36-7.62-11s-5.22-7.26-7.86-10.87l-.07-.11a12.31,12.31,0,0,1-1.33-3.1,5.11,5.11,0,0,1-.12-2.1,3.89,3.89,0,0,1,.19-.66,4,4,0,0,1,.37-.67,4.59,4.59,0,0,1,.56-.58,6.09,6.09,0,0,1,.64-.38,8.57,8.57,0,0,1,6.94.16,14.12,14.12,0,0,1,5,4.13,49.83,49.83,0,0,1,3.27,5c2,3.38,3.81,6.81,5.58,10.28s3.46,7,4.94,10.6A.15.15,0,0,1,90,230h0c-2-3.3-4.17-6.55-6.25-9.82s-4.17-6.54-6.31-9.74a51,51,0,0,0-3.29-4.57,11.1,11.1,0,0,0-4-3.14,6.74,6.74,0,0,0-2.23-.51,5.19,5.19,0,0,0-2.14.37s0,0,0,0a.07.07,0,0,0,.06-.05s0,0,0,0,0,0,0,0a2.58,2.58,0,0,0,.07.79,9.39,9.39,0,0,0,.9,2.26l-.07-.1c2.55,3.7,5.06,7.43,7.49,11.22s4.69,7.69,6.79,11.7c.52,1,1,2,1.52,3a16.85,16.85,0,0,1,1.25,3.23c.58,2.21,1,4.43,1.38,6.64.22,1.09.4,2.22.66,3.26s.7,2.1,1.08,3.14c.81,2.08,1.69,4.14,2.6,6.18a.5.5,0,0,1,0,.11l0,.09a80.26,80.26,0,0,1,1.27,10.86c.19,3.61.17,7.22.4,10.76a36.21,36.21,0,0,0,.57,5.2,13.39,13.39,0,0,0,.65,2.42c.29.79.7,1.67,1,2.52a65.39,65.39,0,0,1,2.93,10.5.15.15,0,0,1-.12.18A.15.15,0,0,1,96.11,296.43Z"/><path class="cls-13" d="M88.18,228.9c.88.15,1.66.41,2.38.59a3.9,3.9,0,0,0,.91.15c.07,0,.06,0,.08,0s-.11,0-.07,0l.3-.17a14.09,14.09,0,0,1,1.84-1c.35-.16.72-.33,1.07-.51s.84-.44,1.2-.62A16.64,16.64,0,0,0,98,226a25.16,25.16,0,0,1,2.14-1.48,8.13,8.13,0,0,1,2.57-.88,6.66,6.66,0,0,1,3,.11,1.53,1.53,0,0,1,.59.33h0a9.27,9.27,0,0,1,1.29,1.51,10.39,10.39,0,0,1,1,1.72,7.07,7.07,0,0,1,.57,1.94,4,4,0,0,1-.18,2,.16.16,0,0,1-.21.09.16.16,0,0,1-.08-.07h0a11.72,11.72,0,0,0-2.15-2.61c-.4-.37-.78-.76-1.2-1.12l-1.17-1.08.6.34a7.42,7.42,0,0,0-1.78-.29,20.42,20.42,0,0,0-2.14.13,6.91,6.91,0,0,0-4.38,1.48,3.19,3.19,0,0,0-.69.88c-.22.38-.46.75-.72,1.11a4.94,4.94,0,0,1-2.12,1.71,3.94,3.94,0,0,1-.83.26,2.39,2.39,0,0,1-.67,0,2.76,2.76,0,0,1-.51-.11,4.07,4.07,0,0,1-1.32-.76A6.21,6.21,0,0,1,88,229.13a.17.17,0,0,1,.18-.23Z"/><path class="cls-13" d="M95.08,238.28a24.81,24.81,0,0,0,3-1.62l1.1-1a8.43,8.43,0,0,1,1.42-1.1c1.06-.64,2.31-1.06,3.35-1.7.53-.32,1-.68,1.54-1a10.75,10.75,0,0,1,1.71-1.08,2.89,2.89,0,0,1,1.28-.25,2.33,2.33,0,0,1,.82.21l.5.24a9.08,9.08,0,0,1,1.65,1.18,11.81,11.81,0,0,1,2.57,3,9.57,9.57,0,0,1,1.24,3.85,5.25,5.25,0,0,1-1.06,3.9.16.16,0,0,1-.28-.09h0a8.65,8.65,0,0,0-1-3.23,23.5,23.5,0,0,0-1.67-2.74c-.61-.89-1.19-1.84-1.87-2.7-.34-.44-.71-.83-1-1.22l-.25-.27a.11.11,0,0,0,0-.11.85.85,0,0,0-.51-.16,4.88,4.88,0,0,0-3.07,1.31,23.51,23.51,0,0,0-2.3,2.83,8,8,0,0,1-1.33,1.24c-.24.19-.5.37-.78.56A4.57,4.57,0,0,1,97,239a5.39,5.39,0,0,1-1.95-.45.16.16,0,0,1,0-.3Z"/><path class="cls-13" d="M108.57,241.08a4,4,0,0,1,.59.81,2.86,2.86,0,0,1,.32,1c.05.33.32.84-.09,1.14a1.36,1.36,0,0,1-1.72,0,.41.41,0,0,1-.14-.19l0-.06a2.69,2.69,0,0,0-.77-1.14c-.18-.14.24-.11.4-.27a6.92,6.92,0,0,0,.53-.53c.22-.2.38-.44.6-.68h0a.2.2,0,0,1,.28,0Z"/><path class="cls-13" d="M101.34,245.11c.7-.28,1.37-.54,2-.83a9.3,9.3,0,0,0,.84-.47c.28-.18.59-.37.91-.55a12.74,12.74,0,0,1,4.17-1.63,9.24,9.24,0,0,1,2.4,0,3.87,3.87,0,0,1,2.45,1,17.77,17.77,0,0,1,1.26,1.92c.39.64.79,1.27,1.17,1.94a10.49,10.49,0,0,1,1.55,4.45,5.65,5.65,0,0,1-.32,2.81,4.66,4.66,0,0,1-.84,1.31q-.36.42-.75.81a18.39,18.39,0,0,1-3.55,2.82,9.18,9.18,0,0,1-2.16,1,3.27,3.27,0,0,1-2.46-.05.15.15,0,0,1,0-.29h0a3.74,3.74,0,0,0,1.67-1,20.1,20.1,0,0,0,1.39-1.46l2.69-3.17.7-.78a1.74,1.74,0,0,0,.26-.3c0-.05.1-.06.12-.16a3.14,3.14,0,0,0,.34-1.43,24.69,24.69,0,0,0-.26-4,9.14,9.14,0,0,0-.52-2,4.76,4.76,0,0,0-1.06-1.71,1.86,1.86,0,0,0-1.62,0,19.84,19.84,0,0,0-1.84.8,33.89,33.89,0,0,1-3.94,1.38c-.35.1-.7.2-1.09.29a5.62,5.62,0,0,1-1.24.14,5.69,5.69,0,0,1-2.33-.43.16.16,0,0,1,0-.3Z"/><path class="cls-13" d="M109.48,252a2.51,2.51,0,0,1,.42,1.74,2.27,2.27,0,0,1-.09.48,3.56,3.56,0,0,1-.21.51c-.16.29-.33.54-.49.76-.31.44-.37,1-.67,1s-.64-.16-1.46.36l0,0a.29.29,0,0,1-.27,0,1.69,1.69,0,0,1-.57-2.29c.31-.72,1-.74,1.42-.94l.54-.24.2-.08c.06,0,.15-.11.22-.17a2.15,2.15,0,0,0,.69-1.08v-.05a.15.15,0,0,1,.19-.11A.15.15,0,0,1,109.48,252Z"/><path class="cls-13" d="M106,226.21a10.78,10.78,0,0,1-1.5-5,6.86,6.86,0,0,0,.05-1.05,1.14,1.14,0,0,0-.51-.88,2.36,2.36,0,0,0-2.31.18,4.86,4.86,0,0,0-1.39,1.42,17.08,17.08,0,0,0-.94,1.93A44.22,44.22,0,0,1,97,227.4h0a.17.17,0,0,1-.3,0,7.27,7.27,0,0,1-.62-2.89,8,8,0,0,1,.45-2.93,6.35,6.35,0,0,1,1.82-2.64,4.42,4.42,0,0,1,.7-.53,2.55,2.55,0,0,1,.8-.39,2.44,2.44,0,0,1,.87-.19,4,4,0,0,1,.84,0,16.51,16.51,0,0,1,3,.56,4.28,4.28,0,0,1,1.49.86,4,4,0,0,1,1,1.44,6,6,0,0,1,.29,2.82,7,7,0,0,1-.27,1.4,3.84,3.84,0,0,1-.69,1.43.14.14,0,0,1-.2,0l0,0Z"/><path class="cls-13" d="M100.48,280.57a11.29,11.29,0,0,1,.85-1.76c.3-.56.62-1.08,1-1.59a20.1,20.1,0,0,1,2.16-2.88,13.84,13.84,0,0,0,2.46-2.71,5.18,5.18,0,0,0,.61-3.45c-.08-.59-.21-1.17-.34-1.76l-.32-1.75c-.24-1.17-.52-2.34-.71-3.53a36.19,36.19,0,0,1-.39-7.49.16.16,0,0,1,.17-.15.17.17,0,0,1,.12.06,18.11,18.11,0,0,1,3.25,7,18.65,18.65,0,0,1,.39,3.85,12,12,0,0,1-.53,3.94c-.37,1.31-.94,2.5-1.37,3.71a38.1,38.1,0,0,1-1.29,3.74,11.57,11.57,0,0,1-5.82,5,.16.16,0,0,1-.21-.21Z"/><path class="cls-13" d="M103.57,277.79a8.38,8.38,0,0,0,.83,2.72,21.58,21.58,0,0,0,1.41,2.46,8.3,8.3,0,0,1,1.48,2.61,7.17,7.17,0,0,1,.19,1.48,7.29,7.29,0,0,1-.1,1.7.2.2,0,0,1-.23.16h0a5.22,5.22,0,0,1-2.58-2.13,8.91,8.91,0,0,1-.92-2.82c-.13-.46-.31-1-.43-1.5a13.32,13.32,0,0,1-.25-1.58,7.64,7.64,0,0,1,.33-3.16.15.15,0,0,1,.29,0Z"/><path class="cls-14" d="M96.18,296.26a16,16,0,0,0,3.75-.87,10.83,10.83,0,0,0,3.15-1.7c.21-.2.41-.39.6-.59l.46-.67c.17-.2.25-.46.41-.66a4.42,4.42,0,0,0,.44-.64c.14-.22.35-.42.49-.67a7.08,7.08,0,0,1,.48-.75A18.06,18.06,0,0,1,107.1,288l0,0a.17.17,0,0,1,.24,0l0,.05a5.4,5.4,0,0,1,.27,4.47l-.22.56c-.09.18-.22.33-.33.5a4.62,4.62,0,0,1-.79.9l-.95.71-1,.57a10.65,10.65,0,0,1-4.15,1.16,13.83,13.83,0,0,1-4.09-.3.15.15,0,0,1,0-.3Z"/></g></svg>