<svg xmlns="http://www.w3.org/2000/svg" viewBox="0 0 400 400"><defs><style>.cls-1{fill:#66d0fc;}.cls-2{fill:#724644;}.cls-3{fill:#6a7484;}.cls-4{fill:#059cdb;}.cls-5{fill:#effaff;}.cls-6{fill:#e3a785;}.cls-7{fill:#4c2b28;}.cls-13,.cls-8,.cls-9{fill:#6b3434;}.cls-8{stroke:#6b3434;stroke-linecap:round;stroke-linejoin:round;}.cls-10,.cls-8,.cls-9{opacity:0.5;}.cls-10,.cls-14{fill:#2f333b;}.cls-11{fill:#7f4f4f;}.cls-12{fill:#3e2420;}.cls-15{fill:#2b1816;}</style></defs><title>warning_med</title><g id="circle"><circle class="cls-1" cx="201.25" cy="242.42" r="114.95"/></g><g id="color"><path class="cls-2" d="M264.77,192.63s4.17,41.5-8.33,65.67c0,0-6.42-2.93-8.1-1.94s-5.56,2.44-13.23,2.61l-6.56.15-3.66-11.31-1.36-12.25L216,233.15l-1.36-.84-29-1.15-8,13.71-5.76,13.3-6.47,3.12c-20,2.5-20.52-1-20.52-1-14.28-33.5-8.74-68-8.74-68l2.76-13,11.93-43.55,16.23-5.65,75.37.52,11.31,4.82Z"/><path class="cls-3" d="M173.1,246.77l-9.37,12.58-12.1,16s-12.74,16-17.28,21.57-19.65-3.15-19.65-3.15l-3.19-1.87-1.14-.89-4.29,1.13L97.4,300.7c18.25,14.27,26.3,14.24,33.68,14.62s14-7.45,14-7.45l11.31-11.4h0l-2.27,8.31L152.76,312l-1,6.76s-.59,6.15-.84,6.73-.61,6.31-.61,6.31l-.31,6.34-.36,4.75v2.33a116.37,116.37,0,0,0,106.78-2l7.07-4.38-.11-9.42-.53-8.26-2.56-17-2.69-10.33-4.5-12.09-4.17-8.36-4.47-7.17-6.5-8.21-2.82-2.92-3.5-3.43-2.21-1.38-.37-.25-.28,0-.22-1.91,0-2.12-.22-1.56.28-1.91-.19-2.75-.94-3.47-1.58-2-3.92-2.87-3.64-1.89-2.34-.69-1.73-.55-.69,7.75.7.34.78.58,2.37,2.84a18.8,18.8,0,0,1,.78,2.87,14.07,14.07,0,0,0-.39,2l-2.86,2.75-3,1.36-3.62.84-3.94-.08-2.86-.44-4-.36s-5.14-2.31-5.25-2.37L189,244.29l-2.83-2.66s-1.11-2.8-1.16-2.84.75-3,.75-3l1.55-1.84.42-.25.83-.36-.65-4.73-2.29.5-1.77.37-3,1.12-2.5,1.17-2.5,2.08s-1.75,2.58-2,3.08-.75,7.58-.75,7.58l0,2.06Z"/><path class="cls-4" d="M226.52,300l-1.31,5L221,309.11l-5.75-3.37-1.21-2.23-.12-3.29-11.58-6.33-11.83,6.42-.25,4.87-12.71-1.92.08-10,14.44-8.37h0c2.81.87,2.56,6.19,2.56,6.19h0c2.17-.9,3.94,1.31,3.94,1.31h0a9,9,0,0,1,5.35-4.21c5.5-.5,6.52,5.08,6.52,5.08h0a6.6,6.6,0,0,1,6,2.06h0a3,3,0,0,1,3.56-.69h0c-.42-2,2-4.25,2-4.25l4.62,3-.12,6.54"/><path class="cls-1" d="M226.23,318.5l.37-19.62-1-.17s-1,.17-1.12.17a13.22,13.22,0,0,0-1.33.67L222,301l-.46,1.12-.58,1.62-.25,1.08-1.29.42-.62.54-.42.87-.67-1.71-1-1-1.21-.71-1.08-.25-.46,0,.29,12.46L207.43,319l-.46,1.21,4.46,7.17s4.42-1.75,4.62-1.79,9.33-4.92,9.42-5S226.23,318.5,226.23,318.5Z"/><path class="cls-1" d="M190.2,315.58l.22-12.34-.41-.75-1.12-1.5-1.16-1.19L186,298.51l-1.16-.53-1.37-.47h-1.28l-1.37.28-1.25.56-1,.72-1.06,1v20.53s6.91,3.94,7,3.94,7.81-.84,7.81-.84-.66-5.87-.69-6S190.2,315.58,190.2,315.58Z"/><polyline class="cls-5" points="226.14 322.67 226.22 317.5 224.64 317.34 223.02 317.84 221.77 318.79 220.77 320.17 220.14 321.25 220.02 321.79 219.1 321.5 217.27 321.34 215.35 321.34 213.39 321.75 211.85 322.34 211.31 322.71 210.72 321.75 209.47 320.5 208.47 319.63 207.43 319.04 206.22 318.79 205.27 318.84 205.02 318.92 204.39 317.96 203.31 316.71 202.35 315.84 200.68 314.96 199.6 314.75 199.47 314.21 198.56 313.29 197.85 312.71 196.93 312.17 195.31 312.04 193.68 312.21 192.39 312.75 191.43 313.46 190.6 314.5 190.02 315.5 189.31 317.13 188.85 318.67 188.81 319.29 188.18 319.29 186.97 320.09 186.22 321 185.52 322.17 185.43 322.63 184.93 320.92 184.22 319.5 183.02 318.46 181.72 317.71 180.1 317.46 179.14 317.38 178.06 317.42 177.6 317.42 177.64 322.04 202.14 337.17 226.14 322.67"/><path class="cls-6" d="M243.4,137.89l-.8-5.6-5.5-21.67-18.5-4.83-29.67-2.17-24.5,6.5s-9.17,12.83-10.17,14S154,140,154,140s2.81,59.33,30.77,77.6l3.35,16.06v0l-.69.19-1.67,1.89-.75,3,1.23,3,2.87,2.66h.08l2.67,2,5.53,2.31,8.59.87,4.37-.44,3.37-1.25,2.31-1.56,1.69-1.7.39-2-.73-2.8L215,237l-.78-.58A66.08,66.08,0,0,1,217,219.28C246.24,203.17,243.4,137.89,243.4,137.89Z"/><path class="cls-2" d="M167.52,122.29a18.34,18.34,0,0,0,12.37,1.12s4.87-10.62,16.75-10.62c0,0-8.25,7.87-6.62,11.62,0,0,32.25-10.75,57.25,17.37l6.37-1.25-6.5-21.12-23.62-15.5-29.12-5L179,102.42l-12.62,14.75Z"/><path class="cls-7" d="M256.43,119.27c3.12,3.25,6.9,27.85,10,40.59,2.67,11.11,23.91,28.66,27,31.16a6.13,6.13,0,0,1,2.4,6.83c-.44,1.44-8.52,11.85-12.49,10-18.88-8.66-30.9-29.41-31.89-47.09s-9.42-34-9.42-34l-2.89-5.34L220.27,108c-26.8-12-39.25,1-39.25,1l-15.62,8.87-5.75,7.94s-8.94,17.32-9.93,35-13,38.44-31.89,47.09c-4,1.82-12.06-9.09-12.06-9.09l-.66-3.41a7.47,7.47,0,0,1,2.62-6.37c3.12-2.5,25.37-17.37,28.37-29.25s5.85-37.54,9-40.79l.13-.17,15.18-23.46,16.54-8.62s15.38-16,48.5-1.26l8.33,4.64,22.67,29.1"/><path class="cls-3" d="M215.93,97.63c-15.76-10.27-30.08,0-30.08,0L184,99l-1.29-6.5s17.5-10.5,35.5.42l1.46.87-2.37,4.75Z"/><path class="cls-3" d="M177.33,86.73l6.31,6.91c4.34,5.1.13,15.81-9.4,23.92s-20.78,10.56-25.12,5.46l-5.23-5.24-.9-.89c-4.34-5.1-.13-15.81,9.4-23.92s20.78-10.56,25.12-5.46Z"/><path class="cls-3" d="M258.51,116.9c4.34-5.1-1.21-13.67-10-22.86S228.34,82.42,224,87.52l.4-.72-6.31,6.91c-4.34,5.1,1.68,18.63,12.12,26.28,8.87,6.5,18.05,8.21,22.4,3.11Z"/><ellipse class="cls-1" cx="160.25" cy="102.21" rx="22.66" ry="12.12" transform="translate(-28.03 128.28) rotate(-40.41)"/><path class="cls-1" d="M258.51,116.9c-4.34,5.1-15.59,1.65-25.12-6.46S219.66,92.62,224,87.52,239.87,85,248.52,94,262.85,111.81,258.51,116.9Z"/><path class="cls-5" d="M189.8,169l-.32-1.72s-1.67-6.08-3-7.42-1.5-3.79-9.92-4.92c0,0-3.21-.62-8.79,2.37l-1.42.5.17,1.62s1.5,6.79,4.17,9,7.33,3.08,7.33,3.08S182.8,172.1,189.8,169Z"/><path class="cls-5" d="M211.17,167.83l.3-1.59s1.68-6.05,3-7.38,1.52-3.77,10-4.89c0,0,3.24-.62,8.89,2.36l2,.6-.71,1.52s-1.84,5.91-4.54,8.15a30.07,30.07,0,0,1-7.08,3.91S218.25,170.89,211.17,167.83Z"/></g><g id="shadow"><path class="cls-8" d="M188,231.35s16.73,14.1,25.73,2.1l.67-1s1.58-9.42,1.67-10.17.42-2.83.42-2.83l-5.17,2.17-10.83,1.17-8.58-1.58-5.75-2.92-1.15-.54,1.06,3.46,1.42,8.5Z"/><path class="cls-9" d="M187.92,233.32s1.06,9.78,1,10.41-.69,0-.69,0l-2-2.12s-.87-2.56-.87-2.66.06-2,.09-2.28a10.61,10.61,0,0,1,.72-1.62Z"/><path class="cls-10" d="M173.43,254s3,19,25.25,25.58c22.5,6.67,26.31,3.86,30.42,2a31.9,31.9,0,0,0,6-3.73c3.71-2.84,10.73-9.36,10.73-9.36l-1.42-2.28c-.67-1.08-3.09-4.18-3.09-4.18L239,259.24s-3.55-3.7-3.67-3.9-2.93-2.71-2.93-2.71L230.43,251l-1.75-1.5-.33,3.08-.92,3.92-1.92,4.17-1.79,2.46-1.83,2-5,3.54-5.42,1.83-8.37.37-5.25-.54-5.87-1.71L184,264.75s-8.08-7.37-8.29-7.62S173.43,254,173.43,254Z"/><path class="cls-10" d="M238.18,114.12s3.5,8.67,0,10.33c0,0,2.46,1,2.71,1.08s5.25.31,5.25.31l4-.69a42.55,42.55,0,0,1,3.31-2.81,33.16,33.16,0,0,0,2.94-3.37l.31-.47-2,.53-2.19.25a12.73,12.73,0,0,1-3.22-.28C248.39,118.67,238.18,114.12,238.18,114.12Z"/><path class="cls-10" d="M153.6,119.29s7.92,2.08,9.33,4.92l2.83-1,3.46-1.83,3.87-2.67,5-4.92s4.87-7.12,5.17-7.46,1.37-3.71,1.67-4.29-.17-4.08-.08-4.37a21,21,0,0,0-.62-3.83A27.18,27.18,0,0,0,182,91.58L179.6,89.5l-1.33-1,.62,1.87a11.58,11.58,0,0,1,.29,3.46c-.25,1-1.21,7.58-4.83,10.79s-6.5,8.17-11.83,10.92A52.51,52.51,0,0,1,153.6,119.29Z"/><path class="cls-10" d="M220.25,252.67s5.71,1.85,8.12-.65l.25-4.33-.23-2.44-.35-.67-1.12,2.19-1.42,1.81-2.17,1.85L221,252.12Z"/><path class="cls-9" d="M192.89,188.69c-.1.85,1.24,2.31,2.83,3.47a11.92,11.92,0,0,0,8.21,2.33c10.21-.49,6.3-8.94,5.79-9.08a3.15,3.15,0,0,0-1.87.5,32.77,32.77,0,0,1-2.9,1.56,7,7,0,0,1-5.62.14s-3-.94-4.4-.6A2.76,2.76,0,0,0,192.89,188.69Z"/><path class="cls-9" d="M240.39,135.21s.22,9.11-.25,17.83c-.49,9.19-8.61,39.89-16.86,52.58-6.85,10.53-14.37,14.42-24.67,17.22l10.3-.05,7.91-3.39,5.27-3.64,5.92-6.49,5.65-9.9,4.53-12.82,4.23-23.48,1.06-19.91-.07-5.28-2.25-2.12Z"/><path class="cls-9" d="M218.1,242.25l-.5-2.26-1.67-2.1L215,237l-.78-.58-.22,1.36-.12,1.57-.08,1.48s5.28,1.87,2.38,5.92l.16.26Z"/><path class="cls-10" d="M218,244s7.51.77,6.84,5l1.86-2.25,1.67-3.3.32-4.29-1.4-3.25L224,232.59l-3.38-2-2.32-1.09-3.16-.94-.64,3.89-.27,3.91,1.21.9,1.17,1.37,1.23,1.79.38,2Z"/><line class="cls-6" x1="185.71" y1="235.96" x2="186.45" y2="235.07"/><path class="cls-10" d="M185.71,236.11s-1.05-4.31-8-3.73c0-.18,1.56-.94,1.56-.94l2.9-1.28,2.56-.81,2.55-.61.42,2.09.48,2.83-.52.15-.93.8Z"/><path class="cls-11" d="M238.74,125a17.73,17.73,0,0,1,2.12,10.37l-2.28-1.87L229.49,128l-7.79-3.06-6.13-1.53-7-.87-6.78,0-6.21.67-5.42,1L190,122l2.63-4.71,3.46-4v-1l-6.26,1.71-4.6,2.73-2.83,2.79-2.53,3.8-4.16.61-3.88-.34-3.67-1.1-.67-.3,4.44-2.92,6.14-5.63,5.1-6.61,3.53-2,6.91-1.75,7-.59,12.75,2.51,4.31,1.52,1.47.28,1.81,3.12,4.82,6,5.46,4.57,6.55,3.62Z"/><path class="cls-10" d="M123.08,297.51s-7,9.33-23.53,3.15l4.28-2,2.67-2,2.44-2.83,1.42-2.69,4.06,2.6Z"/></g><g id="line"><path class="cls-12" d="M136.32,192.32c.1,5.82.07,11.53.15,17.26s-.62,11.51.2,17.23a63.53,63.53,0,0,0,1.68,8.46c.39,1.39.82,2.76,1.19,4.14l.56,2.07.63,2.05c.42,1.37.8,2.74,1.24,4.1s1,2.69,1.4,4c.23.67.43,1.36.68,2s.52,1.32.76,2c.48,1.34,1,2.67,1.44,4l.1.35a1.15,1.15,0,0,0,0-.2l0-.05,0-.09,0-.07s0,0,0,0a.71.71,0,0,0,.16.14,3.2,3.2,0,0,0,.65.33,12.09,12.09,0,0,0,1.73.51,34.92,34.92,0,0,0,3.88.56c1.33.11,2.68.21,4,.27s2.72.11,4.09.2a.15.15,0,0,1,.14.16.15.15,0,0,1-.12.14c-1.34.32-2.68.55-4,.78s-2.74.37-4.13.45a26.52,26.52,0,0,1-4.25,0,11.23,11.23,0,0,1-2.24-.42,6,6,0,0,1-1.21-.5,3.62,3.62,0,0,1-.66-.46,3.38,3.38,0,0,1-.36-.38,1.91,1.91,0,0,1-.39-.86l.1.35a78.79,78.79,0,0,1-5.48-16.65,76.22,76.22,0,0,1-1.43-8.63c-.23-2.91-.6-5.79-.9-8.67-.6-5.74-2.08-11.48-2-17.33,0-1.46.08-2.91.13-4.37s.21-2.91.39-4.36a48.78,48.78,0,0,1,1.72-8.59.15.15,0,0,1,.3,0Z"/><path class="cls-12" d="M264.92,192.61a78,78,0,0,1,1.84,16.73,57.39,57.39,0,0,1-.45,8.41c-.35,2.79-.82,5.57-1.18,8.34s-.62,5.56-.92,8.35-.55,5.6-1.06,8.39a65.76,65.76,0,0,1-2.05,8.25,51.61,51.61,0,0,1-3.23,7.95,1.61,1.61,0,0,1-2,.75c-1.32-.54-2.73-1.08-4.09-1.48a20.65,20.65,0,0,0-2-.51,5.41,5.41,0,0,0-.87-.09h-.25s0,0,0,0h0l-.07,0-.14.08a11.81,11.81,0,0,1-4.75,1.37A22.45,22.45,0,0,1,239,259a.15.15,0,0,1,0-.3c1.49-.4,3-.77,4.35-1.25a12.09,12.09,0,0,0,3.68-1.89l.1-.08.05,0,.14-.08a2.59,2.59,0,0,1,.53-.24,4,4,0,0,1,.87-.17,7.92,7.92,0,0,1,1.4,0,16.5,16.5,0,0,1,2.43.43,40,40,0,0,1,4.51,1.43l-2,.75c.6-1.21,1.2-2.42,1.72-3.67.29-.61.56-1.24.81-1.87s.53-1.25.75-1.9c1-2.54,1.76-5.18,2.57-7.82s1.54-5.32,2.14-8a58.37,58.37,0,0,0,1.15-8.25,83,83,0,0,0,0-8.35c-.1-2.78-.1-5.55,0-8.32.11-5.54.18-11.08.51-16.7a.15.15,0,0,1,.16-.15A.16.16,0,0,1,264.92,192.61Z"/><path class="cls-13" d="M196,188.79a1.71,1.71,0,0,1,1.22-.6,2.1,2.1,0,0,1,1.22.31,1.93,1.93,0,0,1,.89,2.29,7.36,7.36,0,0,1-1.18-.25,3.4,3.4,0,0,1-.74-.32,3.56,3.56,0,0,1-.63-.51A11.5,11.5,0,0,1,196,188.79Z"/><path class="cls-13" d="M204,190.63a2.13,2.13,0,0,1,.41-1.3,2.44,2.44,0,0,1,.94-.77,2.36,2.36,0,0,1,1.23-.21,1.88,1.88,0,0,1,1.25.63,7.44,7.44,0,0,1-.86.9,3.31,3.31,0,0,1-.77.5,3.35,3.35,0,0,1-.92.27A4.58,4.58,0,0,1,204,190.63Z"/><path class="cls-13" d="M207.77,183.71a3.25,3.25,0,0,1,1.89.89,4.08,4.08,0,0,1,1.12,1.8,3.46,3.46,0,0,1-1.18,3.89c-.18-.73-.22-1.3-.36-1.84a13,13,0,0,0-.37-1.47C208.59,186,208.2,185.09,207.77,183.71Z"/><path class="cls-13" d="M194,184.88c.09.64.12,1.12.15,1.58s0,.86,0,1.27,0,.8-.06,1.25a15.64,15.64,0,0,1-.19,1.58,2.92,2.92,0,0,1-1.75-2.87,3.34,3.34,0,0,1,.48-1.67A2.57,2.57,0,0,1,194,184.88Z"/><path class="cls-13" d="M188.35,201.58a3.86,3.86,0,0,1,.71,1.09,4.27,4.27,0,0,1,.28.87,4.91,4.91,0,0,1,.09.83,5.22,5.22,0,0,1-.08,1.28,2.07,2.07,0,0,1-1.29-.51,2.18,2.18,0,0,1-.67-1.19,2.28,2.28,0,0,1,1-2.35Z"/><path class="cls-13" d="M189.36,204a34.13,34.13,0,0,1,6.39-1.65,52.53,52.53,0,0,1,6.49-.65,48.91,48.91,0,0,1,6.53.18,26.66,26.66,0,0,1,6.49,1.35,65.23,65.23,0,0,1-6.48,1q-3.22.34-6.43.46c-2.15.08-4.3.09-6.46,0A43.44,43.44,0,0,1,189.36,204Z"/><path class="cls-13" d="M186.44,135.41c-2.37,0-4.43.07-6.42.21a39.29,39.29,0,0,0-5.69.73,35.22,35.22,0,0,0-5.48,1.53c-1,.27-1.86.73-2.88,1.07s-2,.87-3.15,1.21a12.5,12.5,0,0,1,.71-1.61,8.43,8.43,0,0,1,.91-1.51,13.44,13.44,0,0,1,2.44-2.56,14.42,14.42,0,0,1,6.49-3,15,15,0,0,1,7.14.28A12,12,0,0,1,186.44,135.41Z"/><path class="cls-13" d="M211.93,144.5a12.66,12.66,0,0,1,5.85-3.64,16.55,16.55,0,0,1,6.92-.63,17.34,17.34,0,0,1,3.44.76,15.55,15.55,0,0,1,3.17,1.53,12.72,12.72,0,0,1,4.72,5c-2.36-.42-4.28-1-6.25-1.4a51.9,51.9,0,0,0-5.67-.95c-1.88-.23-3.79-.39-5.79-.46Z"/><path class="cls-13" d="M189.89,169.24a27.53,27.53,0,0,1-7.28,2.8,17.05,17.05,0,0,1-8.07,0,12.61,12.61,0,0,1-3.93-1.73,9.74,9.74,0,0,1-2.92-3.19,12.73,12.73,0,0,1-1.4-8,.16.16,0,0,1,.18-.13.16.16,0,0,1,.12.08,42.62,42.62,0,0,0,3.63,6.4,21.71,21.71,0,0,0,2.22,2.46,8.62,8.62,0,0,0,2.84,1.79,16.52,16.52,0,0,0,7.12.8,29.74,29.74,0,0,0,7.38-1.59h0a.15.15,0,0,1,.12.27Z"/><path class="cls-13" d="M189.29,167.07a23.8,23.8,0,0,0-2.73-5.85,18,18,0,0,0-4.14-4.62,21.14,21.14,0,0,0-5.35-2.52l-1.44-.52a12.27,12.27,0,0,1-1.66-.65,6.52,6.52,0,0,1-2.79-2.27.15.15,0,0,1,.17-.23h0a17.65,17.65,0,0,0,3.15.45c.52,0,1,.07,1.55.07s1.17.15,1.76.23a7.36,7.36,0,0,1,1.74.51c.28.11.56.23.84.35s.52.32.78.48a11.16,11.16,0,0,1,1.46,1.07,12.88,12.88,0,0,1,1.33,1.2,17.76,17.76,0,0,1,3.88,5.73,22,22,0,0,1,1.7,6.5.15.15,0,0,1-.29.06Z"/><path class="cls-13" d="M186.39,159.79a15.36,15.36,0,0,0-4.84-3.48A14,14,0,0,0,176,155c-.47,0-.94,0-1.41.09l-1.39.25c-.53.1-1.06.18-1.59.24a15.36,15.36,0,0,1-1.64,0,9.91,9.91,0,0,1-3.34-.74,4.46,4.46,0,0,1-1.56-1.06,1.76,1.76,0,0,1-.45-1.87.15.15,0,0,1,.27,0l0,.05a1.3,1.3,0,0,0,1,.7,5.09,5.09,0,0,0,1.26.12c.9,0,1.83-.1,2.78-.21s1.92-.19,2.92-.2l1.69,0,1.67.18a14.4,14.4,0,0,1,6.1,2.39,14.91,14.91,0,0,1,4.34,4.61.15.15,0,0,1-.24.18Z"/><path class="cls-13" d="M184.33,157.64a15.22,15.22,0,0,0-5.65-1.74,13.91,13.91,0,0,0-5.63.53c-.44.17-.88.33-1.3.52l-1.22.67c-.47.26-.94.5-1.42.72a15.27,15.27,0,0,1-1.54.53,9.84,9.84,0,0,1-3.38.35,4.44,4.44,0,0,1-1.8-.51,1.75,1.75,0,0,1-1-1.62.15.15,0,0,1,.25-.08l0,0a1.29,1.29,0,0,0,1.13.35,5.1,5.1,0,0,0,1.23-.29c.84-.3,1.69-.68,2.55-1.07s1.75-.78,2.68-1.1l1.6-.49,1.63-.35a14.31,14.31,0,0,1,6.49.33,14.78,14.78,0,0,1,5.54,3,.15.15,0,0,1-.17.24Z"/><path class="cls-13" d="M212.59,168.25a19,19,0,0,0,7.14,1.46,12.28,12.28,0,0,0,6.62-1.78c1.95-1.21,3.22-3.12,4.62-4.93.72-.92,1.35-1.92,2-2.93.31-.52.66-1,1-1.56s.68-1.07,1.09-1.59h0a.16.16,0,0,1,.28.09,15.23,15.23,0,0,1-1.9,7.61A11.77,11.77,0,0,1,231,167.8,16.28,16.28,0,0,1,227.5,170a13.17,13.17,0,0,1-3.9,1.19,14.88,14.88,0,0,1-4,0,18.48,18.48,0,0,1-7.18-2.7.15.15,0,0,1,.14-.26Z"/><path class="cls-13" d="M211.12,167.36a19.87,19.87,0,0,1,1.65-6.8,16.5,16.5,0,0,1,4.3-5.83,13.16,13.16,0,0,1,3.13-2.1,10.42,10.42,0,0,1,3.65-.84,11.11,11.11,0,0,0,5.74-2.34h0a.15.15,0,0,1,.23.18,8.22,8.22,0,0,1-5.53,4.83c-1,.31-2,.7-2.9,1a14.89,14.89,0,0,0-2.79,1.27,15.08,15.08,0,0,0-4.45,4.53,21.49,21.49,0,0,0-2.74,6.08h0a.15.15,0,0,1-.29,0Z"/><path class="cls-13" d="M214.35,158.61a15.78,15.78,0,0,1,4.63-4,17.31,17.31,0,0,1,5.91-2.11l1.58-.21c.53-.06,1.06-.07,1.6-.11,1-.08,1.8-.08,2.68-.14a15.09,15.09,0,0,0,5.34-1.17h0a.16.16,0,0,1,.21.19,6.75,6.75,0,0,1-5.15,4,8.7,8.7,0,0,1-3.28,0c-.46-.06-.92-.14-1.38-.18s-.93,0-1.39,0a17.93,17.93,0,0,0-5.52,1.09,16.52,16.52,0,0,0-5,2.88h0a.15.15,0,0,1-.22-.21Z"/><path class="cls-13" d="M216.47,156.4a15.21,15.21,0,0,1,5.52-2.78,15.85,15.85,0,0,1,6.35-.4,23.54,23.54,0,0,1,5.92,1.6c.88.35,1.74.71,2.6,1a9,9,0,0,0,1.27.35,1.51,1.51,0,0,0,1.17-.14l.08-.06a.14.14,0,0,1,.22.11c0,.75-.68,1.19-1.21,1.45a5.63,5.63,0,0,1-1.73.41,10.92,10.92,0,0,1-3.28-.25,12.16,12.16,0,0,1-2.94-1.08,12.41,12.41,0,0,0-2.57-1.05,16.25,16.25,0,0,0-11.23,1.08h0a.15.15,0,0,1-.16-.25Z"/><path class="cls-14" d="M182.61,92.33a12.92,12.92,0,0,1,3.87-2.91A14.94,14.94,0,0,1,191,87.89c.81-.07,1.62-.09,2.42-.11a20.28,20.28,0,0,0,2.39,0,43.5,43.5,0,0,0,4.69-.63,20.39,20.39,0,0,1,9.6.54,18.79,18.79,0,0,1,8.15,5.09.15.15,0,0,1-.14.26h0a21.85,21.85,0,0,1-2.32-.55c-.75-.2-1.45-.47-2.21-.62s-1.46-.37-2.17-.59-1.45-.31-2.16-.51c-1.41-.43-2.85-.72-4.29-1.12-.73-.14-1.47-.24-2.2-.41s-1.48-.33-2.24-.45a12,12,0,0,0-4.57-.05,15.08,15.08,0,0,0-2.2.7c-.71.32-1.41.64-2.11.9a13.35,13.35,0,0,1-2.14.7c-.71.23-1.45.39-2.18.59-1.48.35-2.94.74-4.56,1h0a.16.16,0,0,1-.14-.26Z"/><path class="cls-14" d="M185.76,97.51a7.5,7.5,0,0,1,1.41-1.61,10.82,10.82,0,0,1,1.68-1.25,11.18,11.18,0,0,1,3.84-1.55c.7-.08,1.41-.11,2.1-.13a14,14,0,0,0,2.07,0,29.9,29.9,0,0,0,4-.65,13.68,13.68,0,0,1,4.18-.32,15.74,15.74,0,0,1,4.14.78A14.92,14.92,0,0,1,216,97.5a.16.16,0,0,1-.14.25h0a37.66,37.66,0,0,1-3.91-1c-.63-.15-1.25-.32-1.85-.51s-1.23-.29-1.82-.47-1.18-.4-1.79-.54-1.21-.32-1.82-.5-1.24-.23-1.86-.4c-.31-.07-.62-.17-.94-.25l-1-.19a8.86,8.86,0,0,0-3.9,0,12,12,0,0,0-1.85.7c-.59.32-1.16.64-1.75.91a9.73,9.73,0,0,1-1.78.69c-.59.23-1.21.39-1.82.59a37.15,37.15,0,0,1-3.88,1h0a.16.16,0,0,1-.17-.25Z"/><path class="cls-14" d="M214.21,236.16a9.69,9.69,0,0,1,3,2,7.4,7.4,0,0,1,1.2,1.45,6.38,6.38,0,0,1,.84,1.8,5.82,5.82,0,0,1,.2,2.1,5.48,5.48,0,0,1-.21,1.06,3.91,3.91,0,0,1-.39,1,6.77,6.77,0,0,1-2.82,2.86,17.81,17.81,0,0,1-7,1.5c-2.3.18-4.59.29-6.93.28a23.16,23.16,0,0,1-7-1,20.24,20.24,0,0,1-6.49-3.13,13.4,13.4,0,0,1-2.67-2.63,8.53,8.53,0,0,1-1.66-3.57,5.56,5.56,0,0,1,.65-3.94,5.82,5.82,0,0,1,2.83-2.33.15.15,0,0,1,.17.25,6.7,6.7,0,0,0-1.6,2.71,4.27,4.27,0,0,0,.23,2.69,10.64,10.64,0,0,0,3.94,4.23,29.07,29.07,0,0,0,5.55,3,55.46,55.46,0,0,0,6.22,2.08,16.06,16.06,0,0,0,6.61.39,13.07,13.07,0,0,0,5.79-2.64c1.52-1.24,2.54-2.61,2.3-4.41s-1.5-3.68-2.92-5.46a.15.15,0,0,1,0-.22A.16.16,0,0,1,214.21,236.16Z"/><path class="cls-14" d="M187.1,228.79a32.58,32.58,0,0,0-7.51,3.23,13.62,13.62,0,0,0-3,2.45l-.56.73-.43.78a7.44,7.44,0,0,0-.52,1.72,25.88,25.88,0,0,0-.41,3.94c-.07,1.34-.09,2.69,0,4,.08,2.7.24,5.45.53,8.11l-.17-.54a33.4,33.4,0,0,0,2.66,3.71c.5.6,1,1.18,1.54,1.75s1.08,1.12,1.66,1.65,1.16,1,1.76,1.55l1.84,1.45,1.95,1.31c.65.43,1.36.77,2,1.18a17.08,17.08,0,0,0,2.1,1.06,20.52,20.52,0,0,0,2.17.94l2.23.81c.75.27,1.53.41,2.3.63a38.86,38.86,0,0,0,4.71.94,19.74,19.74,0,0,0,2.41.25l2.44.22c-1.61.16-3.25.41-4.9.42a33.69,33.69,0,0,1-4.95-.3,32.07,32.07,0,0,1-9.6-2.78,33.41,33.41,0,0,1-8.42-5.54c-.64-.55-1.22-1.17-1.83-1.75s-1.15-1.24-1.7-1.88a27.4,27.4,0,0,1-3-4.22,1.31,1.31,0,0,1-.17-.52h0a69.42,69.42,0,0,1-.33-8.44,35,35,0,0,1,1-8.5,9.54,9.54,0,0,1,.86-2.18l.68-1,.8-.83a13.76,13.76,0,0,1,3.69-2.39A25.24,25.24,0,0,1,187.1,228.79Z"/><path class="cls-14" d="M210.17,270.48c1.36-.79,2.68-1.41,3.95-2.09s2.5-1.34,3.81-1.91a15.34,15.34,0,0,0,3.89-2,8.82,8.82,0,0,0,2.53-3.53c.31-.66.5-1.37.74-2,.1-.35.23-.67.34-1l.3-1c.38-1.35.64-2.72.89-4.1.6-2.75,1-5.6,1.58-8.67a.16.16,0,0,1,.19-.12.16.16,0,0,1,.11.09,17.29,17.29,0,0,1,1.28,9.24,16,16,0,0,1-1.4,4.57,13.06,13.06,0,0,1-2.67,3.95c-1.09,1.15-2.19,2.21-3.23,3.33a31.56,31.56,0,0,1-3.26,3.42,11.62,11.62,0,0,1-4.29,2,10.74,10.74,0,0,1-4.72.2.16.16,0,0,1,0-.29Z"/><path class="cls-14" d="M215.43,228.71a20.24,20.24,0,0,1,8.92,2.68,13,13,0,0,1,3.78,3.21,9.44,9.44,0,0,1,2,4.91l0-.28a5.15,5.15,0,0,1,.12.72c0,.22,0,.42,0,.63a8,8,0,0,1-.06,1.21,10,10,0,0,1-.53,2.29,12.16,12.16,0,0,1-2.31,3.86,16.46,16.46,0,0,1-3.26,2.83c-.62.36-1.21.73-1.84,1s-1.28.57-1.93.81c.49-.51,1-1,1.47-1.46l1.39-1.47a21.68,21.68,0,0,0,2.34-3.12,12.55,12.55,0,0,0,1.49-3.34,9.6,9.6,0,0,0,.28-1.71,6.51,6.51,0,0,0,0-.83,4.61,4.61,0,0,0-.08-.68,2,2,0,0,1,0-.23v-.05a7.68,7.68,0,0,0-1.3-3.42,13.67,13.67,0,0,0-2.82-2.93,29.21,29.21,0,0,0-3.59-2.47C218.13,230.13,216.8,229.43,215.43,228.71Z"/><path class="cls-14" d="M149.59,345.14a65.14,65.14,0,0,1-.89-12.66,100.15,100.15,0,0,1,1-12.61,98.53,98.53,0,0,1,2.56-12.39,70.32,70.32,0,0,1,4.36-11.92c-.22,4.27-.8,8.39-1.28,12.54s-1.09,8.24-1.68,12.34-1.2,8.21-1.85,12.32S150.47,341,149.59,345.14Z"/><path class="cls-14" d="M177.64,293.29l.47,14.5.22,7.15.17,7.1-.41-.74q6.21,3.64,12.39,7.34t12.35,7.4h-1.38l11.94-7.35,12-7.29-.72,1.25c.05-4.88.17-9.75.27-14.62s.17-9.75.32-14.62l.64,1.2-4.6-3,1.63-.12a6.27,6.27,0,0,0-.65.71,6.08,6.08,0,0,0-.55.82,2.89,2.89,0,0,0-.4,1.57v0a1.3,1.3,0,0,1-1.19,1.4,1.31,1.31,0,0,1-.67-.12,3.06,3.06,0,0,0-.62-.19,2.23,2.23,0,0,0-.6,0,1.05,1.05,0,0,0-.41.13,1.08,1.08,0,0,0-.31.3l-.13.15a1.25,1.25,0,0,1-1.77.11l-.07-.07a7.63,7.63,0,0,0-1.07-.89,7.18,7.18,0,0,0-1.22-.69,4.83,4.83,0,0,0-1.26-.34,3.62,3.62,0,0,0-1.21.09h-.07a1.18,1.18,0,0,1-1.41-.9h0a6.63,6.63,0,0,0-1.48-3,3.89,3.89,0,0,0-1.27-.91,3.48,3.48,0,0,0-.74-.23,7.19,7.19,0,0,0-.88-.12,3.9,3.9,0,0,0-3.06.92,17.67,17.67,0,0,0-2.61,2.79l0,0a.86.86,0,0,1-1.21.13l-.11-.11a5.52,5.52,0,0,0-.69-.66,3.86,3.86,0,0,0-.78-.51,1.46,1.46,0,0,0-1.41-.06l0,0a.77.77,0,0,1-1.13-.75,10.79,10.79,0,0,0,0-1.64,7.47,7.47,0,0,0-.26-1.62,4.45,4.45,0,0,0-.64-1.41,3,3,0,0,0-1.13-.92l.48,0-7.28,3.92Zm0,0,7-4.41,7.16-4.45a.53.53,0,0,1,.46,0h0A4.18,4.18,0,0,1,194,285.6a5.7,5.7,0,0,1,1,1.77,8.83,8.83,0,0,1,.42,1.89,10.45,10.45,0,0,1,.06,1.93l-1.17-.73a2.91,2.91,0,0,1,1.49-.43,3.62,3.62,0,0,1,1.41.31,5.52,5.52,0,0,1,1.13.66,7.12,7.12,0,0,1,1,.86l-1.34,0a19.26,19.26,0,0,1,2.78-3.21,6.4,6.4,0,0,1,2-1.22,6,6,0,0,1,2.37-.3,9.28,9.28,0,0,1,1.12.12,5.6,5.6,0,0,1,1.19.33,6.05,6.05,0,0,1,2,1.36,7.83,7.83,0,0,1,1.36,1.91,9.3,9.3,0,0,1,.81,2.19l-1.47-.9a5.94,5.94,0,0,1,2.08-.23,7.16,7.16,0,0,1,2,.45,9.57,9.57,0,0,1,1.7.88,9.9,9.9,0,0,1,1.51,1.2l-2,.18a3.5,3.5,0,0,1,2.53-1.59,4.77,4.77,0,0,1,1.37,0,5.37,5.37,0,0,1,1.28.38l-1.85,1.32a5.47,5.47,0,0,1,.65-3.1,9,9,0,0,1,1.75-2.3,1.3,1.3,0,0,1,1.59-.15l0,0,4.65,3a1.38,1.38,0,0,1,.64,1.16v0c0,4.88-.12,9.75-.18,14.63s-.12,9.75-.23,14.63h0a1.49,1.49,0,0,1-.72,1.23l-12,7.21-12.06,7.15h0a1.31,1.31,0,0,1-1.36,0q-6.1-3.82-12.15-7.72t-12.11-7.79l0,0a.83.83,0,0,1-.38-.72l.17-7.28.22-7.22C177.31,302.75,177.46,298,177.64,293.29Z"/><path class="cls-14" d="M190.08,315l-.24-14.72a.64.64,0,0,1,.32-.57l0,0,11.65-6.76a1,1,0,0,1,1,0l.06,0,5.89,3,5.91,3a1.42,1.42,0,0,1,.78,1.19v.1c.13,2.54.17,5.08.14,7.63s-.11,5.09-.27,7.63v.17a.91.91,0,0,1-.56.78c-2.43,1-4.88,2-7.41,2.79a.15.15,0,0,1-.14-.27c2.14-1.57,4.35-3,6.59-4.38l-.57,1c-.27-2.54-.45-5.08-.6-7.62s-.22-5.08-.2-7.62l.79,1.29-5.68-3.37-5.7-3.34h1l-12,6.07.36-.59-.83,14.7a.15.15,0,0,1-.3,0Z"/><path class="cls-14" d="M226.32,298.89a3.43,3.43,0,0,0-2.11.43,4,4,0,0,0-1.46,1.53,8.15,8.15,0,0,0-.5,1c-.12.35-.26.68-.35,1a17.5,17.5,0,0,0-.43,2.18.73.73,0,0,1-.56.61l-.13,0a3.4,3.4,0,0,0-.59.2,2.09,2.09,0,0,0-.5.31.81.81,0,0,0-.32.65,1,1,0,0,1-2,.19l-.05-.22c0-.08-.09-.34-.15-.51a5.53,5.53,0,0,0-.24-.57,4.47,4.47,0,0,0-.73-1.06,6.71,6.71,0,0,0-1.12-.89c-.21-.14-.45-.25-.68-.4s-.49-.24-.74-.38h0a.11.11,0,0,1,0-.14.11.11,0,0,1,.07-.05,5,5,0,0,1,1.76-.07,4.86,4.86,0,0,1,1.77.61,4.68,4.68,0,0,1,1.44,1.35,4,4,0,0,1,.71,2l-2,0a2.65,2.65,0,0,1,.48-1.18,3,3,0,0,1,.88-.76,4.12,4.12,0,0,1,.94-.39,5.22,5.22,0,0,1,1-.18l-.68.63a18.8,18.8,0,0,1,.78-2.32c.16-.38.36-.74.54-1.11a8.31,8.31,0,0,1,.72-1,4.83,4.83,0,0,1,2-1.5,3.6,3.6,0,0,1,2.43-.07.1.1,0,0,1,0,.19Z"/><path class="cls-14" d="M190.35,303.09a16.59,16.59,0,0,0-2.72-2.72,9,9,0,0,0-3.17-1.74,6.62,6.62,0,0,0-3.23.19,10,10,0,0,0-1.65.53c-.58.22-1.12.55-1.82.76h0a.11.11,0,0,1-.13-.14,5.72,5.72,0,0,1,3-3l.53-.22a5,5,0,0,1,.57-.11,3.8,3.8,0,0,1,1.16,0,10.32,10.32,0,0,1,1.13.21l1.05.37a10.27,10.27,0,0,1,3.32,2.52,14.81,14.81,0,0,1,2.2,3.34.1.1,0,0,1-.17.11Z"/><path class="cls-14" d="M188.71,319.07a13.16,13.16,0,0,1,1-3.9,6.6,6.6,0,0,1,2.78-3.28,9,9,0,0,1,2.06-.8,4.4,4.4,0,0,1,2.32.09,4.06,4.06,0,0,1,2.87,3.24.11.11,0,0,1-.17.1,6.32,6.32,0,0,0-3.16-1.4,7.6,7.6,0,0,0-3.26.26,5.29,5.29,0,0,0-2.55,2.28,14.54,14.54,0,0,0-1.64,3.46h0a.1.1,0,0,1-.2,0Z"/><path class="cls-14" d="M225.82,317.56a3.79,3.79,0,0,0-1.8.44,4.49,4.49,0,0,0-1.34,1.08c-.39.43-.5,1.05-.94,1.44a4.8,4.8,0,0,1-.69.65,4,4,0,0,1-.93.65h0a.13.13,0,0,1-.17-.06v0a3.33,3.33,0,0,1,.11-2.28,3.87,3.87,0,0,1,1.6-1.6,4.76,4.76,0,0,1,2.11-.83,3.87,3.87,0,0,1,2.14.33.1.1,0,0,1,0,.19Z"/><path class="cls-14" d="M221.47,322.28a12.74,12.74,0,0,0-6.75,0,23.32,23.32,0,0,0-2.95,1.34c-.51.2-1,.46-1.52.69a14.35,14.35,0,0,1-1.67.73h0a.11.11,0,0,1-.13-.14,6.29,6.29,0,0,1,2.32-3,5.48,5.48,0,0,1,1.74-.84,15.09,15.09,0,0,1,1.9-.34,11.13,11.13,0,0,1,3.74.12,11.78,11.78,0,0,1,3.42,1.27.1.1,0,0,1-.08.18Z"/><path class="cls-14" d="M211.43,322.93a8.09,8.09,0,0,1-2.17-.73,7.93,7.93,0,0,1-1.45-.88,7.58,7.58,0,0,1-1.05-1,7,7,0,0,0-1.54-1.27l-.08,0a.08.08,0,0,1,0-.11l0,0a3.42,3.42,0,0,1,2-.07,5.43,5.43,0,0,1,1.83.93,10.36,10.36,0,0,1,2.58,3.1.08.08,0,0,1,0,.11h-.05Z"/><path class="cls-14" d="M205.53,319.87a9.54,9.54,0,0,0-3.65-3.78,5.53,5.53,0,0,0-4.79-.25,12.08,12.08,0,0,0-4.06,2.8,10.89,10.89,0,0,0-2.58,4.39h0a.1.1,0,0,1-.2,0,6.68,6.68,0,0,1,1.26-5.69,7.27,7.27,0,0,1,2.32-2,13.28,13.28,0,0,1,2.78-1.07,7.5,7.5,0,0,1,3-.19,6.65,6.65,0,0,1,2.78,1.12,9.67,9.67,0,0,1,3.3,4.56.1.1,0,0,1-.18.08Z"/><path class="cls-14" d="M191.23,319.47a3.94,3.94,0,0,0-3.39.5,4.45,4.45,0,0,0-1.09,1.27c-.15.24-.25.52-.37.78l-.27.83a.7.7,0,0,1-1.35-.1l0-.1a5.06,5.06,0,0,0-.83-2.08,6.06,6.06,0,0,0-1.57-1.43,8.9,8.9,0,0,0-2-.93c-.38-.13-.79-.2-1.21-.34a11.21,11.21,0,0,1-1.31-.31h0a.11.11,0,0,1,0-.2,9.35,9.35,0,0,1,1.32-.49,9.81,9.81,0,0,1,1.42-.19,6,6,0,0,1,2.92.69,5.17,5.17,0,0,1,2,2.32,7,7,0,0,1,.69,2.92l-1.37-.21.44-.93c.19-.29.35-.6.57-.87a4.86,4.86,0,0,1,1.59-1.38,4.34,4.34,0,0,1,3.93.06.1.1,0,0,1-.07.19Z"/><ellipse class="cls-13" cx="182.43" cy="162.09" rx="2.75" ry="2.46"/><ellipse class="cls-13" cx="225.08" cy="161.34" rx="2.48" ry="2.46"/><path class="cls-13" d="M154.27,140c3,17.17,6.56,34.1,12.58,50.09A95.76,95.76,0,0,0,172,201.86a45,45,0,0,0,7.44,10.39,31.11,31.11,0,0,0,10.49,7.13,30.45,30.45,0,0,0,24.23-.91,30.07,30.07,0,0,0,9.45-7.49,47,47,0,0,0,6.62-10.43,92.17,92.17,0,0,0,4.56-11.76,168,168,0,0,0,5.61-25c1.31-8.52,2.18-17.16,2.79-25.86h0a.25.25,0,0,1,.5,0,119.14,119.14,0,0,1,.92,13.12q.14,6.58-.3,13.18c-.15,2.2-.34,4.39-.58,6.59s-.56,4.38-.91,6.57a103.56,103.56,0,0,1-2.92,13,71.57,71.57,0,0,1-5,12.53,49.37,49.37,0,0,1-7.78,11.27,32.09,32.09,0,0,1-11.32,8,30.73,30.73,0,0,1-13.55,2.06,35.44,35.44,0,0,1-13-3.26,40.86,40.86,0,0,1-10.92-7.57A71.09,71.09,0,0,1,163,191.71a81.83,81.83,0,0,1-4.51-12.5q-.88-3.2-1.63-6.42c-.48-2.15-.89-4.32-1.27-6.49s-.69-4.35-1-6.53-.49-4.37-.65-6.56a102.08,102.08,0,0,1-.22-13.16.25.25,0,0,1,.5,0Z"/><path class="cls-13" d="M213.62,240.78c-.11-1.95-.11-3.89-.13-5.83s.06-3.89.18-5.84a24.56,24.56,0,0,1,.59-5.86,14.8,14.8,0,0,1,1.11-2.83,8.65,8.65,0,0,1,.84-1.35,3,3,0,0,1,1.3-1.07.16.16,0,0,1,.2.2v0a4.72,4.72,0,0,0-.22,1.36c0,.46,0,.93-.08,1.4q-.06,1.41-.19,2.82a47.55,47.55,0,0,1-1.16,5.59l-2.13,11.39a.15.15,0,0,1-.3,0Z"/><path class="cls-13" d="M188.72,243.15c-.36-2.13-.69-4.25-1.11-6.37s-.79-4.21-1.22-6.3a63.27,63.27,0,0,1-1.4-6.22,35.93,35.93,0,0,1-.28-6.51.16.16,0,0,1,.17-.15.16.16,0,0,1,.12.06,17.89,17.89,0,0,1,2.93,6,29.26,29.26,0,0,1,.84,6.49q.28,3.25.34,6.5c0,2.17,0,4.33-.09,6.5a.15.15,0,0,1-.3,0Z"/><path class="cls-15" d="M159.86,126l-3.7,13.44c-.59,2.22-1.17,4.43-1.71,6.64s-1,4.43-1.59,6.63c-.27,1.1-.59,2.2-.82,3.32l-.41,1.67-.33,1.68L151,161l-.31,1.78c-.24,1.18-.48,2.34-.73,3.5a131.81,131.81,0,0,1-3.8,13.7,60.41,60.41,0,0,1-2.73,6.66,46.86,46.86,0,0,1-3.71,6.22,50.69,50.69,0,0,1-9.87,10.72,42.77,42.77,0,0,1-6.13,4.06c-1.07.59-2.19,1.11-3.3,1.61l-1.75.73a4.73,4.73,0,0,1-3.08.08,10.25,10.25,0,0,1-3.7-2.2,26.72,26.72,0,0,1-2.59-2.7,38.9,38.9,0,0,1-4-6l-.07-.12a7.06,7.06,0,0,1-.24-1.25,2.57,2.57,0,0,1,.15-1.36.25.25,0,0,1,.47.13v.06a2.18,2.18,0,0,0,.26.95,8.83,8.83,0,0,0,.53,1l-.07-.12c1.67,1.59,3.39,3.17,5.15,4.57a23.3,23.3,0,0,0,2.67,1.9,6.58,6.58,0,0,0,2.45,1c.31,0,.41-.07.35-.08l1.41-.78q1.44-.84,2.82-1.76c1.85-1.21,3.62-2.54,5.35-3.92s3.4-2.84,5-4.39a63.19,63.19,0,0,0,4.55-4.93c1.43-1.73,2.78-3.53,4.09-5.38a62.57,62.57,0,0,0,3.71-5.75,35,35,0,0,0,4.44-13,28.46,28.46,0,0,0,.21-3.43c0-.57,0-1.14,0-1.71l0-1.79,0-1.8.05-1.8c0-1.2.13-2.4.28-3.59a42.36,42.36,0,0,1,1.48-7c.31-1.15.72-2.27,1.07-3.41s.81-2.24,1.27-3.33a62.87,62.87,0,0,1,3.05-6.43,43,43,0,0,1,3.86-6,.25.25,0,0,1,.36,0A.26.26,0,0,1,159.86,126Z"/><path class="cls-15" d="M104.9,195.49a7.34,7.34,0,0,1,.92-6,8.4,8.4,0,0,1,1-1.28c.38-.38.74-.68,1.1-1,.72-.63,1.43-1.25,2.15-1.85q2.17-1.81,4.35-3.55c1.45-1.18,2.92-2.32,4.43-3.41,3-2.18,6.23-4.21,8.88-6.85a25.86,25.86,0,0,0,6.15-9.11,14.06,14.06,0,0,0,.7-2.52c.15-.83.29-1.81.43-2.71l.84-5.54c.55-3.71,1-7.44,1.73-11.15s1.54-7.4,2.59-11.07c.53-1.83,1.1-3.66,1.8-5.46a28.08,28.08,0,0,1,1.18-2.67,7.63,7.63,0,0,1,1.75-2.43.2.2,0,0,1,.3.25v0a8.83,8.83,0,0,0-.79,2.59c-.18.9-.31,1.83-.44,2.75-.25,1.85-.47,3.7-.69,5.56-.44,3.72-.9,7.45-1.46,11.17s-1.36,7.42-2.2,11.12c-.42,1.85-.86,3.7-1.41,5.54-.29.93-.53,1.81-.93,2.78a16.58,16.58,0,0,1-1.36,2.73,70.19,70.19,0,0,1-7.22,9c-2.53,2.83-4.92,5.87-7.68,8.52a62.1,62.1,0,0,1-9.06,6.93c-.79.52-1.61,1-2.4,1.5-.4.24-.8.49-1.14.72a6.14,6.14,0,0,0-.94.73,7.85,7.85,0,0,0-2.19,4.61v0a.2.2,0,0,1-.39,0Z"/><path class="cls-15" d="M256.61,119.1a9.58,9.58,0,0,1,1.82,2.78q.69,1.48,1.26,3,1.11,3,2,6.1t1.69,6.16c.53,2.06,1.05,4.12,1.52,6.19l1.43,6.19,1.38,6.17.72,3.05c.12.54.24,1,.36,1.37s.29.86.47,1.29a33.51,33.51,0,0,0,2.8,5.19,92.94,92.94,0,0,0,7.47,9.94c1.35,1.61,2.79,3.15,4.23,4.68s3,3,4.53,4.42,3.15,2.81,4.79,4.13a12.67,12.67,0,0,1,2.45,2.3,7,7,0,0,1,1.38,3.29,6.82,6.82,0,0,1,0,1.81,6.94,6.94,0,0,1-.18.89,4.07,4.07,0,0,1-.43.94,27.51,27.51,0,0,1-1.84,2.75,38,38,0,0,1-4.34,5,15.88,15.88,0,0,1-2.78,2.13,7.63,7.63,0,0,1-1.83.79,4.52,4.52,0,0,1-2.47,0c-.53-.17-.66-.26-.94-.37l-.76-.32c-.51-.21-1-.44-1.5-.69-1-.47-2-1-2.93-1.53a52,52,0,0,1-10.49-8,59.85,59.85,0,0,1-8.36-10.23,56.56,56.56,0,0,1-5.9-11.85,51.18,51.18,0,0,1-2.88-13c-.11-1.08-.13-2.28-.19-3.29s-.08-2-.18-3.06-.16-2-.28-3.07-.25-2-.41-3.07a127.61,127.61,0,0,0-6.41-24.28h0a.25.25,0,0,1,.45-.22A76.39,76.39,0,0,1,248,138.1a84,84,0,0,1,4,12.29c.25,1.05.46,2.12.7,3.18s.38,2.15.56,3.22.26,2.17.39,3.26.2,2,.36,3a55.66,55.66,0,0,0,3.08,11.67,63.21,63.21,0,0,0,12.64,20.6,55.13,55.13,0,0,0,9.24,7.9c.84.56,1.69,1.13,2.57,1.64.44.26.87.53,1.32.77l1.18.66a2.37,2.37,0,0,0,1.79-.28,13,13,0,0,0,2.43-1.48,31.05,31.05,0,0,0,4.47-4.18,25.17,25.17,0,0,0,1.9-2.38,2.71,2.71,0,0,0,.27-.48,5.15,5.15,0,0,0,.17-.66,5.07,5.07,0,0,0,.07-1.35,4.89,4.89,0,0,0-1-2.53,11.35,11.35,0,0,0-2.15-2.06l-4.87-4.12c-1.62-1.38-3.26-2.74-4.85-4.16s-3.21-2.81-4.8-4.25a73,73,0,0,1-8.92-9.45,30.8,30.8,0,0,1-3.51-5.81,17.77,17.77,0,0,1-.64-1.68c-.18-.6-.35-1.21-.45-1.7-.26-1-.46-2.1-.67-3.14l-1.21-6.27-1.07-6.27-2-12.52c-.36-2.08-.68-4.16-1.09-6.22-.21-1-.41-2.05-.68-3.06a9.86,9.86,0,0,0-1.08-2.84l0,0a.25.25,0,0,1,.38-.32Z"/><path class="cls-15" d="M180.87,108.91a18,18,0,0,1,4.1-3.34l1.15-.68,1.19-.6a25.6,25.6,0,0,1,2.46-1.05,31.28,31.28,0,0,1,5.2-1.37,21.58,21.58,0,0,1,2.68-.33,20.9,20.9,0,0,1,2.69-.15A30.57,30.57,0,0,1,211,102.59a41.1,41.1,0,0,1,4.91,2.16,31.93,31.93,0,0,1,4.4,3.09.21.21,0,0,1-.15.37h0a33.6,33.6,0,0,1-5.2-.81c-1.71-.23-3.34-.6-5-.94-.82-.14-1.64-.29-2.44-.48-.4-.09-.8-.21-1.2-.31l-1.21-.25-2.43-.55c-.82-.12-1.64-.21-2.47-.3a33.88,33.88,0,0,0-9.91.57,23.15,23.15,0,0,0-9.18,4h0a.2.2,0,0,1-.27-.29Z"/><path class="cls-15" d="M176.79,86.66a22.45,22.45,0,0,1,5.12-4l1.42-.81,1.48-.71a31.93,31.93,0,0,1,3-1.24,38.8,38.8,0,0,1,6.39-1.59,26.75,26.75,0,0,1,3.28-.38,25.62,25.62,0,0,1,3.3-.15h3.31l3.3.25c.55.05,1.1.09,1.65.16s1.08.21,1.62.34c1.07.24,2.14.52,3.2.81a60.63,60.63,0,0,1,6.07,2.5,47.57,47.57,0,0,1,5.54,3.53.21.21,0,0,1-.15.37h0A49.53,49.53,0,0,1,219,84.47c-2.09-.36-4.12-.84-6.14-1.28-1-.18-2-.37-3-.61-.5-.11-1-.25-1.5-.37l-1.51-.29-3-.63L200.72,81a42,42,0,0,0-12.32.84,28.66,28.66,0,0,0-11.33,5.13h0a.2.2,0,0,1-.27-.29Z"/><path class="cls-12" d="M247.12,141.93a116,116,0,0,0-12.61-9.13,111.09,111.09,0,0,0-13.73-6.73,37.67,37.67,0,0,0-15.17-3,42.73,42.73,0,0,0-7.73.88,52.17,52.17,0,0,0-7.33,2.07,1.6,1.6,0,0,1-2-.83l0-.09a4.88,4.88,0,0,1-.35-2.63,8.69,8.69,0,0,1,.55-2.11,19.12,19.12,0,0,1,1.84-3.4,33.67,33.67,0,0,1,2.2-2.95c.78-.94,1.56-1.82,2.45-2.73l1.46,3.65a19,19,0,0,0-4.54.69,17.53,17.53,0,0,0-2.16.75,20.23,20.23,0,0,0-2,1.08,18.77,18.77,0,0,0-3.7,2.91,20.56,20.56,0,0,0-2.94,3.71l-.16.26a1.18,1.18,0,0,1-.8.56,18.2,18.2,0,0,1-3.42.36,16.21,16.21,0,0,1-3.36-.32,16.57,16.57,0,0,1-6.09-2.43.2.2,0,0,1,.17-.36h0a21.39,21.39,0,0,0,6.09.86,16.88,16.88,0,0,0,3-.26,15.84,15.84,0,0,0,2.81-.74l-1,.82a19.39,19.39,0,0,1,1.34-2.56,21.17,21.17,0,0,1,1.63-2.31,20.5,20.5,0,0,1,6.67-5.39,19.88,19.88,0,0,1,2.73-1,19.56,19.56,0,0,1,5.75-.81,2.1,2.1,0,0,1,1.46,3.65c-.77.71-1.58,1.53-2.32,2.33s-1.47,1.65-2.12,2.5a15.64,15.64,0,0,0-1.65,2.6,3.46,3.46,0,0,0-.48,2l-2.05-.92a42.26,42.26,0,0,1,8.12-1.08q4-.16,8,0a109.26,109.26,0,0,1,15.95,1.66,37.41,37.41,0,0,1,7.73,2.51,44.64,44.64,0,0,1,7,4.12,43.26,43.26,0,0,1,11.1,11.59.2.2,0,0,1-.3.27Z"/><path class="cls-14" d="M143.19,116.74a7.12,7.12,0,0,0,6.09,2.16,17.69,17.69,0,0,0,6.33-2,88.19,88.19,0,0,0,11.15-7.06A59,59,0,0,0,172,105.6a23.12,23.12,0,0,0,4.24-5.27A15.29,15.29,0,0,0,178.27,94a6.82,6.82,0,0,0-1.8-5.61,7.22,7.22,0,0,0-5.3-1.52,20.11,20.11,0,0,0-6,1.35,32.63,32.63,0,0,0-5.74,2.92A63.35,63.35,0,0,0,154.13,95a58.34,58.34,0,0,0-9.06,9.47,17.31,17.31,0,0,0-3,5.9A7.17,7.17,0,0,0,143.19,116.74Zm-.38.32a10.19,10.19,0,0,1-2.08-6.84,22.89,22.89,0,0,1,1.39-7.28,25.54,25.54,0,0,1,3.51-6.57,38.44,38.44,0,0,1,5-5.44,34.88,34.88,0,0,1,13-7.19,20.41,20.41,0,0,1,7.68-.88,10.05,10.05,0,0,1,7.21,3.75A9,9,0,0,1,180,90.41a12.64,12.64,0,0,1-.08,3.8,26.63,26.63,0,0,1-2.32,6.86,42.5,42.5,0,0,1-8.17,12,29.21,29.21,0,0,1-5.9,4.38,23.82,23.82,0,0,1-7,2.52,22.36,22.36,0,0,1-7.38.24A10.29,10.29,0,0,1,142.81,117.07Z"/><path class="cls-14" d="M144.07,117.62a33.19,33.19,0,0,1,3.28,2c1,.7,2,1.44,3,2.21l.1.1a7,7,0,0,0,2.7,1.27,13.36,13.36,0,0,0,3.29.27,40.74,40.74,0,0,0,7.49-.82A17,17,0,0,0,171,119a31.22,31.22,0,0,0,5.24-6,46.32,46.32,0,0,0,4.08-6.46,27.4,27.4,0,0,0,2.34-6.67,8.77,8.77,0,0,0,.09-3.07,2.57,2.57,0,0,0-.16-.69,2.3,2.3,0,0,0-.22-.66l-.14-.31a1.25,1.25,0,0,0-.19-.36l-.59-.83a61.08,61.08,0,0,1-4.29-7.09.26.26,0,0,1,.37-.34,61.06,61.06,0,0,1,6.7,5l.78.67a10.22,10.22,0,0,1,.87,1,5.66,5.66,0,0,1,.75,1.12,6.25,6.25,0,0,1,.56,1.21,11.47,11.47,0,0,1,.65,5,18.64,18.64,0,0,1-3.12,8.58,29.74,29.74,0,0,1-5.69,6.56,63.42,63.42,0,0,1-7,4.74c-2.37,1.46-4.68,2.92-7.1,4.45a17.7,17.7,0,0,1-8.25,3.08,13.23,13.23,0,0,1-2.37-.12c-.4-.07-.8-.12-1.2-.21l-1.2-.38a8.86,8.86,0,0,1-4.09-3l.09.1c-.76-1-1.5-2-2.2-3a33.21,33.21,0,0,1-2-3.28.26.26,0,0,1,.35-.35Z"/><path class="cls-14" d="M258.7,117.07a9.32,9.32,0,0,1-6.4,2.86,23,23,0,0,1-7.24-.56,27.15,27.15,0,0,1-12.52-6.92A45.44,45.44,0,0,1,224.15,101a25.34,25.34,0,0,1-2.56-6.67,12.28,12.28,0,0,1-.16-3.75,8.58,8.58,0,0,1,1.41-3.73A8.37,8.37,0,0,1,226,84.09a11.11,11.11,0,0,1,3.9-1.12,18.69,18.69,0,0,1,7.61.94,29,29,0,0,1,6.76,3.17A30.09,30.09,0,0,1,250,91.73a42.89,42.89,0,0,1,8.27,11.56,24.84,24.84,0,0,1,2.12,7,10.7,10.7,0,0,1-.09,3.63A7.21,7.21,0,0,1,258.7,117.07Zm-.38-.32a5.4,5.4,0,0,0,1.24-3,7.16,7.16,0,0,0-.51-3.19,19.26,19.26,0,0,0-3.65-5.45c-1.48-1.65-3-3.23-4.55-4.85s-3.1-3.25-4.65-4.78a32.83,32.83,0,0,0-10.28-7.18,18.12,18.12,0,0,0-5.85-1.39,6.7,6.7,0,0,0-5.13,1.58A6.49,6.49,0,0,0,223.25,94a14.65,14.65,0,0,0,2.3,6.11c2.41,3.79,6.11,6.53,9.66,9.08q2.68,1.93,5.4,3.72c1.82,1.19,3.64,2.4,5.56,3.44a18,18,0,0,0,6.15,2.27A6.52,6.52,0,0,0,258.32,116.74Z"/><path class="cls-14" d="M258.76,117a44.22,44.22,0,0,1-2.48,4c-.44.64-.89,1.27-1.34,1.89l-.69.92-.35.46-.39.54a9.29,9.29,0,0,1-4.76,3.07,10.32,10.32,0,0,1-5.37.09,18.81,18.81,0,0,1-4.63-2c-1.42-.82-2.78-1.6-4.16-2.36-2.73-1.53-5.68-2.78-8.33-4.69a26.44,26.44,0,0,1-3.74-3.13,38.51,38.51,0,0,1-3.19-3.72,25.48,25.48,0,0,1-4.53-8.92,16.29,16.29,0,0,1-.48-2.6,13.37,13.37,0,0,1,0-2.76,9.91,9.91,0,0,1,.67-2.88,7.76,7.76,0,0,1,1.75-2.62,63.69,63.69,0,0,1,7.53-5.68.26.26,0,0,1,.37.34,63.6,63.6,0,0,1-4.92,8c-1,1.6-.63,4.24.21,6.78a40.24,40.24,0,0,0,3.5,7.63,38.33,38.33,0,0,0,2.43,3.6c.87,1.17,1.78,2.32,2.72,3.47a24.36,24.36,0,0,0,6.76,5.9,13.19,13.19,0,0,0,4.26,1.42,23,23,0,0,0,4.32.2c2.73-.08,5.08-.24,7-1.69l.39-.31.44-.38.91-.74c.61-.49,1.23-1,1.85-1.45a43.94,43.94,0,0,1,3.92-2.67.26.26,0,0,1,.36.09A.26.26,0,0,1,258.76,117Z"/></g><g id="arms_line"><path class="cls-14" d="M110.64,291c3.45,1.46,6.82,3,10.24,4.25a49.39,49.39,0,0,0,5.14,1.65,15.72,15.72,0,0,0,5,.57,3.84,3.84,0,0,0,2-.69c.65-.56,1.34-1.19,2-1.82l2-2q.95-1,1.86-2.07a89.94,89.94,0,0,0,6.67-8.94c2-3.12,4.14-6.2,6.33-9.2s4.33-6,6.59-9a218.84,218.84,0,0,1,14.52-17l.24.18a188,188,0,0,1-12.2,18.75c-2.22,3-4.54,5.9-6.89,8.79-1.18,1.45-2.35,2.89-3.57,4.3s-2.48,2.79-3.72,4.18c-2.52,2.76-4.93,5.59-7.21,8.55q-1.69,2.23-3.34,4.52c-.57.76-1.14,1.5-1.78,2.27a5.73,5.73,0,0,1-3,1.62,9.88,9.88,0,0,1-3.14.11,15.72,15.72,0,0,1-2.92-.58,32,32,0,0,1-5.37-2.08,45.53,45.53,0,0,1-9.49-6.14Z"/><path class="cls-14" d="M98,301l8.86,4.93c1.48.79,2.95,1.58,4.43,2.35s3,1.51,4.45,2.25a39.65,39.65,0,0,0,9.24,3.8,21,21,0,0,0,5,.48,16.3,16.3,0,0,0,4.82-.9,15.65,15.65,0,0,0,4.17-2.28,9.26,9.26,0,0,0,.9-.75c.3-.27.59-.48.88-.79l1.8-1.77,7.15-7.15c2.42-2.34,4.84-4.68,7.22-7a44.29,44.29,0,0,0,6.54-7.57l.29.09a16.41,16.41,0,0,1-2.1,4.78,51.16,51.16,0,0,1-2.94,4.26,89.11,89.11,0,0,1-6.73,7.75c-2.4,2.43-4.91,4.74-7.49,7-.65.56-1.28,1.12-2,1.67-.32.28-.73.55-1.09.82a7.83,7.83,0,0,1-1.15.75l-1.21.65c-.42.18-.85.33-1.27.5a8.33,8.33,0,0,1-1.29.4,12.75,12.75,0,0,1-1.31.31,25.38,25.38,0,0,1-5.25.34,47.12,47.12,0,0,1-5.14-.55,53.5,53.5,0,0,1-10.07-2.47,33,33,0,0,1-4.69-2.19q-2.26-1.25-4.4-2.71a45.15,45.15,0,0,1-7.83-6.68Z"/><path class="cls-14" d="M238.06,283.18a43.8,43.8,0,0,1,3,7.84c.37,1.34.72,2.69,1,4a32.83,32.83,0,0,1,.69,4.11c.31,2.77.25,5.58.56,8.33.13,1.38.34,2.75.58,4.11s.5,2.73.78,4.09a76.32,76.32,0,0,1,1.35,8.23c.3,2.76.62,5.53.65,8.31a77.24,77.24,0,0,1-1.36,16.63H245c-.48-2.77-.66-5.53-.93-8.27-.13-1.37-.24-2.74-.32-4.11l-.29-4.11c-.13-2.74-.2-5.48-.28-8.23,0-1.37-.12-2.74-.13-4.12s0-2.76,0-4.14,0-2.77-.16-4.14-.29-2.74-.53-4.1c-.49-2.72-1.39-5.36-2.06-8-.32-1.34-.63-2.68-.83-4q-.16-1-.35-2l-.31-2c-.41-2.72-.78-5.45-1-8.25Z"/><path class="cls-14" d="M229.47,250.19a39.52,39.52,0,0,1,9.81,7.68l2.14,2.29,1.94,2.45a41.57,41.57,0,0,1,3.51,5.17,55.18,55.18,0,0,1,2.84,5.56c.94,1.85,1.66,3.79,2.52,5.67.44.93.86,1.88,1.31,2.8s.77,1.91,1.19,2.85.82,1.89,1.26,2.83l.65,1.41.56,1.44c.74,1.93,1.52,3.86,2.23,5.81a28.06,28.06,0,0,1,.9,3l.8,3a94.24,94.24,0,0,1,2.43,12.2,28.92,28.92,0,0,1,.34,3.09c.07,1,.14,2.07.19,3.1.11,2.07.21,4.14.27,6.21-.09,4.14-.38,8.28-.78,12.38h-.3c-.57-4.11-.93-8.18-1.28-12.24-.29-2-.56-4-.8-6.06s-.36-4.05-.8-6c-.71-4-1.09-8-2-12-.44-2-.76-4-1.25-6s-1-4-1.47-5.94l-.37-1.49-.48-1.45q-.48-1.45-1-2.89c-.34-1-.72-1.91-1.08-2.87s-.91-1.83-1.36-2.75a42,42,0,0,0-3.09-5.28l-1.72-2.53c-.29-.42-.55-.85-.85-1.26s-.62-.8-.92-1.22a119.21,119.21,0,0,0-15.48-18.69Z"/></g><g id="hand_color"><path class="cls-3" d="M101.6,279c3.51-.12,6.66,1.18,8.4,3.81,3,4.62.59,11.61-5.49,15.62S91,301.94,88,297.32c-1.8-2.73-1.68-6.29,0-9.57,0,0,1.47-2,1.86-2.06"/><path class="cls-6" d="M110.08,239.53l.19-.34c1.5-4.25-3.08-9.75-5.33-11.17h0l.09-.33c-.06-1.87-1.6-3.88-2.64-5a25.81,25.81,0,0,0-.26-4.34c-.22-1.1-.19-4-4.44-3.25-4,.7-4.61,7.71-4.68,8.64a9.34,9.34,0,0,0-1.49,1.06,10.35,10.35,0,0,1-3.58,2.5,2.76,2.76,0,0,1-1.63-.47l0-.41c-.92-2-9.17-16.92-13.67-23.5s-9-6.25-11.25-5.33.33,5.25.33,5.25c13,18.25,15.83,24,17.08,26.5s2.17,8.92,2.67,11.33,3.42,10,3.42,10c1.58,11.08.25,24.08,3,29.83a87.4,87.4,0,0,1,4.58,12.33l0-.34.08.3c10.11-.64,10.79-6.83,10.79-6.83a2.89,2.89,0,0,1,.17-.67l-3.64-8-.15-3.2c2-2.29,4.28-5.54,4.79-8.56.44-2.57-.07-6.2-.72-9.3l.51-.36c2.17.45,5.89-3.52,7.88-5.75S111.67,241.52,110.08,239.53Z"/></g><g id="hand_shadow"><path class="cls-10" d="M97.38,300.34c-4.57-1.62-5.09-7.51-5.09-7.51l1.45,0,3.91-.66,2.1-1.16,1.72-1.73,1.26-2.09.74-2.7-.14-.15c4.82-2.37,7.76.81,7.76.81.3,1.31-.61,9-6.62,13.06-3.87,2.62-.92,1.44-5.86,2.13Z"/><path class="cls-9" d="M103.33,285.23l-3.52-8-.4-2.9s-3.9,4.5-4.77,5.42,3.17,12.33,3.17,12.33l2.44-1.58s1.6-1.37,1.71-1.54.69-1.48.69-1.48Z"/><path class="cls-9" d="M106,229.25a20.76,20.76,0,0,1-1.41,8.3l-.08,1.69,1.17,0,2-.37,1.53,0,1,.59a5.47,5.47,0,0,0-.08-4.78C108.87,231.82,106.59,229.1,106,229.25Z"/><path class="cls-9" d="M100.81,221.82s2.58,4.29.21,7.25l1.92-1a10.39,10.39,0,0,1,1.21-.29,2.51,2.51,0,0,1,.67.21l.13-.29a6.12,6.12,0,0,0-1.29-3.29C102.48,223.07,101.52,221.11,100.81,221.82Z"/><path class="cls-9" d="M105.6,248.53s3.62-4.29,1.33-9.21a2.78,2.78,0,0,1,1.37-.37c.79,0,1.87-.08,3.21,3.33s1.21,4.79,1.21,4.79.42,2.21-.79,3.17-3,3.33-4,4-2.42,1.87-3.79,1.71-1.29-2-1.29-2l0-1.62S105.39,250.57,105.6,248.53Z"/></g><g id="hand_line"><path class="cls-14" d="M100.86,279.08a6.92,6.92,0,0,1,3.7-.35,11.75,11.75,0,0,1,3.63,1.05,8.82,8.82,0,0,1,1.7,1.09,6.31,6.31,0,0,1,1.38,1.65,8,8,0,0,1,1.14,3.9,11.75,11.75,0,0,1-2.64,7.07,28.15,28.15,0,0,1-5,5.26,15.89,15.89,0,0,1-6.61,3.39,12.39,12.39,0,0,1-7.79-.68,8.78,8.78,0,0,1-3.26-2.62A9.45,9.45,0,0,1,86.09,297a9.76,9.76,0,0,1-.57-2,10.41,10.41,0,0,1,1.79-7.42l.05-.09c.37-.38.73-.73,1.13-1.08.2-.17.4-.33.62-.49a2.67,2.67,0,0,1,.74-.38.15.15,0,0,1,.14.25l0,0a5.36,5.36,0,0,0-.81,1.15c-.24.42-.49.86-.7,1.29l.05-.09a10.69,10.69,0,0,0-.28,6.22,7,7,0,0,0,3.58,4.17,10.56,10.56,0,0,0,6,1,17.34,17.34,0,0,0,6.31-1.87,11.32,11.32,0,0,0,4.73-4.77,11.09,11.09,0,0,0,1-6.29,8.36,8.36,0,0,0-.81-2.79,4.75,4.75,0,0,0-.76-1.12,6.4,6.4,0,0,0-1.15-1,16.21,16.21,0,0,0-4.47-2.08,5.75,5.75,0,0,0-1.65-.29h0a.15.15,0,0,1-.06-.29Z"/><path class="cls-13" d="M92.29,292.86c-1.34-3.35-2.73-6.67-4.29-9.87-.4-.82-.79-1.55-1.2-2.42a15.43,15.43,0,0,1-1-2.73,37.59,37.59,0,0,1-.9-5.5c-.34-3.65-.45-7.26-.55-10.85s-.13-7.15-.42-10.7l.05.2c-.69-2.15-1.36-4.29-2-6.45-.33-1.08-.66-2.16-.92-3.28s-.41-2.23-.61-3.34A52.26,52.26,0,0,0,79,231.4a13.19,13.19,0,0,0-.57-1.51c-.21-.46-.52-1-.78-1.45q-.81-1.45-1.72-2.86c-2.39-3.76-5-7.36-7.62-11s-5.22-7.26-7.87-10.87l-.07-.11a12.3,12.3,0,0,1-1.33-3.1,5.11,5.11,0,0,1-.12-2.1,3.89,3.89,0,0,1,.19-.66,4,4,0,0,1,.37-.67,4.59,4.59,0,0,1,.56-.58,6.08,6.08,0,0,1,.64-.38,8.57,8.57,0,0,1,6.94.17,14.12,14.12,0,0,1,5,4.13,49.9,49.9,0,0,1,3.27,5c2,3.38,3.81,6.81,5.58,10.28s3.46,7,4.94,10.6a.15.15,0,0,1-.27.13h0c-2-3.3-4.17-6.55-6.25-9.82s-4.17-6.54-6.31-9.74a51,51,0,0,0-3.29-4.57,11.11,11.11,0,0,0-4-3.14,6.74,6.74,0,0,0-2.23-.51,5.19,5.19,0,0,0-2.14.37s0,0,0,0A.07.07,0,0,0,62,199s0,0,0,0,0,0,0,0a2.57,2.57,0,0,0,.07.79A9.39,9.39,0,0,0,63,202l-.07-.1c2.55,3.7,5.06,7.43,7.49,11.22s4.69,7.69,6.79,11.7c.52,1,1,2,1.52,3A16.87,16.87,0,0,1,80,231.1c.58,2.21,1,4.43,1.38,6.64.22,1.09.4,2.22.66,3.26s.7,2.1,1.08,3.14c.81,2.08,1.69,4.14,2.6,6.18a.5.5,0,0,1,0,.1l0,.09A80.23,80.23,0,0,1,87,261.38c.19,3.61.17,7.22.4,10.76a36.19,36.19,0,0,0,.57,5.2,13.38,13.38,0,0,0,.65,2.42c.29.79.7,1.67,1,2.52a65.41,65.41,0,0,1,2.93,10.5.15.15,0,0,1-.12.18A.16.16,0,0,1,92.29,292.86Z"/><path class="cls-13" d="M84.36,225.33c.88.15,1.66.41,2.38.58a3.88,3.88,0,0,0,.91.15c.07,0,.06,0,.08,0s-.11,0-.07,0l.3-.17a14.08,14.08,0,0,1,1.84-1c.35-.16.72-.33,1.07-.51s.84-.44,1.2-.62a16.61,16.61,0,0,0,2.13-1.29,25.21,25.21,0,0,1,2.14-1.48,8.13,8.13,0,0,1,2.57-.88,6.66,6.66,0,0,1,3,.11,1.53,1.53,0,0,1,.59.33h0a9.26,9.26,0,0,1,1.29,1.51,10.4,10.4,0,0,1,1,1.72,7.07,7.07,0,0,1,.57,1.94,4,4,0,0,1-.18,2,.16.16,0,0,1-.29,0h0a11.7,11.7,0,0,0-2.15-2.61c-.4-.37-.78-.76-1.2-1.12l-1.17-1.08.6.34a7.42,7.42,0,0,0-1.78-.29,20.22,20.22,0,0,0-2.14.13,6.91,6.91,0,0,0-4.38,1.48,3.19,3.19,0,0,0-.69.88c-.22.38-.46.75-.72,1.11a4.94,4.94,0,0,1-2.12,1.71,4,4,0,0,1-.83.26,2.39,2.39,0,0,1-.67,0,2.73,2.73,0,0,1-.51-.11,4.06,4.06,0,0,1-1.32-.76,6.21,6.21,0,0,1-1.62-2.11.17.17,0,0,1,.18-.23Z"/><path class="cls-13" d="M91.27,234.71a24.84,24.84,0,0,0,3-1.62l1.1-1a8.43,8.43,0,0,1,1.42-1.1c1.06-.64,2.31-1.06,3.35-1.7.53-.32,1-.68,1.54-1a10.73,10.73,0,0,1,1.71-1.08,2.89,2.89,0,0,1,1.28-.25,2.31,2.31,0,0,1,.82.21l.5.24a9,9,0,0,1,1.65,1.18,11.82,11.82,0,0,1,2.57,3,9.57,9.57,0,0,1,1.24,3.85,5.25,5.25,0,0,1-1.06,3.9.16.16,0,0,1-.28-.09h0a8.65,8.65,0,0,0-1-3.23,23.5,23.5,0,0,0-1.67-2.75c-.61-.89-1.19-1.83-1.87-2.7-.34-.44-.71-.83-1-1.22l-.25-.27a.11.11,0,0,0,0-.11.84.84,0,0,0-.51-.16,4.88,4.88,0,0,0-3.07,1.31,23.52,23.52,0,0,0-2.3,2.83,8,8,0,0,1-1.33,1.24c-.24.19-.5.37-.78.56a4.57,4.57,0,0,1-3.11.81,5.4,5.4,0,0,1-1.95-.45.16.16,0,0,1-.08-.22.16.16,0,0,1,.07-.08Z"/><path class="cls-13" d="M104.75,237.51a4,4,0,0,1,.59.81,2.86,2.86,0,0,1,.32,1c.05.33.32.84-.09,1.14a1.36,1.36,0,0,1-1.72,0,.41.41,0,0,1-.14-.19l0-.06a2.69,2.69,0,0,0-.77-1.14c-.17-.14.24-.11.4-.27a7,7,0,0,0,.53-.53c.22-.2.38-.44.6-.68h0a.2.2,0,0,1,.28,0Z"/><path class="cls-13" d="M97.52,241.54c.7-.28,1.37-.54,2-.83a9.25,9.25,0,0,0,.84-.47c.28-.18.59-.37.91-.55a12.73,12.73,0,0,1,4.17-1.63,9.24,9.24,0,0,1,2.4,0,3.87,3.87,0,0,1,2.45,1,17.74,17.74,0,0,1,1.26,1.92c.39.64.79,1.27,1.17,1.94a10.49,10.49,0,0,1,1.55,4.45,5.65,5.65,0,0,1-.32,2.81,4.66,4.66,0,0,1-.84,1.31q-.36.42-.75.81a18.4,18.4,0,0,1-3.55,2.82,9.2,9.2,0,0,1-2.16,1,3.27,3.27,0,0,1-2.46-.05.16.16,0,0,1,0-.29h0a3.74,3.74,0,0,0,1.67-1,20.2,20.2,0,0,0,1.39-1.46l2.69-3.17.7-.78a1.74,1.74,0,0,0,.26-.3c0-.05.1-.06.12-.16a3.14,3.14,0,0,0,.34-1.43,24.74,24.74,0,0,0-.26-4,9.14,9.14,0,0,0-.52-2,4.77,4.77,0,0,0-1.06-1.71,1.86,1.86,0,0,0-1.62,0,20,20,0,0,0-1.84.8,33.93,33.93,0,0,1-3.94,1.38c-.35.1-.7.2-1.09.29a5.62,5.62,0,0,1-1.24.14,5.68,5.68,0,0,1-2.33-.43.16.16,0,0,1,0-.3Z"/><path class="cls-13" d="M105.66,248.47a2.51,2.51,0,0,1,.42,1.74,2.27,2.27,0,0,1-.09.48,3.57,3.57,0,0,1-.21.51c-.16.29-.33.54-.49.76-.31.44-.37,1-.67,1s-.64-.16-1.46.36l0,0a.29.29,0,0,1-.27,0,1.69,1.69,0,0,1-.57-2.29c.31-.72,1-.74,1.42-.94l.54-.24.2-.08c.06,0,.15-.11.22-.17a2.14,2.14,0,0,0,.69-1.08v-.05a.15.15,0,0,1,.19-.11A.15.15,0,0,1,105.66,248.47Z"/><path class="cls-13" d="M102.23,222.64a10.78,10.78,0,0,1-1.5-5,6.86,6.86,0,0,0,.05-1.05,1.14,1.14,0,0,0-.51-.88,2.36,2.36,0,0,0-2.31.18,4.86,4.86,0,0,0-1.39,1.42,17.08,17.08,0,0,0-.94,1.93,44.17,44.17,0,0,1-2.49,4.62h0a.17.17,0,0,1-.3,0,7.27,7.27,0,0,1-.62-2.89,8,8,0,0,1,.45-2.93,6.34,6.34,0,0,1,1.83-2.64,4.42,4.42,0,0,1,.7-.53,2.55,2.55,0,0,1,.8-.39,2.43,2.43,0,0,1,.87-.19,4.05,4.05,0,0,1,.84,0,16.55,16.55,0,0,1,3,.56,4.28,4.28,0,0,1,1.49.86,4,4,0,0,1,1,1.44,6,6,0,0,1,.29,2.82,7,7,0,0,1-.27,1.4,3.85,3.85,0,0,1-.69,1.43.14.14,0,0,1-.2,0l0,0Z"/><path class="cls-13" d="M96.67,277a11.29,11.29,0,0,1,.85-1.76c.3-.56.62-1.08,1-1.59a20.1,20.1,0,0,1,2.16-2.88,13.85,13.85,0,0,0,2.46-2.71,5.18,5.18,0,0,0,.61-3.45c-.08-.59-.21-1.17-.34-1.76l-.32-1.75c-.24-1.17-.52-2.34-.71-3.53a36.19,36.19,0,0,1-.39-7.49.16.16,0,0,1,.17-.15.17.17,0,0,1,.12.06,18.12,18.12,0,0,1,3.25,7,18.66,18.66,0,0,1,.39,3.85,12,12,0,0,1-.53,3.94c-.37,1.31-.94,2.5-1.37,3.71a38.07,38.07,0,0,1-1.29,3.74,11.57,11.57,0,0,1-5.82,5,.16.16,0,0,1-.21-.21Z"/><path class="cls-13" d="M99.75,274.22a8.38,8.38,0,0,0,.83,2.73,21.59,21.59,0,0,0,1.41,2.46,8.3,8.3,0,0,1,1.48,2.61,7.18,7.18,0,0,1,.19,1.48,7.29,7.29,0,0,1-.1,1.7.2.2,0,0,1-.23.16h0a5.22,5.22,0,0,1-2.58-2.13,8.9,8.9,0,0,1-.92-2.82c-.13-.46-.31-1-.43-1.5a13.31,13.31,0,0,1-.25-1.58,7.65,7.65,0,0,1,.33-3.16.15.15,0,0,1,.29,0Z"/><path class="cls-14" d="M92.36,292.69a16.05,16.05,0,0,0,3.76-.87,10.83,10.83,0,0,0,3.14-1.7c.21-.2.41-.39.6-.59l.46-.67c.17-.2.25-.46.41-.66a4.41,4.41,0,0,0,.44-.64c.14-.22.35-.42.49-.67a7.12,7.12,0,0,1,.48-.75,18.1,18.1,0,0,1,1.14-1.72l0,0a.17.17,0,0,1,.24,0l0,.05a5.4,5.4,0,0,1,.27,4.47l-.22.56c-.09.18-.22.33-.33.5a4.64,4.64,0,0,1-.79.9l-.95.71-1,.57a10.64,10.64,0,0,1-4.15,1.16,13.83,13.83,0,0,1-4.09-.3.15.15,0,0,1,0-.3Z"/></g></svg>