<?xml version="1.0" encoding="utf-8"?>
<!-- Generator: Adobe Illustrator 21.1.0, SVG Export Plug-In . SVG Version: 6.00 Build 0)  -->
<svg version="1.1" id="Ebene_1" xmlns="http://www.w3.org/2000/svg" xmlns:xlink="http://www.w3.org/1999/xlink" x="0px" y="0px"
	 viewBox="0 0 200 200" style="enable-background:new 0 0 200 200;" xml:space="preserve">
<style type="text/css">
	.st0{fill:#049CDB;}
	.st1{fill:#66D0FD;}
	.st2{fill:#F0FAFF;}
</style>
<path class="st0" d="M176.5,22.8c-3.2,3.5-5.3,7.9-6.2,12.7c-1.6-0.5-3.3-0.8-5-0.8c-4.7,0-8.8,2.1-11.8,5.3
	c-4.8-5.2-11.6-8.5-19.3-8.5c-0.9,0-1.8,0.1-2.7,0.1c-3.6-10.2-13.3-17.6-24.8-17.6c-11.2,0-20.8,7.1-24.6,17
	c-1.5-4.9-5.9-8.6-11.2-8.8c0-0.6,0.1-1.3,0.1-1.9c0-7.8-3.4-14.7-8.8-19.5L6,33.7v20.7c4.5-4.1,10.8-6.7,17.6-6.7
	c12.4,0,22.8,8.5,25.6,20.1c0.6,0,1.4-0.1,2.1-0.1c0.9,0,2,0.1,3,0.2v-5.8L100.5,35l46.3,27.1v6.6c8.2,2.2,14.9,8.2,17.9,16.1
	c1.5-4.9,6-8.6,11.4-8.8c0-0.6-0.2-1.3-0.2-1.9c0-12.1,7.3-22.2,19.1-25.3v-15L176.5,22.8z"/>
<g>
	<path class="st1" d="M19.3,139.8c1.5-4.9,5.9-8.6,11.3-8.8c0-0.6-0.1-1.3-0.1-1.9c0-13.6,10.4-24.8,23.7-26.2V67.9
		c-0.9-0.1-2-0.2-3-0.2c-0.7,0-1.4,0.1-2.1,0.1c-2.8-11.5-13.2-20.1-25.6-20.1c-6.7,0-13,2.5-17.6,6.7v71
		C12.4,128.4,16.9,133.5,19.3,139.8z"/>
	<path class="st1" d="M175.9,74.1c0,0.6,0.1,1.3,0.2,1.9c-5.3,0.2-9.9,3.8-11.4,8.8c-3-7.8-9.7-13.9-17.9-16.1v47.6l-38.5,22.5
		c0.7,1.7,1.3,3.6,1.7,5.5c1.6-0.5,3.3-0.9,5.1-0.9c4.7,0,8.8,2.1,11.8,5.3c4.8-5.2,11.6-8.5,19.2-8.5c0.9,0,1.7,0.1,2.6,0.1
		c3.6-10.2,13.2-17.6,24.7-17.6c9,0,16.1,4.6,21.6,11.6V48.8C183.2,51.9,175.9,62,175.9,74.1z"/>
</g>
<path class="st2" d="M195,144.6v-10.2c-5.5-7-12.5-11.6-21.6-11.6c-11.5,0-21.1,7.4-24.7,17.6c-0.9-0.1-1.7-0.1-2.6-0.1
	c-7.6,0-14.4,3.3-19.2,8.5c-2.9-3.2-7.1-5.3-11.8-5.3c-1.8,0-3.5,0.3-5.1,0.9c-2.3-12.2-12.9-21.5-25.8-21.5c-0.7,0-1.3,0.1-2,0.1
	c-2.8-11.5-13.1-20.1-25.5-20.1c-14.5,0-26.3,11.8-26.3,26.3c0,0.6,0,1.3,0.1,1.9c-5.3,0.2-9.8,3.9-11.3,8.8
	c-2.4-6.3-6.9-11.5-13.3-14.4v19.1l94.5,55.4L195,144.6z"/>
</svg>
