<?xml version="1.0" encoding="utf-8"?>
<!-- Generator: Adobe Illustrator 24.1.3, SVG Export Plug-In . SVG Version: 6.00 Build 0)  -->
<svg version="1.1" id="Ebene_1" xmlns="http://www.w3.org/2000/svg" xmlns:xlink="http://www.w3.org/1999/xlink" x="0px" y="0px"
	 viewBox="0 0 193 60" style="enable-background:new 0 0 193 60;" xml:space="preserve">
<style type="text/css">
	.st0{fill:#049CDB;}
	.st1{fill:#66D0FD;}
	.st2{fill:#F0FAFF;}
	.st3{fill:#FFFFFF;}
</style>
<g>
	<path class="st0" d="M38.9,13.8c-0.7,0.8-1.2,1.8-1.4,2.9c-0.4-0.1-0.8-0.2-1.1-0.2c-1.1,0-2,0.5-2.7,1.2c-1.1-1.2-2.6-1.9-4.4-1.9
		c-0.2,0-0.4,0-0.6,0c-0.8-2.3-3-4-5.7-4c-2.6,0-4.7,1.6-5.6,3.9c-0.3-1.1-1.3-2-2.6-2c0-0.1,0-0.3,0-0.4c0-1.8-0.8-3.4-2-4.4
		L0,16.3V21c1-0.9,2.5-1.5,4-1.5c2.8,0,5.2,1.9,5.8,4.6c0.1,0,0.3,0,0.5,0c0.2,0,0.5,0,0.7,0v-1.3l10.5-6.2l10.6,6.2v1.5
		c1.9,0.5,3.4,1.9,4.1,3.7c0.3-1.1,1.4-2,2.6-2c0-0.1,0-0.3,0-0.4c0-2.8,1.7-5.1,4.4-5.8v-3.4L38.9,13.8z"/>
	<g>
		<path class="st1" d="M3.1,40.5c0.3-1.1,1.3-2,2.6-2c0-0.1,0-0.3,0-0.4c0-3.1,2.4-5.7,5.4-6v-8c-0.2,0-0.5,0-0.7,0
			c-0.2,0-0.3,0-0.5,0c-0.6-2.6-3-4.6-5.8-4.6c-1.5,0-3,0.6-4,1.5v16.2C1.5,37.9,2.5,39,3.1,40.5z"/>
		<path class="st1" d="M38.8,25.5c0,0.1,0,0.3,0,0.4c-1.2,0-2.3,0.9-2.6,2c-0.7-1.8-2.2-3.2-4.1-3.7v10.9l-8.8,5.1
			c0.2,0.4,0.3,0.8,0.4,1.3c0.4-0.1,0.8-0.2,1.2-0.2c1.1,0,2,0.5,2.7,1.2c1.1-1.2,2.6-1.9,4.4-1.9c0.2,0,0.4,0,0.6,0
			c0.8-2.3,3-4,5.6-4c2.1,0,3.7,1,4.9,2.6V19.7C40.5,20.4,38.8,22.7,38.8,25.5z"/>
	</g>
	<path class="st2" d="M43.1,41.6v-2.3c-1.3-1.6-2.9-2.6-4.9-2.6c-2.6,0-4.8,1.7-5.6,4c-0.2,0-0.4,0-0.6,0c-1.7,0-3.3,0.8-4.4,1.9
		c-0.7-0.7-1.6-1.2-2.7-1.2c-0.4,0-0.8,0.1-1.2,0.2c-0.5-2.8-2.9-4.9-5.9-4.9c-0.2,0-0.3,0-0.5,0c-0.6-2.6-3-4.6-5.8-4.6
		c-3.3,0-6,2.7-6,6c0,0.1,0,0.3,0,0.4c-1.2,0-2.2,0.9-2.6,2c-0.5-1.4-1.6-2.6-3-3.3v4.4l21.6,12.6L43.1,41.6z"/>
</g>
<g>
	<path class="st3" d="M67.6,42c-0.6-1.5-1.2-3.3-1.9-5.3c-0.7-2-1.3-4-1.8-6.2c-0.6,2.1-1.2,4.2-1.8,6.2c-0.7,2-1.3,3.7-1.9,5.3
		h-2.6c-1-2.2-1.9-4.7-2.9-7.5c-0.9-2.8-1.8-5.9-2.7-9.1h3.2c0.2,1,0.5,2.1,0.8,3.3c0.3,1.2,0.6,2.3,0.9,3.5c0.3,1.2,0.7,2.3,1,3.4
		s0.7,2,1,2.8c0.4-1,0.7-2.1,1.1-3.2s0.7-2.2,1-3.4c0.3-1.1,0.6-2.3,0.9-3.4s0.5-2.1,0.8-3.1h2.5c0.2,1,0.4,2,0.7,3.1
		s0.6,2.2,0.9,3.4c0.3,1.1,0.7,2.3,1,3.4s0.7,2.2,1.1,3.2c0.3-0.8,0.7-1.8,1-2.8c0.4-1.1,0.7-2.2,1-3.4c0.3-1.2,0.7-2.3,1-3.5
		c0.3-1.2,0.6-2.3,0.8-3.3h3.1c-0.8,3.3-1.7,6.3-2.7,9.1c-0.9,2.8-1.9,5.3-2.9,7.5H67.6z"/>
	<path class="st3" d="M93.2,33.7c0,1.3-0.2,2.5-0.6,3.6c-0.4,1.1-0.9,2-1.6,2.8c-0.7,0.8-1.5,1.4-2.5,1.8s-2,0.6-3.1,0.6
		c-1.1,0-2.2-0.2-3.1-0.6s-1.8-1-2.5-1.8c-0.7-0.8-1.2-1.7-1.6-2.8c-0.4-1.1-0.6-2.3-0.6-3.6c0-1.3,0.2-2.5,0.6-3.6
		c0.4-1.1,0.9-2,1.6-2.8c0.7-0.8,1.5-1.4,2.5-1.8s2-0.6,3.1-0.6c1.1,0,2.2,0.2,3.1,0.6s1.8,1,2.5,1.8c0.7,0.8,1.2,1.7,1.6,2.8
		C93,31.2,93.2,32.4,93.2,33.7z M90,33.7c0-1.9-0.4-3.4-1.3-4.5c-0.8-1.1-2-1.6-3.4-1.6c-1.5,0-2.6,0.5-3.4,1.6
		c-0.8,1.1-1.3,2.6-1.3,4.5s0.4,3.4,1.3,4.5c0.8,1.1,2,1.6,3.4,1.6c1.5,0,2.6-0.5,3.4-1.6S90,35.6,90,33.7z"/>
	<path class="st3" d="M102.3,42.3c-1.8,0-3.1-0.4-3.9-1.2c-0.8-0.7-1.2-1.9-1.2-3.5v-20l3-0.5v20c0,0.5,0,0.9,0.1,1.2
		c0.1,0.3,0.2,0.6,0.4,0.8s0.4,0.3,0.8,0.4c0.3,0.1,0.7,0.2,1.2,0.2L102.3,42.3z"/>
	<path class="st3" d="M112.1,32.8c0.6,0.5,1.3,1.1,2,1.8c0.7,0.7,1.4,1.5,2.1,2.4c0.7,0.8,1.3,1.7,2,2.6c0.6,0.9,1.1,1.7,1.6,2.4
		h-3.5c-0.4-0.7-1-1.5-1.6-2.3c-0.6-0.8-1.2-1.5-1.8-2.2s-1.3-1.4-2-2c-0.7-0.6-1.3-1.1-1.9-1.5v8h-3V17.7l3-0.5v15.2
		c0.5-0.5,1.1-1.1,1.7-1.7c0.6-0.6,1.2-1.2,1.8-1.9c0.6-0.6,1.2-1.3,1.7-1.8c0.5-0.6,1-1.1,1.4-1.6h3.5c-0.5,0.5-1,1.1-1.6,1.8
		c-0.6,0.6-1.2,1.3-1.8,1.9c-0.6,0.7-1.2,1.3-1.9,2C113.2,31.7,112.7,32.3,112.1,32.8z"/>
	<path class="st3" d="M121,33.7c0-1.5,0.2-2.8,0.6-3.9c0.4-1.1,1-2,1.7-2.7c0.7-0.7,1.5-1.3,2.4-1.6c0.9-0.4,1.9-0.5,2.8-0.5
		c2.2,0,4,0.7,5.2,2.1c1.2,1.4,1.8,3.5,1.8,6.4c0,0.1,0,0.3,0,0.5c0,0.2,0,0.4,0,0.6h-11.4c0.1,1.7,0.6,3,1.5,3.9
		c0.9,0.9,2.2,1.3,4.1,1.3c1,0,1.9-0.1,2.6-0.3c0.7-0.2,1.3-0.4,1.6-0.5l0.4,2.5c-0.4,0.2-1,0.4-1.9,0.6c-0.9,0.2-1.9,0.3-3.1,0.3
		c-1.5,0-2.7-0.2-3.8-0.7c-1.1-0.4-1.9-1-2.6-1.8c-0.7-0.8-1.2-1.7-1.5-2.7C121.2,36.1,121,35,121,33.7z M132.4,32.1
		c0-1.3-0.3-2.4-1-3.3c-0.7-0.9-1.6-1.3-2.9-1.3c-0.7,0-1.3,0.1-1.8,0.4c-0.5,0.3-1,0.6-1.3,1s-0.6,0.9-0.8,1.5
		c-0.2,0.6-0.3,1.1-0.4,1.7H132.4z"/>
	<path class="st3" d="M139.8,25.8c0.7-0.2,1.6-0.4,2.7-0.5s2.4-0.3,3.9-0.3c1.3,0,2.4,0.2,3.3,0.6c0.9,0.4,1.6,0.9,2.1,1.6
		c0.5,0.7,0.9,1.5,1.1,2.4c0.2,0.9,0.3,2,0.3,3.1V42h-3v-8.7c0-1-0.1-1.9-0.2-2.6c-0.1-0.7-0.4-1.3-0.7-1.8c-0.3-0.4-0.7-0.8-1.3-1
		c-0.5-0.2-1.2-0.3-2-0.3c-0.3,0-0.7,0-1,0c-0.3,0-0.7,0-1,0.1c-0.3,0-0.6,0.1-0.8,0.1c-0.2,0-0.4,0.1-0.5,0.1v14h-3V25.8z"/>
	<path class="st0" d="M164.2,32.8c0.6,0.5,1.3,1.1,2,1.8c0.7,0.7,1.4,1.5,2.1,2.4c0.7,0.8,1.3,1.7,2,2.6c0.6,0.9,1.1,1.7,1.6,2.4
		h-3.5c-0.4-0.7-1-1.5-1.6-2.3c-0.6-0.8-1.2-1.5-1.8-2.2s-1.3-1.4-2-2c-0.7-0.6-1.3-1.1-1.9-1.5v8h-3V17.7l3-0.5v15.2
		c0.5-0.5,1.1-1.1,1.7-1.7c0.6-0.6,1.2-1.2,1.8-1.9c0.6-0.6,1.2-1.3,1.7-1.8c0.5-0.6,1-1.1,1.4-1.6h3.5c-0.5,0.5-1,1.1-1.6,1.8
		c-0.6,0.6-1.2,1.3-1.8,1.9c-0.6,0.7-1.2,1.3-1.9,2C165.4,31.7,164.8,32.3,164.2,32.8z"/>
	<path class="st0" d="M176.4,22.3c-0.5,0-1-0.2-1.4-0.5c-0.4-0.4-0.6-0.8-0.6-1.4c0-0.6,0.2-1.1,0.6-1.4c0.4-0.4,0.8-0.5,1.4-0.5
		c0.5,0,1,0.2,1.4,0.5c0.4,0.4,0.6,0.8,0.6,1.4c0,0.6-0.2,1.1-0.6,1.4C177.4,22.2,176.9,22.3,176.4,22.3z M177.9,42h-3V25.4h3V42z"
		/>
	<path class="st0" d="M185.8,25.4h6.3v2.5h-6.3v7.7c0,0.8,0.1,1.5,0.2,2.1s0.3,1,0.6,1.3c0.3,0.3,0.6,0.5,1,0.7
		c0.4,0.1,0.8,0.2,1.3,0.2c0.9,0,1.6-0.1,2.2-0.3c0.5-0.2,0.9-0.3,1.1-0.4l0.6,2.5c-0.3,0.1-0.8,0.3-1.6,0.6
		c-0.7,0.2-1.6,0.3-2.6,0.3c-1.1,0-2.1-0.1-2.8-0.4c-0.7-0.3-1.3-0.7-1.8-1.3c-0.4-0.6-0.8-1.3-0.9-2.1c-0.2-0.8-0.3-1.8-0.3-2.9
		V20.7l3-0.5V25.4z"/>
</g>
</svg>
